<?xml version="1.0" encoding="utf-8"?>
<!-- Generator: Adobe Illustrator 21.0.0, SVG Export Plug-In . SVG Version: 6.00 Build 0)  -->
<svg version="1.1" xmlns="http://www.w3.org/2000/svg" xmlns:xlink="http://www.w3.org/1999/xlink" x="0px" y="0px"
	 viewBox="0 0 164.7 165.4" style="enable-background:new 0 0 164.7 165.4;" xml:space="preserve">
<style type="text/css">
	.st0{fill:#FFD635;}
	.st1{fill:#F7B523;}
	.st2{fill:#FFEF57;}
	.st3{fill:#943436;}
	.st4{clip-path:url(#SVGID_2_);fill:#F74F5C;}
	.st5{fill:#F74F5C;}
	.st6{fill:#D82A3F;}
	.st7{fill:#E59D0E;}
	.st8{fill:#02BEFF;}
	.st9{fill:#0090F2;}
	.st10{fill:#FFFFFF;}
	.st11{fill:#534741;}
	.st12{fill:#F9747E;}
	.st13{clip-path:url(#SVGID_4_);}
	.st14{fill:#E44C5F;}
	.st15{fill:#706661;}
	.st16{fill:#E20E46;}
	.st17{clip-path:url(#SVGID_6_);fill:#5FA5E1;}
	.st18{clip-path:url(#SVGID_8_);fill:#F74F5C;}
	.st19{clip-path:url(#SVGID_10_);fill:#F74F5C;}
	.st20{fill:#0083EF;}
	.st21{clip-path:url(#SVGID_12_);fill:#F74F5C;}
	.st22{clip-path:url(#SVGID_14_);}
	.st23{fill:#AAAAAA;}
	.st24{fill:#FFA926;}
	.st25{clip-path:url(#SVGID_16_);}
	.st26{fill:#5FA5E1;}
	.st27{clip-path:url(#SVGID_18_);fill:#FFFFFF;}
	.st28{fill:url(#SVGID_19_);}
	.st29{fill:url(#SVGID_20_);}
	.st30{fill:url(#SVGID_21_);}
	.st31{fill:url(#SVGID_22_);}
	.st32{fill:url(#SVGID_23_);}
	.st33{fill:url(#SVGID_24_);}
	.st34{fill:url(#SVGID_25_);}
	.st35{fill:url(#SVGID_26_);}
	.st36{clip-path:url(#SVGID_28_);}
	.st37{fill:#85C459;}
	.st38{fill:#9563CE;}
	.st39{fill:#B681EB;}
	.st40{fill:#453854;}
	.st41{fill:#F4602C;}
	.st42{fill:#D3461A;}
	.st43{fill:#443731;}
</style>
<g id="Laugh">
</g>
<g id="Love_Eyes">
</g>
<g id="Tear">
</g>
<g id="Freak">
</g>
<g id="Sunglasses">
</g>
<g id="Love_Sunglasses">
</g>
<g id="Crying">
</g>
<g id="Wink">
</g>
<g id="Surprise">
</g>
<g id="Laugh_tears">
</g>
<g id="Upset">
</g>
<g id="Kiss">
</g>
<g id="Sad">
</g>
<g id="Shy_Smile">
</g>
<g id="Big_Grin">
</g>
<g id="Look_Up">
</g>
<g id="Smile">
</g>
<g id="Smile_Tear">
</g>
<g id="Startled">
	<g>
		<g>
			<g>
				<path class="st0" d="M164.7,82.1c0,11.1-1,22.2-5,31.8c-4.2,10-11.8,18.1-19.4,25.7c-7.6,7.6-16.5,13.1-26.6,17.2
					c-9.7,4-19.8,8.7-30.9,8.7c-11.1,0-21.7-3.6-31.4-7.6c-10-4.2-18.4-10.8-26-18.4c-7.6-7.6-13.8-16.2-17.9-26.2
					C3.5,103.6,0,93.2,0,82.1c0-11.1,2.3-22,6.3-31.7c4.2-10,11.3-18.4,18.9-26c7.6-7.6,16.2-14.1,26.2-18.2C61,2.2,71.7,0,82.8,0
					s21.4,3,31.1,7c10,4.2,20.1,8.7,27.7,16.3s11.7,17.8,15.8,27.9C161.4,60.8,164.7,70.9,164.7,82.1z"/>
				<g>
					<path class="st1" d="M100.5,154.7c-10.5,0-20.5-3.4-29.6-7.2c-9.4-3.9-17.4-10.2-24.5-17.3c-7.1-7.1-13-15.2-16.9-24.7
						c-3.8-9.1-7-18.9-7-29.4s2.1-20.8,5.9-29.9c3.9-9.4,10.7-17.4,17.8-24.5c7.1-7.1,15.3-13.3,24.7-17.2c4.8-2,9.9-3.5,15.1-4.5
						C84.9,0,83.8,0,82.8,0C71.7,0,61,2.2,51.4,6.2c-10,4.2-18.7,10.7-26.2,18.2c-7.6,7.6-14.7,15.9-18.9,26C2.3,60,0,70.9,0,82.1
						c0,11.1,3.5,21.5,7.5,31.2c4.2,10,10.4,18.6,17.9,26.2c7.6,7.6,16,14.2,26,18.4c9.7,4,20.3,7.6,31.4,7.6s21.3-4.7,30.9-8.7
						c8-3.3,15.3-7.5,21.7-12.9c-1.9,0.9-3.8,1.8-5.8,2.7C120.5,150.4,111,154.7,100.5,154.7z"/>
				</g>
			</g>
			<path class="st2" d="M69.6,21.4c0,0,0.6-0.5,1.7-1.2c1.1-0.7,2.6-1.7,4.6-2.7c2-1,4.4-2,7.2-2.7c2.7-0.8,5.8-1.2,8.9-1.2h1.2
				l1.1,0c0.7,0,1.5,0.1,2.3,0.1c0.7,0.1,1.5,0.2,2.2,0.3c0.7,0.1,1.4,0.3,2.1,0.4c1.4,0.3,2.7,0.7,3.9,1.2c1.2,0.5,2.3,1,3.3,1.6
				c2,1.1,3.5,2.4,4.4,3.4c0.5,0.5,0.8,0.9,1.1,1.2c0.2,0.3,0.4,0.5,0.4,0.5s-0.8,0.2-2.2,0.3c-0.7,0.1-1.5,0.1-2.4,0.1
				c-0.9,0-1.9,0-2.9,0c-1.1,0-2.2-0.1-3.3-0.2c-1.2-0.1-2.4-0.2-3.6-0.4c-0.6-0.1-1.3-0.2-1.9-0.3c-0.6-0.1-1.3-0.2-1.9-0.3
				c-0.7-0.1-1.3-0.2-1.9-0.3l-1.1-0.2c-0.3-0.1-0.6-0.1-0.9-0.1c-5.1-0.7-10.6-0.4-14.8,0c-2.1,0.2-3.9,0.3-5.2,0.4
				c-0.6,0-1.1,0.1-1.5,0.1C69.8,21.3,69.6,21.4,69.6,21.4z"/>
		</g>
		<path class="st3" d="M54,111.1c0,0,0.3-0.1,0.9-0.2c0.6-0.1,1.5-0.2,2.6-0.3c1.1-0.1,2.4-0.3,4-0.4c1.6-0.1,3.5-0.2,5.4-0.3
			c2,0,3.7,0,5.7-0.3c0.9-0.1,2.1-0.3,3.5-0.5c1.3-0.1,2.7-0.2,4-0.2c0.7,0,1.3,0,2,0.1c0.6,0,1.3,0.1,1.9,0.1
			c1.3,0.1,2.6,0.2,3.9,0.3c1.3,0.1,2.5,0.2,3.8,0.3c1.3,0.1,2.5,0.1,3.8,0.2c2.6,0.1,5.4,0.2,7.9,0.4c2.5,0.2,4.9,0.2,7.3,0.2
			c2.3,0,4.4-0.2,6.8-0.4c2.4-0.2,4.6-0.2,6.6-0.2c3.9,0,7.1-0.1,9.4-0.1c2.3,0,3.6-0.1,3.6-0.1c1.9,0,3.5,1.5,3.6,3.4
			c0,1.9-1.5,3.5-3.4,3.6c0,0-0.1,0-0.1,0l0,0c0,0-1.3,0-3.6-0.1c-2.3,0-5.5,0-9.4,0c-2,0-3.9,0-6,0.2c-1.1,0.1-2.3,0.2-3.5,0.3
			c-1.3,0.1-2.5,0.2-3.8,0.2c-2.5,0.1-5.1,0-7.7-0.1c-2.6-0.1-5-0.2-7.6-0.1c-2.6,0.1-5.4,0.1-7.9,0.1c-1.3,0-2.5,0-3.7,0.1
			c-0.6,0-1.2,0-1.8,0.1c-0.6,0-1.2,0.1-1.7,0.1c-2.3,0.1-3.9,0.5-6.5,1c-2.5,0.4-5,0.5-6.9,0.4c-1.9,0-3.6-0.1-5.2-0.1
			c-1.6,0-3-0.1-4.2-0.2c-1.2-0.1-2.1-0.2-2.7-0.3c-0.6-0.1-0.9-0.1-0.9-0.1c-1.9-0.3-3.3-2.1-2.9-4.1
			C51.3,112.5,52.6,111.4,54,111.1z"/>
		<g>
			<path class="st1" d="M109.2,135.1c0,0-0.1,0-0.3,0.1c-0.2,0-0.4,0.1-0.6,0.2c-0.6,0.2-1.3,0.4-2.2,0.6c-0.9,0.2-1.9,0.3-3,0.5
				c-0.6,0.1-1.1,0.1-1.9,0.1c-0.7,0-1.4,0.1-2.1,0.1c-2.8,0.1-5.6,0-7.8-0.2c-1.1-0.1-2-0.3-2.6-0.3c-0.6-0.1-1-0.2-1-0.2l-0.1,0
				c-1.9-0.5-3.1-2.4-2.6-4.2c0.2-0.9,0.8-1.7,1.5-2.1c0,0,1.4-0.9,3.6-1.7c2.2-0.8,5.2-1.6,8.2-1.9c0.7-0.1,1.5-0.2,2.2-0.2
				c0.7,0,1.6-0.1,2.4,0c1.6,0.1,3.2,0.4,4.5,0.9c1.3,0.5,2.3,1.1,3,1.6c0.3,0.3,0.7,0.5,0.8,0.6c0.1,0.1,0.2,0.2,0.2,0.2
				c1.3,1.8,0.8,4.4-1,5.7C110,134.8,109.6,135,109.2,135.1z"/>
		</g>
		<g>
			<path class="st1" d="M85.4,72.5c-0.6,2.8-1.8,5.5-3.2,7.8c-1.4,2.4-4,4-6,5.7c-2.1,1.8-4.2,3.6-6.7,4.7c-2.5,1.1-5.3,1.3-8,1.6
				c-2.7,0.2-5.3-0.3-8-1c-2.8-0.6-5.4-1.1-7.7-2.5c-2.4-1.4-4.7-3-6.5-5.1c-1.8-2.1-3.2-4.6-4.3-7.1c-1.1-2.5-0.8-5.3-1.1-8.1
				c-0.2-2.7-0.4-5.3,0.3-8c0.6-2.8,1.2-5.5,2.6-7.8c1.4-2.4,3.3-4.5,5.3-6.3c2.1-1.8,4.7-2.9,7.2-3.9c2.5-1.1,5-2.7,7.8-2.9
				c2.7-0.2,5.3,1.3,8.1,1.9c2.8,0.6,5.6,0.8,7.9,2.2c2.4,1.4,4.9,3,6.7,5c1.8,2.1,2.6,5,3.7,7.5c1.1,2.5,1.6,5.2,1.9,7.9
				C85.4,66.8,86,69.7,85.4,72.5z"/>
			<path class="st10" d="M82.3,65.8c0,2.4-0.4,4.8-1.1,7c-0.7,2.2-2.5,4-3.8,5.8c-1.4,1.9-2.8,3.7-4.6,5.1c-1.8,1.3-4.1,2.1-6.3,2.8
				c-2.1,0.7-4.4,0.7-6.7,0.7c-2.4,0-4.7,0.1-6.8-0.5c-2.2-0.7-4.5-1.6-6.3-2.9c-1.9-1.4-3.5-3.1-4.9-5c-1.3-1.8-1.7-4.2-2.4-6.4
				c-0.7-2.1-1.3-4.3-1.3-6.6c0-2.4,0-4.7,0.6-6.8c0.7-2.2,1.8-4.3,3.1-6.2c1.4-1.9,3.3-3.2,5.1-4.6c1.8-1.3,3.6-3.2,5.8-3.9
				c2.1-0.7,4.6,0,7,0c2.4,0,4.7-0.4,6.9,0.3c2.2,0.7,4.6,1.5,6.4,2.8c1.9,1.4,3.1,3.6,4.4,5.4c1.3,1.8,2.3,3.9,3.1,6.1
				C81.2,61.2,82.3,63.5,82.3,65.8z"/>
			<path class="st11" d="M67.5,65.8c0,4.3-3.4,7.7-7.7,7.7c-4.3,0-7.7-3.4-7.7-7.7c0-4.3,3.4-7.7,7.7-7.7c3,0-0.1,4.8,1.3,6.1
				C62.5,65.6,67.5,62.8,67.5,65.8z"/>
		</g>
		<g>
			<path class="st1" d="M154.3,72.5c-0.6,2.8-1.8,5.5-3.2,7.8c-1.4,2.4-4,4-6,5.7c-2.1,1.8-4.2,3.6-6.7,4.7c-2.5,1.1-5.3,1.3-8,1.6
				c-2.7,0.2-5.3-0.3-8-1c-2.8-0.6-5.4-1.1-7.7-2.5c-2.4-1.4-4.7-3-6.5-5.1c-1.8-2.1-3.2-4.6-4.3-7.1c-1.1-2.5-0.8-5.3-1.1-8.1
				c-0.2-2.7-0.4-5.3,0.3-8c0.6-2.8,1.2-5.5,2.6-7.8c1.4-2.4,3.3-4.5,5.3-6.3c2.1-1.8,4.7-2.9,7.2-3.9c2.5-1.1,5-2.7,7.8-2.9
				c2.7-0.2,5.3,1.3,8.1,1.9c2.8,0.6,5.6,0.8,7.9,2.2c2.4,1.4,4.9,3,6.7,5c1.8,2.1,2.6,5,3.7,7.5c1.1,2.5,1.6,5.2,1.9,7.9
				C154.3,66.8,154.9,69.7,154.3,72.5z"/>
			<path class="st10" d="M151.2,65.8c0,2.4-0.4,4.8-1.1,7c-0.7,2.2-2.5,4-3.8,5.8c-1.4,1.9-2.8,3.7-4.6,5.1
				c-1.8,1.3-4.1,2.1-6.3,2.8c-2.1,0.7-4.4,0.7-6.7,0.7c-2.4,0-4.7,0.1-6.8-0.5c-2.2-0.7-4.5-1.6-6.3-2.9c-1.9-1.4-3.5-3.1-4.9-5
				c-1.3-1.8-1.7-4.2-2.4-6.4c-0.7-2.1-1.3-4.3-1.3-6.6c0-2.4,0-4.7,0.6-6.8c0.7-2.2,1.8-4.3,3.1-6.2c1.4-1.9,3.3-3.2,5.1-4.6
				c1.8-1.3,3.6-3.2,5.8-3.9c2.1-0.7,4.6,0,7,0c2.4,0,4.7-0.4,6.9,0.3c2.2,0.7,4.6,1.5,6.4,2.8c1.9,1.4,3.1,3.6,4.4,5.4
				c1.3,1.8,2.3,3.9,3.1,6.1C150.1,61.2,151.2,63.5,151.2,65.8z"/>
			<path class="st11" d="M136.3,65.8c0,4.3-3.4,7.7-7.7,7.7c-4.3,0-7.7-3.4-7.7-7.7c0-4.3,3.4-7.7,7.7-7.7c3,0-0.1,4.8,1.3,6.1
				C131.4,65.6,136.3,62.8,136.3,65.8z"/>
		</g>
	</g>
</g>
<g id="KO">
</g>
<g id="Disgusted">
</g>
<g id="Desperate">
</g>
<g id="Very_sad">
</g>
<g id="Serious">
</g>
<g id="Big_Smile">
</g>
<g id="Deep_Sad">
</g>
<g id="Sleeping">
</g>
<g id="Crying_Loud">
</g>
<g id="Sick">
</g>
<g id="Relieved">
</g>
<g id="Sad_Tear">
</g>
<g id="Sad_Surprise">
</g>
<g id="Vomit">
</g>
<g id="Devil_Angry">
</g>
<g id="Davil_Smile">
</g>
<g id="Angry">
</g>
</svg>
