<?xml version="1.0" encoding="utf-8"?>
<!-- Generator: Adobe Illustrator 21.0.0, SVG Export Plug-In . SVG Version: 6.00 Build 0)  -->
<svg version="1.1" xmlns="http://www.w3.org/2000/svg" xmlns:xlink="http://www.w3.org/1999/xlink" x="0px" y="0px"
	 viewBox="0 0 164.7 176.1" style="enable-background:new 0 0 164.7 176.1;" xml:space="preserve">
<style type="text/css">
	.st0{fill:#FFD635;}
	.st1{fill:#F7B523;}
	.st2{fill:#FFEF57;}
	.st3{fill:#943436;}
	.st4{clip-path:url(#SVGID_2_);fill:#F74F5C;}
	.st5{fill:#F74F5C;}
	.st6{fill:#D82A3F;}
	.st7{fill:#E59D0E;}
	.st8{fill:#02BEFF;}
	.st9{fill:#0090F2;}
	.st10{fill:#FFFFFF;}
	.st11{fill:#534741;}
	.st12{fill:#F9747E;}
	.st13{clip-path:url(#SVGID_4_);}
	.st14{fill:#E44C5F;}
	.st15{fill:#706661;}
	.st16{fill:#E20E46;}
	.st17{clip-path:url(#SVGID_6_);fill:#5FA5E1;}
	.st18{clip-path:url(#SVGID_8_);fill:#F74F5C;}
	.st19{clip-path:url(#SVGID_10_);fill:#F74F5C;}
	.st20{fill:#0083EF;}
	.st21{clip-path:url(#SVGID_12_);fill:#F74F5C;}
	.st22{clip-path:url(#SVGID_14_);}
	.st23{fill:#AAAAAA;}
	.st24{fill:#FFA926;}
	.st25{clip-path:url(#SVGID_16_);}
	.st26{fill:#5FA5E1;}
	.st27{clip-path:url(#SVGID_18_);fill:#FFFFFF;}
	.st28{fill:url(#SVGID_19_);}
	.st29{fill:url(#SVGID_20_);}
	.st30{fill:url(#SVGID_21_);}
	.st31{fill:url(#SVGID_22_);}
	.st32{fill:url(#SVGID_23_);}
	.st33{fill:url(#SVGID_24_);}
	.st34{fill:url(#SVGID_25_);}
	.st35{fill:url(#SVGID_26_);}
	.st36{clip-path:url(#SVGID_28_);}
	.st37{fill:#85C459;}
	.st38{fill:#9563CE;}
	.st39{fill:#B681EB;}
	.st40{fill:#453854;}
	.st41{fill:#F4602C;}
	.st42{fill:#D3461A;}
	.st43{fill:#443731;}
</style>
<g id="Laugh">
</g>
<g id="Love_Eyes">
</g>
<g id="Tear">
</g>
<g id="Freak">
</g>
<g id="Sunglasses">
</g>
<g id="Love_Sunglasses">
</g>
<g id="Crying">
</g>
<g id="Wink">
</g>
<g id="Surprise">
</g>
<g id="Laugh_tears">
</g>
<g id="Upset">
</g>
<g id="Kiss">
</g>
<g id="Sad">
</g>
<g id="Shy_Smile">
</g>
<g id="Big_Grin">
</g>
<g id="Look_Up">
</g>
<g id="Smile">
</g>
<g id="Smile_Tear">
</g>
<g id="Startled">
</g>
<g id="KO">
</g>
<g id="Disgusted">
</g>
<g id="Desperate">
</g>
<g id="Very_sad">
</g>
<g id="Serious">
</g>
<g id="Big_Smile">
</g>
<g id="Deep_Sad">
</g>
<g id="Sleeping">
</g>
<g id="Crying_Loud">
</g>
<g id="Sick">
</g>
<g id="Relieved">
</g>
<g id="Sad_Tear">
</g>
<g id="Sad_Surprise">
</g>
<g id="Vomit">
</g>
<g id="Devil_Angry">
</g>
<g id="Davil_Smile">
	<g>
		<g>
			<g>
				<path class="st38" d="M40.7,26.7c-0.5,0-1-0.1-1.6-0.2c-0.6-0.1-1.3-0.3-2.1-0.5c-0.8-0.2-1.6-0.5-2.5-0.8
					c-0.5-0.2-0.9-0.4-1.3-0.6c-0.5-0.2-0.9-0.4-1.4-0.7c-0.9-0.5-1.9-1.1-2.8-1.7c-1-0.7-1.9-1.4-2.8-2.3c-0.9-0.9-1.8-1.8-2.6-2.8
					c-0.8-1-1.6-2-2.3-3.1c-0.7-1.1-1.3-2.2-1.9-3.2c-0.6-1.1-1-2.1-1.4-3.1c-0.8-2-1.4-3.8-1.7-5c-0.3-1.3-0.5-2-0.5-2
					c0-0.2-0.1-0.3-0.3-0.5c-0.3-0.2-0.8-0.2-1,0.1l-0.1,0.1c0,0,0,0-0.1,0.1c-0.1,0.1-0.2,0.2-0.3,0.4c-0.2,0.3-0.6,0.8-1,1.5
					c-0.4,0.6-0.8,1.4-1.3,2.4c-0.5,0.9-1,2-1.5,3.3c-0.5,1.2-1,2.6-1.4,4.1c-0.4,1.5-0.8,3.1-1,4.8c-0.2,1.7-0.5,3.5-0.5,5.4
					c0,1.9,0.1,3.8,0.3,5.8c0.3,2,0.6,4,1.1,5.9c0.3,1,0.5,2,0.9,2.9c0.3,1,0.7,1.9,1.1,2.8c0.4,0.9,0.8,1.8,1.2,2.7
					c0.4,0.9,0.9,1.7,1.3,2.5c0.9,1.6,1.9,3.1,2.8,4.4c0,0,2,3.1,14.3-8.4C42.7,29.4,40.7,26.7,40.7,26.7z"/>
				<path class="st38" d="M128.5,26.7c0.5,0,1-0.1,1.6-0.2c0.6-0.1,1.3-0.3,2.1-0.5c0.8-0.2,1.6-0.5,2.5-0.8
					c0.5-0.2,0.9-0.4,1.3-0.6c0.5-0.2,0.9-0.4,1.4-0.7c0.9-0.5,1.9-1.1,2.8-1.7c1-0.7,1.9-1.4,2.8-2.3c0.9-0.9,1.8-1.8,2.6-2.8
					c0.8-1,1.6-2,2.3-3.1c0.7-1.1,1.3-2.2,1.9-3.2c0.6-1.1,1-2.1,1.4-3.1c0.8-2,1.4-3.8,1.7-5c0.3-1.3,0.5-2,0.5-2
					c0-0.2,0.1-0.3,0.3-0.5c0.3-0.2,0.8-0.2,1,0.1l0.1,0.1c0,0,0,0,0.1,0.1c0.1,0.1,0.2,0.2,0.3,0.4c0.2,0.3,0.6,0.8,1,1.5
					c0.4,0.6,0.8,1.4,1.3,2.4c0.5,0.9,1,2,1.5,3.3c0.5,1.2,1,2.6,1.4,4.1c0.4,1.5,0.8,3.1,1,4.8c0.2,1.7,0.5,3.5,0.5,5.4
					c0,1.9-0.1,3.8-0.3,5.8c-0.3,2-0.6,4-1.1,5.9c-0.3,1-0.5,2-0.9,2.9c-0.3,1-0.7,1.9-1.1,2.8c-0.4,0.9-0.8,1.8-1.2,2.7
					c-0.4,0.9-0.9,1.7-1.3,2.5c-0.9,1.6-1.9,3.1-2.8,4.4c0,0-2,3.1-14.3-8.4C126.5,29.4,128.5,26.7,128.5,26.7z"/>
			</g>
			<g>
				<path class="st39" d="M164.7,92.7c0,11.1-1,22.2-5,31.8c-4.2,10-11.8,18.1-19.4,25.7c-7.6,7.6-16.5,13.1-26.6,17.2
					c-9.7,4-19.8,8.7-30.9,8.7c-11.1,0-21.7-3.6-31.4-7.6c-10-4.2-18.4-10.8-26-18.4c-7.6-7.6-13.8-16.2-17.9-26.2
					c-4-9.7-7.5-20.1-7.5-31.2c0-11.1,2.3-22,6.3-31.7c4.2-10,11.3-18.4,18.9-26c7.6-7.6,16.2-14.1,26.2-18.2
					c9.7-4,20.3-6.2,31.4-6.2s21.4,3,31.1,7c10,4.2,20.1,8.7,27.7,16.3c7.6,7.6,11.7,17.8,15.8,27.9
					C161.4,71.5,164.7,81.6,164.7,92.7z"/>
				<g>
					<path class="st38" d="M100.5,165.4c-10.5,0-20.5-3.4-29.6-7.2c-9.4-3.9-17.4-10.2-24.5-17.3c-7.1-7.1-13-15.2-16.9-24.7
						c-3.8-9.1-7-18.9-7-29.4c0-10.5,2.1-20.8,5.9-29.9c3.9-9.4,10.7-17.4,17.8-24.5c7.1-7.1,15.3-13.3,24.7-17.2
						c4.8-2,9.9-3.5,15.1-4.5c-1-0.1-2.1-0.1-3.1-0.1c-11.1,0-21.8,2.2-31.4,6.2c-10,4.2-18.7,10.7-26.2,18.2
						C17.6,42.6,10.4,51,6.3,61C2.3,70.7,0,81.6,0,92.7c0,11.1,3.5,21.5,7.5,31.2c4.2,10,10.4,18.6,17.9,26.2
						c7.6,7.6,16,14.2,26,18.4c9.7,4,20.3,7.6,31.4,7.6s21.3-4.7,30.9-8.7c8-3.3,15.3-7.5,21.7-12.9c-1.9,0.9-3.8,1.8-5.8,2.7
						C120.5,161,111,165.4,100.5,165.4z"/>
				</g>
			</g>
		</g>
		<g>
			<g>
				<g>
					<path class="st40" d="M93.9,140.5c-12,0-23.1-4.8-31.4-13.5c-1.5-1.6-1.4-4.1,0.2-5.7c1.6-1.5,4.1-1.4,5.7,0.2
						c6.7,7.1,15.8,11,25.6,11c2.2,0,4,1.8,4,4C97.9,138.8,96.1,140.5,93.9,140.5z"/>
				</g>
			</g>
			<g>
				<g>
					<path class="st40" d="M93.9,140.5c-2.2,0-4-1.8-4-4c0-2.2,1.8-4,4-4c9.8,0,18.9-3.9,25.6-11c1.5-1.6,4-1.7,5.7-0.2
						c1.6,1.5,1.7,4,0.2,5.7C117.1,135.7,105.9,140.5,93.9,140.5z"/>
				</g>
			</g>
		</g>
		<g>
			<g>
				<path class="st38" d="M76.5,84.2c0,1.9-0.2,3.7-0.8,5.3c-0.7,1.7-2,3-3.2,4.3c-1.3,1.3-2.8,2.2-4.4,2.9
					c-1.6,0.7-3.3,1.4-5.2,1.4c-1.9,0-3.6-0.6-5.2-1.3c-1.7-0.7-3.1-1.8-4.3-3.1c-1.3-1.3-2.3-2.7-3-4.4c-0.7-1.6-1.2-3.3-1.2-5.2
					c0-1.9,0.4-3.7,1-5.3c0.7-1.7,1.9-3.1,3.1-4.3c1.3-1.3,2.7-2.3,4.4-3c1.6-0.7,3.4-1,5.2-1c1.9,0,3.6,0.5,5.2,1.2
					c1.7,0.7,3.4,1.5,4.6,2.7c1.3,1.3,1.9,3,2.6,4.6C75.9,80.7,76.5,82.4,76.5,84.2z"/>
			</g>
			<path class="st38" d="M141.3,84.2c0,1.9-0.2,3.7-0.8,5.3c-0.7,1.7-2,3-3.2,4.3c-1.3,1.3-2.8,2.2-4.4,2.9
				c-1.6,0.7-3.3,1.4-5.2,1.4c-1.9,0-3.6-0.6-5.2-1.3c-1.7-0.7-3.1-1.8-4.3-3.1s-2.3-2.7-3-4.4c-0.7-1.6-1.2-3.3-1.2-5.2
				c0-1.9,0.4-3.7,1-5.3c0.7-1.7,1.9-3.1,3.1-4.3c1.3-1.3,2.7-2.3,4.4-3c1.6-0.7,3.4-1,5.2-1c1.9,0,3.6,0.5,5.2,1.2
				c1.7,0.7,3.4,1.5,4.6,2.7c1.3,1.3,1.9,3,2.6,4.6C140.8,80.7,141.3,82.4,141.3,84.2z"/>
		</g>
		<path class="st38" d="M44.5,54.3l32.9-1.9c2.2-0.1,4.1,1.6,4.2,3.8c0.1,2.2-1.6,4.1-3.8,4.2c-0.1,0-0.3,0-0.4,0l-33-1.2
			c-1.3-0.1-2.4-1.2-2.3-2.5C42.2,55.4,43.2,54.4,44.5,54.3z"/>
		<path class="st38" d="M144.3,59.2l-33,1.2c-2.2,0.1-4.1-1.6-4.2-3.9c-0.1-2.2,1.6-4.1,3.9-4.2c0.1,0,0.3,0,0.4,0l32.9,1.9
			c1.3,0.1,2.4,1.2,2.3,2.6C146.6,58.1,145.5,59.1,144.3,59.2z"/>
		<g>
			<path class="st40" d="M73.6,80.6c0,1.5-0.1,2.9-0.7,4.2c-0.5,1.3-1.6,2.4-2.6,3.4c-1,1-2.2,1.7-3.5,2.3c-1.3,0.5-2.6,1.1-4.1,1.1
				c-1.5,0-2.9-0.5-4.1-1c-1.3-0.5-2.4-1.4-3.4-2.4c-1-1-1.8-2.1-2.4-3.5c-0.5-1.3-1-2.7-1-4.1s0.3-2.9,0.8-4.2
				c0.5-1.3,1.5-2.4,2.5-3.4c1-1,2.1-1.9,3.5-2.4c1.3-0.5,2.7-0.8,4.1-0.8c1.5,0,2.8,0.4,4.1,0.9c1.3,0.5,2.7,1.1,3.7,2.1
				c1,1,1.5,2.4,2.1,3.7C73.2,77.8,73.6,79.1,73.6,80.6z"/>
		</g>
		<path class="st40" d="M138.5,80.6c0,1.5-0.1,2.9-0.7,4.2c-0.5,1.3-1.6,2.4-2.6,3.4c-1,1-2.2,1.7-3.5,2.3c-1.3,0.5-2.6,1.1-4.1,1.1
			c-1.5,0-2.9-0.5-4.1-1c-1.3-0.5-2.4-1.4-3.4-2.4c-1-1-1.8-2.1-2.4-3.5c-0.5-1.3-1-2.7-1-4.1s0.3-2.9,0.8-4.2
			c0.5-1.3,1.5-2.4,2.5-3.4c1-1,2.1-1.9,3.5-2.4c1.3-0.5,2.7-0.8,4.1-0.8c1.5,0,2.8,0.4,4.1,0.9c1.3,0.5,2.7,1.1,3.7,2.1
			c1,1,1.5,2.4,2.1,3.7C138,77.8,138.5,79.1,138.5,80.6z"/>
	</g>
</g>
<g id="Angry">
</g>
</svg>
