<svg xmlns="http://www.w3.org/2000/svg" xmlns:xlink="http://www.w3.org/1999/xlink" viewBox="0 0 187.1 169.4"><style>.st3{fill:#943436}.st7{fill:#e59d0e}.st8{fill:#02beff}.st20{fill:#0083ef}</style><g id="Laugh_tears"><path d="M168.1 82.1c0 11.1-1 22.2-5 31.8-4.2 10-11.8 18.1-19.4 25.7-7.6 7.6-16.5 13.1-26.6 17.2-9.7 4-19.8 8.7-30.9 8.7-11.1 0-21.7-3.6-31.4-7.6-10-4.2-18.4-10.8-26-18.4-7.6-7.6-13.8-16.2-17.9-26.2-4-9.7-7.5-20.1-7.5-31.2 0-11.1 2.3-22 6.3-31.7 4.2-10 11.3-18.4 18.9-26 7.6-7.6 16.2-14.1 26.2-18.2C64.5 2.2 75.1 0 86.3 0s21.4 3 31.1 7c10 4.2 20.1 8.7 27.7 16.3 7.6 7.6 11.7 17.8 15.8 27.9 3.9 9.6 7.2 19.7 7.2 30.9z" fill="#ffd635"/><path d="M104.1 154.9c-10.5 0-20.5-3.4-29.6-7.2-9.4-3.9-17.4-10.2-24.5-17.3-7.1-7.1-13-15.2-16.9-24.7-3.8-9.1-7-18.9-7-29.4s2.1-20.8 5.9-29.9C35.9 37 42.7 29 49.8 21.9 56.9 14.8 65 8.6 74.5 4.7c4.8-2 9.9-3.5 15.1-4.5-1-.1-2.1-.1-3.1-.1C75.3.2 64.7 2.3 55 6.3 45 10.5 36.3 17 28.8 24.6c-7.6 7.6-14.7 15.9-18.9 26-4 9.7-6.3 20.6-6.3 31.7 0 11.1 3.5 21.5 7.5 31.2 4.2 10 10.4 18.6 17.9 26.2 7.6 7.6 16 14.2 26 18.4 9.7 4 20.3 7.6 31.4 7.6s21.3-4.7 30.9-8.7c8-3.3 15.3-7.5 21.7-12.9-1.9.9-3.8 1.8-5.8 2.7-9 3.7-18.6 8.1-29.1 8.1z" fill="#f7b523"/><path d="M73.3 19.5s.6-.5 1.7-1.2 2.6-1.7 4.6-2.7c2-1 4.4-2 7.2-2.7 2.7-.8 5.8-1.2 8.9-1.2H98c.7 0 1.5.1 2.3.1.7.1 1.5.2 2.2.3.7.1 1.4.3 2.1.4 1.4.3 2.7.7 3.9 1.2 1.2.5 2.3 1 3.3 1.6 2 1.1 3.5 2.4 4.4 3.4.5.5.8.9 1.1 1.2.2.3.4.5.4.5s-.8.2-2.2.3c-.7.1-1.5.1-2.4.1h-2.9c-1.1 0-2.2-.1-3.3-.2-1.2-.1-2.4-.2-3.6-.4-.6-.1-1.3-.2-1.9-.3-.6-.1-1.3-.2-1.9-.3-.7-.1-1.3-.2-1.9-.3l-1.1-.2c-.5-.1-.9-.1-1.2-.1-5.1-.7-10.6-.4-14.8 0-2.1.2-3.9.3-5.2.4-.6 0-1.1.1-1.5.1h-.5z" fill="#ffef57"/><path class="st7" d="M44 58.9s.1-.1.2-.3c.1-.2.4-.5.6-.9.5-.7 1.3-1.8 2.4-3 1-1.2 2.3-2.5 3.6-3.9.7-.7 1.4-1.4 2.2-2.1.8-.7 1.6-1.4 2.4-2 .8-.7 1.7-1.3 2.5-1.9.8-.6 1.7-1.2 2.6-1.7.8-.6 1.7-1 2.5-1.5l1.2-.6c.4-.2.8-.4 1.1-.5.7-.3 1.4-.7 2-.9.6-.2 1.2-.4 1.6-.6.9-.3 1.4-.5 1.4-.5 1.8-.7 3.8.2 4.5 2 .7 1.8-.2 3.8-2 4.5-.1 0-.2.1-.4.1l-.2.1-1.2.3c-.4.1-.9.2-1.4.4-.5.2-1.2.4-1.8.6-.3.1-.7.2-1 .3-.4.1-.7.3-1.1.4-.8.3-1.6.6-2.3 1-.8.4-1.6.8-2.5 1.2-.8.4-1.7.9-2.5 1.4-.8.5-1.6 1-2.4 1.6-.8.5-1.5 1.1-2.3 1.7-1.4 1.1-2.7 2.2-3.8 3.2-1.1 1-1.9 1.9-2.5 2.5-.3.3-.5.5-.6.7-.1.2-.2.3-.2.3-.6.7-1.6.8-2.3.2-.7-.5-.8-1.4-.3-2.1z"/><path class="st3" d="M43.6 70.7s.1-.2.2-.5.4-.9.8-1.5c.7-1.2 2-2.9 3.8-4.4.9-.8 2-1.5 3.2-2.1 1.2-.6 2.5-1.2 3.9-1.7s2.8-.8 4.4-1.1c1.5-.2 3.1-.4 4.6-.4h1.1c.4 0 .8 0 1.2.1.8.1 1.5.1 2.3.2 1.5.2 3 .5 4.4 1 2.8.8 5.3 2.1 7.2 3.6 1.9 1.5 3.2 3.1 4 4.4.4.6.6 1.2.7 1.5.1.4.2.6.2.6.3.9-.1 1.9-1.1 2.3-.8.3-1.6 0-2-.6l-.1-.2s-.1-.1-.2-.3c-.2-.2-.4-.5-.8-.9-.7-.7-1.8-1.7-3.4-2.6-.8-.4-1.7-.8-2.7-1.2-1-.4-2.1-.7-3.2-1-1.2-.3-2.4-.5-3.6-.6-.6-.1-1.3-.1-1.9-.2h-1.9c-1.3 0-2.5.1-3.8.3-1.2.2-2.4.4-3.6.7-1.1.3-2.2.6-3.2 1.1-1 .4-1.9.9-2.7 1.3-1.6.9-2.7 2-3.4 2.7-.4.4-.6.6-.8.9-.2.3-.3.4-.3.4-.6.8-1.7 1-2.5.4-.9-.6-1.1-1.5-.8-2.2z"/><path class="st7" d="M146.6 60.8s-.1-.1-.2-.3c-.1-.2-.4-.4-.6-.7-.6-.6-1.4-1.5-2.5-2.5s-2.4-2.1-3.8-3.2c-.7-.5-1.5-1.1-2.3-1.7-.8-.5-1.6-1.1-2.4-1.6-.8-.5-1.6-1-2.5-1.4-.8-.5-1.7-.9-2.5-1.2-.8-.4-1.6-.7-2.3-1-.4-.2-.7-.3-1.1-.4-.4-.1-.7-.2-1-.3-.7-.2-1.3-.4-1.8-.6-.6-.1-1-.3-1.4-.4l-1.2-.3-.2-.1c-1.9-.5-3-2.4-2.5-4.3s2.4-3 4.3-2.5c.1 0 .3.1.4.1 0 0 .5.2 1.4.5.4.2 1 .4 1.6.6.6.3 1.3.6 2 .9.4.2.7.3 1.1.5l1.2.6c.8.4 1.7.9 2.5 1.5.8.5 1.7 1.1 2.6 1.7.9.6 1.7 1.2 2.5 1.9.8.6 1.6 1.3 2.4 2 .8.7 1.5 1.4 2.2 2.1 1.4 1.4 2.6 2.7 3.6 3.9 1 1.2 1.8 2.2 2.4 3 .3.4.5.7.6.9.1.2.2.3.2.3.5.8.3 1.8-.5 2.3-.7.5-1.6.4-2.2-.3z"/><path class="st3" d="M146.5 72.4s-.1-.1-.3-.4c-.2-.3-.4-.5-.8-.9-.7-.8-1.9-1.8-3.4-2.7-.8-.5-1.7-.9-2.7-1.3-1-.4-2.1-.8-3.2-1.1-1.1-.3-2.3-.5-3.6-.7-1.2-.2-2.5-.3-3.8-.3h-1.9c-.6 0-1.3.1-1.9.2-1.2.2-2.5.4-3.6.6-1.2.3-2.2.6-3.2 1s-1.9.8-2.7 1.2c-1.6.9-2.7 1.8-3.4 2.6-.3.4-.6.7-.8.9-.2.2-.2.3-.2.3l-.1.2c-.6.8-1.7 1-2.5.4-.7-.5-.9-1.3-.6-2 0 0 .1-.2.2-.6.1-.4.4-.9.7-1.5.7-1.3 2-2.9 4-4.4 1.9-1.5 4.4-2.7 7.2-3.6 1.4-.4 2.9-.8 4.4-1 .8-.1 1.5-.2 2.3-.2.4 0 .8 0 1.2-.1h1.1c1.5 0 3.1.2 4.6.4 1.5.3 3 .6 4.4 1.1 1.4.5 2.7 1.1 3.9 1.7 1.2.6 2.3 1.4 3.2 2.1 1.9 1.5 3.1 3.2 3.8 4.4.3.6.6 1.2.8 1.5.1.3.2.5.2.5.4.9-.1 2-1 2.3-.9.3-1.8.1-2.3-.6z"/><path class="st8" d="M153.4 105c1.5 4.1 1.4 9.2 5 12.7 3.6 3.6 10.2 4.7 15.4 3.5 5.6-1.3 7.4-4.4 9.3-7.6 2.6-4.4 2-11-.4-14.5-6.6-8.6-18.6-13.4-30.2-21.5 0 6.2-.6 12-1 17.6.4 4.1 1 7.4 1.9 9.8z"/><path class="st20" d="M184.9 102.7c-.7-1.3-1.5-2.5-2.3-3.7 2.4 3.5 3 10.1.4 14.5-1.8 3.2-3.7 6.2-9.3 7.6-5.2 1.2-11.7.1-15.4-3.5-3.5-3.5-3.5-8.6-5-12.7-.9-2.4-1.5-5.7-2-9.9-.6 8.8-.7 16.7 2.8 23.5 4.6 8.9 15.3 12.6 23.7 8.2 8.7-4.3 11.7-15.1 7.1-24z"/><path class="st8" d="M40.7 110.6c-1.8 4.9-1.7 11.1-6 15.3-4.4 4.3-12.3 5.7-18.6 4.2-6.8-1.6-9-5.3-11.2-9.2-3.1-5.4-2.4-13.3.5-17.6 8-10.4 22.5-16.2 36.4-25.9 0 7.4.7 14.5 1.2 21.2-.5 5.1-1.2 9.1-2.3 12z"/><path class="st20" d="M2.6 107.8c.8-1.6 1.8-3 2.8-4.4-2.9 4.3-3.6 12.2-.5 17.6 2.2 3.8 4.4 7.5 11.2 9.2 6.2 1.5 14.2.1 18.6-4.2 4.3-4.2 4.3-10.4 6-15.3 1-2.9 1.8-6.9 2.4-11.9.7 10.6.8 20.2-3.4 28.4C34 137.8 21.2 142.3 11 137c-10.3-5.3-14-18.4-8.4-29.2z"/><defs><path id="SVGID_11_" d="M141.7 98.9c-.7 0-1.5.1-2.6.4-2.2.6-20.1 5.4-41.8 4.2-21.6-1.3-38.9-8.1-41-9-1-.4-1.8-.6-2.5-.7-2.5-.1-3.2 1.9-3 3.9.1 1 .3 2.2.5 3.5.4 1.8.9 4 1.9 6.4.9 2.4 2.2 5.1 4 8 1.8 2.9 4.2 5.9 7.4 8.9s7.2 5.9 12.2 8.3c5 2.4 11.2 4.2 18.3 4.7 7.2.4 13.5-.7 18.8-2.5 5.3-1.8 9.6-4.2 13.1-6.8 3.5-2.6 6.3-5.3 8.4-8 2.2-2.6 3.8-5.2 5-7.5 1.2-2.3 2-4.4 2.6-6.1.4-1.3.7-2.5 1-3.4.6-2.1.2-4.2-2.3-4.3z"/></defs><use xlink:href="#SVGID_11_" overflow="visible" fill="#943436"/><clipPath id="SVGID_2_"><use xlink:href="#SVGID_11_" overflow="visible"/></clipPath><path d="M101.7 153.6c-6 13.3-22.7 19.4-36.5 13.6s-20.1-21.3-14.1-34.6c4.1-9.2 10.3-15.8 20.2-16.2 9.4-.4 13.4 6.3 13.4 6.3s7.7-1.8 13.6 4c6.3 6.1 7.6 17.6 3.4 26.9z" clip-path="url(#SVGID_2_)" fill="#f74f5c"/></g></svg>