<svg xmlns="http://www.w3.org/2000/svg" xmlns:xlink="http://www.w3.org/1999/xlink" viewBox="0 0 164.7 173.9"><style>.st3{fill:#943436}.st7{fill:#e59d0e}</style><g id="Crying"><path d="M164.7 82.1c0 11.1-1 22.2-5 31.8-4.2 10-11.8 18.1-19.4 25.7-7.6 7.6-16.5 13.1-26.6 17.2-9.7 4-19.8 8.7-30.9 8.7-11.1 0-21.7-3.6-31.4-7.6-10-4.2-18.4-10.8-26-18.4-7.6-7.6-13.8-16.2-17.9-26.2-4-9.7-7.5-20.1-7.5-31.2 0-11.1 2.3-22 6.3-31.7 4.2-10 11.3-18.4 18.9-26 7.6-7.6 16.2-14.1 26.2-18.2C61 2.2 71.7 0 82.8 0s21.4 3 31.1 7c10 4.2 20.1 8.7 27.7 16.3 7.6 7.6 11.7 17.8 15.8 27.9 4 9.6 7.3 19.7 7.3 30.9z" fill="#ffd635"/><path d="M100.5 154.7c-10.5 0-20.5-3.4-29.6-7.2-9.4-3.9-17.4-10.2-24.5-17.3-7.1-7.1-13-15.2-16.9-24.7-3.8-9.1-7-18.9-7-29.4s2.1-20.8 5.9-29.9c3.9-9.4 10.7-17.4 17.8-24.5 7.1-7.1 15.3-13.3 24.7-17.2C75.7 2.5 80.8 1 86 0h-3.2C71.7 0 61 2.2 51.4 6.2c-10 4.2-18.7 10.7-26.2 18.2s-14.7 15.9-18.9 26C2.3 60 0 70.9 0 82.1c0 11.1 3.5 21.5 7.5 31.2 4.2 10 10.4 18.6 17.9 26.2 7.6 7.6 16 14.2 26 18.4 9.7 4 20.3 7.6 31.4 7.6s21.3-4.7 30.9-8.7c8-3.3 15.3-7.5 21.7-12.9-1.9.9-3.8 1.8-5.8 2.7-9.1 3.8-18.6 8.1-29.1 8.1z" fill="#f7b523"/><path d="M69.6 21.4s.6-.5 1.7-1.2 2.6-1.7 4.6-2.7c2-1 4.4-2 7.2-2.7 2.7-.8 5.8-1.2 8.9-1.2h2.3c.7 0 1.5.1 2.3.1.7.1 1.5.2 2.2.3.7.1 1.4.3 2.1.4 1.4.3 2.7.7 3.9 1.2 1.2.5 2.3 1 3.3 1.6 2 1.1 3.5 2.4 4.4 3.4.5.5.8.9 1.1 1.2.2.3.4.5.4.5s-.8.2-2.2.3c-.7.1-1.5.1-2.4.1h-2.9c-1.1 0-2.2-.1-3.3-.2-1.2-.1-2.4-.2-3.6-.4-.6-.1-1.3-.2-1.9-.3-.6-.1-1.3-.2-1.9-.3-.7-.1-1.3-.2-1.9-.3l-1.1-.2c-.3-.1-.6-.1-.9-.1-5.1-.7-10.6-.4-14.8 0-2.1.2-3.9.3-5.2.4-.6 0-1.1.1-1.5.1-.6-.1-.8 0-.8 0z" fill="#ffef57"/><defs><path id="SVGID_5_" d="M164.7 82.1c0 11.1-1 22.2-5 31.8-4.2 10-11.8 18.1-19.4 25.7-7.6 7.6-16.5 13.1-26.6 17.2-9.7 4-19.8 8.7-30.9 8.7-11.1 0-21.7-3.6-31.4-7.6-10-4.2-18.4-10.8-26-18.4-7.6-7.6-13.8-16.2-17.9-26.2-4-9.7-7.5-20.1-7.5-31.2 0-11.1 2.3-22 6.3-31.7 4.2-10 11.3-18.4 18.9-26 7.6-7.6 16.2-14.1 26.2-18.2C61 2.2 71.7 0 82.8 0s21.4 3 31.1 7c10 4.2 20.1 8.7 27.7 16.3 7.6 7.6 11.7 17.8 15.8 27.9 4 9.6 7.3 19.7 7.3 30.9z"/></defs><clipPath id="SVGID_2_"><use xlink:href="#SVGID_5_" overflow="visible"/></clipPath><path d="M35.7 157.5l27.6 16.4c8.4-55.1 3.4-105.3 3.4-105.3L38.2 79.1s4.7 34-2.5 78.4zm86.3 6.8l26.5-16.6c5.6-34 2.1-68.5 2.1-68.5L122 68.6s7.4 45.1 0 95.7z" clip-path="url(#SVGID_2_)" fill="#5fa5e1"/><path class="st3" d="M111.9 109.4H81.1c-1.2 2.6-1.9 5.6-1.9 8.7 0 10.6 7.7 19.2 17.3 19.2 9.5 0 17.3-8.6 17.3-19.2-.1-3.1-.7-6.1-1.9-8.7z"/><path d="M96.5 98.9c-6.7 0-12.5 4.3-15.4 10.5h30.7c-2.8-6.2-8.6-10.5-15.3-10.5z" fill="#fff"/><path class="st7" d="M34.6 63.3s.1-.1.2-.3c.1-.2.3-.5.6-.9.5-.8 1.2-1.9 2.1-3.1.9-1.3 2.1-2.7 3.3-4.2.7-.7 1.3-1.5 2.1-2.2.7-.7 1.5-1.5 2.3-2.2l2.4-2.1c.8-.7 1.6-1.3 2.4-1.9.8-.6 1.6-1.1 2.4-1.6.4-.3.8-.5 1.1-.7.4-.2.7-.4 1.1-.6.7-.4 1.4-.8 1.9-1.1.6-.3 1.1-.5 1.6-.7.9-.4 1.4-.6 1.4-.6 1.8-.8 3.8-.1 4.7 1.7.8 1.8.1 3.8-1.7 4.7-.1.1-.2.1-.4.1l-.2.1s-.4.1-1.2.4c-.4.1-.9.3-1.4.5-.5.2-1.1.5-1.8.7-.3.1-.7.3-1 .4-.3.2-.7.3-1.1.5-.7.4-1.5.7-2.3 1.2-.8.4-1.6.9-2.4 1.4-.8.5-1.6 1-2.4 1.6-.8.6-1.5 1.2-2.3 1.8-.8.6-1.4 1.2-2.1 1.8-1.3 1.2-2.6 2.4-3.5 3.5-1 1.1-1.8 2-2.3 2.7-.3.3-.4.6-.6.8-.1.2-.2.3-.2.3-.5.7-1.6.9-2.3.4-.7-.8-.9-1.7-.4-2.4z"/><path class="st3" d="M38.2 78.1s.1-.2.2-.5.4-1 .8-1.6c.7-1.3 2-3 3.9-4.6 1-.8 2-1.6 3.3-2.3 1.2-.7 2.6-1.3 4-1.8s2.9-.9 4.5-1.2c1.5-.3 3.1-.4 4.7-.4h1.1c.4 0 .8 0 1.2.1.8.1 1.6.1 2.3.3 1.5.2 3.1.6 4.5 1 2.9.9 5.4 2.3 7.4 3.8s3.3 3.3 4 4.7c.4.7.6 1.2.7 1.6.1.4.2.6.2.6.4 1.2-.3 2.6-1.5 3-.9.3-1.9 0-2.5-.7l-.2-.3-.3-.3c-.2-.2-.4-.5-.8-.8-.7-.7-1.8-1.5-3.3-2.3-.8-.4-1.7-.8-2.6-1.1-1-.3-2-.6-3.1-.9-1.1-.3-2.3-.4-3.5-.6-.6-.1-1.2-.1-1.8-.1h-1.9c-2.4 0-4.9.3-7.1.9-1.1.3-2.1.6-3.1 1-.9.4-1.8.8-2.6 1.2-.8.4-1.4.9-2 1.3-.6.4-1 .8-1.4 1.2l-.8.8c-.2.3-.3.4-.3.4-.8 1-2.3 1.2-3.4.4-.6-.8-.9-1.9-.6-2.8z"/><path class="st7" d="M152.6 65s-.1-.1-.2-.3c-.1-.2-.3-.4-.6-.8-.5-.7-1.3-1.6-2.3-2.7-1-1.1-2.2-2.3-3.5-3.5l-2.1-1.8c-.7-.6-1.5-1.2-2.3-1.8-.8-.6-1.6-1.1-2.4-1.6-.8-.5-1.6-1-2.4-1.4-.8-.5-1.5-.8-2.3-1.2-.4-.2-.7-.4-1.1-.5-.4-.1-.7-.3-1-.4-.7-.3-1.2-.5-1.8-.7-.5-.2-1-.3-1.4-.5-.8-.3-1.2-.4-1.2-.4l-.2-.1c-1.8-.6-2.8-2.6-2.2-4.4.6-1.8 2.6-2.8 4.4-2.2.1 0 .2.1.4.1 0 0 .5.2 1.4.6.4.2 1 .4 1.6.7.6.3 1.2.7 1.9 1.1.4.2.7.4 1.1.6.4.2.7.5 1.1.7.8.5 1.6 1 2.4 1.6.8.6 1.6 1.2 2.4 1.9.8.7 1.6 1.3 2.4 2.1.8.7 1.5 1.5 2.3 2.2.7.7 1.4 1.5 2.1 2.2 1.3 1.5 2.4 2.9 3.3 4.2.9 1.3 1.6 2.4 2.1 3.1.2.4.4.7.6.9.1.2.2.3.2.3.4.8.2 1.8-.6 2.2-.7.8-1.6.5-2.1-.2z"/><path class="st3" d="M147.6 80.4s-.1-.1-.3-.4c-.2-.3-.4-.4-.8-.8s-.8-.7-1.4-1.2c-.6-.4-1.2-.9-2-1.3s-1.6-.8-2.6-1.2c-.9-.4-2-.7-3.1-1-2.2-.6-4.6-.8-7.1-.9h-1.9c-.6 0-1.2.1-1.8.1-1.2.1-2.4.3-3.5.6-1.1.2-2.2.5-3.1.9-1 .3-1.8.7-2.6 1.1-1.5.8-2.6 1.6-3.3 2.3l-.8.8-.3.3-.2.3c-.9 1-2.3 1.1-3.3.2-.7-.6-1-1.6-.7-2.5 0 0 .1-.2.2-.6.1-.4.4-1 .7-1.6.7-1.3 2.1-3.1 4-4.7 2-1.6 4.5-2.9 7.4-3.8 1.4-.4 2.9-.8 4.5-1 .8-.1 1.6-.2 2.3-.3.4 0 .8 0 1.2-.1h1.1c1.6 0 3.2.2 4.7.4 1.5.3 3.1.7 4.5 1.2s2.8 1.1 4 1.8c1.2.7 2.3 1.5 3.3 2.3 1.9 1.6 3.2 3.3 3.9 4.6.3.6.6 1.3.8 1.6.1.3.2.5.2.5.4 1.3-.2 2.6-1.5 3.1-.9.4-1.9 0-2.5-.7z"/></g></svg>