<svg xmlns="http://www.w3.org/2000/svg" viewBox="0 0 164.7 176.1"><style>.st1{fill:#f7b523}.st3{fill:#943436}</style><g id="Sleeping"><path d="M164.7 92.7c0 11.1-1 22.2-5 31.8-4.2 10-11.8 18.1-19.4 25.7-7.6 7.6-16.5 13.1-26.6 17.2-9.7 4-19.8 8.7-30.9 8.7-11.1 0-21.7-3.6-31.4-7.6-10-4.2-18.4-10.8-26-18.4-7.6-7.6-13.8-16.2-17.9-26.2-4-9.7-7.5-20.1-7.5-31.2 0-11.1 2.3-22 6.3-31.7 4.2-10 11.3-18.4 18.9-26 7.6-7.6 16.2-14.1 26.2-18.2 9.7-4 20.3-6.2 31.4-6.2s21.4 3 31.1 7c10 4.2 20.1 8.7 27.7 16.3 7.6 7.6 11.7 17.8 15.8 27.9 4 9.7 7.3 19.8 7.3 30.9z" fill="#ffd635"/><path class="st1" d="M100.5 165.4c-10.5 0-20.5-3.4-29.6-7.2-9.4-3.9-17.4-10.2-24.5-17.3-7.1-7.1-13-15.2-16.9-24.7-3.8-9.1-7-18.9-7-29.4s2.1-20.8 5.9-29.9c3.9-9.4 10.7-17.4 17.8-24.5 7.1-7.1 15.3-13.3 24.7-17.2 4.8-2 9.9-3.5 15.1-4.5-1-.1-2.1-.1-3.1-.1-11.1 0-21.8 2.2-31.4 6.2C41.5 21 32.8 27.5 25.3 35s-14.9 16-19 26C2.3 70.7 0 81.6 0 92.7c0 11.1 3.5 21.5 7.5 31.2 4.2 10 10.4 18.6 17.9 26.2 7.6 7.6 16 14.2 26 18.4 9.7 4 20.3 7.6 31.4 7.6s21.3-4.7 30.9-8.7c8-3.3 15.3-7.5 21.7-12.9-1.9.9-3.8 1.8-5.8 2.7-9.1 3.8-18.6 8.2-29.1 8.2z"/><path d="M69.6 32s.6-.5 1.7-1.2 2.6-1.7 4.6-2.7c2-1 4.4-2 7.2-2.7 2.7-.8 5.8-1.2 8.9-1.2h2.3c.7 0 1.5.1 2.3.1.7.1 1.5.2 2.2.3.7.1 1.4.3 2.1.4 1.4.3 2.7.7 3.9 1.2 1.2.5 2.3 1 3.3 1.6 2 1.1 3.5 2.4 4.4 3.4.5.5.8.9 1.1 1.2.2.3.4.5.4.5s-.8.2-2.2.3c-.7.1-1.5.1-2.4.1h-2.9c-1.1 0-2.2-.1-3.3-.2-1.2-.1-2.4-.2-3.6-.4-.6-.1-1.3-.2-1.9-.3-.6-.1-1.3-.2-1.9-.3-.7-.1-1.3-.2-1.9-.3l-1.1-.2c-.3-.1-.6-.1-.9-.1-5.1-.7-10.6-.4-14.8 0-2.1.2-3.9.3-5.2.4-.6 0-1.1.1-1.5.1h-.8z" fill="#ffef57"/><path class="st3" d="M111.3 126.3c.2 1.8-.2 3.2-.7 4.8-.5 1.8-1.7 3.5-2.8 4.9-1.2 1.7-2.4 3-4.2 4.2-2 1.3-4.6 2-7.2 2.1-2.7.1-5.5-.3-7.6-1.1-2.1-.8-3.9-2.2-5.4-3.7-1.3-1.3-2.1-2.9-2.9-4.6-.7-1.5-.7-3.2-.8-4.9-.2-1.8-.3-3.5.1-5.1.5-1.8 1.5-3.2 2.6-4.6 1.2-1.7 2.2-3.2 4.1-4.3 2.1-1.2 4.5-2.4 7.2-2.6 2.7-.1 5.5.7 7.8 1.6 2.1.9 4 2.2 5.5 3.7 1.3 1.3 2.3 2.9 3.1 4.6.6 1.6 1 3.3 1.2 5zm-72-41.7s.1.2.3.4c.2.3.4.5.8 1 .7.9 1.8 2 3.3 3.1.8.5 1.6 1.1 2.6 1.5 1 .5 2 .9 3.2 1.3 1.1.4 2.3.6 3.6.8 1.2.2 2.5.3 3.8.3h1.9c.6 0 1.3-.1 1.9-.2 1.2-.2 2.5-.4 3.6-.8 1.1-.3 2.2-.7 3.2-1.2 1-.4 1.9-.9 2.6-1.4 1.5-1 2.6-2.1 3.3-2.9.7-.8 1-1.4 1-1.4l.1-.1c.6-1 1.9-1.3 2.9-.7.8.5 1.2 1.5.9 2.4 0 0-.1.2-.2.6-.1.4-.3 1-.6 1.6-.6 1.4-1.8 3.3-3.7 5-.9.9-2.1 1.7-3.3 2.5-1.2.8-2.6 1.4-4.1 1.9-1.5.5-3 1-4.6 1.2l-2.4.3c-.4 0-.8.1-1.3.1h-1.2c-1.7 0-3.3-.2-4.9-.5-1.6-.3-3.2-.8-4.6-1.4-1.5-.6-2.8-1.3-4-2.1-1.2-.8-2.3-1.7-3.2-2.6-1.8-1.8-3-3.6-3.6-5-.3-.6-.6-1.3-.7-1.6-.1-.3-.2-.5-.2-.5-.4-1.1.3-2.3 1.4-2.6.7-.1 1.7.2 2.2 1z"/><path class="st1" d="M34.2 71.1s.3-.4.7-1.2c.3-.4.6-.9.9-1.4.4-.5.8-1.1 1.3-1.8.5-.6 1.1-1.3 1.7-2 .6-.7 1.3-1.4 2-2.1.7-.7 1.5-1.4 2.3-2.1.8-.7 1.7-1.3 2.6-1.9.9-.6 1.8-1.2 2.7-1.7.9-.5 1.9-1 2.8-1.5.9-.4 1.8-.9 2.7-1.2.9-.3 1.7-.7 2.5-.9.8-.3 1.5-.5 2.1-.7.6-.2 1.2-.3 1.6-.5.9-.2 1.4-.4 1.4-.4 1.9-.5 3.8.6 4.3 2.5s-.6 3.8-2.5 4.3c-.1 0-.3.1-.4.1h-.2s-.5.1-1.3.2c-.4.1-.9.1-1.5.2s-1.2.2-1.9.4c-.7.1-1.4.4-2.2.6-.8.2-1.6.5-2.4.8-.8.3-1.7.6-2.5 1s-1.7.8-2.5 1.2c-.8.4-1.7.9-2.5 1.4-.8.5-1.6 1-2.3 1.6-.7.5-1.4 1.1-2 1.6-.6.6-1.2 1.1-1.7 1.6s-1 1-1.3 1.4c-.4.4-.7.8-1 1.1-.3.9-.6 1.3-.6 1.3-.6.7-1.6.9-2.3.3-.7-.5-.9-1.5-.5-2.2z"/><path class="st3" d="M148.3 86.4s-.1.2-.2.5-.3 1-.7 1.6c-.6 1.3-1.8 3.2-3.6 5-.9.9-2 1.8-3.2 2.6-1.2.8-2.6 1.5-4 2.1-1.5.6-3 1.1-4.6 1.4-1.6.3-3.3.5-4.9.5h-1.2c-.4 0-.9 0-1.3-.1l-2.4-.3c-1.6-.3-3.2-.7-4.6-1.2-1.5-.5-2.8-1.2-4.1-1.9-1.2-.7-2.4-1.6-3.3-2.5-1.9-1.7-3.1-3.6-3.7-5-.3-.7-.5-1.3-.6-1.6-.1-.4-.2-.6-.2-.6-.3-1.1.3-2.3 1.4-2.6.9-.3 1.9.1 2.4.9l.1.1s.3.5 1 1.4c.7.8 1.8 1.9 3.3 2.9.8.5 1.7 1 2.6 1.4 1 .4 2.1.8 3.2 1.2 1.1.3 2.4.6 3.6.8.6.1 1.3.2 1.9.2h1.9c1.3 0 2.5-.1 3.8-.3 1.2-.2 2.4-.5 3.6-.8 1.1-.4 2.2-.8 3.2-1.3s1.8-1 2.6-1.5c1.5-1.1 2.6-2.2 3.3-3.1.4-.5.6-.7.8-1 .2-.3.3-.4.3-.4.6-1 2-1.2 2.9-.6.7.4 1 1.3.7 2.2z"/><path class="st1" d="M146.9 73s-.3-.4-.8-1.1c-.3-.3-.6-.7-1-1.1-.4-.4-.8-.9-1.3-1.4-.5-.5-1.1-1-1.7-1.6-.6-.5-1.3-1.1-2-1.6-.7-.6-1.5-1-2.3-1.6-.8-.5-1.6-1-2.5-1.4-.8-.5-1.7-.8-2.5-1.2-.9-.4-1.7-.7-2.5-1-.9-.3-1.6-.6-2.4-.8-.8-.2-1.5-.4-2.2-.6-.7-.1-1.3-.3-1.9-.4-.6-.1-1.1-.2-1.5-.2-.8-.1-1.3-.2-1.3-.2h-.2c-1.9-.3-3.2-2.1-2.9-4 .3-1.9 2.1-3.2 4-2.9.1 0 .3 0 .4.1 0 0 .5.1 1.4.4.5.1 1 .3 1.6.5.6.2 1.3.4 2.1.7.8.2 1.6.6 2.5.9.9.3 1.7.8 2.7 1.2.9.4 1.8 1 2.8 1.5.9.6 1.8 1.1 2.7 1.7.9.6 1.8 1.3 2.6 1.9.8.7 1.6 1.3 2.3 2.1.7.7 1.4 1.4 2 2.1.6.7 1.2 1.3 1.7 2 .5.6.9 1.2 1.3 1.8.4.5.7 1 .9 1.4.5.8.7 1.2.7 1.2.5.8.2 1.8-.6 2.3-.7.1-1.6-.1-2.1-.7z"/><path d="M7.3 52.9l23.1-33.3v-.3h-21v-9.1h35.2v6.3L22 49.4v.3h23v9.1H7.3v-5.9zM50 32L67.3 7v-.2H51.6V0H78v4.8L61 29.4v.2h17.2v6.8H50V32zm36.3 2.5l13-18.7v-.2H87.4v-5.1h19.8v3.6L94.5 32.5v.2h12.9v5.1H86.3v-3.3z" fill="#5fa5e1"/></g></svg>