<svg xmlns="http://www.w3.org/2000/svg" xmlns:xlink="http://www.w3.org/1999/xlink" viewBox="0 0 164.7 178.2"><style>.st1{fill:#f7b523}</style><g id="Disgusted"><path d="M164.7 82.1c0 11.1-1 22.2-5 31.8-4.2 10-11.8 18.1-19.4 25.7-7.6 7.6-16.5 13.1-26.6 17.2-9.7 4-19.8 8.7-30.9 8.7-11.1 0-21.7-3.6-31.4-7.6-10-4.2-18.4-10.8-26-18.4-7.6-7.6-13.8-16.2-17.9-26.2-4-9.7-7.5-20.1-7.5-31.2 0-11.1 2.3-22 6.3-31.7 4.2-10 11.3-18.4 18.9-26 7.6-7.6 16.2-14.1 26.2-18.2C61 2.2 71.7 0 82.8 0c11.1 0 21.4 3 31.1 7 10 4.2 20.1 8.7 27.7 16.3 7.6 7.6 11.7 17.8 15.8 27.9 4 9.6 7.3 19.7 7.3 30.9z" fill="#ffd635"/><path class="st1" d="M100.5 154.7c-10.5 0-20.5-3.4-29.6-7.2-9.4-3.9-17.4-10.2-24.5-17.3-7.1-7.1-13-15.2-16.9-24.7-3.8-9.1-7-18.9-7-29.4s2.1-20.8 5.9-29.9c3.9-9.4 10.7-17.4 17.8-24.5 7.1-7.1 15.3-13.3 24.7-17.2C75.7 2.5 80.8 1 86 0h-3.2C71.7 0 61 2.2 51.4 6.2c-10 4.2-18.7 10.7-26.2 18.2-7.6 7.6-14.7 15.9-18.9 26C2.3 60 0 70.9 0 82.1s3.5 21.5 7.5 31.2c4.2 10 10.4 18.6 17.9 26.2 7.6 7.6 16 14.2 26 18.4 9.7 4 20.3 7.6 31.4 7.6 11.1 0 21.3-4.7 30.9-8.7 8-3.3 15.3-7.5 21.7-12.9-1.9.9-3.8 1.8-5.8 2.7-9.1 3.8-18.6 8.1-29.1 8.1z"/><path d="M69.6 21.4s.6-.5 1.7-1.2 2.6-1.7 4.6-2.7c2-1 4.4-2 7.2-2.7 2.7-.8 5.8-1.2 8.9-1.2h2.3c.7 0 1.5.1 2.3.1.7.1 1.5.2 2.2.3.7.1 1.4.3 2.1.4 1.4.3 2.7.7 3.9 1.2 1.2.5 2.3 1 3.3 1.6 2 1.1 3.5 2.4 4.4 3.4.5.5.8.9 1.1 1.2.2.3.4.5.4.5s-.8.2-2.2.3c-.7.1-1.5.1-2.4.1h-2.9c-1.1 0-2.2-.1-3.3-.2-1.2-.1-2.4-.2-3.6-.4-.6-.1-1.3-.2-1.9-.3-.6-.1-1.3-.2-1.9-.3-.7-.1-1.3-.2-1.9-.3l-1.1-.2c-.3-.1-.6-.1-.9-.1-5.1-.7-10.6-.4-14.8 0-2.1.2-3.9.3-5.2.4-.6 0-1.1.1-1.5.1-.6-.1-.8 0-.8 0z" fill="#ffef57"/><path class="st1" d="M34.6 55.6s.2-.6.6-1.5c.2-.5.5-1 .9-1.7.3-.7.8-1.3 1.3-2.1s1.1-1.5 1.8-2.3c.7-.8 1.4-1.6 2.3-2.4.8-.8 1.7-1.6 2.6-2.3.5-.4 1-.7 1.5-1.1.5-.4 1-.7 1.5-1l1.5-1c.5-.3 1.1-.6 1.6-.9 1.1-.6 2.1-1.1 3.2-1.6 1.1-.4 2.1-.9 3.1-1.2 1-.4 2-.6 2.9-.9.9-.3 1.7-.4 2.5-.6.7-.2 1.4-.3 1.9-.3 1.1-.1 1.7-.2 1.7-.2 1.9-.2 3.7 1.1 3.9 3 .2 1.9-1.1 3.6-3 3.9h-.2s-.5.1-1.4.2c-.5 0-1 .1-1.7.3-.6.1-1.4.2-2.1.4-.8.1-1.6.3-2.5.6-.9.2-1.8.5-2.8.8-1 .3-2 .6-3 1l-1.5.6-1.5.6c-1 .4-2 .9-3 1.4-1 .5-1.9 1-2.8 1.5-.9.5-1.7 1.1-2.6 1.6-.8.6-1.6 1.1-2.2 1.6-.7.5-1.3 1-1.8 1.4-.5.4-1 .8-1.4 1.2-.9.6-1.3 1-1.3 1zm114 0s-.5-.4-1.2-1.1c-.4-.4-.9-.7-1.4-1.2-.5-.4-1.2-.9-1.8-1.4-.7-.5-1.4-1-2.2-1.6-.8-.5-1.6-1.1-2.6-1.6-.9-.5-1.8-1-2.8-1.5-1-.5-1.9-1-3-1.4l-1.5-.6-1.5-.6c-1-.4-2-.7-3-1-1-.3-1.9-.6-2.8-.8-.9-.2-1.7-.4-2.5-.6-.8-.2-1.5-.3-2.1-.4-.6-.1-1.2-.2-1.7-.3-.9-.1-1.4-.2-1.4-.2h-.2c-1.9-.3-3.2-2.1-3-4 .3-1.9 2-3.2 3.9-3 0 0 .6.1 1.7.2.5.1 1.2.2 1.9.3.7.2 1.6.3 2.5.6.9.2 1.9.5 2.9.9 1 .3 2 .8 3.1 1.2 1.1.5 2.1 1 3.2 1.6.5.3 1.1.6 1.6.9l1.5 1c.5.3 1 .7 1.5 1 .5.4 1 .7 1.4 1.1.9.8 1.8 1.5 2.6 2.3.8.8 1.6 1.6 2.3 2.4.6.8 1.3 1.6 1.8 2.3.5.8 1 1.4 1.3 2.1.3.7.7 1.2.9 1.7.4 1.1.6 1.7.6 1.7z"/><path d="M35.4 60.7c.9-.4 1.8-.7 2.8-1 .9-.3 1.9-.6 2.8-.9 1-.2 1.9-.5 2.9-.7l3-.6c1-.1 2-.3 3-.4 1-.1 2-.2 3-.2s2-.1 3.1 0c1 0 2.1.1 3.1.2s2.1.2 3.1.4 2.1.4 3.1.7c1 .3 2 .6 3.1.9l3 1.2c1 .4 1.9.9 2.9 1.4 1 .5 1.9 1.1 2.8 1.6.9.6 1.9 1.1 2.7 1.8l2.6 2 .5.6c1.7 1.9 1.5 4.9-.5 6.6-1 .9-2.3 1.2-3.5 1.1l-2.3-.2c-.8-.1-1.6-.2-2.4-.1h-2.4c-.8 0-1.6.1-2.4.1-.8.1-1.6.1-2.4.2l-2.4.3c-.8.1-1.6.3-2.4.4l-1.2.3-1.2.3-2.4.6-2.4.8-2.3.9c-.8.3-1.5.7-2.3 1-1.5.7-3.1 1.4-4.5 2.3-1.5.8-2.9 1.7-4.3 2.7 1.1-1.3 2.3-2.5 3.6-3.7 1.3-1.2 2.6-2.3 4-3.4.7-.5 1.4-1.1 2.1-1.6l2.2-1.5 2.3-1.4c.8-.5 1.6-.9 2.4-1.3l1.2-.6 1.2-.6c.8-.4 1.6-.8 2.5-1.1l2.5-1c.8-.3 1.7-.6 2.6-.9.9-.3 1.8-.6 2.6-.8l2.7-.6c.9-.2 1.8-.3 2.7-.5l2.8-.4-3.5 8.4-1.7-2c-.5-.7-1.2-1.3-1.8-1.9-.6-.6-1.3-1.3-2-1.8s-1.4-1.1-2.1-1.6l-2.2-1.5c-.8-.4-1.6-.8-2.4-1.3-.8-.4-1.7-.7-2.5-1.1-.8-.4-1.7-.6-2.6-.9-.9-.3-1.8-.5-2.7-.8-.9-.3-1.8-.4-2.8-.6-.9-.2-1.9-.3-2.8-.4-.9 0-1.9 0-2.8-.1-1-.1-1.9 0-2.9-.1-1 0-1.9.1-2.9.1-1 .1-1.9.1-2.9.3-1 .1-2 .3-3 .4zm116.9 0c-1-.2-1.9-.3-2.9-.4-1-.1-1.9-.2-2.9-.3-1 0-1.9-.1-2.9-.1s-1.9 0-2.9.1-1.9.1-2.9.2c-.9.1-1.9.2-2.8.4-.9.2-1.9.3-2.8.6-.9.2-1.8.4-2.7.8-.9.3-1.8.5-2.6.9s-1.7.7-2.5 1.1c-.8.4-1.6.8-2.4 1.3l-2.2 1.5c-.7.5-1.4 1.1-2.1 1.6-.7.5-1.3 1.2-2 1.8-.6.6-1.3 1.2-1.8 1.9l-1.7 2-3.4-8.3 2.8.4c.9.1 1.8.3 2.7.5l2.7.6c.9.2 1.8.5 2.6.8.9.3 1.8.5 2.6.9l2.5 1c.8.3 1.7.7 2.5 1.1l1.2.6 1.2.6c.8.4 1.6.8 2.4 1.3l2.3 1.4 2.2 1.5c.7.5 1.4 1 2.1 1.6 1.4 1.1 2.7 2.2 4 3.4 1.3 1.2 2.5 2.4 3.6 3.7-1.4-1-2.8-1.9-4.3-2.7-1.5-.8-3-1.6-4.5-2.3-.8-.3-1.5-.7-2.3-1l-2.4-.9-2.4-.8c-.8-.3-1.6-.4-2.4-.6l-1.2-.3-1.2-.2c-.8-.1-1.6-.3-2.4-.4l-2.4-.3c-.8-.1-1.6-.1-2.4-.2-.8 0-1.6-.1-2.4-.1h-2.4c-.8 0-1.6.1-2.4.1l-2.3.2c-2.6.2-4.8-1.7-5.1-4.2-.1-1.3.3-2.5 1.1-3.5l.5-.6 2.6-2c.8-.7 1.8-1.2 2.7-1.8.9-.6 1.8-1.2 2.8-1.6 1-.5 1.9-1 2.9-1.4l3-1.2c1-.3 2-.6 3.1-.9 1-.3 2.1-.4 3.1-.7 1-.2 2.1-.3 3.1-.4 1-.1 2.1-.2 3.1-.2 1-.1 2.1 0 3.1 0s2 .1 3 .2 2 .2 3 .4c1 .1 2 .4 3 .6 1 .2 1.9.5 2.9.7 1 .3 1.9.5 2.8.9.9 0 1.9.4 2.8.7zm-19.9 65.7c5.2.8 8.8-4.8 6.1-9.2-9.5-15.1-25-25-42.6-25s-33.1 9.8-42.6 25c-2.8 4.4.9 10.1 6.1 9.2 8.5-1.4 21.2-2.9 36.5-2.9s28 1.5 36.5 2.9z" fill="#943436"/><defs><path id="SVGID_15_" d="M96.6 100.3c10.7 0 19 3.5 24.1 6.4 7 4 11.5 8.8 14.1 12.2.8 1 1.5 2 2.1 3v56.3H56.3v-56.3c.6-.9 1.3-1.9 2.1-3 2.6-3.4 7.1-8.2 14.1-12.2 5-2.9 13.3-6.4 24.1-6.4z"/></defs><clipPath id="SVGID_2_"><use xlink:href="#SVGID_15_" overflow="visible"/></clipPath><g clip-path="url(#SVGID_2_)"><path d="M73.2 95.1c-.8 5.1-3 36.9-3 52.4 0 14.6 11.8 25.4 26.2 25.4 14.5 0 26.2-10.9 26.2-25.4 0-15.5-2.1-47.3-2.9-52.4H73.2z" fill="#f9747e"/><path d="M92.6 94.2v48.9c0 2.2 1.8 4 4 4s4-1.8 4-4V94.2h-8z" fill="#e44c5f"/></g></g></svg>