<svg xmlns="http://www.w3.org/2000/svg" viewBox="0 0 164.7 165.4"><linearGradient id="a" gradientUnits="userSpaceOnUse" x1="93.534" y1="161.879" x2="93.534" y2="-3.842"><stop offset=".475" stop-color="#ffd635"/><stop offset=".536" stop-color="#f5d340"/><stop offset=".645" stop-color="#d9ca5e"/><stop offset=".788" stop-color="#adbd8e"/><stop offset=".957" stop-color="#6faacf"/><stop offset="1" stop-color="#5fa5e1"/></linearGradient><path d="M159.7 113.9c4-9.7 5-20.7 5-31.8s-3.3-21.2-7.3-30.9c-4.2-10-8.3-20.3-15.8-27.9-7.6-7.5-17.7-12.1-27.7-16.3-8.8-3.6-18-6.5-28-7-5.2 1-10.3 2.5-15.1 4.5-9.4 3.9-17.6 10.1-24.7 17.2-7.1 7.1-13.9 15-17.8 24.5-3.8 9.1-5.9 19.4-5.9 29.9s3.3 20.3 7 29.4c3.9 9.4 9.8 17.6 16.9 24.7 7.1 7.1 15.1 13.4 24.5 17.3 9.1 3.8 19.1 7.2 29.6 7.2s20.1-4.4 29.2-8.2c2-.8 3.9-1.7 5.8-2.7 1.7-1.4 3.3-2.8 4.8-4.4 7.6-7.4 15.3-15.5 19.5-25.5z" fill="url(#a)"/><linearGradient id="b" gradientUnits="userSpaceOnUse" x1="67.741" y1="161.879" x2="67.741" y2="-3.842"><stop offset=".475" stop-color="#f7b523"/><stop offset=".532" stop-color="#ecb22c"/><stop offset=".632" stop-color="#ceac45"/><stop offset=".764" stop-color="#9ea06e"/><stop offset=".921" stop-color="#5d91a6"/><stop offset="1" stop-color="#3989c4"/></linearGradient><path d="M100.5 154.7c-10.5 0-20.5-3.4-29.6-7.2-9.4-3.9-17.4-10.2-24.5-17.3-7.1-7.1-13-15.2-16.9-24.7-3.8-9.1-7-18.9-7-29.4s2.1-20.8 5.9-29.9c3.9-9.4 10.7-17.4 17.8-24.5 7.1-7.1 15.3-13.3 24.7-17.2C75.7 2.5 80.8 1 86 0h-3.2C71.7 0 61 2.2 51.4 6.2c-10 4.2-18.7 10.7-26.2 18.2s-14.7 15.9-18.9 26C2.3 60 0 70.9 0 82.1s3.5 21.5 7.5 31.2c4.2 10 10.4 18.6 18 26.2 7.6 7.6 16 14.2 26 18.4 9.7 4 20.3 7.6 31.4 7.6 11.1 0 21.3-4.7 30.9-8.7 8-3.3 15.3-7.5 21.7-12.9-1.9.9-3.8 1.8-5.8 2.7-9.2 3.8-18.7 8.1-29.2 8.1z" fill="url(#b)"/><path d="M72 72.3c0 1.5-.1 2.9-.7 4.2-.5 1.3-1.6 2.4-2.6 3.4s-2.2 1.7-3.5 2.3c-1.3.5-2.6 1.1-4.1 1.1-1.5 0-2.9-.5-4.1-1-1.3-.5-2.4-1.4-3.4-2.4s-1.8-2.1-2.4-3.5c-.5-1.3-1-2.7-1-4.1s.3-2.9.8-4.2c.5-1.3 1.5-2.4 2.5-3.4s2.1-1.9 3.5-2.4c1.3-.5 2.7-.8 4.1-.8 1.5 0 2.8.4 4.1.9 1.3.5 2.7 1.1 3.7 2.1s1.5 2.4 2.1 3.7c.5 1.3 1 2.6 1 4.1zm64.8 0c0 1.5-.1 2.9-.7 4.2-.5 1.3-1.6 2.4-2.6 3.4s-2.2 1.7-3.5 2.3c-1.3.5-2.6 1.1-4.1 1.1-1.5 0-2.9-.5-4.1-1-1.3-.5-2.4-1.4-3.4-2.4s-1.8-2.1-2.4-3.5c-.5-1.3-1-2.7-1-4.1s.3-2.9.8-4.2c.5-1.3 1.5-2.4 2.5-3.4s2.1-1.9 3.5-2.4c1.3-.5 2.7-.8 4.1-.8s2.8.4 4.1.9c1.3.5 2.7 1.1 3.7 2.1s1.5 2.4 2.1 3.7c.6 1.3 1 2.6 1 4.1zM113.3 130s-.7-.1-1.8-.2c-1-.2-2.7-.3-4.6-.5-.9-.1-2-.2-3.1-.3-1.1-.1-2.2-.2-3.4-.2-1.2-.1-2.4-.1-3.6-.2h-7.5c-1.2.1-2.5.1-3.6.2-1.2.1-2.3.1-3.4.2s-2.1.2-3.1.3c-1.9.2-3.5.3-4.6.5-1.1.1-1.8.2-1.8.2-2.9.3-5.5-1.8-5.7-4.7-.1-1.2.2-2.3.8-3.3l1.8-2.9s.1-.2.4-.6c.3-.3.7-.9 1.2-1.4.5-.6 1.2-1.2 2-1.9s1.7-1.4 2.8-2.1c1.1-.7 2.2-1.3 3.5-1.9 1.3-.6 2.7-1.1 4.1-1.5.7-.2 1.5-.4 2.2-.6.8-.2 1.5-.3 2.3-.4 1.5-.2 3.5-.3 4.7-.4h1.3l1.2.1c.8 0 1.6.2 2.4.3.8.1 1.6.2 2.3.4.8.2 1.5.3 2.2.6 1.5.4 2.8 1 4.1 1.5 1.3.6 2.5 1.2 3.5 1.9 1.1.7 2 1.4 2.8 2.1.8.7 1.5 1.3 2 1.9.6.6.9 1.1 1.1 1.4.2.3.4.5.4.5l1.9 3.3c1.4 2.4.6 5.5-1.8 6.9-.9.8-2 1-3 .8z" fill="#943436"/><linearGradient id="c" gradientUnits="userSpaceOnUse" x1="51.028" y1="66.396" x2="51.028" y2="22.396"><stop offset=".286" stop-color="#e1a520"/><stop offset=".435" stop-color="#ba9c41"/><stop offset=".767" stop-color="#578594"/><stop offset=".881" stop-color="#347db2"/></linearGradient><path d="M37.1 50.2s.3-.3.7-.9c.2-.3.5-.7.9-1.1.3-.4.8-.9 1.2-1.4.5-.5 1-1.1 1.5-1.6.6-.5 1.1-1.1 1.8-1.7.6-.6 1.3-1.2 2-1.7s1.4-1.1 2.2-1.7c1.5-1.1 3-2.1 4.5-2.9.7-.4 1.5-.8 2.2-1.2.7-.3 1.4-.7 2-1 1.3-.6 2.4-1 3.2-1.3.4-.1.7-.2 1-.3.2-.1.4-.1.4-.1 2-.4 4 .9 4.4 3 .4 2-.9 4-3 4.4h-.2c-.1 0-.4.1-.7.1-.6.1-1.6.3-2.7.7l-1.8.6c-.6.2-1.3.5-2 .8-1.4.6-2.9 1.2-4.3 2l-2.1 1.2c-.7.4-1.3.9-2 1.3-.6.4-1.2.9-1.8 1.3-.6.4-1.1.8-1.5 1.2-.5.4-.9.7-1.3 1.1-.4.4-.7.7-1 .9-.6.5-.9.8-.9.8-.8.7-2 .7-2.7-.1-.5-.6-.5-1.7 0-2.4z" fill="url(#c)"/><linearGradient id="d" gradientUnits="userSpaceOnUse" x1="136.04" y1="66.396" x2="136.04" y2="22.396"><stop offset=".286" stop-color="#e1a520"/><stop offset=".435" stop-color="#ba9c41"/><stop offset=".767" stop-color="#578594"/><stop offset=".881" stop-color="#347db2"/></linearGradient><path d="M147.1 52.8s-.3-.3-.9-.8c-.3-.3-.6-.6-1-.9-.4-.4-.8-.7-1.3-1.1-.5-.4-.9-.8-1.5-1.2-.6-.4-1.2-.9-1.8-1.3-.6-.4-1.3-.9-2-1.3l-2.1-1.2c-1.4-.8-2.9-1.5-4.3-2-.7-.3-1.4-.5-2-.8-.7-.2-1.3-.4-1.8-.6-1.1-.3-2.1-.5-2.7-.7-.3-.1-.6-.1-.7-.1h-.2c-2-.4-3.4-2.4-3-4.4.4-2 2.4-3.4 4.4-3 0 0 .2 0 .4.1s.6.2 1 .3c.8.3 1.9.7 3.2 1.3.6.3 1.3.6 2 1s1.5.7 2.2 1.2c1.5.8 3.1 1.8 4.5 2.9.8.5 1.5 1.1 2.2 1.7.7.6 1.4 1.2 2 1.7.6.6 1.2 1.2 1.8 1.7.6.5 1.1 1.1 1.5 1.6.5.5.9 1 1.2 1.4.3.4.6.8.9 1.1.5.6.7.9.7.9.7.8.5 2-.3 2.7-.6.5-1.7.4-2.4-.2z" fill="url(#d)"/></svg>