<svg xmlns="http://www.w3.org/2000/svg" viewBox="0 0 164.7 165.4"><style>.st1{fill:#f7b523}.st10{fill:#fff}.st11{fill:#534741}</style><g id="Look_Up"><path d="M164.7 82.1c0 11.1-1 22.2-5 31.8-4.2 10-11.8 18.1-19.4 25.7-7.6 7.6-16.5 13.1-26.6 17.2-9.7 4-19.8 8.7-30.9 8.7-11.1 0-21.7-3.6-31.4-7.6-10-4.2-18.4-10.8-26-18.4-7.6-7.6-13.8-16.2-17.9-26.2-4-9.7-7.5-20.1-7.5-31.2 0-11.1 2.3-22 6.3-31.7 4.2-10 11.3-18.4 18.9-26 7.6-7.6 16.2-14.1 26.2-18.2C61 2.2 71.7 0 82.8 0c11.1 0 21.4 3 31.1 7 10 4.2 20.1 8.7 27.7 16.3 7.6 7.6 11.7 17.8 15.8 27.9 4 9.6 7.3 19.7 7.3 30.9z" fill="#ffd635"/><path class="st1" d="M100.5 154.7c-10.5 0-20.5-3.4-29.6-7.2-9.4-3.9-17.4-10.2-24.5-17.3-7.1-7.1-13-15.2-16.9-24.7-3.8-9.1-7-18.9-7-29.4s2.1-20.8 5.9-29.9c3.9-9.4 10.7-17.4 17.8-24.5 7.1-7.1 15.3-13.3 24.7-17.2C75.7 2.5 80.8 1 86 0h-3.2C71.7 0 61 2.2 51.4 6.2c-10 4.2-18.7 10.7-26.2 18.2-7.6 7.6-14.7 15.9-18.9 26C2.3 60 0 70.9 0 82.1c0 11.1 3.5 21.5 7.5 31.2 4.2 10 10.4 18.6 17.9 26.2 7.6 7.6 16 14.2 26 18.4 9.7 4 20.3 7.6 31.4 7.6 11.1 0 21.3-4.7 30.9-8.7 8-3.3 15.3-7.5 21.7-12.9-1.9.9-3.8 1.8-5.8 2.7-9.1 3.8-18.6 8.1-29.1 8.1z"/><path d="M69.6 21.4s.6-.5 1.7-1.2 2.6-1.7 4.6-2.7c2-1 4.4-2 7.2-2.7 2.7-.8 5.8-1.2 8.9-1.2h2.3c.7 0 1.5.1 2.3.1.7.1 1.5.2 2.2.3.7.1 1.4.3 2.1.4 1.4.3 2.7.7 3.9 1.2 1.2.5 2.3 1 3.3 1.6 2 1.1 3.5 2.4 4.4 3.4.5.5.8.9 1.1 1.2.2.3.4.5.4.5s-.8.2-2.2.3c-.7.1-1.5.1-2.4.1h-2.9c-1.1 0-2.2-.1-3.3-.2-1.2-.1-2.4-.2-3.6-.4-.6-.1-1.3-.2-1.9-.3-.6-.1-1.3-.2-1.9-.3-.7-.1-1.3-.2-1.9-.3l-1.1-.2c-.3-.1-.6-.1-.9-.1-5.1-.7-10.6-.4-14.8 0-2.1.2-3.9.3-5.2.4-.6 0-1.1.1-1.5.1-.6-.1-.8 0-.8 0z" fill="#ffef57"/><path class="st1" d="M102.1 140.8h-.2c-.2 0-.3.1-.5.1-.4.1-.9.3-1.5.4-.6.1-1.3.2-2.1.3-.4 0-.8.1-1.3.1s-1 .1-1.5.1c-2 .1-4 0-5.4-.2-.7-.1-1.4-.2-1.8-.2-.4-.1-.7-.1-.7-.1H87c-1.3-.3-2.1-1.6-1.8-3 .2-.6.5-1.2 1.1-1.5 0 0 .2-.2.7-.4.4-.2 1.1-.5 1.8-.8 1.5-.6 3.6-1.1 5.7-1.3.5-.1 1.1-.1 1.6-.1s1.1-.1 1.7 0c1.1.1 2.2.3 3.1.6.9.3 1.6.8 2.1 1.1.2.2.5.4.5.5.1.1.1.2.1.2.9 1.3.6 3.1-.7 4-.3 0-.5.1-.8.2z"/><path class="st10" d="M86.4 57.5c0 2.4-.4 4.8-1.1 7-.7 2.2-2.5 4-3.8 5.8-1.4 1.9-2.8 3.7-4.6 5.1-1.8 1.3-4.1 2.1-6.3 2.8-2.1.8-4.4.8-6.7.8-2.4 0-4.7.1-6.8-.5-2.2-.7-4.5-1.6-6.3-2.9-1.9-1.4-3.5-3.1-4.9-5-1.3-1.8-1.7-4.2-2.4-6.4-.7-2.1-1.3-4.3-1.3-6.6 0-2.4 0-4.7.6-6.8.7-2.2 1.8-4.3 3.1-6.2 1.4-1.9 3.3-3.2 5.1-4.6 1.8-1.3 3.6-3.2 5.8-3.9 2.1-.7 4.6 0 7 0 2.4 0 4.7-.4 6.9.3s4.6 1.5 6.4 2.8c1.9 1.4 3.1 3.6 4.4 5.4 1.3 1.8 2.3 3.9 3.1 6.1.7 2.2 1.8 4.4 1.8 6.8z"/><path class="st11" d="M71.6 51c0 4.3-3.4 7.7-7.7 7.7-4.3 0-7.7-3.4-7.7-7.7 0-4.3 3.4-7.7 7.7-7.7 3 0-.1 4.8 1.3 6.1 1.4 1.4 6.4-1.4 6.4 1.6z"/><path class="st10" d="M143.1 57.5c0 2.4-.4 4.8-1.1 7-.7 2.2-2.5 4-3.8 5.8-1.4 1.9-2.8 3.7-4.6 5.1-1.8 1.3-4.1 2.1-6.3 2.8-2.1.7-4.4.7-6.7.7-2.4 0-4.7.1-6.8-.5-2.2-.7-4.5-1.6-6.3-2.9-1.9-1.4-3.5-3.1-4.9-5-1.3-1.8-1.7-4.2-2.4-6.4-.7-2.1-1.3-4.3-1.3-6.6 0-2.4 0-4.7.6-6.8.7-2.2 1.8-4.3 3.1-6.2 1.4-1.9 3.3-3.2 5.1-4.6 1.8-1.3 3.6-3.2 5.8-3.9 2.1-.7 4.6 0 7 0 2.4 0 4.7-.4 6.9.3s4.6 1.5 6.4 2.8c1.9 1.4 3.1 3.6 4.4 5.4 1.3 1.8 2.3 3.9 3.1 6.1.7 2.3 1.8 4.5 1.8 6.9z"/><path class="st11" d="M128.3 51c0 4.3-3.4 7.7-7.7 7.7-4.3 0-7.7-3.4-7.7-7.7 0-4.3 3.4-7.7 7.7-7.7 3 0-.1 4.8 1.3 6.1 1.4 1.4 6.4-1.4 6.4 1.6z"/><path d="M111.5 109c.2 1.9-.3 3.6-.7 5.3-.5 1.9-1.8 3.8-2.9 5.4-1.3 1.8-2.5 3.3-4.4 4.6-2.1 1.4-4.9 2.2-7.6 2.3-2.8.1-5.7-.4-8-1.2-2.2-.8-4.1-2.4-5.7-4.1-1.4-1.5-2.2-3.2-3.1-5.1-.7-1.7-.7-3.5-.9-5.4-.2-1.9-.3-3.9.1-5.6.5-1.9 1.5-3.5 2.7-5.1 1.3-1.8 2.4-3.6 4.3-4.7 2.2-1.3 4.8-2.7 7.6-2.8 2.8-.2 5.8.7 8.2 1.8 2.2.9 4.2 2.4 5.8 4.1 1.4 1.5 2.4 3.2 3.2 5.1.8 1.6 1.2 3.5 1.4 5.4z" fill="#943436"/></g></svg>