<svg xmlns="http://www.w3.org/2000/svg" viewBox="0 0 164.7 165.4"><style>.st1{fill:#f7b523}.st3{fill:#943436}</style><g id="Very_sad"><path d="M164.7 82.1c0 11.1-1 22.2-5 31.8-4.2 10-11.8 18.1-19.4 25.7-7.6 7.6-16.5 13.1-26.6 17.2-9.7 4-19.8 8.7-30.9 8.7s-21.7-3.6-31.4-7.6c-10-4.2-18.4-10.8-26-18.4-7.6-7.6-13.8-16.2-17.9-26.2-4-9.7-7.5-20.1-7.5-31.2 0-11.1 2.3-22 6.3-31.7 4.2-10 11.3-18.4 18.9-26 7.6-7.6 16.2-14.1 26.2-18.2C61 2.2 71.7 0 82.8 0c11.1 0 21.4 3 31.1 7 10 4.2 20.1 8.7 27.7 16.3 7.6 7.6 11.7 17.8 15.8 27.9 4 9.6 7.3 19.7 7.3 30.9z" fill="#ffd635"/><path class="st1" d="M100.5 154.7c-10.5 0-20.5-3.4-29.6-7.2-9.4-3.9-17.4-10.2-24.5-17.3-7.1-7.1-13-15.2-16.9-24.7-3.8-9.1-7-18.9-7-29.4s2.1-20.8 5.9-29.9c3.9-9.4 10.7-17.4 17.8-24.5 7.1-7.1 15.3-13.3 24.7-17.2C75.7 2.5 80.8 1 86 0h-3.2C71.7 0 61 2.2 51.4 6.2c-10 4.2-18.7 10.7-26.2 18.2-7.6 7.6-14.7 15.9-18.9 26C2.3 60 0 70.9 0 82.1c0 11.1 3.5 21.5 7.5 31.2 4.2 10 10.4 18.6 17.9 26.2 7.6 7.6 16 14.2 26 18.4 9.7 4 20.3 7.6 31.4 7.6s21.3-4.7 30.9-8.7c8-3.3 15.3-7.5 21.7-12.9-1.9.9-3.8 1.8-5.8 2.7-9.1 3.8-18.6 8.1-29.1 8.1z"/><path d="M69.6 21.4s.6-.5 1.7-1.2 2.6-1.7 4.6-2.7c2-1 4.4-2 7.2-2.7 2.7-.8 5.8-1.2 8.9-1.2h2.3c.7 0 1.5.1 2.3.1.7.1 1.5.2 2.2.3.7.1 1.4.3 2.1.4 1.4.3 2.7.7 3.9 1.2 1.2.5 2.3 1 3.3 1.6 2 1.1 3.5 2.4 4.4 3.4.5.5.8.9 1.1 1.2.2.3.4.5.4.5s-.8.2-2.2.3c-.7.1-1.5.1-2.4.1h-2.9c-1.1 0-2.2-.1-3.3-.2-1.2-.1-2.4-.2-3.6-.4-.6-.1-1.3-.2-1.9-.3-.6-.1-1.3-.2-1.9-.3-.7-.1-1.3-.2-1.9-.3l-1.1-.2c-.3-.1-.6-.1-.9-.1-5.1-.7-10.6-.4-14.8 0-2.1.2-3.9.3-5.2.4-.6 0-1.1.1-1.5.1-.6-.1-.8 0-.8 0z" fill="#ffef57"/><path class="st3" d="M72.5 129.1v-1.8c0-.2.1-.4.2-.6.1-.4.2-.9.4-1.5.2-.5.4-1 .6-1.6.5-1.1 1.1-2.4 2-3.6.9-1.2 2-2.5 3.3-3.6.3-.3.7-.6 1-.9.4-.3.7-.5 1.1-.8.7-.5 1.6-1 2.4-1.5 1.7-.9 3.5-1.6 5.5-2.1 1.9-.5 4-.8 6-.8h2.1l.8.1c.5.1 1.1.1 1.6.2l1.5.3c1.9.4 3.8 1 5.5 1.8.9.4 1.7.9 2.5 1.3.8.5 1.5 1 2.2 1.6 1.4 1.1 2.6 2.3 3.5 3.5.5.6.9 1.3 1.3 1.8l.9 1.8c.2.6.5 1.1.6 1.6.2.5.3 1 .4 1.5.2.9.2 1.6.2 2v.7c-.1 1.7-1.5 2.9-3.1 2.9-.7 0-1.3-.3-1.8-.7l-.2-.2s-.1-.1-.4-.3c-.2-.2-.6-.5-1-.9s-1-.8-1.6-1.2l-2.1-1.2c-.4-.2-.8-.4-1.3-.6-.2-.1-.4-.2-.7-.3-.2-.1-.5-.2-.7-.2-.9-.4-2-.7-3.1-.9-1.1-.3-2.2-.4-3.4-.6-.3 0-.6 0-.9-.1l-.7-.1h-1.9c-1.2 0-2.3.1-3.5.2-1.1.1-2.3.4-3.3.7-1 .3-2.1.6-3 1-.5.2-.9.4-1.4.6-.4.2-.9.4-1.3.7-.8.5-1.5.9-2.2 1.4-.3.2-.6.5-.9.7-.3.2-.5.4-.7.5-.1.1-.2.2-.3.2l-.3.3-.5.5-.4.4c-1.2 1.2-3 1.2-4.2 0-.6-.6-.9-1.4-.9-2.1l.2-.1z"/><path class="st1" d="M148.7 70s-.4-.2-1.1-.6c-.4-.2-.8-.4-1.3-.7-.5-.3-1.1-.7-1.7-1.1-.6-.4-1.3-.8-2-1.3s-1.4-1-2.1-1.6c-.7-.6-1.5-1.1-2.2-1.8-.7-.6-1.5-1.3-2.2-1.9-1.4-1.3-2.8-2.7-4-4.1-1.2-1.4-2.3-2.7-3.2-3.9-.9-1.2-1.6-2.2-2.1-2.9-.2-.4-.4-.7-.6-.9l-.2-.4c-1-1.7-.5-3.8 1.2-4.8s3.8-.5 4.8 1.2c.1.1.1.2.2.3v.1s0 .1.1.2c.1.2.2.4.4.7.4.7.9 1.6 1.6 2.7.7 1.1 1.6 2.4 2.6 3.7 1 1.3 2.1 2.7 3.3 4 .6.7 1.2 1.3 1.8 1.9l1.8 1.8c.6.6 1.2 1.1 1.8 1.6.6.5 1.1 1 1.6 1.4.5.4 1 .8 1.4 1.1.5.3.9.6 1.2.8.7.5 1 .7 1 .7 1 .7 1.2 2 .5 3-.5 1.1-1.7 1.4-2.6.8zm-109-3.6s.4-.3 1-.7c.3-.2.7-.5 1.2-.8.5-.3.9-.7 1.4-1.1.5-.4 1.1-.8 1.6-1.4.6-.5 1.2-1 1.8-1.6l1.8-1.8c.6-.6 1.2-1.3 1.8-1.9 1.2-1.3 2.3-2.7 3.3-4 1-1.3 1.9-2.6 2.6-3.7.7-1.1 1.2-2.1 1.6-2.7.2-.3.3-.6.4-.7.1-.1.1-.2.1-.2v-.1c.8-1.7 2.9-2.5 4.7-1.6 1.7.8 2.5 2.9 1.6 4.7 0 .1-.1.2-.2.3 0 0-.1.1-.2.4-.1.2-.3.5-.6.9-.5.7-1.2 1.8-2.1 2.9-.9 1.2-2 2.5-3.2 3.9-1.2 1.4-2.6 2.8-4 4.1-.7.7-1.4 1.3-2.2 1.9-.7.6-1.5 1.2-2.2 1.8-.7.6-1.4 1.1-2.1 1.6-.7.5-1.3.9-2 1.3-.6.4-1.2.8-1.7 1.1-.5.3-.9.5-1.3.7-.4.1-.8.3-.8.3-1 .6-2.3.2-2.9-.8-.6-.9-.3-2.1.6-2.8z"/><path class="st3" d="M74.3 81.6c0 1.5-.1 3.1-.7 4.4-.6 1.4-1.6 2.5-2.7 3.6s-2.3 1.8-3.7 2.4c-1.3.6-2.8 1.2-4.3 1.2s-3-.5-4.4-1.1c-1.4-.6-2.6-1.5-3.6-2.6s-1.9-2.2-2.5-3.6c-.6-1.3-1-2.8-1-4.3s.3-3.1.9-4.4c.6-1.4 1.6-2.6 2.6-3.6s2.3-2 3.6-2.5c1.3-.6 2.8-.9 4.4-.9 1.5 0 3 .4 4.3 1 1.4.6 2.8 1.2 3.8 2.3 1 1 1.6 2.5 2.2 3.9.7 1.2 1.1 2.6 1.1 4.2zm64.9 0c0 1.5-.1 3.1-.7 4.4-.6 1.4-1.6 2.5-2.7 3.6-1 1-2.3 1.8-3.7 2.4-1.3.6-2.8 1.2-4.3 1.2s-3-.5-4.4-1.1c-1.4-.6-2.6-1.5-3.6-2.6s-1.9-2.2-2.5-3.6c-.6-1.3-1-2.8-1-4.3s.3-3.1.9-4.4c.6-1.4 1.6-2.6 2.6-3.6s2.3-2 3.6-2.5c1.3-.6 2.8-.9 4.4-.9 1.5 0 3 .4 4.3 1 1.4.6 2.8 1.2 3.8 2.3 1 1 1.6 2.5 2.2 3.9.6 1.2 1.1 2.6 1.1 4.2z"/></g></svg>