<svg xmlns="http://www.w3.org/2000/svg" viewBox="0 0 164.7 165.4"><style>.st3{fill:#943436}</style><g id="Sad_Tear"><linearGradient id="SVGID_2_" gradientUnits="userSpaceOnUse" x1="93.534" y1="161.879" x2="93.534" y2="-3.842"><stop offset=".475" stop-color="#ffd635"/><stop offset=".536" stop-color="#f5d340"/><stop offset=".645" stop-color="#d9ca5e"/><stop offset=".788" stop-color="#adbd8e"/><stop offset=".957" stop-color="#6faacf"/><stop offset="1" stop-color="#5fa5e1"/></linearGradient><path d="M159.7 113.9c4-9.7 5-20.7 5-31.8s-3.3-21.2-7.3-30.9c-4.2-10-8.3-20.3-15.8-27.9-7.6-7.5-17.7-12.1-27.7-16.3-8.8-3.6-18-6.5-28-7-5.2 1-10.3 2.5-15.1 4.5-9.4 3.9-17.6 10.1-24.7 17.2-7.1 7.1-13.9 15-17.8 24.5-3.8 9.1-5.9 19.4-5.9 29.9s3.3 20.3 7 29.4c3.9 9.4 9.8 17.6 16.9 24.7 7.1 7.1 15.1 13.4 24.5 17.3 9.1 3.8 19.1 7.2 29.6 7.2s20.1-4.4 29.2-8.2c2-.8 3.9-1.7 5.8-2.7 1.7-1.4 3.3-2.8 4.8-4.4 7.6-7.4 15.3-15.5 19.5-25.5z" fill="url(#SVGID_2_)"/><linearGradient id="SVGID_4_" gradientUnits="userSpaceOnUse" x1="67.741" y1="161.879" x2="67.741" y2="-3.842"><stop offset=".475" stop-color="#f7b523"/><stop offset=".532" stop-color="#ecb22c"/><stop offset=".632" stop-color="#ceac45"/><stop offset=".764" stop-color="#9ea06e"/><stop offset=".921" stop-color="#5d91a6"/><stop offset="1" stop-color="#3989c4"/></linearGradient><path d="M100.5 154.7c-10.5 0-20.5-3.4-29.6-7.2-9.4-3.9-17.4-10.2-24.5-17.3-7.1-7.1-13-15.2-16.9-24.7-3.8-9.1-7-18.9-7-29.4s2.1-20.8 5.9-29.9c3.9-9.4 10.7-17.4 17.8-24.5 7.1-7.1 15.3-13.3 24.7-17.2C75.7 2.5 80.8 1 86 0h-3.2C71.7 0 61 2.2 51.4 6.2c-10 4.2-18.7 10.7-26.2 18.2s-14.7 15.9-18.9 26C2.3 60 0 70.9 0 82.1s3.5 21.5 7.5 31.2c4.2 10 10.4 18.6 18 26.2 7.6 7.6 16 14.2 26 18.4 9.7 4 20.3 7.6 31.4 7.6 11.1 0 21.3-4.7 30.9-8.7 8-3.3 15.3-7.5 21.7-12.9-1.9.9-3.8 1.8-5.8 2.7-9.2 3.8-18.7 8.1-29.2 8.1z" fill="url(#SVGID_4_)"/><path class="st3" d="M72.5 129.1v-1.8c0-.2.1-.4.2-.6.1-.4.2-.9.4-1.5.2-.5.4-1 .6-1.6.5-1.1 1.1-2.4 2-3.6.9-1.2 2-2.5 3.3-3.6.3-.3.7-.6 1-.9.4-.3.7-.5 1.1-.8.7-.5 1.6-1 2.4-1.5 1.7-.9 3.5-1.6 5.5-2.1 1.9-.5 4-.8 6-.8h2.1l.8.1c.5.1 1.1.1 1.6.2l1.5.3c1.9.4 3.8 1 5.5 1.8.9.4 1.7.9 2.5 1.3.8.5 1.5 1 2.2 1.6 1.4 1.1 2.6 2.3 3.5 3.5.5.6.9 1.3 1.3 1.8l.9 1.8c.2.6.5 1.1.6 1.6.2.5.3 1 .4 1.5.2.9.2 1.6.2 2v.7c-.1 1.7-1.5 2.9-3.1 2.9-.7 0-1.3-.3-1.8-.7l-.2-.2s-.1-.1-.4-.3c-.2-.2-.6-.5-1-.9s-1-.8-1.6-1.2l-2.1-1.2c-.4-.2-.8-.4-1.3-.6-.2-.1-.4-.2-.7-.3-.2-.1-.5-.2-.7-.2-.9-.4-2-.7-3.1-.9-1.1-.3-2.2-.4-3.4-.6-.3 0-.6 0-.9-.1l-.7-.1h-1.9c-1.2 0-2.3.1-3.5.2-1.1.1-2.3.4-3.3.7-1 .3-2.1.6-3 1-.5.2-.9.4-1.4.6-.4.2-.9.4-1.3.7-.8.5-1.5.9-2.2 1.4-.3.2-.6.5-.9.7-.3.2-.5.4-.7.5-.1.1-.2.2-.3.2l-.3.3-.5.5-.4.4c-1.2 1.2-3 1.2-4.2 0-.6-.6-.9-1.4-.9-2.1l.2-.1z"/><linearGradient id="SVGID_6_" gradientUnits="userSpaceOnUse" x1="138.71" y1="92.379" x2="138.71" y2="29.71"><stop offset=".374" stop-color="#e1a520"/><stop offset=".526" stop-color="#ba9c41"/><stop offset=".864" stop-color="#578594"/><stop offset=".981" stop-color="#347db2"/></linearGradient><path d="M148.7 70s-.4-.2-1.1-.6c-.4-.2-.8-.4-1.3-.7-.5-.3-1.1-.7-1.7-1.1-.6-.4-1.3-.8-2-1.3s-1.4-1-2.1-1.6c-.7-.6-1.5-1.1-2.2-1.8-.7-.6-1.5-1.3-2.2-1.9-1.4-1.3-2.8-2.7-4-4.1-1.2-1.4-2.3-2.7-3.2-3.9-.9-1.2-1.6-2.2-2.1-2.9-.2-.4-.4-.7-.6-.9l-.2-.4c-1-1.7-.5-3.8 1.2-4.8s3.8-.5 4.8 1.2c.1.1.1.2.2.3v.1s0 .1.1.2c.1.2.2.4.4.7.4.7.9 1.6 1.6 2.7.7 1.1 1.6 2.4 2.6 3.7 1 1.3 2.1 2.7 3.3 4 .6.7 1.2 1.3 1.8 1.9l1.8 1.8c.6.6 1.2 1.1 1.8 1.6.6.5 1.1 1 1.6 1.4.5.4 1 .8 1.4 1.1.5.3.9.6 1.2.8.7.5 1 .7 1 .7 1 .7 1.2 2 .5 3-.5 1.1-1.7 1.4-2.6.8z" fill="url(#SVGID_6_)"/><linearGradient id="SVGID_8_" gradientUnits="userSpaceOnUse" x1="51.928" y1="92.379" x2="51.928" y2="29.71"><stop offset=".374" stop-color="#e1a520"/><stop offset=".526" stop-color="#ba9c41"/><stop offset=".864" stop-color="#578594"/><stop offset=".981" stop-color="#347db2"/></linearGradient><path d="M39.7 66.4s.4-.3 1-.7c.3-.2.7-.5 1.2-.8.5-.3.9-.7 1.4-1.1.5-.4 1.1-.8 1.6-1.4.6-.5 1.2-1 1.8-1.6l1.8-1.8c.6-.6 1.2-1.3 1.8-1.9 1.2-1.3 2.3-2.7 3.3-4 1-1.3 1.9-2.6 2.6-3.7.7-1.1 1.2-2.1 1.6-2.7.2-.3.3-.6.4-.7.1-.1.1-.2.1-.2v-.1c.8-1.7 2.9-2.5 4.7-1.6 1.7.8 2.5 2.9 1.6 4.7 0 .1-.1.2-.2.3 0 0-.1.1-.2.4-.1.2-.3.5-.6.9-.5.7-1.2 1.8-2.1 2.9-.9 1.2-2 2.5-3.2 3.9-1.2 1.4-2.6 2.8-4 4.1-.7.7-1.4 1.3-2.2 1.9-.7.6-1.5 1.2-2.2 1.8-.7.6-1.4 1.1-2.1 1.6-.7.5-1.3.9-2 1.3-.6.4-1.2.8-1.7 1.1-.5.3-.9.5-1.3.7-.4.1-.8.3-.8.3-1 .6-2.3.2-2.9-.8-.6-.9-.3-2.1.6-2.8z" fill="url(#SVGID_8_)"/><path class="st3" d="M74.3 81.6c0 1.5-.1 3.1-.7 4.4-.6 1.4-1.6 2.5-2.7 3.6s-2.3 1.8-3.7 2.4c-1.3.6-2.8 1.2-4.3 1.2s-3-.5-4.4-1.1c-1.4-.6-2.6-1.5-3.6-2.6s-1.9-2.2-2.5-3.6c-.6-1.3-1-2.8-1-4.3s.3-3.1.9-4.4c.6-1.4 1.6-2.6 2.6-3.6s2.3-2 3.6-2.5c1.3-.6 2.8-.9 4.4-.9s3 .4 4.3 1c1.4.6 2.8 1.2 3.8 2.3 1 1 1.6 2.5 2.2 3.9.7 1.2 1.1 2.6 1.1 4.2zm64.9 0c0 1.5-.1 3.1-.7 4.4-.6 1.4-1.6 2.5-2.7 3.6-1 1-2.3 1.8-3.7 2.4-1.3.6-2.8 1.2-4.3 1.2s-3-.5-4.4-1.1c-1.4-.6-2.6-1.5-3.6-2.6s-1.9-2.2-2.5-3.6c-.6-1.3-1-2.8-1-4.3s.3-3.1.9-4.4c.6-1.4 1.6-2.6 2.6-3.6s2.3-2 3.6-2.5c1.3-.6 2.8-.9 4.4-.9 1.5 0 3 .4 4.3 1 1.4.6 2.8 1.2 3.8 2.3 1 1 1.6 2.5 2.2 3.9.6 1.2 1.1 2.6 1.1 4.2z"/></g></svg>