<svg xmlns="http://www.w3.org/2000/svg" xmlns:xlink="http://www.w3.org/1999/xlink" viewBox="0 0 164.7 178"><style>.st1{fill:#f7b523}</style><g id="Wink"><path d="M164.7 82.1c0 11.1-1 22.2-5 31.8-4.2 10-11.8 18.1-19.4 25.7-7.6 7.6-16.5 13.1-26.6 17.2-9.7 4-19.8 8.7-30.9 8.7-11.1 0-21.7-3.6-31.4-7.6-10-4.2-18.4-10.8-26-18.4-7.6-7.6-13.8-16.2-17.9-26.2-4-9.7-7.5-20.1-7.5-31.2 0-11.1 2.3-22 6.3-31.7 4.2-10 11.3-18.4 18.9-26 7.6-7.6 16.2-14.1 26.2-18.2C61 2.2 71.7 0 82.8 0c11.1 0 21.4 3 31.1 7 10 4.2 20.1 8.7 27.7 16.3 7.6 7.6 11.7 17.8 15.8 27.9 4 9.6 7.3 19.7 7.3 30.9z" fill="#ffd635"/><path class="st1" d="M100.7 154.9c-10.5 0-20.5-3.4-29.6-7.2-9.4-3.9-17.4-10.2-24.5-17.3-7.1-7.1-13-15.2-16.9-24.7-3.8-9.1-7-18.9-7-29.4s2.1-20.8 5.9-29.9C32.5 37 39.3 29 46.4 21.9c7-7.1 15.2-13.3 24.6-17.2 4.8-2 9.9-3.5 15.1-4.5-1-.1-2.1-.1-3.1-.1-11.1 0-21.8 2.2-31.4 6.2-10 4.2-18.7 10.7-26.2 18.2-7.6 7.6-14.7 15.9-18.9 26C2.5 60.2.2 71.1.2 82.2c0 11.1 3.5 21.5 7.5 31.2 4.2 10 10.4 18.6 17.9 26.2 7.6 7.6 16 14.2 26 18.4 9.7 4 20.3 7.6 31.4 7.6s21.3-4.7 30.9-8.7c8-3.3 15.3-7.5 21.7-12.9-1.9.9-3.8 1.8-5.8 2.7-9.1 3.8-18.7 8.2-29.1 8.2z"/><path d="M69.8 21.5s.6-.5 1.7-1.2 2.6-1.7 4.6-2.7c2-1 4.4-2 7.2-2.7 2.7-.8 5.8-1.2 8.9-1.2h2.3c.7 0 1.5.1 2.3.1.7.1 1.5.2 2.2.3.7.1 1.4.3 2.1.4 1.4.3 2.7.7 3.9 1.2 1.2.5 2.3 1 3.3 1.6 2 1.1 3.5 2.4 4.4 3.4.5.5.8.9 1.1 1.2.2.3.4.5.4.5s-.8.2-2.2.3c-.7.1-1.5.1-2.4.1h-2.9c-1.1 0-2.2-.1-3.3-.2-1.2-.1-2.4-.2-3.6-.4-.6-.1-1.3-.2-1.9-.3-.6-.1-1.3-.2-1.9-.3-.7-.1-1.3-.2-1.9-.3l-1.1-.2c-.5-.1-.9-.1-1.2-.1-5.1-.7-10.6-.4-14.8 0-2.1.2-3.9.3-5.2.4-.6 0-1.1.1-1.5.1h-.5z" fill="#ffef57"/><path class="st1" d="M89.5 72c-.6 2.6-1.7 5.2-3 7.4-1.4 2.3-3.8 3.8-5.7 5.5-2 1.7-4 3.4-6.4 4.4-2.4 1-5 1.3-7.6 1.5-2.5.2-5-.3-7.6-.9-2.6-.6-5.2-1-7.4-2.4-2.3-1.4-4.5-2.9-6.2-4.8-1.7-2-3.1-4.3-4.1-6.7-1-2.4-.8-5.1-1-7.7-.2-2.5-.4-5 .3-7.6.6-2.6 1.2-5.2 2.5-7.4 1.4-2.3 3.1-4.3 5-6 2-1.7 4.4-2.7 6.8-3.7 2.4-1 4.8-2.5 7.4-2.8 2.5-.2 5.1 1.2 7.7 1.8 2.6.6 5.3.8 7.5 2.1 2.3 1.4 4.7 2.8 6.3 4.8 1.7 2 2.5 4.7 3.5 7.1 1 2.4 1.6 4.9 1.8 7.5.2 2.6.8 5.3.2 7.9z"/><path d="M86.6 65.7c0 2.3-.4 4.6-1.1 6.6-.7 2.1-2.4 3.8-3.6 5.6-1.3 1.8-2.6 3.6-4.4 4.8-1.8 1.3-3.9 2-6 2.7-2 .7-4.2.7-6.4.7s-4.4.1-6.5-.5c-2.1-.7-4.2-1.5-6-2.8-1.8-1.3-3.3-3-4.6-4.7-1.3-1.8-1.6-4-2.3-6.1-.7-2-1.3-4-1.3-6.3s0-4.5.6-6.5c.7-2.1 1.7-4.1 3-5.9 1.3-1.8 3.1-3.1 4.9-4.4 1.8-1.3 3.4-3 5.5-3.7 2-.7 4.4 0 6.6 0 2.3 0 4.5-.4 6.5.3 2.1.7 4.3 1.4 6.1 2.7 1.8 1.3 2.9 3.4 4.2 5.2 1.3 1.8 2.2 3.7 2.9 5.8.9 2.1 1.9 4.3 1.9 6.5z" fill="#fff"/><path d="M72.5 65.7c0 4-3.3 7.3-7.3 7.3s-7.3-3.3-7.3-7.3 3.3-7.3 7.3-7.3c2.8 0-.1 4.5 1.2 5.8 1.4 1.3 6.1-1.4 6.1 1.5z" fill="#534741"/><path d="M143.1 53.7s-.1-.1-.4-.2c-.3-.1-.6-.3-1.1-.6-1-.5-2.5-1.1-4.3-1.6-.9-.3-1.9-.5-3-.7-1.1-.2-2.2-.3-3.4-.4-1.2 0-2.4-.1-3.6 0-.6 0-1.2.1-1.8.2-.6.1-1.2.2-1.8.4-.6.1-1.2.3-1.8.5-.6.2-1.1.4-1.7.6-1.1.5-2.1 1-3.1 1.6-1 .6-1.9 1.2-2.7 1.9-.4.3-.8.7-1.2 1-.4.3-.7.6-1.1 1-.6.7-1.3 1.3-1.7 1.9-.5.6-.9 1.1-1.3 1.5-.7.9-1 1.4-1 1.4l-.1.1c-1 1.3-2.8 1.5-4 .5-1.3-1-1.5-2.8-.5-4l.1-.1s.5-.5 1.3-1.5c.4-.5.9-1 1.5-1.7.6-.6 1.3-1.3 2.1-2 .4-.4.9-.7 1.3-1.1.5-.4.9-.7 1.5-1.1 1-.7 2.1-1.4 3.3-2.1 1.2-.6 2.5-1.2 3.9-1.7.7-.2 1.4-.5 2.1-.6.7-.2 1.4-.4 2.1-.5.7-.2 1.4-.2 2.2-.3.7 0 1.4-.1 2.2-.1 1.4-.1 2.8 0 4.2.2 1.3.2 2.6.4 3.8.7 1.2.3 2.3.6 3.3 1 2 .7 3.6 1.5 4.7 2.1.5.3 1 .5 1.3.7.3.2.5.3.5.3.8.5 1 1.5.5 2.3-.5.6-1.4.9-2.3.4z" fill="#e59d0e"/><defs><path id="SVGID_7_" d="M99.6 141.6c10.7 0 20.1-3.2 27.3-7.4 7.2-4.2 12.3-9.4 15.8-14.1 3.5-4.7 5.4-8.8 6.3-11.7.9-2.9-1.8-5-4.4-4-2.6 1-6.3 2.5-10.8 3.8-4.5 1.3-9.9 2.4-15.7 3.2-5.8.8-12 1.2-18.5 1.2s-12.7-.5-18.5-1.2c-5.8-.8-11.1-1.9-15.7-3.2-4.5-1.3-8.2-2.7-10.8-3.8-2.6-1-5.4 1.1-4.4 4s2.8 7.1 6.3 11.8c3.5 4.7 8.6 9.9 15.8 14.1 7.2 4.1 16.6 7.2 27.3 7.3z"/></defs><use xlink:href="#SVGID_7_" overflow="visible" fill="#943436"/><clipPath id="SVGID_2_"><use xlink:href="#SVGID_7_" overflow="visible"/></clipPath><circle cx="85.2" cy="149.9" r="28.1" clip-path="url(#SVGID_2_)" fill="#f74f5c"/><path d="M143.3 74.4s-.1-.1-.3-.4c-.2-.3-.4-.4-.8-.8s-.8-.7-1.4-1.2c-.6-.4-1.2-.9-2-1.3s-1.6-.8-2.6-1.2c-.9-.4-2-.7-3.1-1-2.2-.6-4.6-.8-7.1-.9h-1.9c-.6 0-1.2.1-1.8.1-1.2.1-2.4.3-3.5.6-1.1.2-2.2.5-3.1.9-1 .3-1.8.7-2.6 1.1-1.5.8-2.6 1.6-3.3 2.3l-.8.8-.3.3-.2.3c-.9 1-2.3 1.1-3.3.2-.7-.6-1-1.6-.7-2.5 0 0 .1-.2.2-.6.1-.4.4-1 .7-1.6.7-1.3 2.1-3.1 4-4.7 2-1.6 4.5-2.9 7.4-3.8 1.4-.4 2.9-.8 4.5-1 .8-.1 1.6-.2 2.3-.3.4 0 .8 0 1.2-.1h1.1c1.6 0 3.2.2 4.7.4 1.5.3 3.1.7 4.5 1.2s2.8 1.1 4 1.8c1.2.7 2.3 1.5 3.3 2.3 1.9 1.6 3.2 3.3 3.9 4.6.3.6.6 1.3.8 1.6.1.3.2.5.2.5.4 1.3-.2 2.6-1.5 3.1-.9.4-1.9 0-2.5-.7z" fill="#943436"/></g></svg>