<svg xmlns="http://www.w3.org/2000/svg" xmlns:xlink="http://www.w3.org/1999/xlink" viewBox="0 0 165.1 173.6"><style>.st1{fill:#f7b523}</style><g id="Freak"><path d="M165.1 82.1c0 11.1-1 22.2-5 31.8-4.2 10-11.8 18.1-19.4 25.7-7.6 7.6-16.5 13.1-26.6 17.2-9.7 4-19.8 8.7-30.9 8.7-11.1 0-21.7-3.6-31.4-7.6-10-4.2-18.4-10.8-26-18.4-7.6-7.6-13.8-16.2-17.9-26.2-4-9.7-7.5-20.1-7.5-31.2s2.3-22 6.3-31.7c4.2-10 11.3-18.4 18.9-26 7.6-7.6 16.2-14.1 26.2-18.2C61.5 2.2 72.1 0 83.2 0s21.4 3 31.1 7c10 4.2 20.1 8.7 27.7 16.3 7.6 7.6 11.7 17.8 15.8 27.9 4 9.7 7.3 19.8 7.3 30.9z" fill="#ffd635"/><path class="st1" d="M100.5 154.7c-10.5 0-20.5-3.4-29.6-7.2-9.4-3.9-17.4-10.2-24.5-17.3-7.1-7.1-13-15.2-16.9-24.7-3.8-9.1-7-18.9-7-29.4s2.1-20.8 5.9-29.9c3.9-9.4 10.7-17.4 17.8-24.5 7.1-7.1 15.3-13.3 24.7-17.2C75.7 2.5 80.8 1 86 0h-3.2C71.7 0 61 2.2 51.4 6.2c-10 4.2-18.7 10.7-26.2 18.2-7.6 7.6-14.7 15.9-18.9 26C2.3 60 0 70.9 0 82.1c0 11.1 3.5 21.5 7.5 31.2 4.2 10 10.4 18.6 17.9 26.2 7.6 7.6 16 14.2 26 18.4 9.7 4 20.3 7.6 31.4 7.6s21.3-4.7 30.9-8.7c8-3.3 15.3-7.5 21.7-12.9-1.9.9-3.8 1.8-5.8 2.7-9.1 3.8-18.6 8.1-29.1 8.1z"/><path d="M69.6 19.1s.6-.5 1.7-1.2 2.6-1.7 4.6-2.7c2-1 4.4-2 7.2-2.7 2.7-.8 5.8-1.2 8.9-1.2h2.3c.7 0 1.5.1 2.3.1.7.1 1.5.2 2.2.3.7.1 1.4.3 2.1.4 1.4.3 2.7.7 3.9 1.2 1.2.5 2.3 1 3.3 1.6 2 1.1 3.5 2.4 4.4 3.4.5.5.8.9 1.1 1.2.2.3.4.5.4.5s-.8.2-2.2.3c-.7.1-1.5.1-2.4.1h-2.9c-1.1 0-2.2-.1-3.3-.2-1.2-.1-2.4-.2-3.6-.4-.6-.1-1.3-.2-1.9-.3-.6-.1-1.3-.2-1.9-.3-.7-.1-1.3-.2-1.9-.3l-1.1-.2c-.3-.1-.6-.1-.9-.1-5.1-.7-10.6-.4-14.8 0-2.1.2-3.9.3-5.2.4-.6 0-1.1.1-1.5.1h-.8z" fill="#ffef57"/><path d="M133.5 49.1c-1-.7-1.8-1.5-2.7-2.1-.9-.5-2.2-.4-3.1-.8-1.8-.9-3.2-1.7-4.6-2.3-1.6-.6-1.4-1-3-1.6-.8-.3-1-.5-1.1-.8-.1-.3 0-.5.9-1s2.2-1.5 4-1.5c1 0 2 .5 3.1.7 1 .2 2.1.1 3.2.4 1.2.4 2.2 1.3 3.4 1.9 1.2.6 2.3 1.5 3.5 2.4 1.1.9 2.7 1.1 3.6 2 1 1 1.7 2.3 2.4 3.3 1.4 1.9 1.8 4.1 2.4 5.6 1.2 3.2 1.4 5.3.9 5.5-.6.2-2-1.3-4-3.6-.8-.9-1.8-1.8-2.8-2.8-.9-.9-1.6-2.1-2.7-3-1.1-.8-2.2-1.5-3.4-2.3z" fill="#e59d0e"/><path class="st1" d="M92.4 68.5c-.6 2.8-1.8 5.5-3.2 7.8-1.4 2.4-4 4-6 5.7-2.1 1.8-4.2 3.6-6.7 4.7s-5.3 1.3-8 1.6c-2.7.2-5.3-.3-8-1-2.8-.6-5.4-1.1-7.7-2.5-2.4-1.4-4.7-3-6.5-5.1-1.8-2.1-3.2-4.6-4.3-7.1-1.1-2.5-.8-5.3-1.1-8.1-.2-2.7-.4-5.3.3-8 .6-2.8 1.2-5.5 2.6-7.8 1.4-2.4 3.3-4.5 5.3-6.3 2.1-1.8 4.7-2.9 7.2-3.9 2.5-1.1 5-2.7 7.8-2.9 2.7-.2 5.3 1.3 8.1 1.9 2.8.6 5.6.8 7.9 2.2 2.4 1.4 4.9 3 6.7 5 1.8 2.1 2.6 5 3.7 7.5s1.6 5.2 1.9 7.9c0 2.7.6 5.6 0 8.4z"/><path d="M89.3 61.8c0 2.4-.4 4.8-1.1 7-.7 2.2-2.5 4-3.8 5.8-1.4 1.9-2.8 3.7-4.6 5.1-1.8 1.3-4.1 2.1-6.3 2.8-2.1.7-4.4.7-6.7.7-2.4 0-4.7.1-6.8-.5-2.2-.7-4.5-1.6-6.3-2.9-1.9-1.4-3.5-3.1-4.9-5-1.3-1.8-1.7-4.2-2.4-6.4-.7-2.1-1.3-4.3-1.3-6.6s0-4.7.6-6.8c.7-2.2 1.8-4.3 3.1-6.2 1.4-1.9 3.3-3.2 5.1-4.6 1.8-1.3 3.6-3.2 5.8-3.9 2.1-.7 4.6 0 7 0 2.4 0 4.7-.4 6.9.3s4.6 1.5 6.4 2.8c1.9 1.4 3.1 3.6 4.4 5.4 1.3 1.8 2.3 3.9 3.1 6.1.7 2.3 1.8 4.6 1.8 6.9z" fill="#fff"/><path d="M74.5 61.8c0 4.3-3.4 7.7-7.7 7.7-4.3 0-7.7-3.4-7.7-7.7 0-4.3 3.4-7.7 7.7-7.7 3 0-.1 4.8 1.3 6.1 1.4 1.4 6.4-1.4 6.4 1.6z" fill="#534741"/><path d="M125.7 61.7c-2.2 0-4.3-.9-6.2-.4-2.1.5-3.8 2-5.5 2.9-3.2 1.6-5.8 3.3-7.5 5.2-1.7 1.9-2.2 3.9-2.6 5.2-.4 1.3-.4 1.5 0 1.8.8.6 3 .3 6.8-1.2 2.1-.8 4.3-2.5 7.2-3.2 2.4-.5 5.1-.9 7.9-.9 2.8 0 5.5.4 7.9.9 2.9.6 5.1 2.6 7.1 3.4 3.8 1.5 6.5 2.4 7.3 1.8.4-.3.9-1.4.5-2.8-.4-1.3-2.1-2.8-3.7-4.8-1.7-1.9-4.2-3.6-7.4-5.2-1.7-.9-3.4-2.1-5.5-2.6-2-.4-4.1 0-6.3-.1zM48.3 99.2c-1.8.4-.6 4.5 0 6.6 1.3 4.5 3.4 10.6 6.5 15 5 7.2 12.1 14.9 20.4 18.2 9.2 3.8 18.6 4.7 28.1 4.9 9.3.2 19.8-4.4 26.6-10.2 3.5-3 7-6 9.5-9.9 2.6-3.9 4.5-7.8 6-12 1.2-3.5 1.7-7.4 3-10.8.7-1.8.2-2.9-1.6-3-2-.1-21.6 7.4-46.7 7.7-31.5.6-47.3-7.4-51.8-6.5z" fill="#943436"/><path d="M78.3 125.6c-.7 3.3-1.4 7.5-2.1 12.2-.3 2.2-1.2 4.3-1.4 6.7-.2 2.2-.2 4.5-.2 6.8 0 3.4 1.1 6.4 2.5 9.3 1.4 3 3 5.8 5.5 7.9 2.1 1.7 4.3 3.5 7 4.4 2.5.9 5.4.7 8.2.7 3.1 0 5.9-.7 8.6-1.7 2.8-1.1 5.7-2.1 7.9-4.1 2.2-2.1 4.1-4.7 5.3-7.5 1.1-2.7 1.9-5.8 1.9-9 0-4.5-1.1-9-1.7-13-.7-4.7-1.7-9-2.4-12.3-.6-2.5-1.9-6.2-6.6-6.2-2.1 0-6.9.4-11.9.4-2.5 0-5-.2-7.2-.2-3.3 0-6 .1-7.2.1-3.6-.1-5.7 3.2-6.2 5.5z" fill="#f9747e"/><defs><path id="SVGID_3_" d="M78.3 125.6c-.7 3.3-1.4 7.5-2.1 12.2-.3 2.2-1.2 4.3-1.4 6.7-.2 2.2-.2 4.5-.2 6.8 0 3.4 1.1 6.4 2.5 9.3 1.4 3 3 5.8 5.5 7.9 2.1 1.7 4.3 3.5 7 4.4 2.5.9 5.4.7 8.2.7 3.1 0 5.9-.7 8.6-1.7 2.8-1.1 5.7-2.1 7.9-4.1 2.2-2.1 4.1-4.7 5.3-7.5 1.1-2.7 1.9-5.8 1.9-9 0-4.5-1.1-9-1.7-13-.7-4.7-1.7-9-2.4-12.3-.6-2.5-1.9-6.2-6.6-6.2-2.1 0-6.9.4-11.9.4-2.5 0-5-.2-7.2-.2-3.3 0-6 .1-7.2.1-3.6-.1-5.7 3.2-6.2 5.5z"/></defs><clipPath id="SVGID_2_"><use xlink:href="#SVGID_3_" overflow="visible"/></clipPath><g clip-path="url(#SVGID_2_)"><path d="M99 154.1h-.4c-2.5-.2-4.3-2.4-4.1-4.9 1.4-15.9-2.6-29.8-2.6-30-.7-2.4.7-4.9 3.1-5.6 2.4-.7 4.9.7 5.6 3.1.2.6 4.5 15.8 2.9 33.3-.2 2.3-2.2 4.1-4.5 4.1z" fill="#e44c5f"/></g></g></svg>