<svg xmlns="http://www.w3.org/2000/svg" xmlns:xlink="http://www.w3.org/1999/xlink" viewBox="0 0 186.9 165.4"><path d="M171.2 82.1c0 11.1-1 22.2-5.1 31.8-4.2 10-11.9 18.1-19.5 25.7-7.6 7.6-16.7 13.1-26.8 17.2-9.7 4-20 8.7-31.2 8.7s-21.9-3.6-31.6-7.6c-10.1-4.2-18.6-10.8-26.2-18.4-7.6-7.6-13.9-16.2-18.1-26.2-4-9.7-7.5-20.1-7.5-31.2 0-11.1 2.3-22 6.3-31.7 4.2-10 11.4-18.4 19-26 7.6-7.6 16.3-14.1 26.4-18.2C66.7 2.2 77.4 0 88.6 0s21.6 3 31.3 7c10.1 4.2 20.3 8.7 27.9 16.3 7.6 7.6 11.8 17.8 15.9 27.9 4.1 9.6 7.5 19.7 7.5 30.9z" fill="#ffd635"/><path d="M106.4 154.7c-10.6 0-20.7-3.4-29.8-7.2-9.5-3.9-17.5-10.2-24.7-17.3-7.2-7.1-13.1-15.2-17.1-24.7-3.8-9.1-7.1-18.9-7.1-29.4s2.2-20.8 6-29.9c4-9.4 10.7-17.4 17.9-24.5C58.8 14.6 67 8.5 76.5 4.5c4.8-2 9.9-3.5 15.2-4.5h-3.1C77.4 0 66.7 2.2 56.9 6.2c-10.1 4.2-18.8 10.7-26.4 18.2-7.6 7.6-14.8 15.9-19 26-4 9.7-6.3 20.6-6.3 31.7 0 11.1 3.5 21.5 7.5 31.2 4.2 10 10.5 18.6 18.1 26.2 7.6 7.6 16.1 14.2 26.2 18.4 9.7 4 20.4 7.6 31.6 7.6s21.4-4.7 31.2-8.7c8-3.3 15.4-7.5 21.9-12.9-1.9.9-3.9 1.8-5.9 2.7-9.1 3.8-18.8 8.1-29.4 8.1z" fill="#f7b523"/><path d="M75.3 21.4s.6-.5 1.7-1.2 2.7-1.7 4.7-2.7c2-1 4.5-2 7.2-2.7 2.8-.8 5.9-1.2 9-1.2h2.3c.7 0 1.5.1 2.3.1.7.1 1.5.2 2.2.3.7.1 1.4.3 2.1.4 1.4.3 2.7.7 3.9 1.2 1.2.5 2.3 1 3.3 1.6 2 1.1 3.5 2.4 4.5 3.4.5.5.8.9 1.1 1.2.2.3.4.5.4.5s-.9.2-2.2.3c-.7.1-1.5.1-2.4.1h-3c-1.1 0-2.2-.1-3.4-.2-1.2-.1-2.4-.2-3.7-.4-.6-.1-1.3-.2-1.9-.3-.6-.1-1.3-.2-2-.3-.7-.1-1.3-.2-2-.3l-1.1-.2c-.3-.1-.6-.1-.9-.1-5.2-.7-10.6-.4-14.9 0-2.2.2-4 .3-5.2.4-.6 0-1.2.1-1.5.1-.3-.1-.5 0-.5 0z" fill="#ffef57"/><defs><path id="a" d="M171.2 82.1c0 11.1-1 22.2-5.1 31.8-4.2 10-11.9 18.1-19.5 25.7-7.6 7.6-16.7 13.1-26.8 17.2-9.7 4-20 8.7-31.2 8.7s-21.9-3.6-31.6-7.6c-10.1-4.2-18.6-10.8-26.2-18.4-7.6-7.6-13.9-16.2-18.1-26.2-4-9.7-7.5-20.1-7.5-31.2 0-11.1 2.3-22 6.3-31.7 4.2-10 11.4-18.4 19-26 7.6-7.6 16.3-14.1 26.4-18.2C66.7 2.2 77.4 0 88.6 0s21.6 3 31.3 7c10.1 4.2 20.3 8.7 27.9 16.3 7.6 7.6 11.8 17.8 15.9 27.9 4.1 9.6 7.5 19.7 7.5 30.9z"/></defs><clipPath id="b"><use xlink:href="#a" overflow="visible"/></clipPath><path d="M129.9 137.6H57c-2.4 0-4.3-1.9-4.3-4.3V91c0-2.4 1.9-4.3 4.3-4.3h72.8c2.4 0 4.3 1.9 4.3 4.3v42.3c.1 2.4-1.9 4.3-4.2 4.3zm11.3-34l45.7-20.4-5.4-11.8-40.3 18zM45.7 89.4l-40.3-18L0 83.2l45.7 20.4zm0 32.6l-28.3 15.7 6.3 11.3 22-12.1zm95.5 14.9l21.9 12.1 6.4-11.3-28.3-15.7z" clip-path="url(#b)" fill="#fff"/><path d="M39.7 58.9s.2.1.4.3c.1.1.3.3.5.4l.3.3c.1.1.2.1.3.2.2.1.5.3.8.5.3.2.6.4 1 .6.7.4 1.5.8 2.4 1.1.5.2 1 .3 1.4.5.5.1 1 .3 1.6.4 1.1.2 2.3.3 3.5.4 1.2 0 2.5 0 3.7-.2 1.3-.2 2.5-.5 3.7-.9l.2-.1.2-.1.5-.2c.3-.1.5-.2.8-.3.6-.3 1.2-.5 1.7-.8 1.1-.6 2.2-1.3 3.2-2s1.9-1.5 2.6-2.3c.8-.8 1.4-1.6 2-2.4.5-.8 1-1.6 1.3-2.3.3-.7.6-1.4.8-1.9.2-.5.3-1 .4-1.3.1-.3.1-.5.1-.5v-.2c.3-1.1 1.4-1.8 2.5-1.5.9.2 1.5 1 1.6 1.8 0 0 0 .2.1.6 0 .4.1 1 0 1.8 0 1.5-.4 3.8-1.5 6.3s-2.9 5.1-5.4 7.3c-1.2 1.1-2.6 2.1-4.1 3-.7.4-1.5.8-2.3 1.2-.4.2-.8.4-1.3.5l-.6.2-.3.1-.3.1c-1.7.6-3.4.9-5.2 1.1-1.7.2-3.5.1-5.1-.1-1.7-.2-3.2-.6-4.7-1.1-.7-.2-1.4-.5-2.1-.8-.6-.3-1.3-.6-1.8-1-1.2-.7-2.1-1.4-2.9-2.1-.4-.4-.8-.7-1.1-1-.3-.4-.6-.7-.9-1l-.4-.4c-.1-.1-.2-.2-.2-.3-.2-.2-.3-.4-.4-.5-.2-.3-.3-.5-.3-.5-.7-1-.4-2.3.6-2.9 1-.6 2-.5 2.7 0zm107.9 2.9s-.1.2-.3.5c-.1.1-.2.3-.4.5-.1.1-.2.2-.2.3-.1.1-.2.3-.4.4-.3.3-.6.6-.9 1-.3.3-.7.7-1.1 1-.8.7-1.8 1.4-2.9 2.1-.6.3-1.2.6-1.8 1-.7.3-1.3.6-2.1.8-1.4.5-3 .9-4.7 1.1-1.7.2-3.4.2-5.1.1-1.7-.2-3.5-.5-5.2-1.1l-.3-.1-.3-.1-.6-.2c-.4-.2-.9-.3-1.3-.5-.8-.4-1.6-.7-2.3-1.2-1.5-.9-2.9-1.9-4.1-3-2.5-2.2-4.3-4.8-5.4-7.3-1.1-2.5-1.5-4.7-1.5-6.3V49c0-.4.1-.6.1-.6.1-1.1 1.2-2 2.3-1.8.9.1 1.6.7 1.8 1.6l.1.2s0 .2.1.5.2.7.4 1.3c.2.5.4 1.2.8 1.9.3.7.8 1.5 1.3 2.3.6.8 1.2 1.6 2 2.4.8.8 1.7 1.6 2.6 2.3 1 .7 2 1.4 3.2 2 .6.3 1.1.6 1.7.8.3.1.6.2.8.3l.5.2.2.1.2.1c1.2.4 2.5.7 3.7.9 1.3.2 2.5.2 3.7.2 1.2-.1 2.4-.2 3.5-.4.6-.1 1.1-.3 1.6-.4.5-.2 1-.3 1.4-.5.9-.4 1.7-.7 2.4-1.1.3-.2.7-.4 1-.6.3-.2.5-.3.8-.5.1-.1.2-.1.3-.2l.3-.3c.2-.2.4-.3.5-.4.3-.2.4-.3.4-.3.9-.7 2.3-.5 3 .4.7.6.7 1.6.2 2.4z" fill="#943436"/></svg>