<svg xmlns="http://www.w3.org/2000/svg" viewBox="0 0 164.7 165.4"><style>.st1{fill:#f7b523}.st3{fill:#943436}</style><g id="Crying_Loud"><path d="M164.7 82.1c0 11.1-1 22.2-5 31.8-4.2 10-11.8 18.1-19.4 25.7-7.6 7.6-16.5 13.1-26.6 17.2-9.7 4-19.8 8.7-30.9 8.7-11.1 0-21.7-3.6-31.4-7.6-10-4.2-18.4-10.8-26-18.4-7.6-7.6-13.8-16.2-17.9-26.2-4-9.7-7.5-20.1-7.5-31.2s2.3-22 6.3-31.7c4.2-10 11.3-18.4 18.9-26 7.6-7.6 16.2-14.1 26.2-18.2C61 2.2 71.7 0 82.8 0s21.4 3 31.1 7c10 4.2 20.1 8.7 27.7 16.3 7.6 7.6 11.7 17.8 15.8 27.9 4 9.6 7.3 19.7 7.3 30.9z" fill="#ffd635"/><path class="st1" d="M100.5 154.7c-10.5 0-20.5-3.4-29.6-7.2-9.4-3.9-17.4-10.2-24.5-17.3-7.1-7.1-13-15.2-16.9-24.7-3.8-9.1-7-18.9-7-29.4s2.1-20.8 5.9-29.9c3.9-9.4 10.7-17.4 17.8-24.5 7.1-7.1 15.3-13.3 24.7-17.2C75.7 2.5 80.8 1 86 0h-3.2C71.7 0 61 2.2 51.4 6.2c-10 4.2-18.7 10.7-26.2 18.2-7.6 7.6-14.7 15.9-18.9 26C2.3 60 0 70.9 0 82.1c0 11.1 3.5 21.5 7.5 31.2 4.2 10 10.4 18.6 17.9 26.2 7.6 7.6 16 14.2 26 18.4 9.7 4 20.3 7.6 31.4 7.6s21.3-4.7 30.9-8.7c8-3.3 15.3-7.5 21.7-12.9-1.9.9-3.8 1.8-5.8 2.7-9.1 3.8-18.6 8.1-29.1 8.1z"/><path d="M69.6 21.4s.6-.5 1.7-1.2 2.6-1.7 4.6-2.7c2-1 4.4-2 7.2-2.7 2.7-.8 5.8-1.2 8.9-1.2h2.3c.7 0 1.5.1 2.3.1.7.1 1.5.2 2.2.3.7.1 1.4.3 2.1.4 1.4.3 2.7.7 3.9 1.2 1.2.5 2.3 1 3.3 1.6 2 1.1 3.5 2.4 4.4 3.4.5.5.8.9 1.1 1.2.2.3.4.5.4.5s-.8.2-2.2.3c-.7.1-1.5.1-2.4.1h-2.9c-1.1 0-2.2-.1-3.3-.2-1.2-.1-2.4-.2-3.6-.4-.6-.1-1.3-.2-1.9-.3-.6-.1-1.3-.2-1.9-.3-.7-.1-1.3-.2-1.9-.3l-1.1-.2c-.3-.1-.6-.1-.9-.1-5.1-.7-10.6-.4-14.8 0-2.1.2-3.9.3-5.2.4-.6 0-1.1.1-1.5.1-.6-.1-.8 0-.8 0z" fill="#ffef57"/><path class="st3" d="M131.8 125.4l-.6-1.2c-.2-.4-.4-.9-.7-1.4-.1-.3-.3-.6-.4-.9-.2-.3-.4-.6-.5-.9-.4-.7-.8-1.4-1.3-2.1-.5-.8-1.1-1.6-1.7-2.5-.6-.9-1.4-1.7-2.1-2.7-.7-.9-1.6-1.8-2.5-2.8-.9-.9-1.9-1.9-2.9-2.8-1.1-.9-2.1-1.9-3.3-2.7-2.3-1.8-5-3.3-7.9-4.7-2.9-1.4-6-2.4-9.3-3.2-3.3-.7-6.6-1.1-10-1.2l-2.6.1c-1 0-1.7.1-2.5.2-1.6.1-3.3.5-4.9.8-3.2.8-6.4 1.8-9.3 3.2-2.9 1.4-5.6 2.9-7.9 4.7-1.2.8-2.3 1.8-3.4 2.7-1 .9-2 1.9-2.9 2.8-.8 1-1.7 1.9-2.5 2.8-.7.9-1.4 1.8-2 2.7-.6.9-1.1 1.7-1.7 2.5-.5.8-.9 1.5-1.3 2.2-.8 1.3-1.2 2.5-1.6 3.2l-.6 1.2-.1.1c-.4.8-1.4 1.2-2.3.8-.8-.4-1.1-1.2-.9-2 0 0 .1-.5.4-1.3.1-.4.3-1 .5-1.6.2-.6.4-1.3.8-2.1.3-.8.7-1.7 1.1-2.6.4-.9.9-1.9 1.5-2.9s1.3-2.1 1.9-3.2c.7-1.1 1.6-2.2 2.4-3.4.9-1.1 1.9-2.3 3-3.4s2.2-2.3 3.6-3.3c2.5-2.2 5.6-4.2 8.8-6 3.3-1.7 6.9-3.1 10.7-4.1 1.9-.4 3.8-.9 5.9-1.1 1-.1 2.1-.3 2.9-.3l2.9-.1c4 0 7.9.5 11.8 1.4 3.8 1 7.4 2.3 10.7 4.1 3.3 1.8 6.3 3.7 8.8 6 1.3 1 2.5 2.3 3.6 3.4s2.1 2.3 3 3.5c.9 1.2 1.7 2.3 2.4 3.4s1.4 2.2 1.9 3.2c.5 1.1 1 2 1.5 3 .4 1 .7 1.9 1.1 2.7.2.4.3.8.4 1.1.1.4.2.7.3 1 .2.6.3 1.1.4 1.5.2.8.4 1.3.4 1.3.3.9-.3 1.9-1.2 2.1-.6 0-1.5-.4-1.8-1.2z"/><path class="st1" d="M25.9 51.2s.2-.7.7-1.8c.2-.6.6-1.2 1-2s.9-1.6 1.5-2.5c.6-.9 1.3-1.8 2.1-2.7.8-.9 1.6-1.9 2.6-2.8.9-1 2-1.8 3.1-2.8 1.1-.9 2.2-1.7 3.4-2.5 1.2-.8 2.4-1.5 3.6-2.3.6-.3 1.2-.7 1.9-1 .6-.3 1.2-.6 1.9-.9.6-.3 1.2-.5 1.8-.8.6-.2 1.2-.5 1.8-.7 1.2-.4 2.3-.7 3.3-1.1 1-.3 2-.5 2.9-.7.9-.2 1.6-.3 2.3-.4 1.3-.2 2-.3 2-.3 1.9-.2 3.7 1.1 3.9 3 .2 1.9-1.1 3.6-3 3.9h-.2s-.6.1-1.7.3c-.5.1-1.2.2-2 .3-.8.1-1.6.3-2.5.5-.9.2-1.9.4-3 .7-.5.1-1.1.3-1.6.4-.5.2-1.1.4-1.7.6-1.2.3-2.3.8-3.5 1.3-1.1.5-2.4 1-3.5 1.6-1.2.5-2.3 1.2-3.4 1.8-1.1.7-2.2 1.3-3.2 2-.5.3-1 .7-1.5 1-.5.3-.9.7-1.4 1-.9.7-1.7 1.4-2.5 2-.7.7-1.5 1.2-2 1.8-.6.6-1.1 1-1.5 1.5l-1.6 1.6z"/><path class="st3" d="M25.4 56.3c.9-.4 1.8-.9 2.7-1.3.9-.4 1.8-.7 2.8-1.1.9-.3 1.9-.7 2.8-1 1-.3 1.9-.6 2.9-.8 1-.2 2-.5 3-.6 1-.2 2-.4 3-.5 1-.1 2-.2 3.1-.3 1 0 2.1-.1 3.1-.1s2.1 0 3.1.2c1 .1 2.1.2 3.1.4s2.1.4 3.1.6l3.1.9c1 .3 2 .8 3 1.2 1 .4 2 .9 2.9 1.4 1 .5 2 1 2.9 1.6l2.8 1.8.5.5c1.8 1.8 1.9 4.7.1 6.6-.9.9-2.1 1.4-3.4 1.4h-2.4c-.8 0-1.6 0-2.4.1l-2.4.2c-.8 0-1.6.2-2.4.3-.8.1-1.6.2-2.4.4l-2.4.5c-.8.2-1.6.4-2.4.7l-1.2.3-1 .4c-.8.3-1.6.5-2.3.9l-2.3 1-2.3 1c-.8.4-1.5.8-2.2 1.2-1.5.8-2.9 1.7-4.3 2.7-1.4 1-2.8 2-4.1 3.1 1-1.4 2.1-2.7 3.3-4 1.2-1.3 2.4-2.5 3.7-3.7.7-.6 1.3-1.2 2-1.7l2.1-1.7 2.2-1.6c.7-.5 1.5-1 2.2-1.5l1-.8 1.2-.7c.8-.4 1.6-.9 2.4-1.3l2.5-1.2c.8-.4 1.7-.7 2.5-1.1.9-.3 1.7-.7 2.6-1l2.6-.8c.9-.3 1.8-.5 2.7-.7l2.7-.6-2.7 8.5-1.9-1.8c-.6-.7-1.3-1.2-2-1.7s-1.4-1.1-2.1-1.6c-.7-.5-1.5-1-2.2-1.4l-2.4-1.3c-.8-.4-1.7-.7-2.5-1.1-.8-.4-1.7-.6-2.6-.9-.9-.3-1.8-.5-2.7-.7-.9-.2-1.8-.4-2.7-.5-.9-.2-1.9-.3-2.8-.3-.9-.1-1.9-.1-2.8-.2-1-.1-1.9 0-2.9 0s-1.9.1-2.9.2-1.9.2-2.9.4-1.9.3-2.9.5c-.9.2-1.9.4-2.8.6z"/><path class="st1" d="M147.8 51.2s-.5-.5-1.3-1.4c-.4-.5-1-.9-1.5-1.5-.6-.6-1.3-1.2-2-1.8-.8-.6-1.6-1.3-2.5-2-.5-.3-.9-.7-1.4-1-.5-.3-1-.7-1.5-1-1-.7-2.1-1.3-3.2-2-1.1-.6-2.2-1.3-3.4-1.8-1.1-.6-2.4-1-3.5-1.6-1.2-.4-2.3-.9-3.5-1.3-.6-.2-1.1-.4-1.7-.6-.6-.2-1.1-.3-1.6-.4-1-.3-2.1-.5-3-.7-.9-.2-1.8-.3-2.5-.5-.8-.2-1.4-.2-2-.3-1.1-.2-1.7-.3-1.7-.3h-.2c-1.9-.3-3.2-2.1-3-4 .3-1.9 2-3.2 3.9-3 0 0 .7.1 2 .3.6.1 1.4.2 2.3.4.9.2 1.9.4 2.9.7 1 .3 2.2.6 3.3 1.1.6.2 1.2.4 1.8.7.6.3 1.2.5 1.8.8.6.3 1.2.6 1.9.9.6.3 1.2.6 1.9 1 1.2.7 2.5 1.4 3.6 2.3 1.2.8 2.3 1.7 3.4 2.5 1.1.9 2.1 1.8 3.1 2.8 1 .9 1.8 1.9 2.6 2.8.8.9 1.5 1.9 2.1 2.7.6.9 1.1 1.7 1.5 2.5.4.8.8 1.4 1 2 .2 1 .4 1.7.4 1.7z"/><path class="st3" d="M148.4 56.3c-1-.2-1.9-.5-2.9-.7-.9-.2-1.9-.4-2.9-.5-1-.1-1.9-.3-2.9-.4-1-.1-1.9-.2-2.9-.2s-1.9-.1-2.9 0c-1 0-1.9 0-2.8.2-.9.1-1.9.2-2.8.3-.9.1-1.8.3-2.7.5-.9.2-1.8.4-2.7.7-.9.3-1.8.5-2.6.9s-1.7.7-2.5 1.1l-2.4 1.3c-.8.4-1.5 1-2.2 1.4-.8.4-1.4 1-2.1 1.6-.7.6-1.4 1.1-2 1.7l-1.9 1.8-2.7-8.5 2.7.6c.9.2 1.8.4 2.7.7l2.6.8c.9.3 1.7.7 2.6 1 .8.4 1.7.7 2.5 1.1l2.5 1.2c.8.4 1.6.9 2.4 1.3l1.2.7 1.1.7c.7.5 1.5.9 2.2 1.5l2.2 1.6 2.1 1.7c.7.6 1.3 1.2 2 1.7 1.3 1.2 2.5 2.4 3.7 3.7 1.2 1.3 2.3 2.6 3.3 4-1.3-1.1-2.7-2.1-4.1-3.1-1.4-1-2.9-1.8-4.3-2.7-.7-.4-1.5-.8-2.2-1.2l-2.3-1.1-2.3-1c-.8-.3-1.6-.6-2.3-.9l-1.2-.4-1.2-.3c-.8-.2-1.6-.5-2.4-.7l-2.4-.5c-.8-.2-1.6-.3-2.4-.4-.8-.1-1.6-.3-2.4-.3l-2.4-.2c-.8-.1-1.6-.1-2.4-.1h-2.4c-2.6 0-4.7-2.1-4.7-4.7 0-1.3.5-2.5 1.4-3.3l.5-.5 2.8-1.8c.9-.6 1.9-1.1 2.9-1.6s1.9-1 2.9-1.4l3-1.2 3.1-.9c1-.2 2.1-.4 3.1-.6 1-.2 2.1-.3 3.1-.4 1-.1 2.1-.1 3.1-.2s2.1 0 3.1.1c1 0 2.1.1 3.1.3 1 .1 2 .3 3 .5l3 .6c1 .2 1.9.5 2.9.8 1 .3 1.9.6 2.8 1 .9.4 1.9.7 2.8 1.1 1.1.8 2 1.2 2.9 1.6z"/><path class="st1" d="M100.1 124.2h-.3c-.2 0-.4.1-.7.1-.6.1-1.5.1-2.5.2s-2.2.2-3.4.3c-.7 0-1.4.1-2 .1-.7 0-1.5.1-2.3.1-3 .1-6 .2-8.3.1-1.1 0-2.1-.1-2.8-.1-.7 0-1.1-.1-1.1-.1-1.4-.1-2.3-1.4-2.2-2.7.1-.9.6-1.6 1.3-1.9l1-.5c.7-.3 1.6-.6 2.8-1 2.3-.7 5.5-1.4 8.6-1.7.8-.1 1.6-.1 2.4-.2.7 0 1.6-.1 2.4-.1 1.6 0 3.2.3 4.5.7.6.2 1.2.4 1.7.7.5.2.9.5 1.3.7.4.2.7.4.8.5.2.1.2.2.2.2 1 1.1 1 2.7 0 3.8-.3.5-.9.7-1.4.8z"/></g></svg>