<svg xmlns="http://www.w3.org/2000/svg" viewBox="0 0 164.7 165.4"><path d="M164.7 82.1c0 11.1-1 22.2-5 31.8-4.2 10-11.8 18.1-19.4 25.7-7.6 7.6-16.5 13.1-26.6 17.2-9.7 4-19.8 8.7-30.9 8.7-11.1 0-21.7-3.6-31.4-7.6-10-4.2-18.4-10.8-26-18.4-7.6-7.6-13.8-16.2-17.9-26.2-4-9.7-7.5-20.1-7.5-31.2 0-11.1 2.3-22 6.3-31.7 4.2-10 11.3-18.4 18.9-26 7.6-7.6 16.2-14.1 26.2-18.2C61 2.2 71.7 0 82.8 0s21.4 3 31.1 7c10 4.2 20.1 8.7 27.7 16.3 7.6 7.6 11.7 17.8 15.8 27.9 4 9.6 7.3 19.7 7.3 30.9z" fill="#ffd635"/><path d="M100.5 154.7c-10.5 0-20.5-3.4-29.6-7.2-9.4-3.9-17.4-10.2-24.5-17.3-7.1-7.1-13-15.2-16.9-24.7-3.8-9.1-7-18.9-7-29.4s2.1-20.8 5.9-29.9c3.9-9.4 10.7-17.4 17.8-24.5 7.1-7.1 15.3-13.3 24.7-17.2C75.7 2.5 80.8 1 86 0h-3.2C71.7 0 61 2.2 51.4 6.2c-10 4.2-18.7 10.7-26.2 18.2-7.6 7.6-14.7 15.9-18.9 26C2.3 60 0 70.9 0 82.1c0 11.1 3.5 21.5 7.5 31.2 4.2 10 10.4 18.6 17.9 26.2 7.6 7.6 16 14.2 26 18.4 9.7 4 20.3 7.6 31.4 7.6s21.3-4.7 30.9-8.7c8-3.3 15.3-7.5 21.7-12.9-1.9.9-3.8 1.8-5.8 2.7-9.1 3.8-18.6 8.1-29.1 8.1z" fill="#f7b523"/><path d="M69.6 21.4s.6-.5 1.7-1.2 2.6-1.7 4.6-2.7c2-1 4.4-2 7.2-2.7 2.7-.8 5.8-1.2 8.9-1.2h2.3c.7 0 1.5.1 2.3.1.7.1 1.5.2 2.2.3.7.1 1.4.3 2.1.4 1.4.3 2.7.7 3.9 1.2 1.2.5 2.3 1 3.3 1.6 2 1.1 3.5 2.4 4.4 3.4.5.5.8.9 1.1 1.2.2.3.4.5.4.5s-.8.2-2.2.3c-.7.1-1.5.1-2.4.1h-2.9c-1.1 0-2.2-.1-3.3-.2-1.2-.1-2.4-.2-3.6-.4-.6-.1-1.3-.2-1.9-.3-.6-.1-1.3-.2-1.9-.3-.7-.1-1.3-.2-1.9-.3l-1.1-.2c-.3-.1-.6-.1-.9-.1-5.1-.7-10.6-.4-14.8 0-2.1.2-3.9.3-5.2.4-.6 0-1.1.1-1.5.1-.6-.1-.8 0-.8 0z" fill="#ffef57"/><path d="M75.4 96c0 6-2.6 11.2-6.5 15.2s-9.2 6.3-15.2 6.3-11.9-1.7-15.9-5.6c-3.9-3.9-5.3-9.9-5.3-15.9s1.4-11.9 5.3-15.9c3.9-3.9 9.9-6.2 15.9-6.2s10.9 3.4 14.8 7.3c3.9 3.9 6.9 8.8 6.9 14.8zm49-7.1c0 5 2.6 9.4 5.9 12.7 3.3 3.3 7.7 6.2 12.7 6.2 5 0 9.2-3.1 12.5-6.4 3.3-3.3 5.4-7.5 5.4-12.5s-1.5-9.8-4.8-13.1c-3.3-3.3-8.1-5-13.1-5s-9.7 1.8-13 5.1c-3.4 3.3-5.6 8-5.6 13z" fill="#ffa926"/><path d="M137.5 106.4s-.2.3-.5.9c-.4.6-.7 1.4-1.6 2.5-.4.5-.8 1.2-1.3 1.8-.5.6-1 1.3-1.6 2-.6.7-1.3 1.4-2 2.2-.7.7-1.5 1.5-2.4 2.3-1.8 1.5-3.7 3.1-6 4.5-1.1.7-2.3 1.4-3.6 2-.6.3-1.3.6-1.9.9-.7.3-1.3.6-2 .8-.7.3-1.4.5-2.1.8-.7.2-1.4.4-2.1.7-1.4.5-2.9.8-4.4 1.1-1.5.3-3 .5-4.6.6-.8.1-1.5.2-2.3.2l-2.5.1-2.1-.1c-.4 0-.7 0-1.1-.1l-1.2-.1c-.8-.1-1.6-.1-2.4-.3-.8-.1-1.5-.3-2.3-.4-1.5-.3-3-.6-4.4-1.1-.7-.2-1.4-.5-2.1-.7-.7-.3-1.4-.5-2.1-.8-.7-.2-1.3-.6-2-.9-.6-.3-1.3-.6-1.9-.9-1.2-.7-2.4-1.3-3.5-2.1-2.3-1.4-4.2-3-5.9-4.5-.8-.8-1.6-1.5-2.4-2.3-.7-.8-1.4-1.5-2-2.2-.6-.7-1.1-1.4-1.6-2-.5-.6-.9-1.3-1.3-1.8-.8-1.1-1.2-2-1.6-2.6-.4-.6-.5-.9-.5-.9-.7-1.2-.3-2.8.9-3.5 1.1-.6 2.5-.4 3.2.6l.1.1s.2.3.6.7c.4.5 1 1.2 1.8 2.1.4.4.8.9 1.3 1.4l1.6 1.6c.6.5 1.3 1.1 1.9 1.7.7.5 1.4 1.2 2.2 1.8 1.6 1.1 3.4 2.4 5.4 3.4 2 1.1 4.2 2 6.5 2.9 2.3.9 4.8 1.4 7.3 1.9.6.1 1.3.2 1.9.3.6.1 1.2.1 1.9.2l.9.1h3.1l1.8-.1c.7 0 1.3-.1 1.9-.1 1.3-.1 2.6-.3 3.8-.5 2.5-.5 5-1.1 7.2-2 2.3-.9 4.5-1.8 6.4-2.9 2-1 3.7-2.3 5.3-3.4.8-.6 1.5-1.2 2.2-1.8.7-.6 1.3-1.2 1.9-1.7l1.6-1.6c.5-.5.9-1 1.3-1.4.7-.8 1.4-1.6 1.8-2.1.4-.5.6-.8.6-.8 1-1.2 2.8-1.4 4-.4 1.4 1.1 1.7 2.7.9 3.9zM48.6 68.9s-.1-.2-.2-.6c-.1-.4-.3-.9-.4-1.6-.1-.8-.3-1.8-.4-2.8-.1-1.1-.2-2.3-.1-3.7.1-.7.1-1.4.2-2.1.1-.7.2-1.5.4-2.3.3-1.5.9-3.2 1.8-4.7.8-1.6 2-3.1 3.5-4.5 1.5-1.3 3.4-2.4 5.5-2.9h.9l.6-.1h1.7c.6 0 1.1.1 1.6.2l1.5.3c1.9.6 3.7 1.5 5.1 2.6 1.4 1.1 2.6 2.3 3.6 3.6.5.6.9 1.3 1.3 1.9.4.6.7 1.2 1.1 1.8.6 1.2 1.1 2.3 1.4 3.4.4 1 .6 1.9.8 2.7.2.7.2 1.4.3 1.8.1.4.1.6.1.6.2 1.1-.5 2-1.6 2.2-.9.1-1.7-.3-2-1.1l-.3-.4s-.3-.7-.9-1.9c-.3-.6-.7-1.3-1.1-2.1-.2-.4-.5-.8-.8-1.2-.3-.4-.5-.9-.9-1.3-.3-.4-.6-.9-1-1.3l-.6-.6-.6-.6c-.8-.8-1.8-1.6-2.7-2.2-1-.7-2-1-3-1.3-.3-.1-.5-.1-.7-.1h-1.3l-.6.1h-.6c.1 0-.3.1.3 0-.9.2-1.8.6-2.6 1.3-.8.7-1.6 1.5-2.2 2.5-.6 1-1.2 2-1.6 3.1-.1.3-.2.5-.3.8-.1.3-.1.6-.2.8-.2.5-.3 1.1-.4 1.6l-.3 1.5c-.1.5-.1 1-.2 1.4-.1.9-.1 1.6-.2 2.3v2.4c0 1.1-.9 1.9-2 1.9-.9 0-1.7-.6-1.9-1.4zm87.2-.7v-.6c0-.4.1-1 .1-1.6 0-.6.1-1.4 0-2.3 0-.5 0-.9-.1-1.4-.1-.5-.1-1-.2-1.6-.1-.5-.1-1.1-.3-1.7-.1-.6-.3-1.1-.5-1.7-.4-1.2-.9-2.3-1.5-3.4s-1.4-2-2.3-2.8c-.9-.7-1.9-1.3-3-1.5.4.1.1 0 .2 0h-.6l-.6-.1c-.2-.1-.3 0-.4 0h-.3c-.2 0-.5.1-.8.1-.3 0-.6.1-.9.2-1.1.3-2.3.8-3.3 1.6-1 .7-2 1.5-2.8 2.4-.4.4-.8.9-1.2 1.4-.4.4-.7.9-1 1.4-.3.4-.5.9-.8 1.4-.3.4-.5.9-.7 1.3-.4.8-.7 1.5-1 2.1-.5 1.2-.7 2-.7 2-.4 1-1.5 1.5-2.5 1.1-.8-.3-1.3-1.1-1.3-2v-.6c0-.4 0-1 .2-1.8.1-.8.3-1.7.6-2.8.3-1.1.7-2.3 1.3-3.5.6-1.3 1.3-2.6 2.3-3.9 1-1.3 2.2-2.6 3.6-3.8 1.5-1.2 3.3-2.2 5.3-2.8.5-.2 1-.3 1.6-.4l.8-.1.4-.1h2.4l.6.1h.6l.3.1c2.3.5 4.3 1.7 6 3.1 1.6 1.4 2.8 3.1 3.7 4.8.9 1.7 1.4 3.4 1.7 5 .4 1.6.4 3.1.5 4.5 0 1.4-.1 2.6-.3 3.7-.1 1.1-.4 2.1-.6 2.8-.2.8-.4 1.2-.6 1.6-.1.4-.2.6-.2.6l-.1.2c-.4 1-1.5 1.5-2.5 1.1-.7-.5-1.2-1.3-1.1-2.1z" fill="#943436"/></svg>