<svg xmlns="http://www.w3.org/2000/svg" viewBox="0 0 164.7 165.4"><style>.st42{fill:#d3461a}.st43{fill:#443731}</style><g id="Angry"><path d="M164.7 82.1c0 11.1-1 22.2-5 31.8-4.2 10-11.8 18.1-19.4 25.7-7.6 7.6-16.5 13.1-26.6 17.2-9.7 4-19.8 8.7-30.9 8.7-11.1 0-21.7-3.6-31.4-7.6-10-4.2-18.4-10.8-26-18.4-7.6-7.6-13.8-16.2-17.9-26.2-4-9.7-7.5-20.1-7.5-31.2 0-11.1 2.3-22 6.3-31.7 4.2-10 11.3-18.4 18.9-26 7.6-7.6 16.2-14.1 26.2-18.2C61 2.2 71.7 0 82.8 0s21.4 3 31.1 7c10 4.2 20.1 8.7 27.7 16.3 7.6 7.6 11.7 17.8 15.8 27.9 4 9.6 7.3 19.7 7.3 30.9z" fill="#f4602c"/><path class="st42" d="M100.5 154.7c-10.5 0-20.5-3.4-29.6-7.2-9.4-3.9-17.4-10.2-24.5-17.3-7.1-7.1-13-15.2-16.9-24.7-3.8-9.1-7-18.9-7-29.4s2.1-20.8 5.9-29.9c3.9-9.4 10.7-17.4 17.8-24.5 7.1-7.1 15.3-13.3 24.7-17.2C75.7 2.5 80.8 1 86 0h-3.2C71.7 0 61 2.2 51.4 6.2c-10 4.2-18.7 10.7-26.2 18.2-7.6 7.6-14.7 15.9-18.9 26C2.3 60 0 70.9 0 82.1c0 11.1 3.5 21.5 7.5 31.2 4.2 10 10.4 18.6 17.9 26.2 7.6 7.6 16 14.2 26 18.4 9.7 4 20.3 7.6 31.4 7.6s21.3-4.7 30.9-8.7c8-3.3 15.3-7.5 21.7-12.9-1.9.9-3.8 1.8-5.8 2.7-9.1 3.8-18.6 8.1-29.1 8.1z"/><path class="st42" d="M82.6 64.1s-.2 0-.6-.1c-.4-.1-.9-.2-1.5-.4-1.2-.4-2.8-1.1-4.5-2.2-.8-.6-1.7-1.2-2.5-2s-1.7-1.6-2.7-2.4c-1.8-1.7-3.8-3.5-5.7-5.4-3.8-3.6-7.4-7.4-10.1-10.5-1.3-1.5-2.4-2.8-3.1-3.7-.7-.9-1.1-1.5-1.1-1.5-.8-1.1-.6-2.6.5-3.4.8-.6 1.8-.6 2.6-.2 0 0 .6.3 1.6.9 1 .6 2.4 1.5 4.1 2.7 3.3 2.2 7.6 5.4 11.8 8.7 2.1 1.7 4.1 3.4 6 5l2.7 2.4c.9.8 1.6 1.5 2.3 2.3 1.3 1.5 2.2 3 2.7 4.2.3.6.4 1.1.5 1.4.1.3.1.6.1.6.3 1.6-.7 3.2-2.3 3.5-.3.1-.6.1-.8.1zm22.8-3.6s0-.2.1-.5.2-.8.4-1.3c.4-1.1 1.2-2.5 2.3-3.9.6-.7 1.2-1.4 2-2.1l2.4-2.1c1.7-1.4 3.5-3 5.4-4.4 3.7-3 7.6-5.8 10.6-7.7 1.5-1 2.8-1.8 3.7-2.3.9-.5 1.5-.8 1.5-.8 1.2-.6 2.6-.2 3.3 1 .4.8.4 1.8-.2 2.5 0 0-.4.5-1 1.3-.7.8-1.6 2-2.8 3.4-2.3 2.8-5.6 6.3-9 9.6-1.7 1.7-3.4 3.3-5.1 4.8-.8.7-1.6 1.5-2.4 2.2-.8.7-1.5 1.3-2.3 1.8-1.5 1-3 1.5-4.1 1.8-.6.1-1 .2-1.4.3h-.5c-1.7.1-3.1-1.3-3.2-3 .3-.2.3-.4.3-.6zm-11-6.9s-.3-.3-.5-.8c-.3-.5-.5-1.3-.7-2.2-.2-.9-.1-1.9-.1-3s.1-2.3.1-3.5c.1-2.4.4-4.7.6-6.5l.5-3c.2-.7.8-1.1 1.5-.9.5.1.8.5.9.9 0 0 .3 1.2.5 3 .3 1.8.5 4.2.6 6.5.1 1.2.1 2.4.1 3.5s.1 2.2-.1 3c-.1.9-.4 1.6-.7 2.2-.3.5-.5.8-.5.8-.6.7-1.5.7-2.2.2.1 0 0-.1 0-.2z"/><path class="st43" d="M64.1 121.9s.1-.3.3-.8c.2-.5.7-1.4 1.2-2.3 1.1-1.9 3.1-4.5 6.1-6.9 1.5-1.2 3.2-2.4 5.1-3.4 1.9-1 4-2 6.2-2.7 2.2-.7 4.5-1.3 6.9-1.7 2.4-.4 4.8-.6 7.3-.6H99c.6 0 1.3 0 1.9.1 1.2.1 2.4.2 3.6.4 2.4.3 4.7.9 6.9 1.5 2.2.7 4.3 1.5 6.2 2.5 1.9 1 3.7 2 5.2 3.2 3.1 2.3 5.2 4.9 6.3 6.9.6 1 .9 1.8 1.2 2.4l.3.9c.5 1.3-.2 2.8-1.5 3.3-1.1.4-2.3 0-3-.9l-.2-.2s-.1-.2-.4-.6c-.3-.4-.7-.9-1.2-1.5-.6-.6-1.3-1.3-2.2-2-.9-.7-2-1.5-3.3-2.2-1.3-.7-2.8-1.4-4.4-2-.8-.3-1.7-.6-2.5-.8-.9-.3-1.8-.5-2.7-.8-1.9-.4-3.8-.8-5.8-1l-3-.3c-.5 0-1 0-1.5-.1h-1.6c-2 0-4.1.1-6.1.4-2 .3-3.9.6-5.8 1.1-1.8.5-3.6 1.1-5.2 1.8s-3 1.4-4.3 2.2c-1.3.8-2.4 1.6-3.3 2.3-.9.8-1.7 1.5-2.2 2.1-.6.7-1 1.1-1.3 1.5-.3.4-.5.7-.5.7-.9 1.2-2.5 1.4-3.7.6-.9-.7-1.3-2-.8-3.1z"/><path class="st42" d="M111.6 132.2s-.1 0-.3.1c-.3 0-.4.1-.7.2-.6.2-1.4.4-2.4.6-1 .2-2.1.4-3.3.5-.6.1-1.2.1-2 .2-.8 0-1.5.1-2.3.1-3.1.1-6.2 0-8.6-.3-1.2-.1-2.2-.3-2.9-.4-.7-.1-1.1-.2-1.1-.2h-.1c-2.1-.5-3.4-2.6-2.9-4.7.2-1 .9-1.8 1.7-2.4 0 0 1.5-1 4-1.9 2.4-.9 5.7-1.7 9-2.1.8-.1 1.7-.2 2.5-.2.7 0 1.7-.1 2.6-.1 1.8.1 3.5.4 4.9 1 1.4.5 2.6 1.2 3.3 1.8.4.3.8.6.8.7.1.2.2.3.2.3 1.4 2 .9 4.8-1.1 6.3-.4.2-.9.4-1.3.5z"/><circle class="st42" cx="59.9" cy="75.9" r="14.3"/><circle class="st43" cx="62.2" cy="73.9" r="11.4"/><circle class="st42" cx="131" cy="75.9" r="14.3"/><circle class="st43" cx="133.3" cy="73.9" r="11.4"/></g></svg>