<svg xmlns="http://www.w3.org/2000/svg" viewBox="0 0 190.1 165.4"><style>.st11{fill:#534741}</style><g id="Love_Sunglasses"><path d="M164.7 82.1c0 11.1-1 22.2-5 31.8-4.2 10-11.8 18.1-19.4 25.7-7.6 7.6-16.5 13.1-26.6 17.2-9.7 4-19.8 8.7-30.9 8.7-11.1 0-21.7-3.6-31.4-7.6-10-4.2-18.4-10.8-26-18.4-7.6-7.6-13.8-16.2-17.9-26.2-4-9.7-7.5-20.1-7.5-31.2 0-11.1 2.3-22 6.3-31.7 4.2-10 11.3-18.4 18.9-26 7.6-7.6 16.2-14.1 26.2-18.2C61 2.2 71.7 0 82.8 0c11.1 0 21.4 3 31.1 7 10 4.2 20.1 8.7 27.7 16.3 7.6 7.6 11.7 17.8 15.8 27.9 4 9.6 7.3 19.7 7.3 30.9z" fill="#ffd635"/><path d="M100.5 154.7c-10.5 0-20.5-3.4-29.6-7.2-9.4-3.9-17.4-10.2-24.5-17.3-7.1-7.1-13-15.2-16.9-24.7-3.8-9.1-7-18.9-7-29.4s2.1-20.8 5.9-29.9c3.9-9.4 10.7-17.4 17.8-24.5 7.1-7.1 15.3-13.3 24.7-17.2C75.7 2.5 80.8 1 86 0h-3.2C71.7 0 61 2.2 51.4 6.2c-10 4.2-18.7 10.7-26.2 18.2-7.6 7.6-14.7 15.9-18.9 26C2.3 60 0 70.9 0 82.1c0 11.1 3.5 21.5 7.5 31.2 4.2 10 10.4 18.6 17.9 26.2 7.6 7.6 16 14.2 26 18.4 9.7 4 20.3 7.6 31.4 7.6s21.3-4.7 30.9-8.7c8-3.3 15.3-7.5 21.7-12.9-1.9.9-3.8 1.8-5.8 2.7-9.1 3.8-18.6 8.1-29.1 8.1z" fill="#f7b523"/><path d="M69.6 21.4s.6-.5 1.7-1.2 2.6-1.7 4.6-2.7c2-1 4.4-2 7.2-2.7 2.7-.8 5.8-1.2 8.9-1.2h2.3c.7 0 1.5.1 2.3.1.7.1 1.5.2 2.2.3.7.1 1.4.3 2.1.4 1.4.3 2.7.7 3.9 1.2 1.2.5 2.3 1 3.3 1.6 2 1.1 3.5 2.4 4.4 3.4.5.5.8.9 1.1 1.2.2.3.4.5.4.5s-.8.2-2.2.3c-.7.1-1.5.1-2.4.1h-2.9c-1.1 0-2.2-.1-3.3-.2-1.2-.1-2.4-.2-3.6-.4-.6-.1-1.3-.2-1.9-.3-.6-.1-1.3-.2-1.9-.3-.7-.1-1.3-.2-1.9-.3l-1.1-.2c-.3-.1-.6-.1-.9-.1-5.1-.7-10.6-.4-14.8 0-2.1.2-3.9.3-5.2.4-.6 0-1.1.1-1.5.1-.6-.1-.8 0-.8 0z" fill="#ffef57"/><path d="M121.3 119.5v.6c-.1.4 0 .9-.2 1.7-.1.4-.2.8-.4 1.3-.1.4-.3.9-.5 1.4-.2.5-.5 1-.8 1.5-.3.5-.7 1.1-1 1.6-.4.5-.8 1.1-1.3 1.6s-1 1.1-1.6 1.6c-1.2 1-2.5 2-4 2.8-1.5.8-3.1 1.5-4.9 1.9-1.7.5-3.5.8-5.3.9h-2.7c-.7 0-1.8-.2-2.7-.3-1.8-.3-3.5-.8-5-1.4-.8-.3-1.5-.6-2.3-1.1-.7-.4-1.4-.8-2-1.2-1.3-.9-2.4-1.8-3.3-2.8-.5-.5-.9-.9-1.2-1.4-.4-.5-.7-.9-1-1.4-.3-.4-.5-.9-.7-1.3-.2-.4-.4-.8-.5-1.1-.3-.7-.4-1.3-.6-1.7-.1-.4-.1-.6-.1-.6-.1-.4.2-.8.6-.9.2 0 .4 0 .5.1 0 0 .2.1.5.3.3.2.8.5 1.4.8.6.3 1.3.7 2.1 1.1.8.4 1.7.8 2.6 1.1 1 .4 2 .7 3.1 1 1.1.3 2.3.5 3.4.7 1.2.2 2.4.3 3.6.4h3.7c1.2-.1 2.5-.2 3.7-.4 1.2-.2 2.4-.5 3.5-.8.6-.2 1.1-.3 1.7-.5.3-.1.5-.2.8-.3.3-.1.5-.2.8-.3 1-.4 2-.9 2.9-1.3.5-.2.9-.5 1.3-.7.4-.2.8-.5 1.2-.7.7-.5 1.4-.9 1.9-1.3.5-.3 1-.8 1.3-1 .3-.2.5-.4.5-.4.4-.3.9-.2 1.1.2-.2 0-.1.2-.1.3zm23-6.5c-.4 0-.8 0-1.2-.1-17-3-31.8-15.2-39.8-32.5-1.4-3-2.7-7.1-3.7-10.9-.1-.5-.4-1.8-2.9-1.8s-2.8 1.2-2.9 1.8c-.9 3.8-2.3 7.9-3.7 10.9-7.9 17.3-22.8 29.5-39.7 32.5-.4.1-.8.1-1.2.1-.4 0-.8 0-1.2-.1-17-3-31.8-15.1-39.7-32.5-6.4-13.9-6.6-28-.7-37.9 4.7-7.9 13.1-12.4 23.2-12.4h.3c6.4.1 12.8 2 17.9 5.4.1.1.2.1.2.2l.3-.2c5.1-3.4 11.7-5.4 18.2-5.4h.3c9.9.1 18.3 4.6 22.9 12.4 1.8 3 3.1 6.5 3.7 10.4.8 0 1.5.1 2.2.1.7 0 1.4 0 2.2-.1.6-3.8 1.9-7.3 3.7-10.4 4.6-7.8 13-12.3 22.9-12.4h.3c6.4 0 13.1 2 18.2 5.4l.2.2c.1-.1.2-.1.3-.2 5.1-3.4 11.4-5.4 17.8-5.4h.3c10.1 0 18.5 4.5 23.2 12.4 5.9 9.9 5.6 24-.7 37.9-7.9 17.3-22.8 29.5-39.7 32.5-.4.1-.8.1-1.2.1zM30.8 43.8c-5.1 0-9.3 2.1-11.5 5.7-3.5 5.9-3 15.6 1.4 25.3 4.5 9.9 14.4 21.5 28.5 24.5 14.2-3 24-14.6 28.5-24.5 4.4-9.7 4.9-19.3 1.4-25.3-2.9-4.9-8.4-5.7-11.3-5.7h-.2c-3.8 0-7.6 1.1-10.5 3.1-2.5 1.7-4.8 3.1-7.9 3.1-3.1 0-5.4-1.4-7.9-3.1-2.8-1.9-6.6-3.1-10.3-3.1h-.2zm94.9 0c-3 0-8.4.8-11.3 5.7-3.5 5.9-3 15.6 1.4 25.3 4.5 9.9 14.4 21.5 28.5 24.5 14.2-3 24-14.6 28.5-24.5 4.4-9.7 4.9-19.3 1.4-25.3-2.2-3.6-6.4-5.7-11.5-5.7h-.2c-3.7 0-7.5 1.2-10.3 3.1-2.5 1.7-4.8 3-7.8 3.1-3.2 0-5.5-1.4-8-3.1-2.9-2-6.7-3.1-10.5-3.1h-.2z" fill="#e20e46"/><path class="st11" d="M49 100.2c-14.5-3.1-24.6-15-29.2-25.1-4.5-10-5.1-20-1.4-26.2 2.4-3.9 6.9-6.2 12.4-6.2h.2c3.9 0 7.9 1.2 10.9 3.3 2.4 1.6 4.5 2.9 7.3 2.9s4.9-1.3 7.3-2.9c3.1-2.1 7.1-3.3 11.1-3.3h.2c3.2 0 9 .9 12.2 6.2 3.7 6.2 3.2 16.2-1.3 26.2-4.6 10.1-14.7 22-29.2 25.1H49z"/><path class="st11" d="M48.8 101.2l.4.1.4-.1C64.5 98 74.8 85.9 79.5 75.6c4.7-10.2 5.2-20.6 1.3-27.1-3.4-5.7-9.6-6.7-13-6.7h-.2c-4.2 0-8.4 1.3-11.6 3.4-2.3 1.5-4.2 2.7-6.8 2.7-2.6 0-4.5-1.2-6.8-2.7-3.2-2.1-7.3-3.4-11.4-3.4h-.2c-5.9 0-10.7 2.4-13.2 6.7-3.9 6.5-3.4 16.9 1.3 27.1 4.7 10.3 15 22.4 29.9 25.6zM19.3 49.5c2.2-3.6 6.4-5.7 11.5-5.7h.2c3.7 0 7.5 1.2 10.3 3.1 2.5 1.7 4.8 3 7.9 3.1 3.1 0 5.4-1.4 7.9-3.1 2.9-2 6.7-3.1 10.5-3.1h.2c3 0 8.4.8 11.3 5.7 3.5 5.9 3 15.6-1.4 25.3-4.5 9.9-14.4 21.5-28.5 24.5-14.2-3-24-14.6-28.5-24.5-4.4-9.7-5-19.4-1.4-25.3zm124.8 50.7c-14.5-3.1-24.6-15-29.2-25.1-4.5-9.9-5.1-20-1.3-26.2 3.2-5.3 9-6.2 12.2-6.2h.2c4 0 8 1.2 11.1 3.3 2.4 1.6 4.5 2.9 7.4 2.9 2.7 0 4.8-1.3 7.2-2.9 3-2 7-3.2 10.9-3.3h.2c5.5 0 10 2.3 12.4 6.2 3.7 6.2 3.2 16.2-1.3 26.2-4.6 10.1-14.7 22-29.2 25.1h-.6z"/><path class="st11" d="M143.8 101.2l.4.1.4-.1c14.9-3.2 25.2-15.3 29.9-25.6 4.7-10.2 5.2-20.6 1.3-27.1-2.5-4.3-7.4-6.7-13.2-6.7h-.2c-4.1 0-8.3 1.3-11.4 3.4-2.3 1.5-4.2 2.7-6.7 2.7-2.6 0-4.5-1.2-6.8-2.7-3.2-2.2-7.5-3.4-11.6-3.4h-.2c-3.4 0-9.6 1-13 6.7-3.9 6.5-3.4 16.9 1.3 27.1 4.6 10.3 14.9 22.4 29.8 25.6zm-29.5-51.7c2.9-4.9 8.3-5.7 11.3-5.7h.2c3.8 0 7.6 1.1 10.5 3.1 2.5 1.7 4.8 3.1 8 3.1 3 0 5.3-1.4 7.8-3.1 2.8-1.9 6.6-3.1 10.3-3.1h.2c5.1 0 9.3 2.1 11.5 5.7 3.5 5.9 3 15.6-1.4 25.3-4.5 9.9-14.4 21.5-28.5 24.5-14.2-3-24-14.6-28.5-24.5-4.4-9.7-4.9-19.4-1.4-25.3z"/></g></svg>