<svg xmlns="http://www.w3.org/2000/svg" viewBox="0 0 190.9 165.4"><path d="M164.7 82.1c0 11.1-1 22.2-5 31.8-4.2 10-11.8 18.1-19.4 25.7-7.6 7.6-16.5 13.1-26.6 17.2-9.7 4-19.8 8.7-30.9 8.7-11.1 0-21.7-3.6-31.4-7.6-10-4.2-18.4-10.8-26-18.4-7.6-7.6-13.8-16.2-17.9-26.2-4-9.7-7.5-20.1-7.5-31.2 0-11.1 2.3-22 6.3-31.7 4.2-10 11.3-18.4 18.9-26 7.6-7.6 16.2-14.1 26.2-18.2C61 2.2 71.7 0 82.8 0c11.1 0 21.4 3 31.1 7 10 4.2 20.1 8.7 27.7 16.3 7.6 7.6 11.7 17.8 15.8 27.9 4 9.6 7.3 19.7 7.3 30.9z" fill="#ffd635"/><path d="M100.5 154.7c-10.5 0-20.5-3.4-29.6-7.2-9.4-3.9-17.4-10.2-24.5-17.3-7.1-7.1-13-15.2-16.9-24.7-3.8-9.1-7-18.9-7-29.4s2.1-20.8 5.9-29.9c3.9-9.4 10.7-17.4 17.8-24.5 7.1-7.1 15.3-13.3 24.7-17.2C75.7 2.5 80.8 1 86 0h-3.2C71.7 0 61 2.2 51.4 6.2c-10 4.2-18.7 10.7-26.2 18.2-7.6 7.6-14.7 15.9-18.9 26C2.3 60 0 70.9 0 82.1c0 11.1 3.5 21.5 7.5 31.2 4.2 10 10.4 18.6 17.9 26.2 7.6 7.6 16 14.2 26 18.4 9.7 4 20.3 7.6 31.4 7.6s21.3-4.7 30.9-8.7c8-3.3 15.3-7.5 21.7-12.9-1.9.9-3.8 1.8-5.8 2.7-9.1 3.8-18.6 8.1-29.1 8.1z" fill="#f7b523"/><path d="M69.6 21.4s.6-.5 1.7-1.2 2.6-1.7 4.6-2.7c2-1 4.4-2 7.2-2.7 2.7-.8 5.8-1.2 8.9-1.2h2.3c.7 0 1.5.1 2.3.1.7.1 1.5.2 2.2.3.7.1 1.4.3 2.1.4 1.4.3 2.7.7 3.9 1.2 1.2.5 2.3 1 3.3 1.6 2 1.1 3.5 2.4 4.4 3.4.5.5.8.9 1.1 1.2.2.3.4.5.4.5s-.8.2-2.2.3c-.7.1-1.5.1-2.4.1h-2.9c-1.1 0-2.2-.1-3.3-.2-1.2-.1-2.4-.2-3.6-.4-.6-.1-1.3-.2-1.9-.3-.6-.1-1.3-.2-1.9-.3-.7-.1-1.3-.2-1.9-.3l-1.1-.2c-.3-.1-.6-.1-.9-.1-5.1-.7-10.6-.4-14.8 0-2.1.2-3.9.3-5.2.4-.6 0-1.1.1-1.5.1-.6-.1-.8 0-.8 0z" fill="#ffef57"/><path d="M154.4 43.8c-8.3 0-16.5.6-23.8 1.9-22.7 4-22.8 7.5-33 7.5s-10.3-3.5-33-7.5c-7.3-1.3-15.5-1.9-23.8-1.9-13.1 0-26.3 1.6-36.5 4.8l1.4 13.1s5.7.3 7.6 7.9c3.4 14 6.6 20 12.4 25.1 6.6 5.8 16.7 8.3 26.3 8.3 8.5 0 16.5-2 21.3-5.5 9.6-7 12.6-13 15.7-25 2.2-8.6 8-8.9 8.7-8.9h.2c.7 0 6.5.3 8.7 8.9 3.1 11.9 6.1 17.9 15.7 25 4.8 3.5 12.8 5.5 21.3 5.5 9.6 0 19.7-2.5 26.3-8.3 5.8-5.1 8.9-11.2 12.4-25.1 1.9-7.7 7.6-7.9 7.6-7.9l1.4-13.1c-10.7-3.2-23.9-4.8-36.9-4.8z" fill="#534741"/><path d="M71.1 56.2c-2.5-.6-5.2-1.1-8.2-1.6-6.7-1.2-14.3-1.8-22.2-1.8-9 0-14.9 1.8-17.6 5.2-1.8 2.3-2.2 5.5-1.2 9.5 3.2 13 5.8 17.2 9.6 20.5 4.3 3.8 11.9 6.1 20.3 6.1 6.5 0 12.9-1.5 16-3.8 7.6-5.6 9.6-9.6 12.3-19.9 1-3.9.8-7-.6-9.3-1.4-2.3-4.3-4-8.4-4.9zm61-1.6c-3 .5-5.7 1.1-8.2 1.6-4.2.9-7 2.6-8.4 4.9-1.4 2.3-1.6 5.4-.6 9.3 2.7 10.3 4.7 14.4 12.3 19.9 3.1 2.2 9.5 3.8 16 3.8 8.4 0 16-2.3 20.3-6.1 3.8-3.4 6.4-7.5 9.6-20.5 1-4 .6-7.2-1.2-9.5-2.7-3.5-8.6-5.2-17.6-5.2-7.8 0-15.5.6-22.2 1.8z" fill="#706661"/><path d="M133.5 114.7s-.1.3-.4.8c-.1.3-.3.6-.5.9l-.3.6c-.1.2-.3.5-.4.8-.3.5-.7 1.1-1 1.8-.4.6-.8 1.2-1.3 1.9-1 1.3-2.1 2.8-3.5 4.2-.7.8-1.5 1.4-2.2 2.2-.8.7-1.7 1.4-2.6 2.1-.9.6-1.9 1.4-2.9 2-.5.3-1 .6-1.6 1-.5.3-1.1.6-1.6.9-1.1.6-2.3 1-3.5 1.6l-1.8.6-.9.3-.9.3c-2.5.8-5.2 1.1-7.8 1.4l-2 .1h-1.9c-1.1 0-2.6-.2-3.9-.3-2.6-.4-5.1-.9-7.5-1.7-2.4-.8-4.6-1.8-6.6-2.9-2-1.1-3.8-2.3-5.4-3.6-3.2-2.5-5.4-5-6.9-6.9-.7-.9-1.3-1.7-1.6-2.2-.4-.5-.6-.8-.6-.8-1.3-1.8-.8-4.3 1-5.6 1.8-1.3 4.3-.8 5.6 1 .1.1.1.2.2.3l.1.2s.1.2.4.7c.3.4.6 1.1 1.1 1.9.5.8 1.2 1.7 2 2.8.9 1 1.9 2.2 3.1 3.2 1.2 1.1 2.7 2.1 4.3 3.2 1.6 1 3.4 1.9 5.4 2.6 2 .7 4 1.2 6.2 1.6 1 .1 2 .3 3.3.3h1.6l1.7-.1c2.2-.2 4.4-.5 6.5-1.2l.8-.2.8-.3 1.5-.6c1-.5 2-.8 2.9-1.4 1.9-.9 3.5-2.2 5-3.3.7-.6 1.4-1.2 2-1.9.6-.7 1.2-1.2 1.7-1.9 1.1-1.3 1.9-2.5 2.6-3.6.3-.6.6-1.1.9-1.6.2-.5.5-.9.6-1.3l.3-.6c.1-.2.2-.4.2-.6.1-.4.3-.7.4-1 .2-.5.3-.8.3-.8.8-2 3.1-3 5.1-2.3 2 .8 3 3.1 2.3 5.1-.2 0-.2.2-.3.3z" fill="#943436"/></svg>