<svg xmlns="http://www.w3.org/2000/svg" width="210mm" height="297mm" version="1.0" viewBox="0 0 21000 29700" shape-rendering="geometricPrecision" text-rendering="geometricPrecision" image-rendering="optimizeQuality" fill-rule="evenodd" clip-rule="evenodd"><defs><style>.fil5{fill:none}.fil9{fill:#aaef3b}</style><clipPath id="id0"><path d="M2170 5633h3188c398 0 723 325 723 723v3197c0 398-325 723-723 723H2170c-398 0-723-325-723-723V6356c0-398 325-723 723-723z"/></clipPath><clipPath id="id1"><path d="M5340 7865c551 0 998-447 998-998s-447-998-998-998-998 447-998 998 447 998 998 998z"/></clipPath><radialGradient id="id2" gradientUnits="userSpaceOnUse" gradientTransform="scale(1.00003)" cx="4843" cy="9612" r="116" fx="4843" fy="9612"><stop offset="0" stop-color="#fefefe"/><stop offset="1" stop-color="#a91b32"/></radialGradient><radialGradient id="id3" gradientUnits="userSpaceOnUse" gradientTransform="matrix(.9754 -.81193 .92279 1.08014 -7232 1585)" cx="2734" cy="7910" r="1133" fx="2734" fy="7910"><stop offset="0" stop-color="#00b9ce"/><stop offset="1" stop-color="#009cab"/></radialGradient><radialGradient id="id4" gradientUnits="userSpaceOnUse" gradientTransform="translate(0 -1) scale(1.00008)" cx="5115" cy="10156" r="116" fx="5115" fy="10156"><stop offset="0" stop-color="#fefefe"/><stop offset="1" stop-color="#3b77fa"/></radialGradient><radialGradient id="id5" gradientUnits="userSpaceOnUse" gradientTransform="matrix(1 0 -.11248 .94167 990 514)" cx="1885" cy="8804" r="4847" fx="1885" fy="8804"><stop offset="0" stop-color="#14dffc"/><stop offset=".741" stop-color="#0dc2d9"/><stop offset="1" stop-color="#07a6b6"/></radialGradient></defs><g id="Слой_x0020_1"><path d="M2170 5633h3188c398 0 723 325 723 723v3197c0 398-325 723-723 723H2170c-398 0-723-325-723-723V6356c0-398 325-723 723-723z" fill="#16262e"/><g clip-path="url(#id0)"><g id="_2345037013232"><path id="1" d="M1885 6569c1303 0 2359 1001 2359 2235s-1056 2235-2359 2235-2359-1001-2359-2235S582 6569 1885 6569z" fill="url(#id5)"/><path d="M2025 7218c385-320 991-234 1355 191 364 426 347 1031-38 1351s-991 234-1355-191c-364-426-347-1031 38-1351z" fill="#18b5b5"/><path d="M2114 7185c362-301 932-220 1275 180 342 401 326 969-35 1271-362 301-932 220-1275-180-342-401-326-969 35-1271z" fill="#12c5d8"/><path d="M2225 7315c297-247 766-181 1047 148s268 796-29 1044c-297 247-766 181-1047-148s-268-796 29-1044z" fill="url(#id3)"/></g></g><path class="fil5" d="M2170 5633h3188c398 0 723 325 723 723v3197c0 398-325 723-723 723H2170c-398 0-723-325-723-723V6356c0-398 325-723 723-723z"/><path d="M12689 9024c-151-57-221-118-282-247l-40-84v-373c0-368 0-375 32-456 50-130 144-212 304-267 90-30 296-19 398 21 93 36 201 138 242 228 27 59 28 76 28 474v412l-36 66c-53 95-116 155-214 201-77 37-99 41-227 45-115 4-155 0-206-19zm393-133c108-59 160-133 180-256 21-122 10-642-14-713-27-77-133-180-221-212-218-80-449 15-521 215-26 71-28 100-28 394v317l37 84c44 97 86 139 175 180 98 45 95 45 207 41 90-4 115-10 185-49zm944 148c-62-13-225-72-286-104l-61-33 33-42c18-24 33-44 35-44 1 0 31 14 67 31 145 70 237 91 372 90 104 0 140-6 189-30 125-58 189-145 191-256 0-155-106-241-362-294-358-72-484-180-480-411 4-200 124-327 348-368 103-19 272-5 398 33 140 44 143 46 122 95-9 22-21 44-27 48s-64-12-130-35c-155-52-330-58-422-14-103 48-155 112-173 212-14 80 4 136 62 194 63 63 148 98 331 136 232 49 357 118 418 232 33 63 35 269 1 336-39 77-120 148-212 187-73 28-109 35-234 37-81 3-162 1-180-1zm3599-10c-156-53-242-125-301-251l-33-72-4-380c-3-210 1-391 8-406 6-14 26-57 41-94 31-70 120-162 179-185 140-57 166-62 283-62 124 0 164 8 278 55 97 41 100 44 73 89-28 49-45 55-82 32-55-36-194-73-273-73-135 0-276 67-333 161-59 94-73 184-73 470 0 287 17 386 82 475 118 161 342 201 550 99 90-44 97-45 112-24 44 59 44 67 0 94-23 14-63 32-88 40-24 9-53 21-62 28-27 22-296 24-357 4zm-10543 1c0-1 35-104 79-228 191-546 288-828 333-966 27-81 58-170 70-197 21-48 23-49 82-45s61 5 80 62c10 32 23 64 27 71 5 8 27 71 50 142 22 71 49 147 58 167 9 22 32 88 51 148 18 61 40 121 46 135s54 151 107 303 104 303 116 333c12 31 21 61 21 67s-26 12-57 12c-54 0-57-1-82-61-14-35-41-112-62-174l-36-113h-645l-57 174-57 174h-62c-35 0-63-1-63-4zm837-457c0-9-44-151-61-196-4-10-53-152-108-315-54-162-103-296-107-296-8 0-278 787-278 807 0 6 125 10 277 10s277-5 277-10zm541-260v-721h57c55 0 58 1 109 81 28 44 61 91 71 106 10 14 76 116 148 225 71 109 134 206 139 212 6 8 52 73 99 148 49 75 135 206 193 292l104 156 4-610 3-610h128v1442h-128l-142-215c-77-120-149-228-160-242-10-14-57-84-103-155s-90-138-97-148c-8-10-49-75-93-142s-88-134-97-148c-10-14-42-63-73-109l-54-84-4 622-3 621h-103v-721zm1364 0v-721h296c306 0 394 10 483 55 107 53 192 184 212 327 17 115 17 581 0 681-30 185-124 294-310 358-45 15-122 21-368 21h-313v-721zm673 581c94-42 138-86 179-175 28-62 30-76 30-406s-1-344-30-407c-17-36-52-86-77-112-80-79-131-90-411-97l-248-5v1238h238c236 0 239 0 319-37zm628-582v-721l345 4c292 4 351 8 393 27 201 93 290 353 193 563-42 93-116 167-189 194-26 9-46 21-46 26s46 116 104 246 113 259 125 287c10 28 24 57 31 64 23 26 8 33-55 30l-66-4-32-77c-18-42-48-112-67-155-19-42-63-145-98-228l-64-152h-470v618h-103v-722zm695-36c80-41 118-90 151-191 18-59 19-79 5-130-24-93-57-147-115-192-73-55-148-68-408-68h-225v618h261c260 0 260 0 331-37zm3133 36v-721l345 4 344 4 66 35c73 39 151 121 182 191 31 72 36 227 12 312-31 106-108 197-205 243l-80 37h-547v618h-116v-722zm677-30c116-55 173-147 173-278 0-90-21-143-80-207-81-88-139-102-425-102h-229v618h248c237 0 252-1 313-31zm353 734c0-10 54-174 120-364 67-189 125-357 129-371s40-118 80-232c39-113 89-263 112-331l41-126h134l36 113c19 62 39 118 44 125 5 8 28 71 50 142 23 71 49 147 58 167 10 22 33 88 52 148 19 61 40 121 46 135 8 14 33 86 59 161 82 245 147 439 147 445 0 4-27 5-61 3l-59-4-37-109c-19-61-41-121-49-135-6-14-18-41-26-62l-13-35-318 3-318 4-57 171-57 170h-57c-40 0-57-5-57-18zm758-654c-42-122-94-278-116-345s-46-139-57-161c-9-21-22-55-27-76-8-31-21-1-89 200-44 130-84 246-88 256-13 33-112 337-112 342 0 3 126 5 282 5h281l-75-221zm1701-49v-721h927v104h-824v554h708v103h-708v580h824v103h-927v-721z" fill="#a4a4a4"/><path d="M9393 8217c0-346 1-487 3-312 3 176 3 460 0 631-1 171-3 28-3-319z" fill="#3b414d"/><path d="M4834 9603c-9-15 556-652 568-640 10 10-532 654-547 654-6 0-15-6-21-14z" fill="#a8495d"/><g clip-path="url(#id1)"><path class="fil9" d="M4713 8436c-293-176-632-378-754-451l-221-133 4-57c12-168 79-473 160-724 174-536 454-1009 822-1391 148-153 198-192 385-313 341-220 798-367 1205-388l170-9 40 83c101 208 202 545 237 787 39 280 29 631-27 863-34 140-74 282-96 332-9 22-42 95-72 164-231 540-688 1095-1237 1505-40 30-75 55-78 53-3 0-244-144-538-320zm728-420c367-52 679-280 841-611 48-98 103-283 100-341-1-16-9 3-20 43-25 101-96 268-148 345-57 83-186 217-263 274-85 61-247 140-348 168-120 33-428 34-546 1-315-87-590-329-706-622-59-146-78-252-77-415 1-311 112-559 350-780 91-86 95-91 36-52-92 62-212 186-283 294-250 380-237 892 34 1257 239 322 641 493 1030 438zm408-342c273-163 464-541 440-871-31-390-290-722-666-849-148-51-360-59-515-20-185 46-312 118-447 254-64 65-137 151-160 191-66 114-120 287-127 415l-8 111 40-62c47-72 23-75 222 43 68 40 358 213 644 384 286 169 525 313 531 319 7 5-3 33-20 60-57 91-56 88-29 78 13-5 56-27 95-51z"/><path class="fil9" d="M5194 7092c-372-221-677-407-680-415-3-7 34-53 82-103 131-140 315-224 489-224h73l9-79c4-44 8-112 8-150 0-55 5-72 25-82 17-9 30-8 47 4 21 14 22 34 17 163l-7 144 34 8c170 38 317 114 437 231l95 92 114-68c125-73 150-79 174-49 26 33 7 53-117 126-83 48-117 74-112 88 3 10 21 55 39 99 51 122 68 246 51 367-14 99-70 250-91 250-5 0-315-181-687-403zm545-60c33-31 26-92-10-117-72-46-148 51-91 113 27 30 74 33 101 4zm-624-377c64-62-17-152-98-109-29 16-35 88-9 114 22 22 83 20 107-5z"/></g><path class="fil5" d="M5340 7865c551 0 998-447 998-998s-447-998-998-998-998 447-998 998 447 998 998 998z"/><path d="M3032 6335c138 0 249-112 249-249 0-138-112-249-249-249-138 0-249 112-249 249 0 138 112 249 249 249zm483-51c53 0 95-43 95-95 0-53-43-95-95-95-53 0-95 43-95 95 0 53 43 95 95 95zm-1411-123c20 0 36-16 36-36s-16-36-36-36-36 16-36 36 16 36 36 36zm838 465c25 0 46-20 46-46 0-25-20-46-46-46-25 0-46 20-46 46 0 25 20 46 46 46z" fill="#44467c"/><path d="M4397 10235c80 0 145-65 145-145s-65-145-145-145-145 65-145 145 65 145 145 145z" fill="#3b414d"/><path d="M4843 9668c31 0 56-25 56-56s-25-56-56-56-56 25-56 56 25 56 56 56z" fill="url(#id2)"/><path d="M5109 10150c-6-9 341-400 348-392 6 6-326 401-336 401-4 0-9-4-13-9z" fill="#3774b8"/><path d="M5115 10190c19 0 34-15 34-34s-15-34-34-34-34 15-34 34 15 34 34 34z" fill="url(#id4)"/><path d="M4174 8184c-93 5-27-48-182 29s-421 239-573 664c-153 425-364 1208-366 1269-3 60 24 58 64 48s813-252 952-337 475-299 582-532 182-527 166-624-642-517-642-517z" fill="#ef3f3f"/><path d="M4227 8299c-53 6-17-26-103 23-86 50-232 152-302 400-71 248-160 703-160 737 1 34 16 32 39 25s456-174 532-227c76-54 260-188 313-325 52-137 83-307 70-362s-388-271-388-271z" fill="#f5b628"/><path d="M4385 8363c-20 2-7-10-39 9-33 19-89 58-115 153-27 95-61 269-61 282s6 12 15 10c9-3 174-66 203-87 29-20 99-72 119-124s32-117 27-138-148-104-148-104z" fill="#fefefe"/><path d="M3444 7049l53-101c124-233 287-424 390-473 67-32 153-27 198 12 22 18 44 32 49 32 6 0 34-48 67-111 78-148 173-294 278-432-301 406-528 890-648 1387-17 71-33 131-35 131-3 1-46 10-98 18-111 18-198 53-304 121-80 52-93 55-122 37-41-27 8-234 116-484 27-63 56-137 55-138zm1106-1161c65-79 134-154 205-224 28-27 56-54 85-79-93 88-210 211-290 304zm473-450c144-102 301-187 472-256-156 64-304 145-472 256zm1452-451l28 57c99 201 211 568 245 805 39 277 28 624-27 855-33 142-73 279-95 328-10 22-33 76-53 122l-1 4 1-4c19-46 42-100 53-122 22-49 62-187 95-328 55-230 66-578 27-855-33-237-145-604-245-805l-28-57zm-104 2566c-31 53-62 104-93 151l-39 66 61 32c86 44 109 93 102 215-6 103-48 225-115 339-19 33-36 64-36 68 0 10-109 173-126 189-8 8-49 54-91 111-95 126-316 348-358 361-50 15-59-9-61-165-1-136-38-316-73-373-3-5-8-11-16-13 314-268 649-653 845-980zM5135 8666l-80 63c-41 33-77 61-82 61-4 0-41-21-81-45l-75-44-972-582c-7-12 9-119 27-181 5-18 33-5 164 72 86 52 397 237 689 412l411 245z" fill="#b50835"/><path d="M4714 8436c-293-176-632-378-754-451l-221-133 4-57c12-168 79-473 160-724 174-536 454-1019 822-1401 148-153 198-192 385-313 341-220 798-367 1205-388l175-4 45 88c101 208 202 545 237 787 39 280 29 631-27 863-34 140-74 282-96 332-9 22-42 95-72 164-231 540-698 1095-1246 1505-40 30-75 55-78 53-3 0-244-144-538-320zm854-640c177-46 378-168 480-290 220-265 295-596 205-899-94-313-320-549-629-654-148-51-360-59-515-20-185 46-312 118-447 254-134 135-185 216-243 380-38 107-42 129-42 285 0 196 20 283 96 442 121 246 348 430 616 501 129 34 348 34 479 1z" fill="#c8cfd8"/><path d="M5440 8004c363-52 672-277 833-605 48-97 102-281 99-337-1-15-9 3-19 42-24 100-95 265-147 341-57 82-184 215-260 272-84 61-245 139-345 166-118 32-424 33-541 1-312-86-585-326-699-615-58-144-77-250-76-411 1-308 111-554 346-772 90-85 94-90 36-51-91 62-210 184-281 291-247 376-234 883 33 1245 237 319 635 488 1020 434z" fill="#819599"/></g></svg>