<svg version="1.1" id="Слой_1" xmlns="http://www.w3.org/2000/svg" xmlns:xlink="http://www.w3.org/1999/xlink" x="0" y="0" viewBox="0 0 510.5 156.6" xml:space="preserve"><style>.st6{fill:none}.st8{fill:#3b414d}.st11{fill:#aaef3b}</style><g id="Слой_x0020_1"><path d="M24.7 22.3h90.4c11.3 0 20.5 9.2 20.5 20.5v90.6c0 11.3-9.2 20.5-20.5 20.5H24.7c-11.3 0-20.5-9.2-20.5-20.5V42.8c0-11.3 9.2-20.5 20.5-20.5z" fill="#16262e"/><defs><path id="SVGID_1_" d="M24.7 22.3h90.4c11.3 0 20.5 9.2 20.5 20.5v90.6c0 11.3-9.2 20.5-20.5 20.5H24.7c-11.3 0-20.5-9.2-20.5-20.5V42.8c0-11.3 9.2-20.5 20.5-20.5z"/></defs><clipPath id="SVGID_2_"><use xlink:href="#SVGID_1_" overflow="visible"/></clipPath><g clip-path="url(#SVGID_2_)"><g id="_2345037013232"><radialGradient id="_x31__1_" cx="-2215.652" cy="6338.219" r="4846.275" gradientTransform="matrix(.02835 0 .00319 -.0267 59.214 281.35)" gradientUnits="userSpaceOnUse"><stop offset="0" stop-color="#14dffc"/><stop offset=".741" stop-color="#0dc2d9"/><stop offset="1" stop-color="#07a6b6"/></radialGradient><path id="_x31_" d="M16.6 48.8c36.9 0 66.9 28.4 66.9 63.4s-29.9 63.4-66.9 63.4-66.9-28.4-66.9-63.4 30-63.4 66.9-63.4z" fill="url(#_x31__1_)"/><path d="M20.6 67.2c10.9-9.1 28.1-6.6 38.4 5.4 10.3 12.1 9.8 29.2-1.1 38.3s-28.1 6.6-38.4-5.4C9.2 93.4 9.7 76.3 20.6 67.2z" fill="#18b5b5"/><path d="M23.1 66.3c10.3-8.5 26.4-6.2 36.1 5.1 9.7 11.4 9.2 27.5-1 36-10.3 8.5-26.4 6.2-36.1-5.1-9.7-11.4-9.2-27.5 1-36z" fill="#12c5d8"/><radialGradient id="SVGID_3_" cx="8283.677" cy="1218.523" r="1135.075" gradientTransform="matrix(.02765 -.02302 -.02616 -.03062 -156.478 314.812)" gradientUnits="userSpaceOnUse"><stop offset="0" stop-color="#00b9ce"/><stop offset="1" stop-color="#009cab"/></radialGradient><path d="M26.3 70c8.4-7 21.7-5.1 29.7 4.2s7.6 22.6-.8 29.6-21.7 5.1-29.7-4.2-7.7-22.6.8-29.6z" fill="url(#SVGID_3_)"/></g></g><path class="st6" d="M24.7 22.3h90.4c11.3 0 20.5 9.2 20.5 20.5v90.6c0 11.3-9.2 20.5-20.5 20.5H24.7c-11.3 0-20.5-9.2-20.5-20.5V42.8c0-11.3 9.2-20.5 20.5-20.5z"/><path d="M322.9 118.4c-4.3-1.6-6.3-3.3-8-7l-1.1-2.4V98.4c0-10.4 0-10.6.9-12.9 1.4-3.7 4.1-6 8.6-7.6 2.6-.9 8.4-.5 11.3.6 2.6 1 5.7 3.9 6.9 6.5.8 1.7.8 2.2.8 13.4v11.7l-1 1.9c-1.5 2.7-3.3 4.4-6.1 5.7-2.2 1-2.8 1.2-6.4 1.3-3.4.1-4.5 0-5.9-.6zm11.1-3.8c3.1-1.7 4.5-3.8 5.1-7.3.6-3.5.3-18.2-.4-20.2-.8-2.2-3.8-5.1-6.3-6-6.2-2.3-12.7.4-14.8 6.1-.7 2-.8 2.8-.8 11.2v9l1 2.4c1.2 2.7 2.4 3.9 5 5.1 2.8 1.3 2.7 1.3 5.9 1.2 2.6-.2 3.3-.3 5.3-1.5zm26.8 4.2c-1.8-.4-6.4-2-8.1-2.9l-1.7-.9.9-1.2c.5-.7.9-1.2 1-1.2 0 0 .9.4 1.9.9 4.1 2 6.7 2.6 10.5 2.6 2.9 0 4-.2 5.4-.9 3.5-1.6 5.4-4.1 5.4-7.3 0-4.4-3-6.8-10.3-8.3-10.1-2-13.7-5.1-13.6-11.7.1-5.7 3.5-9.3 9.9-10.4 2.9-.5 7.7-.1 11.3.9 4 1.2 4.1 1.3 3.5 2.7-.3.6-.6 1.2-.8 1.4s-1.8-.3-3.7-1c-4.4-1.5-9.4-1.6-12-.4-2.9 1.4-4.4 3.2-4.9 6-.4 2.3.1 3.9 1.8 5.5 1.8 1.8 4.2 2.8 9.4 3.9 6.6 1.4 10.1 3.3 11.8 6.6.9 1.8 1 7.6 0 9.5-1.1 2.2-3.4 4.2-6 5.3-2.1.8-3.1 1-6.6 1-2.3 0-4.6 0-5.1-.1zm102-.3c-4.4-1.5-6.9-3.5-8.5-7.1l-.9-2-.1-10.8c-.1-6 0-11.1.2-11.5.2-.4.7-1.6 1.2-2.7.9-2 3.4-4.6 5.1-5.2 4-1.6 4.7-1.8 8-1.8 3.5 0 4.6.2 7.9 1.6 2.7 1.2 2.8 1.2 2.1 2.5-.8 1.4-1.3 1.6-2.3.9-1.6-1-5.5-2.1-7.7-2.1-3.8 0-7.8 1.9-9.4 4.6-1.7 2.7-2.1 5.2-2.1 13.3 0 8.1.5 10.9 2.3 13.5 3.3 4.6 9.7 5.7 15.6 2.8 2.6-1.2 2.7-1.3 3.2-.7 1.2 1.7 1.2 1.9 0 2.7-.7.4-1.8.9-2.5 1.1-.7.3-1.5.6-1.8.8-1 .7-8.6.7-10.3.1zm-298.9.1s1-2.9 2.2-6.5c5.4-15.5 8.2-23.5 9.4-27.4.8-2.3 1.6-4.8 2-5.6.6-1.4.7-1.4 2.3-1.3s1.7.1 2.3 1.8c.3.9.7 1.8.8 2 .1.2.8 2 1.4 4 .6 2 1.4 4.2 1.6 4.7.3.6.9 2.5 1.4 4.2.5 1.7 1.1 3.4 1.3 3.8s1.5 4.3 3 8.6 2.9 8.6 3.3 9.4c.3.9.6 1.7.6 1.9 0 .2-.7.3-1.6.3-1.5 0-1.6 0-2.3-1.7-.4-1-1.2-3.2-1.8-4.9l-1-3.2h-18.3l-1.6 4.9-1.6 4.9h-1.8c-.8.2-1.6.2-1.6.1zm23.8-13c0-.3-1.2-4.3-1.7-5.6-.1-.3-1.5-4.3-3.1-8.9-1.5-4.6-2.9-8.4-3-8.4-.2 0-7.9 22.3-7.9 22.9 0 .2 3.5.3 7.9.3 4.2 0 7.8-.1 7.8-.3zm15.3-7.4V77.8h1.6c1.6 0 1.6 0 3.1 2.3.8 1.2 1.7 2.6 2 3 .3.4 2.2 3.3 4.2 6.4 2 3.1 3.8 5.8 3.9 6 .2.2 1.5 2.1 2.8 4.2 1.4 2.1 3.8 5.8 5.5 8.3l2.9 4.4.1-17.3.1-17.3h3.6v40.8h-3.6l-4-6.1c-2.2-3.4-4.2-6.5-4.5-6.9-.3-.4-1.6-2.4-2.9-4.4-1.3-2-2.6-3.9-2.7-4.2-.2-.3-1.4-2.1-2.6-4-1.2-1.9-2.5-3.8-2.7-4.2-.3-.4-1.2-1.8-2.1-3.1l-1.5-2.4-.1 17.6-.1 17.6h-2.9l-.1-20.3zm38.7 0V77.8h8.4c8.7 0 11.2.3 13.7 1.6 3 1.5 5.4 5.2 6 9.3.5 3.3.5 16.5 0 19.3-.9 5.2-3.5 8.3-8.8 10.1-1.3.4-3.5.6-10.4.6h-8.9V98.2zm19 16.5c2.7-1.2 3.9-2.4 5.1-5 .8-1.8.9-2.2.9-11.5s0-9.8-.9-11.5c-.5-1-1.5-2.4-2.2-3.2-2.3-2.2-3.7-2.6-11.7-2.7l-7-.1v35h6.7c6.8 0 6.9 0 9.1-1zm17.8-16.5V77.8l9.8.1c8.3.1 9.9.2 11.1.8 5.7 2.6 8.2 10 5.5 16-1.2 2.6-3.3 4.7-5.4 5.5-.7.3-1.3.6-1.3.7s1.3 3.3 2.9 7c1.6 3.7 3.2 7.3 3.5 8.1.3.8.7 1.6.9 1.8.7.7.2.9-1.6.9l-1.9-.1-.9-2.2c-.5-1.2-1.4-3.2-1.9-4.4-.5-1.2-1.8-4.1-2.8-6.5l-1.8-4.3h-13.3v17.6h-2.8V98.2zm19.7-1c2.3-1.2 3.3-2.6 4.3-5.4.5-1.7.5-2.2.1-3.7-.7-2.6-1.6-4.2-3.3-5.4-2.1-1.6-4.2-1.9-11.6-1.9h-6.4v17.6h7.4c7.5-.2 7.5-.2 9.5-1.2zm88.8 1V77.8l9.8.1 9.8.1 1.9 1c2.1 1.1 4.3 3.4 5.2 5.4.9 2 1 6.4.3 8.8-.9 3-3.1 5.6-5.8 6.9l-2.3 1h-15.5v17.6h-3.2l-.2-20.5zm19.2-.8c3.3-1.6 4.9-4.2 4.9-7.9 0-2.6-.6-4.1-2.3-5.9-2.3-2.5-3.9-2.9-12-2.9h-6.5v17.6h7c6.8-.1 7.2-.1 8.9-.9zm10 20.8c0-.3 1.5-4.9 3.4-10.3s3.5-10.1 3.7-10.5c.1-.4 1.1-3.3 2.3-6.6 1.1-3.2 2.5-7.5 3.2-9.4l1.2-3.6h3.8l1 3.2c.5 1.8 1.1 3.3 1.2 3.5.1.2.8 2 1.4 4 .7 2 1.4 4.2 1.6 4.7.3.6.9 2.5 1.5 4.2.5 1.7 1.1 3.4 1.3 3.8.2.4.9 2.4 1.7 4.6 2.3 6.9 4.2 12.4 4.2 12.6 0 .1-.8.1-1.7.1l-1.7-.1-1-3.1c-.5-1.7-1.2-3.4-1.4-3.8-.2-.4-.5-1.2-.7-1.8l-.4-1-9 .1-9 .1-1.6 4.8-1.6 4.8H418c-1.3.2-1.8 0-1.8-.3zm21.5-18.6c-1.2-3.5-2.7-7.9-3.3-9.8-.6-1.9-1.3-3.9-1.6-4.6-.3-.6-.6-1.6-.8-2.2-.2-.9-.6 0-2.5 5.7-1.2 3.7-2.4 7-2.5 7.3-.4.9-3.2 9.6-3.2 9.7 0 .1 3.6.1 8 .1h8l-2.1-6.2zm48.2-1.4V77.8h26.3v3h-23.4v15.8h20v2.9h-20v16.4h23.4v2.9h-26.3V98.2z" fill="#fff"/><path class="st8" d="M229.4 95.5c0-9.8 0-13.8.1-8.8s.1 13 0 17.9c0 4.8-.1.8-.1-9.1z"/><path d="M100.2 134.8c-.3-.4 15.8-18.5 16.1-18.1.3.3-15.1 18.5-15.5 18.5-.2 0-.4-.2-.6-.4z" fill="#a8495d"/><defs><circle id="SVGID_4_" cx="114.6" cy="57.3" r="28.3"/></defs><clipPath id="SVGID_5_"><use xlink:href="#SVGID_4_" overflow="visible"/></clipPath><g clip-path="url(#SVGID_5_)"><path class="st11" d="M96.8 101.7c-8.3-5-17.9-10.7-21.4-12.8l-6.3-3.8.1-1.6c.3-4.8 2.2-13.4 4.5-20.5C78.6 47.8 86.6 34.4 97 23.6c4.2-4.3 5.6-5.4 10.9-8.9 9.7-6.2 22.6-10.4 34.2-11l4.8-.3 1.1 2.4c2.9 5.9 5.7 15.4 6.7 22.3 1.1 7.9.8 17.9-.8 24.5-1 4-2.1 8-2.7 9.4-.3.6-1.2 2.7-2 4.6-6.5 15.3-19.5 31-35.1 42.7-1.1.9-2.1 1.6-2.2 1.5 0 0-6.8-4.1-15.1-9.1zm20.6-11.9c10.4-1.5 19.2-7.9 23.8-17.3 1.4-2.8 2.9-8 2.8-9.7 0-.5-.3.1-.6 1.2-.7 2.9-2.7 7.6-4.2 9.8-1.6 2.4-5.3 6.2-7.5 7.8-2.4 1.7-7 4-9.9 4.8-3.4.9-12.1 1-15.5 0-8.9-2.5-16.7-9.3-20-17.6-1.7-4.1-2.2-7.1-2.2-11.8 0-8.8 3.2-15.8 9.9-22.1 2.6-2.4 2.7-2.6 1-1.5-2.6 1.8-6 5.3-8 8.3-7.1 10.8-6.7 25.3 1 35.6 7 9.2 18.4 14.1 29.4 12.5zm11.6-9.7c7.7-4.6 13.2-15.3 12.5-24.7-.9-11.1-8.2-20.5-18.9-24.1-4.2-1.4-10.2-1.7-14.6-.6-5.2 1.3-8.8 3.3-12.7 7.2-1.8 1.8-3.9 4.3-4.5 5.4-1.9 3.2-3.4 8.1-3.6 11.8l-.2 3.1 1.1-1.8c1.3-2 .7-2.1 6.3 1.2 1.9 1.1 10.1 6 18.3 10.9 8.1 4.8 14.9 8.9 15.1 9 .2.1-.1.9-.6 1.7-1.6 2.6-1.6 2.5-.8 2.2.3.1 1.5-.5 2.6-1.3z"/><path class="st11" d="M110.4 63.6c-10.5-6.3-19.2-11.5-19.3-11.8-.1-.2 1-1.5 2.3-2.9 3.7-4 8.9-6.3 13.9-6.3h2.1l.3-2.2c.1-1.2.2-3.2.2-4.3 0-1.6.1-2 .7-2.3.5-.3.9-.2 1.3.1.6.4.6 1 .5 4.6l-.2 4.1 1 .2c4.8 1.1 9 3.2 12.4 6.5l2.7 2.6 3.2-1.9c3.5-2.1 4.3-2.2 4.9-1.4.7.9.2 1.5-3.3 3.6-2.4 1.4-3.3 2.1-3.2 2.5.1.3.6 1.6 1.1 2.8 1.4 3.5 1.9 7 1.4 10.4-.4 2.8-2 7.1-2.6 7.1-.1 0-8.8-5.1-19.4-11.4zm15.5-1.7c.9-.9.7-2.6-.3-3.3-2-1.3-4.2 1.4-2.6 3.2.8.9 2.1 1 2.9.1zm-17.7-10.7c1.8-1.8-.5-4.3-2.8-3.1-.8.5-1 2.5-.3 3.2.7.7 2.4.7 3.1-.1z"/></g><path class="st6" d="M114.6 85.5c15.6 0 28.3-12.7 28.3-28.3S130.2 29 114.6 29 86.3 41.6 86.3 57.3s12.6 28.2 28.3 28.2z"/><path d="M49.1 42.2c3.9 0 7.1-3.2 7.1-7.1 0-3.9-3.2-7.1-7.1-7.1-3.9 0-7.1 3.2-7.1 7.1.1 3.9 3.2 7.1 7.1 7.1zm13.7-1.5c1.5 0 2.7-1.2 2.7-2.7 0-1.5-1.2-2.7-2.7-2.7-1.5 0-2.7 1.2-2.7 2.7 0 1.5 1.2 2.7 2.7 2.7zm-40-3.5c.6 0 1-.5 1-1s-.5-1-1-1-1 .5-1 1 .5 1 1 1zm23.8 13.2c.7 0 1.3-.6 1.3-1.3 0-.7-.6-1.3-1.3-1.3-.7 0-1.3.6-1.3 1.3 0 .7.5 1.3 1.3 1.3z" fill="#44467c"/><path class="st8" d="M87.8 152.7c2.3 0 4.1-1.8 4.1-4.1s-1.8-4.1-4.1-4.1-4.1 1.8-4.1 4.1 1.9 4.1 4.1 4.1z"/><radialGradient id="SVGID_6_" cx="2378.853" cy="4680.582" r="116" gradientTransform="matrix(.02835 0 0 -.02835 33.036 267.758)" gradientUnits="userSpaceOnUse"><stop offset="0" stop-color="#fefefe"/><stop offset="1" stop-color="#a91b32"/></radialGradient><path d="M100.5 136.7c.9 0 1.6-.7 1.6-1.6 0-.9-.7-1.6-1.6-1.6s-1.6.7-1.6 1.6c0 .8.7 1.6 1.6 1.6z" fill="url(#SVGID_6_)"/><path d="M108 150.3c-.2-.3 9.7-11.3 9.9-11.1.2.2-9.2 11.4-9.5 11.4-.2 0-.3-.1-.4-.3z" fill="#3774b8"/><radialGradient id="SVGID_7_" cx="2650.977" cy="4135.897" r="116" gradientTransform="matrix(.02835 0 0 -.02835 33.036 267.73)" gradientUnits="userSpaceOnUse"><stop offset="0" stop-color="#fefefe"/><stop offset="1" stop-color="#3b77fa"/></radialGradient><path d="M108.2 151.5c.5 0 1-.4 1-1 0-.5-.4-1-1-1s-1 .4-1 1c0 .5.4 1 1 1z" fill="url(#SVGID_7_)"/><path d="M81.5 94.6c-2.6.1-.8-1.4-5.2.8s-11.9 6.8-16.2 18.8c-4.3 12-10.3 34.2-10.4 36-.1 1.7.7 1.6 1.8 1.4s23-7.1 27-9.6c3.9-2.4 13.5-8.5 16.5-15.1s5.2-14.9 4.7-17.7c-.4-2.7-18.2-14.6-18.2-14.6z" fill="#ef3f3f"/><path d="M83 97.8c-1.5.2-.5-.7-2.9.7s-6.6 4.3-8.6 11.3c-2 7-4.5 19.9-4.5 20.9s.5.9 1.1.7 12.9-4.9 15.1-6.4c2.2-1.5 7.4-5.3 8.9-9.2 1.5-3.9 2.4-8.7 2-10.3-.4-1.5-11.1-7.7-11.1-7.7z" fill="#f5b628"/><path d="M87.5 99.7c-.6.1-.2-.3-1.1.3-.9.5-2.5 1.6-3.3 4.3-.8 2.7-1.7 7.6-1.7 8 0 .4.2.3.4.3.3-.1 4.9-1.9 5.8-2.5.8-.6 2.8-2 3.4-3.5.6-1.5.9-3.3.8-3.9s-4.3-3-4.3-3z" fill="#fefefe"/><path d="M60.8 62.4l1.5-2.9c3.5-6.6 8.1-12 11.1-13.4 1.9-.9 4.3-.8 5.6.3.6.5 1.2.9 1.4.9.2 0 1-1.4 1.9-3.1 2.2-4.2 4.9-8.3 7.9-12.2-8.5 11.5-15 25.2-18.4 39.3-.5 2-.9 3.7-1 3.7-.1 0-1.3.3-2.8.5-3.1.5-5.6 1.5-8.6 3.4-2.3 1.5-2.6 1.6-3.5 1-1.2-.8.2-6.6 3.3-13.7.8-1.7 1.6-3.8 1.6-3.8zm31.4-32.9c1.8-2.2 3.8-4.4 5.8-6.3.8-.8 1.6-1.5 2.4-2.2-2.7 2.4-6 5.9-8.2 8.5zm13.4-12.8c4.1-2.9 8.5-5.3 13.4-7.3-4.5 1.9-8.7 4.2-13.4 7.3zM146.7 4l.8 1.6c2.8 5.7 6 16.1 6.9 22.8 1.1 7.9.8 17.7-.8 24.2-.9 4-2.1 7.9-2.7 9.3-.3.6-.9 2.2-1.5 3.5v.1-.1c.5-1.3 1.2-2.8 1.5-3.5.6-1.4 1.8-5.3 2.7-9.3 1.6-6.5 1.9-16.4.8-24.2-.9-6.7-4.1-17.1-6.9-22.8l-.8-1.6zm-2.9 72.7c-.9 1.5-1.8 2.9-2.6 4.3l-1.1 1.9 1.7.9c2.4 1.2 3.1 2.6 2.9 6.1-.2 2.9-1.4 6.4-3.3 9.6-.5.9-1 1.8-1 1.9 0 .3-3.1 4.9-3.6 5.4-.2.2-1.4 1.5-2.6 3.1-2.7 3.6-9 9.9-10.1 10.2-1.4.4-1.7-.3-1.7-4.7 0-3.9-1.1-9-2.1-10.6-.1-.1-.2-.3-.5-.4 8.9-7.5 18.4-18.4 24-27.7zm-35.1 31.6l-2.3 1.8c-1.2.9-2.2 1.7-2.3 1.7-.1 0-1.2-.6-2.3-1.3l-2.1-1.2-27.5-16.6c-.2-.3.3-3.4.8-5.1.1-.5.9-.1 4.6 2 2.4 1.5 11.3 6.7 19.5 11.7l11.6 7z" fill="#b50835"/><path d="M96.8 101.7c-8.3-5-17.9-10.7-21.4-12.8l-6.3-3.8.1-1.6c.3-4.8 2.2-13.4 4.5-20.5C78.6 47.8 86.6 34.1 97 23.3c4.2-4.3 5.6-5.4 10.9-8.9 9.7-6.2 22.6-10.4 34.2-11l5-.1 1.3 2.5c2.9 5.9 5.7 15.4 6.7 22.3 1.1 7.9.8 17.9-.8 24.5-1 4-2.1 8-2.7 9.4-.3.6-1.2 2.7-2 4.6-6.5 15.3-19.8 31-35.3 42.7-1.1.9-2.1 1.6-2.2 1.5-.1 0-6.9-4.1-15.3-9.1zM121 83.6c5-1.3 10.7-4.8 13.6-8.2 6.2-7.5 8.4-16.9 5.8-25.5-2.7-8.9-9.1-15.6-17.8-18.5-4.2-1.4-10.2-1.7-14.6-.6-5.2 1.3-8.8 3.3-12.7 7.2-3.8 3.8-5.2 6.1-6.9 10.8-1.1 3-1.2 3.7-1.2 8.1 0 5.6.6 8 2.7 12.5 3.4 7 9.9 12.2 17.5 14.2 3.7.9 9.9.9 13.6 0z" fill="#c8cfd8"/><path d="M117.4 89.5c10.3-1.5 19-7.9 23.6-17.1 1.4-2.7 2.9-8 2.8-9.6 0-.4-.3.1-.5 1.2-.7 2.8-2.7 7.5-4.2 9.7-1.6 2.3-5.2 6.1-7.4 7.7-2.4 1.7-6.9 3.9-9.8 4.7-3.3.9-12 .9-15.3 0-8.8-2.4-16.6-9.2-19.8-17.4-1.6-4.1-2.2-7.1-2.2-11.7 0-8.7 3.1-15.7 9.8-21.9 2.6-2.4 2.7-2.6 1-1.4-2.6 1.8-6 5.2-8 8.2-7 10.7-6.6 25 .9 35.3 6.9 9.1 18.1 13.8 29.1 12.3z" fill="#819599"/></g></svg>