<?xml version="1.0" encoding="utf-8"?>
<!-- Generator: Adobe Illustrator 21.0.0, SVG Export Plug-In . SVG Version: 6.00 Build 0)  -->
<svg version="1.1" id="Layer_1" xmlns="http://www.w3.org/2000/svg" xmlns:xlink="http://www.w3.org/1999/xlink" x="0px" y="0px"
	 viewBox="0 0 24 24" style="enable-background:new 0 0 24 24;" xml:space="preserve">
<style type="text/css">
	.st0{clip-path:url(#SVGID_1_);}
	.st1{fill:#272620;}
	.st2{clip-path:url(#SVGID_4_);}
	.st3{fill:#43A14C;}
	.st4{fill:#FFDA46;}
	.st5{fill:#69C362;}
	.st6{clip-path:url(#SVGID_6_);}
	.st7{stroke:#1D1D1B;stroke-width:2.5;stroke-linecap:round;stroke-linejoin:round;stroke-miterlimit:10;}
	.st8{fill:none;stroke:#12100B;stroke-width:2;stroke-linecap:round;stroke-linejoin:round;stroke-miterlimit:10;}
	.st9{clip-path:url(#SVGID_8_);}
	.st10{fill:none;}
	.st11{clip-path:url(#SVGID_10_);}
	.st12{clip-path:url(#SVGID_12_);}
</style>
<g>
	<path d="M24,12c0-3.2-1.2-6.2-3.5-8.5C18.2,1.2,15.2,0,12,0c-1.9,0-3.9,0.5-5.6,1.4c-1,0.5-1.9,1.2-2.7,1.9V0H1.9v6.6h6.6V4.7H5
		c1.9-1.8,4.4-2.8,7-2.8c5.6,0,10.1,4.5,10.1,10.1c0,0.3,0,0.6,0,0.9l1.9,0.2C24,12.7,24,12.4,24,12l-0.9,0L24,12L24,12z"/>
	<path d="M4.1,18.4l-1.5,1.2c0.4,0.5,0.9,1,1.4,1.5l1.2-1.4C4.9,19.2,4.5,18.8,4.1,18.4z"/>
	<path d="M2.4,15.4L0.7,16c0.2,0.6,0.5,1.3,0.8,1.9l1.6-0.9C2.9,16.4,2.6,15.9,2.4,15.4z"/>
	<path d="M1.9,12H0c0,0.7,0.1,1.4,0.2,2L2,13.7C1.9,13.2,1.9,12.6,1.9,12z"/>
	<path d="M5.7,22.2c0.6,0.4,1.2,0.7,1.8,0.9l0.7-1.7c-0.5-0.2-1-0.5-1.5-0.8L5.7,22.2z"/>
	<path d="M21.2,16.2l1.7,0.8c0.3-0.6,0.5-1.3,0.7-1.9l-1.8-0.5C21.6,15.2,21.5,15.7,21.2,16.2z"/>
	<path d="M16.5,21.1l0.8,1.7c0.6-0.3,1.2-0.7,1.7-1.1L18,20.2C17.5,20.5,17,20.8,16.5,21.1z"/>
	<path d="M19.3,19.1l1.3,1.3c0.5-0.5,0.9-1,1.3-1.6l-1.5-1.1C20,18.2,19.7,18.6,19.3,19.1z"/>
	<path d="M13.3,22.1l0.2,1.9c0.7-0.1,1.3-0.2,2-0.4l-0.5-1.8C14.4,21.9,13.8,22,13.3,22.1z"/>
	<path d="M9.4,23.7c0.7,0.1,1.3,0.2,2,0.3l0.1-1.9c-0.6,0-1.1-0.1-1.7-0.2L9.4,23.7z"/>
</g>
</svg>
