<?xml version="1.0" encoding="utf-8"?>
<!-- Generator: Adobe Illustrator 21.0.0, SVG Export Plug-In . SVG Version: 6.00 Build 0)  -->
<svg version="1.1" id="Layer_1" xmlns="http://www.w3.org/2000/svg" xmlns:xlink="http://www.w3.org/1999/xlink" x="0px" y="0px"
	 viewBox="0 0 17.4 17.6" style="enable-background:new 0 0 17.4 17.6;" xml:space="preserve">
<style type="text/css">
	.st0{clip-path:url(#SVGID_1_);}
	.st1{fill:#272620;}
	.st2{clip-path:url(#SVGID_4_);}
	.st3{fill:#43A14C;}
	.st4{fill:#FFDA46;}
	.st5{fill:#69C362;}
	.st6{clip-path:url(#SVGID_6_);}
	.st7{stroke:#1D1D1B;stroke-width:2.5;stroke-linecap:round;stroke-linejoin:round;stroke-miterlimit:10;}
	.st8{fill:none;stroke:#12100B;stroke-width:2;stroke-linecap:round;stroke-linejoin:round;stroke-miterlimit:10;}
	.st9{clip-path:url(#SVGID_8_);}
	.st10{fill:none;}
	.st11{clip-path:url(#SVGID_10_);}
	.st12{clip-path:url(#SVGID_12_);}
</style>
<g>
	<path d="M14.2,11.2c-1,0-1.9,0.5-2.5,1.2L6.3,9.6c0.1-0.3,0.1-0.5,0.1-0.8c0-0.3-0.1-0.6-0.1-0.9l5.4-2.8c0.6,0.8,1.5,1.3,2.6,1.3
		c1.8,0,3.2-1.4,3.2-3.2C17.4,1.4,16,0,14.2,0C12.5,0,11,1.4,11,3.2c0,0.3,0.1,0.6,0.1,0.8L5.7,6.8C5.1,6.1,4.2,5.6,3.2,5.6
		C1.4,5.6,0,7,0,8.8C0,10.6,1.4,12,3.2,12c1,0,2-0.5,2.6-1.3l5.4,2.8c-0.1,0.3-0.1,0.6-0.1,0.9c0,1.8,1.4,3.2,3.2,3.2
		c1.8,0,3.2-1.4,3.2-3.2C17.4,12.6,16,11.2,14.2,11.2L14.2,11.2z M14.2,11.2"/>
</g>
</svg>
