<?xml version="1.0" encoding="utf-8"?>
<!-- Generator: Adobe Illustrator 21.0.0, SVG Export Plug-In . SVG Version: 6.00 Build 0)  -->
<svg version="1.1" id="Layer_1" xmlns="http://www.w3.org/2000/svg" xmlns:xlink="http://www.w3.org/1999/xlink" x="0px" y="0px"
	 viewBox="0 0 53 38.4" style="enable-background:new 0 0 53 38.4;" xml:space="preserve">
<style type="text/css">
	.st0{clip-path:url(#SVGID_1_);}
	.st1{fill:#272620;}
	.st2{clip-path:url(#SVGID_4_);}
	.st3{fill:#43A14C;}
	.st4{fill:#FFDA46;}
	.st5{fill:#69C362;}
	.st6{clip-path:url(#SVGID_6_);}
	.st7{stroke:#1D1D1B;stroke-width:2.5;stroke-linecap:round;stroke-linejoin:round;stroke-miterlimit:10;}
	.st8{fill:none;stroke:#12100B;stroke-width:2;stroke-linecap:round;stroke-linejoin:round;stroke-miterlimit:10;}
	.st9{clip-path:url(#SVGID_8_);}
	.st10{fill:none;}
	.st11{clip-path:url(#SVGID_10_);}
	.st12{clip-path:url(#SVGID_12_);}
</style>
<path d="M52.2,13.5L29.5,0.2c-0.5-0.3-1.1-0.3-1.6,0c-0.5,0.3-0.8,0.8-0.8,1.4l0,6c0,0,0,0-0.1,0c-0.6,0.2-1.2,0.3-1.9,0.5
	c-2.4,0.7-4.8,1.6-7.6,2.9c-2.5,1.1-4.9,2.5-7.2,4.2c-1.6,1.2-3.2,2.6-4.6,4.1C1.9,23.4-0.2,29,0,34.4c0,1,0.1,1.9,0.2,2.7
	c0.1,0.8,0.7,1.3,1.5,1.4c0,0,0,0,0,0c0.8,0,1.4-0.5,1.5-1.3c0.4-2.4,1.1-4.4,2.1-6c1.2-2.1,2.8-3.8,4.7-5c1.6-1,3.3-1.8,5.3-2.4
	c2.2-0.7,4.7-1.1,7.5-1.3c1.1-0.1,2.4-0.1,3.9-0.1c0,0,0.1,0,0.3,0l0,5.7c0,0.6,0.3,1.1,0.8,1.4c0.5,0.3,1.1,0.3,1.6,0l22.8-13
	c0.5-0.3,0.8-0.8,0.8-1.4C53,14.3,52.7,13.8,52.2,13.5L52.2,13.5z M52.2,13.5"/>
</svg>
