<?xml version="1.0" encoding="utf-8"?>
<!-- Generator: Adobe Illustrator 21.0.0, SVG Export Plug-In . SVG Version: 6.00 Build 0)  -->
<svg version="1.1" id="Layer_1" xmlns="http://www.w3.org/2000/svg" xmlns:xlink="http://www.w3.org/1999/xlink" x="0px" y="0px"
	 viewBox="0 0 31.6 32.8" style="enable-background:new 0 0 31.6 32.8;" xml:space="preserve">
<style type="text/css">
	.st0{clip-path:url(#SVGID_1_);}
	.st1{fill:#272620;}
	.st2{clip-path:url(#SVGID_4_);}
	.st3{fill:#43A14C;}
	.st4{fill:#FFDA46;}
	.st5{fill:#69C362;}
	.st6{clip-path:url(#SVGID_6_);}
	.st7{stroke:#1D1D1B;stroke-width:2.5;stroke-linecap:round;stroke-linejoin:round;stroke-miterlimit:10;}
	.st8{fill:none;stroke:#12100B;stroke-width:2;stroke-linecap:round;stroke-linejoin:round;stroke-miterlimit:10;}
	.st9{clip-path:url(#SVGID_8_);}
	.st10{fill:none;}
	.st11{clip-path:url(#SVGID_10_);}
	.st12{clip-path:url(#SVGID_12_);}
</style>
<g>
	<path d="M23.5,28.1H0.6c-0.3,0-0.6,0.3-0.6,0.6c0,0.3,0.3,0.6,0.6,0.6h22.9c0.3,2,2,3.5,4.1,3.5c2.3,0,4.1-1.8,4.1-4.1
		c0-2.3-1.8-4.1-4.1-4.1C25.5,24.6,23.8,26.1,23.5,28.1L23.5,28.1z M23.5,28.1"/>
	<path d="M11.5,15.8h-11c-0.3,0-0.6,0.3-0.6,0.6C0,16.7,0.3,17,0.6,17h10.9c0.2,2.1,2,3.8,4.2,3.8c2.2,0,4-1.6,4.2-3.8H31
		c0.3,0,0.6-0.3,0.6-0.6c0-0.3-0.3-0.6-0.6-0.6H19.9c-0.3-2-2.1-3.5-4.2-3.5C13.6,12.3,11.9,13.8,11.5,15.8L11.5,15.8z M11.5,15.8"
		/>
	<path d="M4.1,0C1.8,0,0,1.8,0,4.1c0,2.3,1.8,4.1,4.1,4.1c2.1,0,3.8-1.5,4.1-3.5H31c0.3,0,0.6-0.3,0.6-0.6c0-0.3-0.3-0.6-0.6-0.6
		H8.2C7.9,1.5,6.2,0,4.1,0L4.1,0z M4.1,0"/>
</g>
</svg>
