<?xml version="1.0" encoding="utf-8"?>
<!-- Generator: Adobe Illustrator 21.0.0, SVG Export Plug-In . SVG Version: 6.00 Build 0)  -->
<svg version="1.1" id="Layer_1" xmlns="http://www.w3.org/2000/svg" xmlns:xlink="http://www.w3.org/1999/xlink" x="0px" y="0px"
	 viewBox="0 0 24 24" style="enable-background:new 0 0 24 24;" xml:space="preserve">
<style type="text/css">
	.st0{clip-path:url(#SVGID_1_);}
	.st1{fill:#272620;}
	.st2{clip-path:url(#SVGID_4_);}
	.st3{fill:#43A14C;}
	.st4{fill:#FFDA46;}
	.st5{fill:#69C362;}
	.st6{clip-path:url(#SVGID_6_);}
	.st7{stroke:#1D1D1B;stroke-width:2.5;stroke-linecap:round;stroke-linejoin:round;stroke-miterlimit:10;}
	.st8{fill:none;stroke:#12100B;stroke-width:2;stroke-linecap:round;stroke-linejoin:round;stroke-miterlimit:10;}
	.st9{clip-path:url(#SVGID_8_);}
	.st10{fill:none;}
	.st11{clip-path:url(#SVGID_10_);}
	.st12{clip-path:url(#SVGID_12_);}
</style>
<g>
	<path d="M0,24l9.6-8L0,8.2V24z M0,24"/>
	<path d="M14.4,16.2L24,24V8L14.4,16.2z M22.4,20.6L17,16.2l5.4-4.8V20.6z M22.4,20.6"/>
	<rect x="11.2" y="8" width="1.6" height="1.6"/>
	<rect x="11.2" y="4.8" width="1.6" height="1.6"/>
	<rect x="11.2" y="11.2" width="1.6" height="1.6"/>
	<rect x="11.2" y="14.4" width="1.6" height="1.6"/>
	<rect x="11.2" y="17.6" width="1.6" height="1.6"/>
	<rect x="11.2" y="20.8" width="1.6" height="1.6"/>
	<path d="M12,1.6L12,1.6c2.1,0,4.2,1.1,5.8,3L16,6.4h4.8V1.6l-1.9,1.9C17,1.3,14.6,0,12,0C9,0,6.2,1.6,4.2,4.6l1.3,1
		C7.2,3,9.4,1.6,12,1.6L12,1.6z M12,1.6"/>
</g>
</svg>
