<?xml version="1.0" encoding="utf-8"?>
<!-- Generator: Adobe Illustrator 21.0.0, SVG Export Plug-In . SVG Version: 6.00 Build 0)  -->
<svg version="1.1" id="Layer_1" xmlns="http://www.w3.org/2000/svg" xmlns:xlink="http://www.w3.org/1999/xlink" x="0px" y="0px"
	 viewBox="0 0 19.4 19.4" style="enable-background:new 0 0 19.4 19.4;" xml:space="preserve">
<style type="text/css">
	.st0{clip-path:url(#SVGID_1_);}
	.st1{fill:#272620;}
	.st2{clip-path:url(#SVGID_4_);}
	.st3{fill:#43A14C;}
	.st4{fill:#FFDA46;}
	.st5{fill:#69C362;}
	.st6{clip-path:url(#SVGID_6_);}
	.st7{stroke:#1D1D1B;stroke-width:2.5;stroke-linecap:round;stroke-linejoin:round;stroke-miterlimit:10;}
	.st8{fill:none;stroke:#12100B;stroke-width:2;stroke-linecap:round;stroke-linejoin:round;stroke-miterlimit:10;}
	.st9{clip-path:url(#SVGID_8_);}
	.st10{fill:none;}
	.st11{clip-path:url(#SVGID_10_);}
	.st12{clip-path:url(#SVGID_12_);}
</style>
<g>
	<path d="M19.4,3.2c0-1.7-1.5-3.2-3.2-3.2H3.2C1.5,0,0,1.5,0,3.2v12.9c0,1.7,1.5,3.2,3.2,3.2h6.5V12H7.3V8.8h2.4V7.6
		c0-2.2,1.6-4.1,3.6-4.1h2.6v3.2h-2.6c-0.3,0-0.6,0.3-0.6,0.9v1.3h3.2V12h-3.2v7.3h3.4c1.7,0,3.2-1.5,3.2-3.2V3.2z M19.4,3.2"/>
</g>
</svg>
