<?xml version="1.0" encoding="utf-8"?>
<!-- Generator: Adobe Illustrator 21.0.0, SVG Export Plug-In . SVG Version: 6.00 Build 0)  -->
<svg version="1.1" id="Layer_1" xmlns="http://www.w3.org/2000/svg" xmlns:xlink="http://www.w3.org/1999/xlink" x="0px" y="0px"
	 viewBox="0 0 29.6 23.3" style="enable-background:new 0 0 29.6 23.3;" xml:space="preserve">
<style type="text/css">
	.st0{clip-path:url(#SVGID_1_);}
	.st1{fill:#272620;}
	.st2{clip-path:url(#SVGID_4_);}
	.st3{fill:#43A14C;}
	.st4{fill:#FFDA46;}
	.st5{fill:#69C362;}
	.st6{clip-path:url(#SVGID_6_);}
	.st7{stroke:#1D1D1B;stroke-width:2.5;stroke-linecap:round;stroke-linejoin:round;stroke-miterlimit:10;}
	.st8{fill:none;stroke:#12100B;stroke-width:2;stroke-linecap:round;stroke-linejoin:round;stroke-miterlimit:10;}
	.st9{clip-path:url(#SVGID_8_);}
	.st10{fill:none;}
	.st11{clip-path:url(#SVGID_10_);}
	.st12{clip-path:url(#SVGID_12_);}
</style>
<g>
	<path d="M17.5,15.8c1.8-0.8,3.2-1.8,4.2-3.1c1-1.3,1.6-2.7,1.6-4.3s-0.5-2.9-1.6-4.3c-1-1.3-2.5-2.3-4.2-3.1
		C15.7,0.4,13.7,0,11.6,0C9.5,0,7.6,0.4,5.8,1.1C4,1.9,2.6,2.9,1.6,4.2C0.5,5.5,0,6.9,0,8.5c0,1.3,0.4,2.5,1.2,3.7
		C2,13.3,3,14.3,4.4,15.1c-0.1,0.3-0.2,0.5-0.3,0.7c-0.1,0.2-0.3,0.4-0.4,0.6c-0.2,0.2-0.3,0.4-0.4,0.5c-0.1,0.1-0.2,0.3-0.4,0.5
		c-0.2,0.2-0.3,0.3-0.4,0.4c0,0,0,0-0.1,0.1C2.4,18,2.3,18,2.3,18c0,0,0,0-0.1,0.1c0,0.1-0.1,0.1-0.1,0.1l0,0.1c0,0,0,0.1,0,0.1
		c0,0,0,0.1,0,0.1c0,0,0,0.1,0,0.1c0,0.1,0.1,0.3,0.2,0.3c0.1,0.1,0.2,0.1,0.3,0.1h0.1c0.6-0.1,1-0.2,1.4-0.3
		c1.7-0.4,3.2-1.1,4.6-2.1c1,0.2,2,0.3,2.9,0.3C13.7,16.9,15.7,16.6,17.5,15.8L17.5,15.8z M8.2,14.4l-0.7,0.5
		c-0.3,0.2-0.7,0.4-1,0.6l0.6-1.4l-1.6-0.9c-1.1-0.6-1.9-1.3-2.5-2.2c-0.6-0.8-0.9-1.7-0.9-2.6c0-1.1,0.4-2.2,1.3-3.2
		c0.9-1,2-1.8,3.5-2.3c1.5-0.6,3-0.9,4.7-0.9c1.7,0,3.3,0.3,4.7,0.9c1.5,0.6,2.6,1.4,3.5,2.3c0.9,1,1.3,2,1.3,3.2s-0.4,2.2-1.3,3.2
		c-0.9,1-2,1.8-3.5,2.3c-1.5,0.6-3,0.9-4.7,0.9c-0.8,0-1.7-0.1-2.5-0.2L8.2,14.4z M8.2,14.4"/>
	<path d="M28.5,16.4c0.8-1.2,1.2-2.4,1.2-3.7c0-1.4-0.4-2.6-1.2-3.8c-0.8-1.2-2-2.2-3.4-2.9c0.3,0.8,0.4,1.7,0.4,2.5
		c0,1.5-0.4,2.9-1.1,4.2c-0.7,1.3-1.8,2.5-3.2,3.5c-1.3,0.9-2.7,1.6-4.4,2.1c-1.6,0.5-3.3,0.7-5.1,0.7c-0.3,0-0.8,0-1.5-0.1
		c2.2,1.5,4.8,2.2,7.8,2.2c0.9,0,1.9-0.1,2.9-0.3c1.4,1,2.9,1.7,4.6,2.1c0.4,0.1,0.9,0.2,1.4,0.3c0.1,0,0.3,0,0.4-0.1
		c0.1-0.1,0.2-0.2,0.2-0.4c0-0.1,0-0.1,0-0.1c0,0,0,0,0-0.1c0-0.1,0-0.1,0-0.1l0-0.1c0,0,0-0.1-0.1-0.1c0,0,0-0.1-0.1-0.1
		c0,0,0,0-0.1-0.1c0,0-0.1-0.1-0.1-0.1c-0.1-0.1-0.2-0.2-0.4-0.4c-0.2-0.2-0.3-0.4-0.4-0.5c-0.1-0.1-0.2-0.3-0.4-0.5
		c-0.2-0.2-0.3-0.4-0.4-0.6c-0.1-0.2-0.2-0.5-0.3-0.7C26.6,18.5,27.7,17.6,28.5,16.4L28.5,16.4z M28.5,16.4"/>
</g>
</svg>
