<?xml version="1.0" encoding="utf-8"?>
<!-- Generator: Adobe Illustrator 21.0.0, SVG Export Plug-In . SVG Version: 6.00 Build 0)  -->
<svg version="1.1" id="Layer_1" xmlns="http://www.w3.org/2000/svg" xmlns:xlink="http://www.w3.org/1999/xlink" x="0px" y="0px"
	 viewBox="0 0 34 34" style="enable-background:new 0 0 34 34;" xml:space="preserve">
<style type="text/css">
	.st0{clip-path:url(#SVGID_1_);}
	.st1{fill:#272620;}
	.st2{clip-path:url(#SVGID_4_);}
	.st3{fill:#43A14C;}
	.st4{fill:#FFDA46;}
	.st5{fill:#69C362;}
	.st6{clip-path:url(#SVGID_6_);}
	.st7{stroke:#1D1D1B;stroke-width:2.5;stroke-linecap:round;stroke-linejoin:round;stroke-miterlimit:10;}
	.st8{fill:none;stroke:#12100B;stroke-width:2;stroke-linecap:round;stroke-linejoin:round;stroke-miterlimit:10;}
	.st9{clip-path:url(#SVGID_8_);}
	.st10{fill:none;}
	.st11{clip-path:url(#SVGID_10_);}
	.st12{clip-path:url(#SVGID_12_);}
</style>
<g>
	<path d="M15.3,16.3c0,0.6-0.5,1-1.2,1h-0.6v-1.9c0.1,0,0.3-0.1,0.7-0.1C14.8,15.3,15.3,15.6,15.3,16.3L15.3,16.3z M34,17
		c0,1.3-0.5,2.6-1.4,3.5l-2.1,2.1v3c0,2.7-2.2,4.9-4.9,4.9h-3l-2.1,2.1C19.6,33.5,18.3,34,17,34c-1.3,0-2.6-0.5-3.5-1.5l-2.1-2.1h-3
		C7.2,30.5,5.9,30,5,29c-0.9-0.9-1.4-2.2-1.4-3.5v-3l-2.1-2.1C0.5,19.6,0,18.3,0,17c0-1.3,0.5-2.6,1.4-3.5l2.1-2.1v-3
		c0-2.7,2.2-4.9,4.9-4.9h3l2.1-2.1C14.4,0.5,15.7,0,17,0c1.3,0,2.6,0.5,3.5,1.4l2.1,2.1h3C26.8,3.5,28.1,4,29,5
		c0.9,0.9,1.4,2.2,1.4,3.5v3l2.1,2.1C33.5,14.4,34,15.7,34,17L34,17z M10.7,14.2H6.4v6.9H8v-2.8h2.5v-1.3H8v-1.6h2.7V14.2L10.7,14.2
		z M17.1,21.1c-0.1-0.3-0.4-1.2-0.6-2c-0.2-0.6-0.4-1.1-0.9-1.3v0c0.6-0.2,1.2-0.8,1.2-1.7c0-0.6-0.2-1.1-0.6-1.5
		c-0.5-0.4-1.2-0.5-2.2-0.5c-0.8,0-1.6,0.1-2.1,0.1v6.8h1.6v-2.7h0.5c0.6,0,0.9,0.2,1.1,1.1c0.2,0.9,0.4,1.4,0.5,1.6H17.1z
		 M22.4,19.8h-2.9v-1.6h2.6v-1.3h-2.6v-1.4h2.7v-1.3h-4.3v6.9h4.4V19.8z M27.9,19.8H25v-1.6h2.6v-1.3H25v-1.4h2.7v-1.3h-4.3v6.9h4.4
		V19.8z M27.9,19.8"/>
</g>
</svg>
