<?xml version="1.0" encoding="utf-8"?>
<svg version="1.1" id="Layer_1" xmlns="http://www.w3.org/2000/svg" xmlns:xlink="http://www.w3.org/1999/xlink" x="0px" y="0px"
	 viewBox="0 0 22 22" style="enable-background:new 0 0 22 22;" xml:space="preserve">
<path d="M11,22C4.9,22,0,17.1,0,11c0-1.9,0.5-3.9,1.5-5.5l-0.9-1C0.5,4.4,0.5,4.2,0.5,4c0.1-0.2,0.2-0.3,0.4-0.3l5.8-1.3
	c0.2,0,0.4,0,0.5,0.2c0.1,0.1,0.2,0.3,0.1,0.5L5.6,9C5.6,9.2,5.4,9.3,5.2,9.3c-0.2,0-0.4,0-0.5-0.2L3.9,8.3C3.6,9.1,3.4,10.1,3.4,11
	c0,4.2,3.4,7.6,7.6,7.6c4.2,0,7.6-3.4,7.6-7.6c0-4-3.1-7.3-7.1-7.6c-0.3,0-0.5-0.2-0.5-0.5V0.5c0-0.1,0.1-0.3,0.2-0.4
	C11.3,0,11.4,0,11.6,0C14.4,0.1,17,1.3,19,3.4c2,2.1,3,4.8,3,7.6C22,17.1,17.1,22,11,22L11,22z"/>
</svg>
