<?xml version="1.0" encoding="utf-8"?>
<!-- Generator: Adobe Illustrator 21.0.0, SVG Export Plug-In . SVG Version: 6.00 Build 0)  -->
<svg version="1.1" id="Layer_1" xmlns="http://www.w3.org/2000/svg" xmlns:xlink="http://www.w3.org/1999/xlink" x="0px" y="0px"
	 viewBox="0 0 24 20" style="enable-background:new 0 0 24 20;" xml:space="preserve">
<style type="text/css">
	.st0{clip-path:url(#SVGID_1_);}
	.st1{fill:#272620;}
	.st2{clip-path:url(#SVGID_4_);}
	.st3{fill:#43A14C;}
	.st4{fill:#FFDA46;}
	.st5{fill:#69C362;}
	.st6{clip-path:url(#SVGID_6_);}
	.st7{stroke:#1D1D1B;stroke-width:2.5;stroke-linecap:round;stroke-linejoin:round;stroke-miterlimit:10;}
	.st8{fill:none;stroke:#12100B;stroke-width:2;stroke-linecap:round;stroke-linejoin:round;stroke-miterlimit:10;}
	.st9{clip-path:url(#SVGID_8_);}
	.st10{fill:none;}
	.st11{clip-path:url(#SVGID_10_);}
	.st12{clip-path:url(#SVGID_12_);}
</style>
<g>
	<path d="M21.6,0H2.4C1.1,0,0,1.1,0,2.4v15.2C0,18.9,1.1,20,2.4,20h19.2c1.3,0,2.4-1.1,2.4-2.4V2.4C24,1.1,22.9,0,21.6,0L21.6,0z
		 M11.5,15.4H4.2c0-0.7,0.1-1.3,0.3-1.8c0.2-0.5,0.4-1,0.7-1.4c0.3-0.4,0.5-0.8,0.8-1.1c0.3-0.3,0.6-0.6,0.8-0.8
		c0.5-0.4,0.9-0.8,1.1-1.1C8.2,9,8.4,8.7,8.5,8.5c0.1-0.2,0.2-0.4,0.2-0.6c0-0.2,0-0.4,0-0.6c0-0.4-0.1-0.8-0.2-1.1
		C8.4,5.9,8.2,5.8,7.8,5.8C7.6,5.8,7.4,5.9,7.2,6C7.1,6.1,7,6.3,6.9,6.5C6.8,6.7,6.8,6.9,6.8,7.2c0,0.2,0,0.5,0,0.7H4.3V7.5
		c0-2.3,1.2-3.4,3.6-3.4c0.7,0,1.3,0.1,1.7,0.3c0.5,0.2,0.8,0.4,1.1,0.7c0.3,0.3,0.5,0.6,0.6,1c0.1,0.4,0.2,0.8,0.2,1.2
		c0,0.4,0,0.8-0.1,1.1c-0.1,0.3-0.1,0.6-0.3,0.9c-0.1,0.3-0.3,0.5-0.5,0.8c-0.2,0.3-0.5,0.6-0.9,0.9c-0.6,0.5-1,1-1.4,1.4
		c-0.4,0.4-0.7,0.7-0.8,1h4V15.4z M18.8,14.7c-0.6,0.6-1.5,0.9-2.8,0.9c-1.2,0-2.1-0.3-2.7-0.8c-0.6-0.5-0.9-1.3-0.9-2.3v-0.4H15
		v0.4c0,0.2,0,0.4,0,0.5c0,0.2,0.1,0.3,0.1,0.5c0.1,0.1,0.2,0.2,0.3,0.3c0.1,0.1,0.3,0.1,0.5,0.1c0.4,0,0.7-0.2,0.8-0.6
		c0.1-0.4,0.2-1,0.2-1.8c0-0.7-0.1-1.2-0.2-1.5c-0.2-0.3-0.4-0.5-0.8-0.5c-0.2,0-0.5,0.1-0.6,0.2c-0.2,0.1-0.3,0.4-0.3,0.7h-2.5
		l0.4-6.1h6.4v2.1H15l-0.1,2.1l0,0c0.1-0.1,0.2-0.3,0.3-0.4c0.1-0.1,0.3-0.2,0.5-0.3c0.2-0.1,0.3-0.1,0.5-0.2c0.2,0,0.4-0.1,0.6-0.1
		c1,0,1.8,0.3,2.3,0.9c0.5,0.6,0.7,1.6,0.7,3C19.7,13,19.4,14.1,18.8,14.7L18.8,14.7z M18.8,14.7"/>
</g>
</svg>
