<?xml version="1.0" encoding="utf-8"?>
<!-- Generator: Adobe Illustrator 21.0.0, SVG Export Plug-In . SVG Version: 6.00 Build 0)  -->
<svg version="1.1" id="Layer_1" xmlns="http://www.w3.org/2000/svg" xmlns:xlink="http://www.w3.org/1999/xlink" x="0px" y="0px"
	 viewBox="0 0 35.2 35.2" style="enable-background:new 0 0 35.2 35.2;" xml:space="preserve">
<style type="text/css">
	.st0{clip-path:url(#SVGID_1_);}
	.st1{fill:#272620;}
	.st2{clip-path:url(#SVGID_4_);}
	.st3{fill:#43A14C;}
	.st4{fill:#FFDA46;}
	.st5{fill:#69C362;}
	.st6{clip-path:url(#SVGID_6_);}
	.st7{stroke:#1D1D1B;stroke-width:2.5;stroke-linecap:round;stroke-linejoin:round;stroke-miterlimit:10;}
	.st8{fill:none;stroke:#12100B;stroke-width:2;stroke-linecap:round;stroke-linejoin:round;stroke-miterlimit:10;}
	.st9{clip-path:url(#SVGID_8_);}
	.st10{fill:none;}
	.st11{clip-path:url(#SVGID_10_);}
	.st12{clip-path:url(#SVGID_12_);}
</style>
<g>
	<path d="M17.6,0C7.8,0,0,7.8,0,17.6c0,9.8,7.8,17.6,17.6,17.6c9.8,0,17.6-7.8,17.6-17.6C35.2,7.8,27.4,0,17.6,0L17.6,0z M25.4,15.8
		l-1.1,1.1c-0.3,0.3-0.8,0.3-1.1,0l-3.2-3.2c-0.2-0.2-0.7-0.1-0.7,0.3v13.2c0,0.5-0.3,0.8-0.8,0.8h-1.6c-0.5,0-0.8-0.3-0.8-0.8V13.9
		c0-0.3-0.4-0.6-0.7-0.3l-3.2,3.2c-0.3,0.3-0.8,0.3-1.1,0l-1.1-1.1c-0.2-0.2-0.2-0.3-0.2-0.6c0-0.2,0.1-0.4,0.2-0.6L17,7.4
		c0.2-0.2,0.4-0.2,0.6-0.2c0.2,0,0.4,0.1,0.6,0.2l7.2,7.2c0.2,0.2,0.2,0.3,0.2,0.6C25.6,15.4,25.5,15.6,25.4,15.8L25.4,15.8z
		 M25.4,15.8"/>
</g>
</svg>
