<?xml version="1.0" encoding="utf-8"?>
<!-- Generator: Adobe Illustrator 21.0.0, SVG Export Plug-In . SVG Version: 6.00 Build 0)  -->
<svg version="1.1" id="Layer_1" xmlns="http://www.w3.org/2000/svg" xmlns:xlink="http://www.w3.org/1999/xlink" x="0px" y="0px"
	 viewBox="0 0 46 46" style="enable-background:new 0 0 46 46;" xml:space="preserve">
<style type="text/css">
	.st0{clip-path:url(#SVGID_1_);}
	.st1{fill:#272620;}
	.st2{clip-path:url(#SVGID_4_);}
	.st3{fill:#43A14C;}
	.st4{fill:#FFDA46;}
	.st5{fill:#69C362;}
	.st6{clip-path:url(#SVGID_6_);}
	.st7{stroke:#1D1D1B;stroke-width:2.5;stroke-linecap:round;stroke-linejoin:round;stroke-miterlimit:10;}
	.st8{fill:none;stroke:#12100B;stroke-width:2;stroke-linecap:round;stroke-linejoin:round;stroke-miterlimit:10;}
	.st9{clip-path:url(#SVGID_8_);}
	.st10{fill:none;}
	.st11{clip-path:url(#SVGID_10_);}
	.st12{clip-path:url(#SVGID_12_);}
</style>
<g>
	<path d="M45.5,22l-4.4-3.9l1.8-5.5c0.1-0.4,0.1-0.8-0.1-1.1c-0.2-0.3-0.5-0.6-0.9-0.6l-5.7-1.2L35.1,4c-0.1-0.4-0.3-0.7-0.6-0.9
		c-0.3-0.2-0.7-0.2-1.1-0.1l-5.5,1.8L24,0.5C23.8,0.2,23.4,0,23,0c-0.4,0-0.8,0.2-1,0.5l-3.9,4.4L12.6,3c-0.4-0.1-0.8-0.1-1.1,0.1
		c-0.3,0.2-0.6,0.5-0.6,0.9L9.7,9.7L4,10.9c-0.4,0.1-0.7,0.3-0.9,0.6c-0.2,0.3-0.2,0.7-0.1,1.1l1.8,5.5L0.5,22C0.2,22.3,0,22.6,0,23
		c0,0.4,0.2,0.8,0.5,1l4.4,3.9L3,33.4c-0.1,0.4-0.1,0.8,0.1,1.1c0.2,0.3,0.5,0.6,0.9,0.6l5.7,1.2l1.2,5.7c0.1,0.4,0.3,0.7,0.6,0.9
		c0.3,0.2,0.7,0.2,1.1,0.1l5.5-1.8l3.9,4.4c0.3,0.3,0.6,0.5,1,0.5c0.4,0,0.8-0.2,1-0.5l3.9-4.4l5.5,1.8c0.4,0.1,0.8,0.1,1.1-0.1
		c0.3-0.2,0.6-0.5,0.6-0.9l1.2-5.7l5.7-1.2c0.4-0.1,0.7-0.3,0.9-0.6c0.2-0.3,0.2-0.7,0.1-1.1l-1.8-5.5l4.4-3.9
		c0.3-0.3,0.5-0.6,0.5-1C46,22.6,45.8,22.3,45.5,22L45.5,22z M33.9,28.4c0,0-0.1,0-0.1,0c-0.6,0-1.1-0.3-1.3-0.9l-0.7-1.8l-0.7,1.8
		c-0.2,0.6-0.8,0.9-1.4,0.9c-0.6-0.1-1.1-0.5-1.2-1.1l-1.3-8c-0.1-0.7,0.4-1.4,1.1-1.6c0.7-0.1,1.4,0.4,1.6,1.1l0.5,3l0.2-0.4
		c0.2-0.5,0.7-0.9,1.3-0.9h0c0.6,0,1.1,0.4,1.3,0.9l0.1,0.4l0.5-2.9c0.1-0.7,0.8-1.2,1.5-1.1c0.7,0.1,1.2,0.8,1.1,1.5l-1.3,8
		C35,27.8,34.5,28.3,33.9,28.4L33.9,28.4z M20.2,17.7h4.4c0.7,0,1.3,0.6,1.3,1.3s-0.6,1.3-1.3,1.3h-3v1.2h1c0.7,0,1.3,0.6,1.3,1.3
		c0,0.7-0.6,1.3-1.3,1.3h-1v1.3h3c0.7,0,1.3,0.6,1.3,1.3c0,0.7-0.6,1.3-1.3,1.3h-4.4c-0.7,0-1.3-0.6-1.3-1.3v-8
		C18.9,18.3,19.5,17.7,20.2,17.7L20.2,17.7z M10.9,28.4c-0.7,0-1.3-0.6-1.3-1.3v-8c0-0.6,0.4-1.1,1-1.3c0.6-0.2,1.2,0.1,1.5,0.6
		l2.3,3.8V19c0-0.7,0.6-1.3,1.3-1.3c0.7,0,1.3,0.6,1.3,1.3v8c0,0.6-0.4,1.1-1,1.3c-0.1,0-0.2,0-0.4,0c-0.5,0-0.9-0.2-1.2-0.7
		l-2.3-3.8V27C12.3,27.8,11.7,28.4,10.9,28.4L10.9,28.4z M10.9,28.4"/>
</g>
</svg>
