<?xml version="1.0" encoding="utf-8"?>
<!-- Generator: Adobe Illustrator 21.0.0, SVG Export Plug-In . SVG Version: 6.00 Build 0)  -->
<svg version="1.1" id="Layer_1" xmlns="http://www.w3.org/2000/svg" xmlns:xlink="http://www.w3.org/1999/xlink" x="0px" y="0px"
	 viewBox="0 0 25 48.3" style="enable-background:new 0 0 25 48.3;" xml:space="preserve">
<style type="text/css">
	.st0{clip-path:url(#SVGID_1_);}
	.st1{fill:#272620;}
	.st2{clip-path:url(#SVGID_4_);}
	.st3{fill:#43A14C;}
	.st4{fill:#FFDA46;}
	.st5{fill:#69C362;}
	.st6{clip-path:url(#SVGID_6_);}
	.st7{stroke:#1D1D1B;stroke-width:2.5;stroke-linecap:round;stroke-linejoin:round;stroke-miterlimit:10;}
	.st8{fill:none;stroke:#12100B;stroke-width:2;stroke-linecap:round;stroke-linejoin:round;stroke-miterlimit:10;}
	.st9{clip-path:url(#SVGID_8_);}
	.st10{fill:none;}
	.st11{clip-path:url(#SVGID_10_);}
	.st12{clip-path:url(#SVGID_12_);}
</style>
<g>
	<path class="st3" d="M4,35.6c-0.8-4.6-1.5-7.5-2-9.6c-2.8,3.4-2,10.3-2,10.3l4.1,0C4.2,36,4.1,35.8,4,35.6L4,35.6z M4,35.6"/>
	<path class="st3" d="M20.8,36.3l4.1,0c0,0,0.9-6.9-2-10.3c-0.5,2.1-1.1,5-2,9.6C20.9,35.8,20.9,36,20.8,36.3L20.8,36.3z M20.8,36.3
		"/>
	<path class="st4" d="M16.6,38.3c-0.2,0.5-0.4,1-0.6,1.5c-0.6,1.3-1.4,2.5-2.3,3.7c-0.4,0.5-0.7,1-1.1,1.4c0-0.1-0.1-0.1-0.1-0.2
		c-0.9-1.1-1.8-2.3-2.6-3.5c-0.4-0.6-0.7-1.2-1-1.9c-0.2-0.4-0.3-0.8-0.5-1.2l-0.5,0c-0.2,0.8-0.2,1.7-0.1,2.6
		C8,41.9,8.4,43.1,9,44.3c0.6,1.2,1.4,2.4,2.3,3.4c0.1,0.1,0.3,0.3,0.4,0.4c0.2,0.1,0.4,0.2,0.7,0.3c0.2,0,0.5,0,0.7-0.1
		c0.2-0.1,0.3-0.2,0.5-0.4c0.9-0.9,1.6-1.9,2.2-3c1.1-2,1.8-4.4,1.3-6.7h-0.4C16.7,38.2,16.6,38.2,16.6,38.3L16.6,38.3z M16.6,38.3"
		/>
	<path class="st5" d="M12.5,0L12.5,0c-0.3,0-0.6,0.1-0.9,0.4c0,0,0,0,0,0c-2.7,2.8-9,10.1-9,17.3c0,3.3,0.3,4.6,1,7.7
		c0.5,2.2,1.2,5.2,2.1,10.3c0.1,0.6,0.6,1,1.2,1l11,0c0.3,0,0.6-0.1,0.9-0.4c0.2-0.2,0.3-0.4,0.3-0.6c0.9-5.1,1.6-8.1,2.1-10.3
		c0.7-3,1-4.4,1-7.7c0-7.2-6.3-14.5-9-17.3C13.2,0.1,12.8,0,12.5,0L12.5,0z M16.5,16.8c0,2.2-1.8,4-4,4c-2.2,0-4-1.8-4-4
		c0-2.2,1.8-4,4-4C14.7,12.7,16.5,14.5,16.5,16.8L16.5,16.8z M16.5,16.8"/>
</g>
</svg>
