<?xml version="1.0" encoding="utf-8"?>
<!-- Generator: Adobe Illustrator 22.0.1, SVG Export Plug-In . SVG Version: 6.00 Build 0)  -->
<svg version="1.1" id="Layer_1" xmlns="http://www.w3.org/2000/svg" xmlns:xlink="http://www.w3.org/1999/xlink" x="0px" y="0px"
	 viewBox="0 0 33.6 33.6" style="enable-background:new 0 0 33.6 33.6;" xml:space="preserve">
<g>
	<path d="M12.6,14.7c-2.3,0-4.2,1.9-4.2,4.2v10.5c0,2.3,1.9,4.2,4.2,4.2h16.8c2.3,0,4.2-1.9,4.2-4.2V18.9c0-2.3-1.9-4.2-4.2-4.2l0,0
		H16.8 M22.1,24.9v3.5c0,0.6-0.5,1-1.1,1s-1.1-0.5-1.1-1v-3.5c-0.6-0.4-1.1-1-1.1-1.8c0-1.2,0.9-2.1,2.1-2.1s2.1,0.9,2.1,2.1
		C23.1,23.9,22.7,24.5,22.1,24.9L22.1,24.9z"/>
	<path d="M16.8,14.7V8.4C16.8,3.8,13,0,8.4,0S0,3.8,0,8.4v6.3h4.2V8.4c0-2.3,1.9-4.2,4.2-4.2s4.2,1.9,4.2,4.2v6.3"/>
</g>
</svg>
