<?xml version="1.0" encoding="utf-8"?>
<!-- Generator: Adobe Illustrator 21.0.0, SVG Export Plug-In . SVG Version: 6.00 Build 0)  -->
<svg version="1.1" id="Layer_1" xmlns="http://www.w3.org/2000/svg" xmlns:xlink="http://www.w3.org/1999/xlink" x="0px" y="0px"
	 viewBox="0 0 23.6 25.9" style="enable-background:new 0 0 23.6 25.9;" xml:space="preserve">
<style type="text/css">
	.st0{clip-path:url(#SVGID_1_);}
	.st1{fill:#272620;}
	.st2{clip-path:url(#SVGID_4_);}
	.st3{fill:#43A14C;}
	.st4{fill:#FFDA46;}
	.st5{fill:#69C362;}
	.st6{clip-path:url(#SVGID_6_);}
	.st7{stroke:#1D1D1B;stroke-width:2.5;stroke-linecap:round;stroke-linejoin:round;stroke-miterlimit:10;}
	.st8{fill:none;stroke:#12100B;stroke-width:2;stroke-linecap:round;stroke-linejoin:round;stroke-miterlimit:10;}
	.st9{clip-path:url(#SVGID_8_);}
	.st10{fill:none;}
	.st11{clip-path:url(#SVGID_10_);}
	.st12{clip-path:url(#SVGID_12_);}
</style>
<g>
	<path d="M21.8,17.9c-1,0-1.7,0.8-1.7,1.7v2.7H3.5v-2.7c0-1-0.8-1.7-1.7-1.7c-1,0-1.7,0.8-1.7,1.7v4.5c0,1,0.8,1.7,1.7,1.7h20.1
		c1,0,1.7-0.8,1.7-1.7v-4.5C23.6,18.7,22.8,17.9,21.8,17.9L21.8,17.9z M21.8,17.9"/>
	<path d="M11.3,19.8c0.3,0.3,0.8,0.3,1.1,0l6.1-6.1c0.2-0.2,0.2-0.4,0.1-0.7c-0.1-0.2-0.3-0.4-0.6-0.4h-2.9V1.4
		c0-0.8-0.6-1.4-1.4-1.4H9.8C9.1,0,8.5,0.6,8.5,1.4v11.3H5.6c-0.3,0-0.5,0.2-0.6,0.4c-0.1,0.2,0,0.5,0.1,0.7L11.3,19.8z M11.3,19.8"
		/>
</g>
</svg>
