<?xml version="1.0" encoding="utf-8"?>
<!-- Generator: Adobe Illustrator 21.0.0, SVG Export Plug-In . SVG Version: 6.00 Build 0)  -->
<svg version="1.1" id="Layer_1" xmlns="http://www.w3.org/2000/svg" xmlns:xlink="http://www.w3.org/1999/xlink" x="0px" y="0px"
	 viewBox="0 0 18.9 18.9" style="enable-background:new 0 0 18.9 18.9;" xml:space="preserve">
<style type="text/css">
	.st0{clip-path:url(#SVGID_1_);}
	.st1{fill:#272620;}
	.st2{clip-path:url(#SVGID_4_);}
	.st3{fill:#43A14C;}
	.st4{fill:#FFDA46;}
	.st5{fill:#69C362;}
	.st6{clip-path:url(#SVGID_6_);}
	.st7{stroke:#1D1D1B;stroke-width:2.5;stroke-linecap:round;stroke-linejoin:round;stroke-miterlimit:10;}
	.st8{fill:none;stroke:#12100B;stroke-width:2;stroke-linecap:round;stroke-linejoin:round;stroke-miterlimit:10;}
	.st9{clip-path:url(#SVGID_8_);}
	.st10{fill:none;}
	.st11{clip-path:url(#SVGID_10_);}
	.st12{clip-path:url(#SVGID_12_);}
</style>
<g>
	<path d="M9.4,0C4.2,0,0,4.2,0,9.4c0,5.2,4.2,9.5,9.4,9.5c5.2,0,9.5-4.2,9.5-9.5C18.9,4.2,14.7,0,9.4,0L9.4,0z M11.4,14.6
		c-0.5,0.2-0.9,0.3-1.2,0.4c-0.3,0.1-0.6,0.2-1,0.2c-0.6,0-1-0.1-1.4-0.4c-0.3-0.3-0.5-0.7-0.5-1.1c0-0.2,0-0.3,0-0.5
		c0-0.2,0.1-0.4,0.1-0.6l0.6-2.2c0.1-0.2,0.1-0.4,0.1-0.6c0-0.2,0.1-0.4,0.1-0.5c0-0.3-0.1-0.5-0.2-0.6C8.1,8.7,7.8,8.6,7.5,8.6
		c-0.2,0-0.3,0-0.5,0.1C6.9,8.7,6.7,8.8,6.6,8.8l0.2-0.7C7.2,8,7.6,7.9,7.9,7.7c0.4-0.1,0.7-0.2,1-0.2c0.6,0,1,0.1,1.4,0.4
		c0.3,0.3,0.5,0.6,0.5,1.1c0,0.1,0,0.3,0,0.5c0,0.2-0.1,0.5-0.1,0.6L10,12.4C10,12.5,9.9,12.7,9.9,13c0,0.2-0.1,0.4-0.1,0.5
		c0,0.3,0.1,0.5,0.2,0.6c0.1,0.1,0.3,0.2,0.7,0.2c0.1,0,0.3,0,0.5-0.1c0.2-0.1,0.3-0.1,0.4-0.1L11.4,14.6z M11.3,5.9
		c-0.3,0.3-0.6,0.4-1,0.4c-0.4,0-0.7-0.1-1-0.4C9,5.7,8.8,5.4,8.8,5c0-0.4,0.1-0.7,0.4-1c0.3-0.3,0.6-0.4,1-0.4c0.4,0,0.7,0.1,1,0.4
		c0.3,0.3,0.4,0.6,0.4,1C11.7,5.4,11.6,5.7,11.3,5.9L11.3,5.9z M11.3,5.9"/>
</g>
</svg>
