<?xml version="1.0" encoding="utf-8"?>
<!-- Generator: Adobe Illustrator 21.0.0, SVG Export Plug-In . SVG Version: 6.00 Build 0)  -->
<svg version="1.1" id="Layer_1" xmlns="http://www.w3.org/2000/svg" xmlns:xlink="http://www.w3.org/1999/xlink" x="0px" y="0px"
	 viewBox="0 0 19.8 15.8" style="enable-background:new 0 0 19.8 15.8;" xml:space="preserve">
<style type="text/css">
	.st0{clip-path:url(#SVGID_1_);}
	.st1{fill:#272620;}
	.st2{clip-path:url(#SVGID_4_);}
	.st3{fill:#43A14C;}
	.st4{fill:#FFDA46;}
	.st5{fill:#69C362;}
	.st6{clip-path:url(#SVGID_6_);}
	.st7{stroke:#1D1D1B;stroke-width:2.5;stroke-linecap:round;stroke-linejoin:round;stroke-miterlimit:10;}
	.st8{fill:none;stroke:#12100B;stroke-width:2;stroke-linecap:round;stroke-linejoin:round;stroke-miterlimit:10;}
	.st9{clip-path:url(#SVGID_8_);}
	.st10{fill:none;}
	.st11{clip-path:url(#SVGID_10_);}
	.st12{clip-path:url(#SVGID_12_);}
</style>
<g>
	<path d="M9.9,5.9c-1.6,0-3,1.3-3,3c0,1.6,1.3,3,3,3c1.6,0,3-1.3,3-3C12.9,7.3,11.5,5.9,9.9,5.9L9.9,5.9z M17.8,3h-2.4
		c-0.3,0-0.7-0.3-0.8-0.6l-0.6-1.8C13.9,0.3,13.6,0,13.3,0H6.5C6.2,0,5.9,0.3,5.8,0.6L5.1,2.4C5,2.7,4.7,3,4.4,3H2C0.9,3,0,3.9,0,5
		v8.9c0,1.1,0.9,2,2,2h15.8c1.1,0,2-0.9,2-2V5C19.8,3.9,18.9,3,17.8,3L17.8,3z M9.9,13.9c-2.7,0-5-2.2-5-5c0-2.7,2.2-5,5-5
		c2.7,0,5,2.2,5,5C14.9,11.6,12.6,13.9,9.9,13.9L9.9,13.9z M17.1,6.3c-0.4,0-0.7-0.3-0.7-0.7c0-0.4,0.3-0.7,0.7-0.7
		c0.4,0,0.7,0.3,0.7,0.7C17.8,6,17.5,6.3,17.1,6.3L17.1,6.3z M17.1,6.3"/>
</g>
</svg>
