<?xml version="1.0" encoding="utf-8"?>
<!-- Generator: Adobe Illustrator 21.0.0, SVG Export Plug-In . SVG Version: 6.00 Build 0)  -->
<svg version="1.1" id="Layer_1" xmlns="http://www.w3.org/2000/svg" xmlns:xlink="http://www.w3.org/1999/xlink" x="0px" y="0px"
	 viewBox="0 0 19.6 15.9" style="enable-background:new 0 0 19.6 15.9;" xml:space="preserve">
<style type="text/css">
	.st0{clip-path:url(#SVGID_1_);}
	.st1{fill:#272620;}
	.st2{clip-path:url(#SVGID_4_);}
	.st3{fill:#43A14C;}
	.st4{fill:#FFDA46;}
	.st5{fill:#69C362;}
	.st6{clip-path:url(#SVGID_6_);}
	.st7{stroke:#1D1D1B;stroke-width:2.5;stroke-linecap:round;stroke-linejoin:round;stroke-miterlimit:10;}
	.st8{fill:none;stroke:#12100B;stroke-width:2;stroke-linecap:round;stroke-linejoin:round;stroke-miterlimit:10;}
	.st9{clip-path:url(#SVGID_8_);}
	.st10{fill:none;}
	.st11{clip-path:url(#SVGID_10_);}
	.st12{clip-path:url(#SVGID_12_);}
</style>
<g>
	<path d="M19.6,1.9c-0.7,0.3-1.5,0.5-2.3,0.6C18.1,2,18.7,1.2,19,0.3c-0.8,0.5-1.6,0.8-2.6,1C15.8,0.5,14.7,0,13.6,0
		c-2.2,0-4,1.8-4,4c0,0.3,0,0.6,0.1,0.9C6.3,4.8,3.3,3.2,1.4,0.7C1,1.3,0.8,2,0.8,2.8c0,1.4,0.7,2.6,1.8,3.3c-0.7,0-1.3-0.2-1.8-0.5
		v0c0,1.9,1.4,3.6,3.2,3.9C3.7,9.7,3.3,9.7,3,9.7c-0.3,0-0.5,0-0.8-0.1c0.5,1.6,2,2.8,3.8,2.8c-1.4,1.1-3.1,1.7-5,1.7
		c-0.3,0-0.6,0-1-0.1c1.8,1.1,3.9,1.8,6.2,1.8c7.4,0,11.4-6.1,11.4-11.4l0-0.5C18.4,3.4,19,2.7,19.6,1.9L19.6,1.9z M19.6,1.9"/>
</g>
</svg>
