<?xml version="1.0" encoding="utf-8"?>
<!-- Generator: Adobe Illustrator 21.0.0, SVG Export Plug-In . SVG Version: 6.00 Build 0)  -->
<svg version="1.1" id="Layer_1" xmlns="http://www.w3.org/2000/svg" xmlns:xlink="http://www.w3.org/1999/xlink" x="0px" y="0px"
	 viewBox="0 0 25.2 33.6" style="enable-background:new 0 0 25.2 33.6;" xml:space="preserve">
<path d="M21,14.7V8.4C21,3.8,17.2,0,12.6,0C8,0,4.2,3.8,4.2,8.4v6.3h0c-2.3,0-4.2,1.9-4.2,4.2v10.5c0,2.3,1.9,4.2,4.2,4.2H21
	c2.3,0,4.2-1.9,4.2-4.2V18.9C25.2,16.6,23.3,14.7,21,14.7z M8.4,14.7V8.4c0-2.3,1.9-4.2,4.2-4.2c2.3,0,4.2,1.9,4.2,4.2v6.3H8.4
	L8.4,14.7z M13.7,24.9v3.5c0,0.6-0.5,1-1.1,1s-1.1-0.5-1.1-1v-3.5c-0.6-0.4-1.1-1-1.1-1.8c0-1.2,0.9-2.1,2.1-2.1s2.1,0.9,2.1,2.1
	C14.7,23.9,14.3,24.5,13.7,24.9z"/>
</svg>
