<?xml version="1.0" encoding="utf-8"?>
<!-- Generator: Adobe Illustrator 22.0.1, SVG Export Plug-In . SVG Version: 6.00 Build 0)  -->
<svg version="1.1" id="Layer_1" xmlns="http://www.w3.org/2000/svg" xmlns:xlink="http://www.w3.org/1999/xlink" x="0px" y="0px"
	 viewBox="0 0 22 22" style="enable-background:new 0 0 22 22;" xml:space="preserve">
<style type="text/css">
	.st0{display:none;fill:none;}
</style>
<path d="M11,22C4.9,22,0,17.1,0,11c0-1.9,0.5-3.9,1.5-5.5l-0.9-1C0.5,4.4,0.5,4.2,0.5,4c0.1-0.2,0.2-0.3,0.4-0.3l5.8-1.3
	c0.2,0,0.4,0,0.5,0.2c0.1,0.1,0.2,0.3,0.1,0.5L5.6,9c0,0.2-0.2,0.3-0.4,0.3c-0.2,0-0.4,0-0.5-0.2L3.9,8.3C3.6,9.1,3.4,10.1,3.4,11
	c0,4.2,3.4,7.6,7.6,7.6s7.6-3.4,7.6-7.6c0-4-3.1-7.3-7.1-7.6c-0.3,0-0.5-0.2-0.5-0.5V0.5c0-0.1,0.1-0.3,0.2-0.4
	C11.3,0,11.4,0,11.6,0C14.4,0.1,17,1.3,19,3.4s3,4.8,3,7.6C22,17.1,17.1,22,11,22L11,22z"/>
<path class="st0" d="M-5.5-5.5v33h33v-33H-5.5z M17.3,10.5C17.3,10.6,17.3,10.6,17.3,10.5c-0.1,0.3-0.1,0.6-0.2,0.8c0,0,0,0,0,0.1
	c-0.2,0.5-0.4,0.9-0.7,1.3l0,0c-0.2,0.2-0.3,0.4-0.5,0.5c0,0,0,0-0.1,0c-0.2,0.2-0.4,0.3-0.6,0.4l0,0c-0.1,0.2-0.2,0.3-0.4,0.5
	c0,0,0,0.1-0.1,0.1c-0.6,1.8-2.1,3.2-4.5,3.2c-4.2,0-5.6-4.2-4.4-7.2V9.5c0-1.4,0.6-2.6,1.5-3.5c0.9-1,2.2-1.4,3.5-1.5
	c0.2,0,0.4,0,0.7,0l0,0c0.2,0,0.4-0.1,0.6-0.1l0,0c0.2,0,0.4,0,0.6,0c0.3,0,0.6,0,0.9,0.1h0.1c0.3,0,0.5,0.1,0.7,0.2
	c0,0,0.1,0,0.1,0.1c0.3,0,0.5,0.1,0.7,0.2l0,0c0.2,0.1,0.4,0.3,0.6,0.4c0,0,0.1,0,0.1,0.1c0.2,0.2,0.3,0.3,0.5,0.5l0.1,0.1
	c0.1,0.2,0.3,0.4,0.4,0.6c0,0,0,0,0,0.1c0,0.2,0.1,0.4,0.2,0.6c0,0,0,0,0,0.1c0.1,0.2,0.1,0.4,0.2,0.7v0.1c0,0.2,0.1,0.5,0.1,0.7
	v0.1C17.5,9.6,17.4,10.1,17.3,10.5z"/>
</svg>
