<?xml version="1.0" encoding="utf-8"?>
<!-- Generator: Adobe Illustrator 21.0.0, SVG Export Plug-In . SVG Version: 6.00 Build 0)  -->
<svg version="1.1" id="Layer_1" xmlns="http://www.w3.org/2000/svg" xmlns:xlink="http://www.w3.org/1999/xlink" x="0px" y="0px"
	 viewBox="0 0 25 25" style="enable-background:new 0 0 25 25;" xml:space="preserve">
<style type="text/css">
	.st0{clip-path:url(#SVGID_1_);}
	.st1{fill:#272620;}
	.st2{clip-path:url(#SVGID_4_);}
	.st3{fill:#43A14C;}
	.st4{fill:#FFDA46;}
	.st5{fill:#69C362;}
	.st6{clip-path:url(#SVGID_6_);}
	.st7{stroke:#1D1D1B;stroke-width:2.5;stroke-linecap:round;stroke-linejoin:round;stroke-miterlimit:10;}
	.st8{fill:none;stroke:#12100B;stroke-width:2;stroke-linecap:round;stroke-linejoin:round;stroke-miterlimit:10;}
	.st9{clip-path:url(#SVGID_8_);}
	.st10{fill:none;}
	.st11{clip-path:url(#SVGID_10_);}
	.st12{clip-path:url(#SVGID_12_);}
</style>
<g>
	<path d="M4.8,20h18.3c0.1,0,0.2-0.1,0.2-0.2v-1.7c0-0.1-0.1-0.2-0.2-0.2H7.8c-0.6,0-1-0.5-1-1v-15c0-0.1-0.1-0.2-0.2-0.2H4.8
		c-0.1,0-0.2,0.1-0.2,0.2v17.9C4.6,19.9,4.7,20,4.8,20L4.8,20z M4.8,20"/>
	<path d="M7.8,6.7h9.2c0.6,0,1,0.5,1,1v9.2c0,0.1,0.1,0.2,0.2,0.2h1.7c0.1,0,0.2-0.1,0.2-0.2V5c0-0.2-0.2-0.4-0.4-0.4H7.8
		c-0.1,0-0.2,0.1-0.2,0.2v1.7C7.5,6.6,7.6,6.7,7.8,6.7L7.8,6.7z M7.8,6.7"/>
	<path d="M1.9,6.7h1.9V4.6H1.9c-0.1,0-0.2,0.1-0.2,0.2v1.7C1.7,6.6,1.8,6.7,1.9,6.7L1.9,6.7z M1.9,6.7"/>
	<path d="M19.8,23.3c0.1,0,0.2-0.1,0.2-0.2v-2.3H18v2.3c0,0.1,0.1,0.2,0.2,0.2H19.8z M19.8,23.3"/>
	<path d="M0.5,25c0.1,0,0.2,0,0.3-0.1l0.6-0.6c0.2-0.2,0.2-0.4,0-0.6c-0.2-0.2-0.4-0.2-0.6,0l-0.6,0.6C0,24.4,0,24.6,0.1,24.7
		C0.1,24.9,0.3,25,0.5,25L0.5,25z M0.5,25"/>
	<path d="M21.6,3.8c0.1,0,0.2,0,0.3-0.1l1.2-1.2c0.1-0.1,0.2-0.3,0.1-0.4c0-0.1-0.2-0.3-0.3-0.3c-0.1,0-0.3,0-0.4,0.1l-1.2,1.2
		c-0.1,0.1-0.2,0.3-0.1,0.5C21.3,3.7,21.5,3.8,21.6,3.8L21.6,3.8z M21.6,3.8"/>
	<path d="M12.9,11.6l-1.2,1.2c-0.1,0.1-0.2,0.3-0.1,0.4c0,0.1,0.2,0.3,0.3,0.3c0.1,0,0.3,0,0.4-0.1l1.2-1.2c0.2-0.2,0.2-0.4,0-0.6
		C13.3,11.4,13,11.4,12.9,11.6L12.9,11.6z M12.9,11.6"/>
	<path d="M3.2,21.3L2,22.5c-0.1,0.1-0.2,0.3-0.1,0.4c0,0.1,0.2,0.3,0.3,0.3c0.1,0,0.3,0,0.4-0.1l1.2-1.2c0.2-0.2,0.2-0.4,0-0.6
		C3.6,21.1,3.3,21.1,3.2,21.3L3.2,21.3z M3.2,21.3"/>
	<path d="M15.3,9.2l-1.2,1.2c-0.2,0.2-0.2,0.4,0,0.6c0.2,0.2,0.4,0.2,0.6,0l1.2-1.2c0.2-0.2,0.2-0.4,0-0.6C15.7,9,15.4,9,15.3,9.2
		L15.3,9.2z M15.3,9.2"/>
	<g>
		<defs>
			<rect id="SVGID_9_" y="0" width="25" height="25"/>
		</defs>
		<clipPath id="SVGID_1_">
			<use xlink:href="#SVGID_9_"  style="overflow:visible;"/>
		</clipPath>
		<path class="st0" d="M10.4,14l-1.2,1.2c-0.1,0.1-0.2,0.3-0.1,0.4c0,0.1,0.2,0.3,0.3,0.3c0.1,0,0.3,0,0.4-0.1l1.2-1.2
			c0.2-0.2,0.2-0.4,0-0.6C10.9,13.9,10.6,13.9,10.4,14L10.4,14z M10.4,14"/>
		<path class="st0" d="M24.3,0.1l-0.6,0.6c-0.1,0.1-0.2,0.3-0.1,0.4c0,0.1,0.2,0.3,0.3,0.3c0.1,0,0.3,0,0.4-0.1l0.6-0.6
			c0.2-0.2,0.2-0.4,0-0.6C24.8,0,24.5,0,24.3,0.1L24.3,0.1z M24.3,0.1"/>
	</g>
</g>
</svg>
