<?xml version="1.0" encoding="utf-8"?>
<!-- Generator: Adobe Illustrator 21.0.0, SVG Export Plug-In . SVG Version: 6.00 Build 0)  -->
<svg version="1.1" id="Layer_1" xmlns="http://www.w3.org/2000/svg" xmlns:xlink="http://www.w3.org/1999/xlink" x="0px" y="0px"
	 viewBox="0 0 24 20" style="enable-background:new 0 0 24 20;" xml:space="preserve">
<style type="text/css">
	.st0{clip-path:url(#SVGID_1_);}
	.st1{fill:#272620;}
	.st2{clip-path:url(#SVGID_4_);}
	.st3{fill:#43A14C;}
	.st4{fill:#FFDA46;}
	.st5{fill:#69C362;}
	.st6{clip-path:url(#SVGID_6_);}
	.st7{stroke:#1D1D1B;stroke-width:2.5;stroke-linecap:round;stroke-linejoin:round;stroke-miterlimit:10;}
	.st8{fill:none;stroke:#12100B;stroke-width:2;stroke-linecap:round;stroke-linejoin:round;stroke-miterlimit:10;}
	.st9{clip-path:url(#SVGID_8_);}
	.st10{fill:none;}
	.st11{clip-path:url(#SVGID_10_);}
	.st12{clip-path:url(#SVGID_12_);}
</style>
<path d="M21.6,0H2.4C1.1,0,0,1.1,0,2.4v15.2C0,18.9,1.1,20,2.4,20h19.2c1.3,0,2.4-1.1,2.4-2.4V2.4C24,1.1,22.9,0,21.6,0z M11.4,3
	h1.2v7.6h-1.2V3z M12,16.7c-3.4,0-6.1-2.7-6.1-6.1c0-1.6,0.6-3.2,1.8-4.3l0.9,0.9C7.6,8,7.1,9.3,7.1,10.6c0,2.7,2.2,4.9,4.9,4.9
	c2.7,0,4.9-2.2,4.9-4.9c0-1.3-0.5-2.5-1.4-3.5l0.9-0.9c1.2,1.2,1.8,2.7,1.8,4.3C18.1,13.9,15.4,16.7,12,16.7z"/>
</svg>
