<?xml version="1.0" encoding="utf-8"?>
<!-- Generator: Adobe Illustrator 21.0.0, SVG Export Plug-In . SVG Version: 6.00 Build 0)  -->
<svg version="1.1" id="Layer_1" xmlns="http://www.w3.org/2000/svg" xmlns:xlink="http://www.w3.org/1999/xlink" x="0px" y="0px"
	 viewBox="0 0 35.9 34.4" style="enable-background:new 0 0 35.9 34.4;" xml:space="preserve">
<style type="text/css">
	.st0{clip-path:url(#SVGID_1_);}
	.st1{fill:#272620;}
	.st2{clip-path:url(#SVGID_4_);}
	.st3{fill:#43A14C;}
	.st4{fill:#FFDA46;}
	.st5{fill:#69C362;}
	.st6{clip-path:url(#SVGID_6_);}
	.st7{stroke:#1D1D1B;stroke-width:2.5;stroke-linecap:round;stroke-linejoin:round;stroke-miterlimit:10;}
	.st8{fill:none;stroke:#12100B;stroke-width:2;stroke-linecap:round;stroke-linejoin:round;stroke-miterlimit:10;}
	.st9{clip-path:url(#SVGID_8_);}
	.st10{fill:none;}
	.st11{clip-path:url(#SVGID_10_);}
	.st12{clip-path:url(#SVGID_12_);}
</style>
<g>
	<g>
		<defs>
			<rect id="SVGID_5_" x="0" width="35.8" height="34.4"/>
		</defs>
		<clipPath id="SVGID_1_">
			<use xlink:href="#SVGID_5_"  style="overflow:visible;"/>
		</clipPath>
		<path class="st0" d="M8.4,6.5l14.3-3.9l-0.8-1.5c-0.5-1-1.7-1.4-2.7-0.9L6.4,6.5H8.4z M8.4,6.5"/>
		<path class="st0" d="M27.1,2.8c-0.2,0-0.4,0-0.5,0.1l-3.4,0.9L13,6.5h16.7L29,4.2C28.8,3.3,28,2.8,27.1,2.8L27.1,2.8z M27.1,2.8"
			/>
		<path class="st0" d="M31.7,8H2C1.4,8,0.8,8.2,0.4,8.7C0.3,8.9,0.1,9.2,0.1,9.4C0,9.6,0,9.8,0,10v22.4c0,1.1,0.9,2,2,2h29.7
			c1.1,0,2-0.9,2-2v-5.6H21.8c-1.9,0-3.4-1.5-3.4-3.4v-4.5c0-0.9,0.4-1.8,1-2.4c0.5-0.5,1.2-0.9,2-1c0.1,0,0.3,0,0.4,0h11.9V10
			C33.8,8.9,32.9,8,31.7,8L31.7,8z M31.7,8"/>
	</g>
	<path d="M35.2,17.4c-0.2-0.2-0.4-0.3-0.7-0.4c-0.2-0.1-0.4-0.1-0.7-0.1h-12c-1.1,0-2,0.9-2,2v4.5c0,1.1,0.9,2,2,2h12
		c0.2,0,0.4,0,0.7-0.1c0.3-0.1,0.5-0.2,0.7-0.4c0.4-0.4,0.7-0.9,0.7-1.5v-4.5C35.8,18.3,35.6,17.7,35.2,17.4L35.2,17.4z M26,21.5
		c0,0.6-0.5,1-1,1h-0.7c-0.6,0-1-0.5-1-1v-0.7c0-0.3,0.1-0.6,0.4-0.8c0.2-0.1,0.4-0.2,0.6-0.2H25c0.6,0,1,0.5,1,1V21.5z M26,21.5"/>
</g>
</svg>
