<?xml version="1.0" encoding="utf-8"?>
<!-- Generator: Adobe Illustrator 21.0.0, SVG Export Plug-In . SVG Version: 6.00 Build 0)  -->
<svg version="1.1" id="Layer_1" xmlns="http://www.w3.org/2000/svg" xmlns:xlink="http://www.w3.org/1999/xlink" x="0px" y="0px"
	 viewBox="0 0 25.4 25.4" style="enable-background:new 0 0 25.4 25.4;" xml:space="preserve">
<style type="text/css">
	.st0{clip-path:url(#SVGID_1_);}
	.st1{fill:#272620;}
	.st2{clip-path:url(#SVGID_4_);}
	.st3{fill:#43A14C;}
	.st4{fill:#FFDA46;}
	.st5{fill:#69C362;}
	.st6{clip-path:url(#SVGID_6_);}
	.st7{stroke:#1D1D1B;stroke-width:2.5;stroke-linecap:round;stroke-linejoin:round;stroke-miterlimit:10;}
	.st8{fill:none;stroke:#12100B;stroke-width:2;stroke-linecap:round;stroke-linejoin:round;stroke-miterlimit:10;}
	.st9{clip-path:url(#SVGID_8_);}
	.st10{fill:none;}
	.st11{clip-path:url(#SVGID_10_);}
	.st12{clip-path:url(#SVGID_12_);}
</style>
<g>
	<path d="M24.7,3.1l-2-2.4C22.4,0.3,21.9,0,21.2,0H4.2C3.5,0,3,0.3,2.5,0.7L0.7,3.1C0.3,3.7,0,4.2,0,4.9v17.6c0,1.6,1.3,2.8,2.8,2.8
		h19.8c1.6,0,2.8-1.3,2.8-2.8V4.9C25.4,4.2,25.1,3.7,24.7,3.1L24.7,3.1z M12.7,20.5l-7.8-7.8h4.9V9.9h5.6v2.8h4.9L12.7,20.5z M3,2.8
		l1.1-1.4H21l1.3,1.4H3z M3,2.8"/>
</g>
</svg>
