<?xml version="1.0" encoding="utf-8"?>
<!-- Generator: Adobe Illustrator 21.0.0, SVG Export Plug-In . SVG Version: 6.00 Build 0)  -->
<svg version="1.1" id="Layer_1" xmlns="http://www.w3.org/2000/svg" xmlns:xlink="http://www.w3.org/1999/xlink" x="0px" y="0px"
	 viewBox="0 0 40.1 53.2" style="enable-background:new 0 0 40.1 53.2;" xml:space="preserve">
<style type="text/css">
	.st0{clip-path:url(#SVGID_1_);}
	.st1{fill:#272620;}
	.st2{clip-path:url(#SVGID_4_);}
	.st3{fill:#43A14C;}
	.st4{fill:#FFDA46;}
	.st5{fill:#69C362;}
	.st6{clip-path:url(#SVGID_6_);}
	.st7{stroke:#1D1D1B;stroke-width:2.5;stroke-linecap:round;stroke-linejoin:round;stroke-miterlimit:10;}
	.st8{fill:none;stroke:#12100B;stroke-width:2;stroke-linecap:round;stroke-linejoin:round;stroke-miterlimit:10;}
	.st9{clip-path:url(#SVGID_8_);}
	.st10{fill:none;}
	.st11{clip-path:url(#SVGID_10_);}
	.st12{clip-path:url(#SVGID_12_);}
</style>
<g>
	<g>
		<defs>
			<rect id="SVGID_3_" x="0" y="0" width="40.1" height="53.2"/>
		</defs>
		<clipPath id="SVGID_1_">
			<use xlink:href="#SVGID_3_"  style="overflow:visible;"/>
		</clipPath>
		<path class="st0" d="M14.4,18.1c0.5-0.2,0.9-0.4,1.4-0.6l0.9,5.5c0,0.3,0.2,0.5,0.5,0.6c0.2,0.1,0.5,0.1,0.7-0.1l17.5-14
			c0.2-0.2,0.3-0.4,0.3-0.7c0-0.3-0.2-0.5-0.5-0.6L14.3,0.1C14,0,13.8,0,13.6,0.2c-0.2,0.2-0.3,0.4-0.3,0.7l0.9,6
			c-0.2,0.1-0.4,0.2-0.5,0.4c-0.7,0.5-1.4,1-2.3,1.7C10,10,8.7,11.3,7.3,13C6.1,14.5,5,16.1,4,17.7c-1.6,2.9-2.8,6-3.5,9.4
			C0.3,28.4,0,29.8,0,31.2c0,0.4,0.2,0.7,0.6,0.7c0.1,0,0.3,0,0.4,0c0.2-0.1,0.4-0.2,0.5-0.4c0.5-1.3,1.2-2.5,1.8-3.5
			c0.9-1.5,2-2.9,3.3-4.3C8.8,21.3,11.6,19.3,14.4,18.1L14.4,18.1z M14.4,18.1"/>
	</g>
	<path d="M39.5,21.1c-0.1,0-0.3,0-0.4,0c-0.2,0.1-0.4,0.2-0.5,0.4c-0.5,1.3-1.2,2.5-1.8,3.5c-0.9,1.5-2,2.9-3.3,4.3
		c-2.3,2.5-5,4.4-7.9,5.7c-0.5,0.2-0.9,0.4-1.4,0.6l-0.9-5.5c0-0.3-0.2-0.5-0.5-0.6c-0.2-0.1-0.5-0.1-0.7,0.1l-17.5,14
		c-0.2,0.2-0.3,0.4-0.3,0.7c0,0.3,0.2,0.5,0.5,0.6L25.8,53c0.2,0.1,0.5,0.1,0.7-0.1c0.2-0.2,0.3-0.4,0.3-0.7l-0.9-6
		c0.2-0.1,0.4-0.2,0.5-0.4c0.7-0.5,1.4-1,2.3-1.7c1.4-1.1,2.7-2.4,4.1-4.1c1.2-1.5,2.3-3.1,3.3-4.8c1.6-2.9,2.8-6,3.5-9.4
		c0.2-1.2,0.5-2.7,0.5-4.1C40.1,21.5,39.8,21.2,39.5,21.1L39.5,21.1z M39.5,21.1"/>
</g>
</svg>
