<?xml version="1.0" encoding="utf-8"?>
<!-- Generator: Adobe Illustrator 21.0.0, SVG Export Plug-In . SVG Version: 6.00 Build 0)  -->
<svg version="1.1" id="Layer_1" xmlns="http://www.w3.org/2000/svg" xmlns:xlink="http://www.w3.org/1999/xlink" x="0px" y="0px"
	 viewBox="0 0 27.6 28.6" style="enable-background:new 0 0 27.6 28.6;" xml:space="preserve">
<style type="text/css">
	.st0{clip-path:url(#SVGID_1_);}
	.st1{fill:#272620;}
	.st2{clip-path:url(#SVGID_4_);}
	.st3{fill:#43A14C;}
	.st4{fill:#FFDA46;}
	.st5{fill:#69C362;}
	.st6{clip-path:url(#SVGID_6_);}
	.st7{stroke:#1D1D1B;stroke-width:2.5;stroke-linecap:round;stroke-linejoin:round;stroke-miterlimit:10;}
	.st8{fill:none;stroke:#12100B;stroke-width:2;stroke-linecap:round;stroke-linejoin:round;stroke-miterlimit:10;}
	.st9{clip-path:url(#SVGID_8_);}
	.st10{fill:none;}
	.st11{clip-path:url(#SVGID_10_);}
	.st12{clip-path:url(#SVGID_12_);}
</style>
<g>
	<path d="M27.2,26L20.4,19c1.7-2.1,2.7-4.7,2.7-7.4C23.1,5.2,17.9,0,11.5,0C5.2,0,0,5.2,0,11.5c0,6.4,5.2,11.5,11.5,11.5
		c2.4,0,4.7-0.7,6.6-2.1l6.9,7.1c0.3,0.3,0.7,0.5,1.1,0.5c0.4,0,0.8-0.1,1-0.4C27.7,27.6,27.8,26.6,27.2,26L27.2,26z M11.5,3
		c4.7,0,8.5,3.8,8.5,8.5c0,4.7-3.8,8.5-8.5,8.5c-4.7,0-8.5-3.8-8.5-8.5C3,6.8,6.8,3,11.5,3L11.5,3z M11.5,3"/>
</g>
</svg>
