<?xml version="1.0" encoding="utf-8"?>
<!-- Generator: Adobe Illustrator 21.0.0, SVG Export Plug-In . SVG Version: 6.00 Build 0)  -->
<svg version="1.1" id="Layer_1" xmlns="http://www.w3.org/2000/svg" xmlns:xlink="http://www.w3.org/1999/xlink" x="0px" y="0px"
	 viewBox="0 0 33 33" style="enable-background:new 0 0 33 33;" xml:space="preserve">
<style type="text/css">
	.st0{clip-path:url(#SVGID_1_);}
	.st1{fill:#272620;}
	.st2{clip-path:url(#SVGID_4_);}
	.st3{fill:#43A14C;}
	.st4{fill:#FFDA46;}
	.st5{fill:#69C362;}
	.st6{clip-path:url(#SVGID_6_);}
	.st7{stroke:#1D1D1B;stroke-width:2.5;stroke-linecap:round;stroke-linejoin:round;stroke-miterlimit:10;}
	.st8{fill:none;stroke:#12100B;stroke-width:2;stroke-linecap:round;stroke-linejoin:round;stroke-miterlimit:10;}
	.st9{clip-path:url(#SVGID_8_);}
	.st10{fill:none;}
	.st11{clip-path:url(#SVGID_10_);}
	.st12{clip-path:url(#SVGID_12_);}
</style>
<g>
	<g>
		<defs>
			<rect id="SVGID_7_" x="0" y="0" width="33" height="33"/>
		</defs>
		<clipPath id="SVGID_1_">
			<use xlink:href="#SVGID_7_"  style="overflow:visible;"/>
		</clipPath>
		<path class="st0" d="M28.2,4.8c-6.4-6.4-16.9-6.5-23.3,0c-6.4,6.4-6.5,16.9,0,23.3c6.4,6.4,16.9,6.4,23.3,0
			C34.6,21.7,34.6,11.3,28.2,4.8L28.2,4.8z M16.5,27.5c-6.1,0-11-4.9-11-11C5.5,14.5,6,12.6,7,11l-0.9-1C6,9.8,5.9,9.6,6,9.5
			c0.1-0.2,0.2-0.3,0.4-0.3l5.8-1.3c0.2,0,0.4,0,0.5,0.2c0.1,0.1,0.2,0.3,0.1,0.5l-1.7,5.9c-0.1,0.2-0.2,0.3-0.4,0.3
			c-0.2,0-0.4,0-0.5-0.2l-0.8-0.9c-0.3,0.9-0.5,1.8-0.5,2.7c0,4.2,3.4,7.6,7.6,7.6c4.2,0,7.6-3.4,7.6-7.6c0-4-3.1-7.3-7.1-7.6
			c-0.3,0-0.5-0.2-0.5-0.5V6c0-0.1,0.1-0.3,0.2-0.4c0.1-0.1,0.2-0.2,0.4-0.1c2.8,0.1,5.5,1.3,7.4,3.4c2,2.1,3,4.8,3,7.6
			C27.5,22.6,22.6,27.5,16.5,27.5L16.5,27.5z M16.5,27.5"/>
	</g>
</g>
</svg>
