<?xml version="1.0" encoding="utf-8"?>
<!-- Generator: Adobe Illustrator 21.0.0, SVG Export Plug-In . SVG Version: 6.00 Build 0)  -->
<svg version="1.1" id="Layer_1" xmlns="http://www.w3.org/2000/svg" xmlns:xlink="http://www.w3.org/1999/xlink" x="0px" y="0px"
	 viewBox="0 0 48 37.9" style="enable-background:new 0 0 48 37.9;" xml:space="preserve">
<style type="text/css">
	.st0{clip-path:url(#SVGID_1_);}
	.st1{fill:#272620;}
	.st2{clip-path:url(#SVGID_4_);}
	.st3{fill:#43A14C;}
	.st4{fill:#FFDA46;}
	.st5{fill:#69C362;}
	.st6{clip-path:url(#SVGID_6_);}
	.st7{stroke:#1D1D1B;stroke-width:2.5;stroke-linecap:round;stroke-linejoin:round;stroke-miterlimit:10;}
	.st8{fill:none;stroke:#12100B;stroke-width:2;stroke-linecap:round;stroke-linejoin:round;stroke-miterlimit:10;}
	.st9{clip-path:url(#SVGID_8_);}
	.st10{fill:none;}
	.st11{clip-path:url(#SVGID_10_);}
	.st12{clip-path:url(#SVGID_12_);}
</style>
<g>
	<path d="M33.7,27L48,13.5l-8.9-9.4L33.7,27z M33.7,27"/>
	<path d="M28.8,12.6l0.3,0.8l3.6,11.1L37,5.9l0.3-1.4l0.3-1.3l0,0l-12.7-3l0,0.2l3.6,11.4L28.8,12.6z M28.8,12.6"/>
	<path d="M23.7,1.9l-0.5-1.5L23.1,0L10.7,4l0.5,1.4l8.9,8.9l0.7,0.7l0.7,0.7l1.5,1.5l0.6,0.6l0.6,0.6l7.3,7.3l0,0l-3.5-10.9
		l-0.3-0.8L27.2,13l-3.1-9.6L23.7,1.9z M23.7,1.9"/>
	<path d="M9.2,5.6L0,14.9l23.1,23.1l2.9-2.9L26,35l0.1-0.1l0.6-0.6l0.3-0.3l0.4-0.4l4.3-4.3l0.5-0.5l0.1-0.1L9.2,5.6z M24.1,27.5
		c1.3,0,2.4,1.1,2.4,2.4c0,1.3-1.1,2.4-2.4,2.4c-1.3,0-2.4-1.1-2.4-2.4C21.7,28.6,22.8,27.5,24.1,27.5L24.1,27.5z M24.1,27.5"/>
</g>
</svg>
