<?xml version="1.0" encoding="utf-8"?>
<!-- Generator: Adobe Illustrator 21.0.0, SVG Export Plug-In . SVG Version: 6.00 Build 0)  -->
<svg version="1.1" id="Layer_1" xmlns="http://www.w3.org/2000/svg" xmlns:xlink="http://www.w3.org/1999/xlink" x="0px" y="0px"
	 viewBox="0 0 16.6 16.2" style="enable-background:new 0 0 16.6 16.2;" xml:space="preserve">
<style type="text/css">
	.st0{clip-path:url(#SVGID_1_);}
	.st1{fill:#272620;}
	.st2{clip-path:url(#SVGID_4_);}
	.st3{fill:#43A14C;}
	.st4{fill:#FFDA46;}
	.st5{fill:#69C362;}
	.st6{clip-path:url(#SVGID_6_);}
	.st7{stroke:#1D1D1B;stroke-width:2.5;stroke-linecap:round;stroke-linejoin:round;stroke-miterlimit:10;}
	.st8{fill:none;stroke:#12100B;stroke-width:2;stroke-linecap:round;stroke-linejoin:round;stroke-miterlimit:10;}
	.st9{clip-path:url(#SVGID_8_);}
	.st10{fill:none;}
	.st11{clip-path:url(#SVGID_10_);}
	.st12{clip-path:url(#SVGID_12_);}
</style>
<g>
	<g>
		<defs>
			<rect id="SVGID_2_" x="0" width="16.6" height="16.2"/>
		</defs>
		<clipPath id="SVGID_1_">
			<use xlink:href="#SVGID_2_"  style="overflow:visible;"/>
		</clipPath>
		<path class="st0" d="M8.3,0.1C3.7,0.1,0,3.4,0,7.5c0,1.4,0.5,2.8,1.3,4c-0.2,1.8-0.6,3.1-1.2,3.8C0,15.4,0,15.6,0,15.7
			c0,0.1,0.1,0.2,0.2,0.2c0,0,0,0,0,0c0.1,0,2.7-0.4,4.6-1.5C6,14.8,7.1,15,8.3,15c4.6,0,8.3-3.3,8.3-7.5C16.6,3.4,12.9,0.1,8.3,0.1
			L8.3,0.1z M4.4,8.7c-0.6,0-1.1-0.5-1.1-1.1c0-0.6,0.5-1.1,1.1-1.1c0.6,0,1.1,0.5,1.1,1.1C5.5,8.2,5,8.7,4.4,8.7L4.4,8.7z M8.3,8.7
			c-0.6,0-1.1-0.5-1.1-1.1c0-0.6,0.5-1.1,1.1-1.1c0.6,0,1.1,0.5,1.1,1.1C9.4,8.2,8.9,8.7,8.3,8.7L8.3,8.7z M12.2,8.7
			c-0.6,0-1.1-0.5-1.1-1.1c0-0.6,0.5-1.1,1.1-1.1c0.6,0,1.1,0.5,1.1,1.1C13.3,8.2,12.8,8.7,12.2,8.7L12.2,8.7z M12.2,8.7"/>
	</g>
</g>
</svg>
