<?xml version="1.0" encoding="utf-8"?>
<!-- Generator: Adobe Illustrator 21.0.0, SVG Export Plug-In . SVG Version: 6.00 Build 0)  -->
<svg version="1.1" id="Layer_1" xmlns="http://www.w3.org/2000/svg" xmlns:xlink="http://www.w3.org/1999/xlink" x="0px" y="0px"
	 viewBox="0 0 20.8 15.9" style="enable-background:new 0 0 20.8 15.9;" xml:space="preserve">
<style type="text/css">
	.st0{clip-path:url(#SVGID_1_);}
	.st1{fill:#272620;}
	.st2{clip-path:url(#SVGID_4_);}
	.st3{fill:#43A14C;}
	.st4{fill:#FFDA46;}
	.st5{fill:#69C362;}
	.st6{clip-path:url(#SVGID_6_);}
	.st7{stroke:#1D1D1B;stroke-width:2.5;stroke-linecap:round;stroke-linejoin:round;stroke-miterlimit:10;}
	.st8{fill:none;stroke:#12100B;stroke-width:2;stroke-linecap:round;stroke-linejoin:round;stroke-miterlimit:10;}
	.st9{clip-path:url(#SVGID_8_);}
	.st10{fill:none;}
	.st11{clip-path:url(#SVGID_10_);}
	.st12{clip-path:url(#SVGID_12_);}
</style>
<path d="M20.6,2.4L7.8,15.7c-0.2,0.2-0.3,0.2-0.6,0.2c-0.2,0-0.5-0.1-0.6-0.2L0.4,9L0.2,8.8C0.1,8.6,0,8.4,0,8.2
	c0-0.2,0.1-0.4,0.2-0.6l1.1-1.1c0.3-0.3,0.8-0.3,1.1,0l0.1,0.1L7,11.4c0.2,0.2,0.4,0.2,0.6,0L18.2,0.2h0.1c0.3-0.3,0.8-0.3,1.1,0
	l1.1,1.1C20.9,1.6,20.9,2.1,20.6,2.4L20.6,2.4z"/>
</svg>
