<?xml version="1.0" encoding="utf-8"?>
<!-- Generator: Adobe Illustrator 21.0.0, SVG Export Plug-In . SVG Version: 6.00 Build 0)  -->
<svg version="1.1" id="Layer_1" xmlns="http://www.w3.org/2000/svg" xmlns:xlink="http://www.w3.org/1999/xlink" x="0px" y="0px"
	 viewBox="0 0 28.2 32" style="enable-background:new 0 0 28.2 32;" xml:space="preserve">
<style type="text/css">
	.st0{clip-path:url(#SVGID_1_);}
	.st1{fill:#272620;}
	.st2{clip-path:url(#SVGID_4_);}
	.st3{fill:#43A14C;}
	.st4{fill:#FFDA46;}
	.st5{fill:#69C362;}
	.st6{clip-path:url(#SVGID_6_);}
	.st7{stroke:#1D1D1B;stroke-width:2.5;stroke-linecap:round;stroke-linejoin:round;stroke-miterlimit:10;}
	.st8{fill:none;stroke:#12100B;stroke-width:2;stroke-linecap:round;stroke-linejoin:round;stroke-miterlimit:10;}
	.st9{clip-path:url(#SVGID_8_);}
	.st10{fill:none;}
	.st11{clip-path:url(#SVGID_10_);}
	.st12{clip-path:url(#SVGID_12_);}
</style>
<g>
	<path d="M21.6,7.5h1.9c0.5,0,0.9-0.4,0.9-0.9S24,5.6,23.5,5.6h-1.9c-0.5,0-0.9,0.4-0.9,0.9S21.1,7.5,21.6,7.5z"/>
	<path d="M12.3,3.2c0.2,0.5,0.8,0.7,1.3,0.4C14,3.4,14.2,2.9,14,2.4l-0.9-1.9c-0.2-0.5-0.8-0.7-1.3-0.4c-0.5,0.2-0.7,0.8-0.4,1.3
		L12.3,3.2z"/>
	<path d="M18.4,3.7c0.5,0.2,1,0,1.3-0.4l0.9-1.9c0.2-0.5,0-1-0.4-1.3c-0.5-0.2-1,0-1.3,0.4l-0.9,1.9C17.7,2.9,17.9,3.4,18.4,3.7z"/>
	<path d="M8.5,7.5h1.9c0.5,0,0.9-0.4,0.9-0.9s-0.4-0.9-0.9-0.9H8.5c-0.5,0-0.9,0.4-0.9,0.9S7.9,7.5,8.5,7.5z"/>
	<path d="M4.7,15.1H0.9C0.4,15.1,0,15.5,0,16v15C0,31.6,0.4,32,0.9,32h3.8c0.5,0,0.9-0.4,0.9-0.9V16C5.6,15.5,5.2,15.1,4.7,15.1z"/>
	<path d="M28.2,17.6c-0.2-1.5-1.5-2.5-3-2.5h-7.3c0.6-1.1,1-4.3,0.9-5.6c0-2.1-1.8-3.8-3.9-3.8h-0.8c-0.5,0-0.9,0.4-0.9,0.9
		c0,2.2-0.8,6.1-2.4,7.7c-1.1,1.1-2,1.5-3.2,2.1v14.1c1.8,0.6,4.2,1.5,7.7,1.5h6.1c2,0,3.6-1.9,2.8-3.9c1.2-0.3,2.1-1.4,2.1-2.7
		c0-0.4-0.1-0.7-0.2-1c2-0.5,2.8-3,1.4-4.6C28,19.2,28.3,18.4,28.2,17.6z"/>
</g>
</svg>
