<?xml version="1.0" encoding="utf-8"?>
<!-- Generator: Adobe Illustrator 21.0.0, SVG Export Plug-In . SVG Version: 6.00 Build 0)  -->
<svg version="1.1" xmlns="http://www.w3.org/2000/svg" xmlns:xlink="http://www.w3.org/1999/xlink" x="0px" y="0px"
	 viewBox="0 0 164.7 165.4" style="enable-background:new 0 0 164.7 165.4;" xml:space="preserve">
<style type="text/css">
	.st0{fill:#FFD635;}
	.st1{fill:#F7B523;}
	.st2{fill:#FFEF57;}
	.st3{fill:#943436;}
	.st4{clip-path:url(#SVGID_2_);fill:#F74F5C;}
	.st5{fill:#F74F5C;}
	.st6{fill:#D82A3F;}
	.st7{fill:#E59D0E;}
	.st8{fill:#02BEFF;}
	.st9{fill:#0090F2;}
	.st10{fill:#FFFFFF;}
	.st11{fill:#534741;}
	.st12{fill:#F9747E;}
	.st13{clip-path:url(#SVGID_4_);}
	.st14{fill:#E44C5F;}
	.st15{fill:#706661;}
	.st16{fill:#E20E46;}
	.st17{clip-path:url(#SVGID_6_);fill:#5FA5E1;}
	.st18{clip-path:url(#SVGID_8_);fill:#F74F5C;}
	.st19{clip-path:url(#SVGID_10_);fill:#F74F5C;}
	.st20{fill:#0083EF;}
	.st21{clip-path:url(#SVGID_12_);fill:#F74F5C;}
	.st22{clip-path:url(#SVGID_14_);}
	.st23{fill:#AAAAAA;}
	.st24{fill:#FFA926;}
	.st25{clip-path:url(#SVGID_16_);}
	.st26{fill:#5FA5E1;}
	.st27{clip-path:url(#SVGID_18_);fill:#FFFFFF;}
	.st28{fill:url(#SVGID_19_);}
	.st29{fill:url(#SVGID_20_);}
	.st30{fill:url(#SVGID_21_);}
	.st31{fill:url(#SVGID_22_);}
	.st32{fill:url(#SVGID_23_);}
	.st33{fill:url(#SVGID_24_);}
	.st34{fill:url(#SVGID_25_);}
	.st35{fill:url(#SVGID_26_);}
	.st36{clip-path:url(#SVGID_28_);}
	.st37{fill:#85C459;}
	.st38{fill:#9563CE;}
	.st39{fill:#B681EB;}
	.st40{fill:#453854;}
	.st41{fill:#F4602C;}
	.st42{fill:#D3461A;}
	.st43{fill:#443731;}
</style>
<g id="Laugh">
</g>
<g id="Love_Eyes">
</g>
<g id="Tear">
</g>
<g id="Freak">
</g>
<g id="Sunglasses">
</g>
<g id="Love_Sunglasses">
</g>
<g id="Crying">
</g>
<g id="Wink">
</g>
<g id="Surprise">
</g>
<g id="Laugh_tears">
</g>
<g id="Upset">
</g>
<g id="Kiss">
</g>
<g id="Sad">
</g>
<g id="Shy_Smile">
</g>
<g id="Big_Grin">
</g>
<g id="Look_Up">
</g>
<g id="Smile">
</g>
<g id="Smile_Tear">
</g>
<g id="Startled">
</g>
<g id="KO">
</g>
<g id="Disgusted">
</g>
<g id="Desperate">
</g>
<g id="Very_sad">
</g>
<g id="Serious">
</g>
<g id="Big_Smile">
</g>
<g id="Deep_Sad">
</g>
<g id="Sleeping">
</g>
<g id="Crying_Loud">
</g>
<g id="Sick">
</g>
<g id="Relieved">
</g>
<g id="Sad_Tear">
</g>
<g id="Sad_Surprise">
	<g>
		<g>
			<linearGradient id="SVGID_2_" gradientUnits="userSpaceOnUse" x1="93.5339" y1="161.8785" x2="93.5339" y2="-3.8422">
				<stop  offset="0.4747" style="stop-color:#FFD635"/>
				<stop  offset="0.5363" style="stop-color:#F5D340"/>
				<stop  offset="0.6449" style="stop-color:#D9CA5E"/>
				<stop  offset="0.7877" style="stop-color:#ADBD8E"/>
				<stop  offset="0.9574" style="stop-color:#6FAACF"/>
				<stop  offset="1" style="stop-color:#5FA5E1"/>
			</linearGradient>
			<path style="fill:url(#SVGID_2_);" d="M159.7,113.9c4-9.7,5-20.7,5-31.8s-3.3-21.2-7.3-30.9c-4.2-10-8.3-20.3-15.8-27.9
				C134,15.8,123.9,11.2,113.9,7c-8.8-3.6-18-6.5-28-7c-5.2,1-10.3,2.5-15.1,4.5c-9.4,3.9-17.6,10.1-24.7,17.2
				c-7.1,7.1-13.9,15-17.8,24.5c-3.8,9.1-5.9,19.4-5.9,29.9s3.3,20.3,7,29.4c3.9,9.4,9.8,17.6,16.9,24.7
				c7.1,7.1,15.1,13.4,24.5,17.3c9.1,3.8,19.1,7.2,29.6,7.2c10.5,0,20.1-4.4,29.2-8.2c2-0.8,3.9-1.7,5.8-2.7
				c1.7-1.4,3.3-2.8,4.8-4.4C147.8,132,155.5,123.9,159.7,113.9z"/>
			<linearGradient id="SVGID_4_" gradientUnits="userSpaceOnUse" x1="67.7412" y1="161.8786" x2="67.7412" y2="-3.8423">
				<stop  offset="0.4747" style="stop-color:#F7B523"/>
				<stop  offset="0.5317" style="stop-color:#ECB22C"/>
				<stop  offset="0.6322" style="stop-color:#CEAC45"/>
				<stop  offset="0.7643" style="stop-color:#9EA06E"/>
				<stop  offset="0.9213" style="stop-color:#5D91A6"/>
				<stop  offset="1" style="stop-color:#3989C4"/>
			</linearGradient>
			<path style="fill:url(#SVGID_4_);" d="M100.5,154.7c-10.5,0-20.5-3.4-29.6-7.2c-9.4-3.9-17.4-10.2-24.5-17.3
				c-7.1-7.1-13-15.2-16.9-24.7c-3.8-9.1-7-18.9-7-29.4s2.1-20.8,5.9-29.9c3.9-9.4,10.7-17.4,17.8-24.5c7.1-7.1,15.3-13.3,24.7-17.2
				c4.8-2,9.9-3.5,15.1-4.5C84.9,0,83.8,0,82.8,0C71.7,0,61,2.2,51.4,6.2c-10,4.2-18.7,10.7-26.2,18.2s-14.7,15.9-18.9,26
				C2.3,60,0,70.9,0,82.1s3.5,21.5,7.5,31.2c4.2,10,10.4,18.6,18,26.2c7.6,7.6,16,14.2,26,18.4c9.7,4,20.3,7.6,31.4,7.6
				c11.1,0,21.3-4.7,30.9-8.7c8-3.3,15.3-7.5,21.7-12.9c-1.9,0.9-3.8,1.8-5.8,2.7C120.5,150.4,111,154.7,100.5,154.7z"/>
		</g>
		<g>
			<path class="st3" d="M72,72.3c0,1.5-0.1,2.9-0.7,4.2c-0.5,1.3-1.6,2.4-2.6,3.4c-1,1-2.2,1.7-3.5,2.3c-1.3,0.5-2.6,1.1-4.1,1.1
				c-1.5,0-2.9-0.5-4.1-1c-1.3-0.5-2.4-1.4-3.4-2.4c-1-1-1.8-2.1-2.4-3.5c-0.5-1.3-1-2.7-1-4.1s0.3-2.9,0.8-4.2
				c0.5-1.3,1.5-2.4,2.5-3.4c1-1,2.1-1.9,3.5-2.4c1.3-0.5,2.7-0.8,4.1-0.8c1.5,0,2.8,0.4,4.1,0.9c1.3,0.5,2.7,1.1,3.7,2.1
				c1,1,1.5,2.4,2.1,3.7C71.5,69.5,72,70.8,72,72.3z"/>
			<path class="st3" d="M136.8,72.3c0,1.5-0.1,2.9-0.7,4.2c-0.5,1.3-1.6,2.4-2.6,3.4c-1,1-2.2,1.7-3.5,2.3c-1.3,0.5-2.6,1.1-4.1,1.1
				c-1.5,0-2.9-0.5-4.1-1c-1.3-0.5-2.4-1.4-3.4-2.4c-1-1-1.8-2.1-2.4-3.5c-0.5-1.3-1-2.7-1-4.1s0.3-2.9,0.8-4.2
				c0.5-1.3,1.5-2.4,2.5-3.4c1-1,2.1-1.9,3.5-2.4c1.3-0.5,2.7-0.8,4.1-0.8s2.8,0.4,4.1,0.9c1.3,0.5,2.7,1.1,3.7,2.1
				c1,1,1.5,2.4,2.1,3.7C136.4,69.5,136.8,70.8,136.8,72.3z"/>
		</g>
		<g>
			<path class="st3" d="M113.3,130c0,0-0.7-0.1-1.8-0.2c-1-0.2-2.7-0.3-4.6-0.5c-0.9-0.1-2-0.2-3.1-0.3c-1.1-0.1-2.2-0.2-3.4-0.2
				c-1.2-0.1-2.4-0.1-3.6-0.2c-0.6,0-1.2,0-1.9,0c-0.6,0-1.2,0-1.8,0c-1.5,0-2.5,0-3.8,0c-1.2,0.1-2.5,0.1-3.6,0.2
				c-1.2,0.1-2.3,0.1-3.4,0.2c-1.1,0.1-2.1,0.2-3.1,0.3c-1.9,0.2-3.5,0.3-4.6,0.5c-1.1,0.1-1.8,0.2-1.8,0.2
				c-2.9,0.3-5.5-1.8-5.7-4.7c-0.1-1.2,0.2-2.3,0.8-3.3l1.8-2.9c0,0,0.1-0.2,0.4-0.6c0.3-0.3,0.7-0.9,1.2-1.4c0.5-0.6,1.2-1.2,2-1.9
				c0.8-0.7,1.7-1.4,2.8-2.1c1.1-0.7,2.2-1.3,3.5-1.9c1.3-0.6,2.7-1.1,4.1-1.5c0.7-0.2,1.5-0.4,2.2-0.6c0.8-0.2,1.5-0.3,2.3-0.4
				c1.5-0.2,3.5-0.3,4.7-0.4l1.3,0l1.2,0.1c0.8,0,1.6,0.2,2.4,0.3c0.8,0.1,1.6,0.2,2.3,0.4c0.8,0.2,1.5,0.3,2.2,0.6
				c1.5,0.4,2.8,1,4.1,1.5c1.3,0.6,2.5,1.2,3.5,1.9c1.1,0.7,2,1.4,2.8,2.1c0.8,0.7,1.5,1.3,2,1.9c0.6,0.6,0.9,1.1,1.1,1.4
				c0.2,0.3,0.4,0.5,0.4,0.5l1.9,3.3c1.4,2.4,0.6,5.5-1.8,6.9C115.4,130,114.3,130.2,113.3,130z"/>
		</g>
		<g>
			<linearGradient id="SVGID_6_" gradientUnits="userSpaceOnUse" x1="51.0279" y1="66.3963" x2="51.0279" y2="22.3964">
				<stop  offset="0.2861" style="stop-color:#E1A520"/>
				<stop  offset="0.4352" style="stop-color:#BA9C41"/>
				<stop  offset="0.7674" style="stop-color:#578594"/>
				<stop  offset="0.8814" style="stop-color:#347DB2"/>
			</linearGradient>
			<path style="fill:url(#SVGID_6_);" d="M37.1,50.2c0,0,0.3-0.3,0.7-0.9c0.2-0.3,0.5-0.7,0.9-1.1c0.3-0.4,0.8-0.9,1.2-1.4
				c0.5-0.5,1-1.1,1.5-1.6c0.6-0.5,1.1-1.1,1.8-1.7c0.6-0.6,1.3-1.2,2-1.7c0.7-0.5,1.4-1.1,2.2-1.7c1.5-1.1,3-2.1,4.5-2.9
				c0.7-0.4,1.5-0.8,2.2-1.2c0.7-0.3,1.4-0.7,2-1c1.3-0.6,2.4-1,3.2-1.3c0.4-0.1,0.7-0.2,1-0.3c0.2-0.1,0.4-0.1,0.4-0.1
				c2-0.4,4,0.9,4.4,3c0.4,2-0.9,4-3,4.4c0,0,0,0-0.2,0c-0.1,0-0.4,0.1-0.7,0.1c-0.6,0.1-1.6,0.3-2.7,0.7c-0.6,0.2-1.2,0.4-1.8,0.6
				c-0.6,0.2-1.3,0.5-2,0.8c-1.4,0.6-2.9,1.2-4.3,2c-0.7,0.4-1.4,0.8-2.1,1.2c-0.7,0.4-1.3,0.9-2,1.3c-0.6,0.4-1.2,0.9-1.8,1.3
				c-0.6,0.4-1.1,0.8-1.5,1.2c-0.5,0.4-0.9,0.7-1.3,1.1c-0.4,0.4-0.7,0.7-1,0.9c-0.6,0.5-0.9,0.8-0.9,0.8c-0.8,0.7-2,0.7-2.7-0.1
				C36.6,52,36.6,50.9,37.1,50.2z"/>
			<linearGradient id="SVGID_8_" gradientUnits="userSpaceOnUse" x1="136.0398" y1="66.3963" x2="136.0398" y2="22.3962">
				<stop  offset="0.2861" style="stop-color:#E1A520"/>
				<stop  offset="0.4352" style="stop-color:#BA9C41"/>
				<stop  offset="0.7674" style="stop-color:#578594"/>
				<stop  offset="0.8814" style="stop-color:#347DB2"/>
			</linearGradient>
			<path style="fill:url(#SVGID_8_);" d="M147.1,52.8c0,0-0.3-0.3-0.9-0.8c-0.3-0.3-0.6-0.6-1-0.9c-0.4-0.4-0.8-0.7-1.3-1.1
				c-0.5-0.4-0.9-0.8-1.5-1.2c-0.6-0.4-1.2-0.9-1.8-1.3c-0.6-0.4-1.3-0.9-2-1.3c-0.7-0.4-1.4-0.8-2.1-1.2c-1.4-0.8-2.9-1.5-4.3-2
				c-0.7-0.3-1.4-0.5-2-0.8c-0.7-0.2-1.3-0.4-1.8-0.6c-1.1-0.3-2.1-0.5-2.7-0.7c-0.3-0.1-0.6-0.1-0.7-0.1c-0.2,0-0.2,0-0.2,0
				c-2-0.4-3.4-2.4-3-4.4c0.4-2,2.4-3.4,4.4-3c0,0,0.2,0,0.4,0.1c0.2,0.1,0.6,0.2,1,0.3c0.8,0.3,1.9,0.7,3.2,1.3
				c0.6,0.3,1.3,0.6,2,1c0.7,0.4,1.5,0.7,2.2,1.2c1.5,0.8,3.1,1.8,4.5,2.9c0.8,0.5,1.5,1.1,2.2,1.7c0.7,0.6,1.4,1.2,2,1.7
				c0.6,0.6,1.2,1.2,1.8,1.7c0.6,0.5,1.1,1.1,1.5,1.6c0.5,0.5,0.9,1,1.2,1.4c0.3,0.4,0.6,0.8,0.9,1.1c0.5,0.6,0.7,0.9,0.7,0.9
				c0.7,0.8,0.5,2-0.3,2.7C148.9,53.5,147.8,53.4,147.1,52.8z"/>
		</g>
	</g>
</g>
<g id="Vomit">
</g>
<g id="Devil_Angry">
</g>
<g id="Davil_Smile">
</g>
<g id="Angry">
</g>
</svg>
