<?xml version="1.0" encoding="utf-8"?>
<!-- Generator: Adobe Illustrator 21.0.0, SVG Export Plug-In . SVG Version: 6.00 Build 0)  -->
<svg version="1.1" xmlns="http://www.w3.org/2000/svg" xmlns:xlink="http://www.w3.org/1999/xlink" x="0px" y="0px"
	 viewBox="0 0 190.1 165.4" style="enable-background:new 0 0 190.1 165.4;" xml:space="preserve">
<style type="text/css">
	.st0{fill:#FFD635;}
	.st1{fill:#F7B523;}
	.st2{fill:#FFEF57;}
	.st3{fill:#943436;}
	.st4{clip-path:url(#SVGID_2_);fill:#F74F5C;}
	.st5{fill:#F74F5C;}
	.st6{fill:#D82A3F;}
	.st7{fill:#E59D0E;}
	.st8{fill:#02BEFF;}
	.st9{fill:#0090F2;}
	.st10{fill:#FFFFFF;}
	.st11{fill:#534741;}
	.st12{fill:#F9747E;}
	.st13{clip-path:url(#SVGID_4_);}
	.st14{fill:#E44C5F;}
	.st15{fill:#706661;}
	.st16{fill:#E20E46;}
	.st17{clip-path:url(#SVGID_6_);fill:#5FA5E1;}
	.st18{clip-path:url(#SVGID_8_);fill:#F74F5C;}
	.st19{clip-path:url(#SVGID_10_);fill:#F74F5C;}
	.st20{fill:#0083EF;}
	.st21{clip-path:url(#SVGID_12_);fill:#F74F5C;}
	.st22{clip-path:url(#SVGID_14_);}
	.st23{fill:#AAAAAA;}
	.st24{fill:#FFA926;}
	.st25{clip-path:url(#SVGID_16_);}
	.st26{fill:#5FA5E1;}
	.st27{clip-path:url(#SVGID_18_);fill:#FFFFFF;}
	.st28{fill:url(#SVGID_19_);}
	.st29{fill:url(#SVGID_20_);}
	.st30{fill:url(#SVGID_21_);}
	.st31{fill:url(#SVGID_22_);}
	.st32{fill:url(#SVGID_23_);}
	.st33{fill:url(#SVGID_24_);}
	.st34{fill:url(#SVGID_25_);}
	.st35{fill:url(#SVGID_26_);}
	.st36{clip-path:url(#SVGID_28_);}
	.st37{fill:#85C459;}
	.st38{fill:#9563CE;}
	.st39{fill:#B681EB;}
	.st40{fill:#453854;}
	.st41{fill:#F4602C;}
	.st42{fill:#D3461A;}
	.st43{fill:#443731;}
</style>
<g id="Laugh">
</g>
<g id="Love_Eyes">
</g>
<g id="Tear">
</g>
<g id="Freak">
</g>
<g id="Sunglasses">
</g>
<g id="Love_Sunglasses">
	<g>
		<g>
			<g>
				<path class="st0" d="M164.7,82.1c0,11.1-1,22.2-5,31.8c-4.2,10-11.8,18.1-19.4,25.7c-7.6,7.6-16.5,13.1-26.6,17.2
					c-9.7,4-19.8,8.7-30.9,8.7c-11.1,0-21.7-3.6-31.4-7.6c-10-4.2-18.4-10.8-26-18.4c-7.6-7.6-13.8-16.2-17.9-26.2
					C3.5,103.6,0,93.2,0,82.1c0-11.1,2.3-22,6.3-31.7c4.2-10,11.3-18.4,18.9-26c7.6-7.6,16.2-14.1,26.2-18.2C61,2.2,71.7,0,82.8,0
					c11.1,0,21.4,3,31.1,7c10,4.2,20.1,8.7,27.7,16.3c7.6,7.6,11.7,17.8,15.8,27.9C161.4,60.8,164.7,70.9,164.7,82.1z"/>
				<g>
					<path class="st1" d="M100.5,154.7c-10.5,0-20.5-3.4-29.6-7.2c-9.4-3.9-17.4-10.2-24.5-17.3c-7.1-7.1-13-15.2-16.9-24.7
						c-3.8-9.1-7-18.9-7-29.4c0-10.5,2.1-20.8,5.9-29.9c3.9-9.4,10.7-17.4,17.8-24.5c7.1-7.1,15.3-13.3,24.7-17.2
						c4.8-2,9.9-3.5,15.1-4.5C84.9,0,83.8,0,82.8,0C71.7,0,61,2.2,51.4,6.2c-10,4.2-18.7,10.7-26.2,18.2c-7.6,7.6-14.7,15.9-18.9,26
						C2.3,60,0,70.9,0,82.1c0,11.1,3.5,21.5,7.5,31.2c4.2,10,10.4,18.6,17.9,26.2c7.6,7.6,16,14.2,26,18.4c9.7,4,20.3,7.6,31.4,7.6
						s21.3-4.7,30.9-8.7c8-3.3,15.3-7.5,21.7-12.9c-1.9,0.9-3.8,1.8-5.8,2.7C120.5,150.4,111,154.7,100.5,154.7z"/>
				</g>
			</g>
			<path class="st2" d="M69.6,21.4c0,0,0.6-0.5,1.7-1.2c1.1-0.7,2.6-1.7,4.6-2.7c2-1,4.4-2,7.2-2.7c2.7-0.8,5.8-1.2,8.9-1.2h1.2
				l1.1,0c0.7,0,1.5,0.1,2.3,0.1c0.7,0.1,1.5,0.2,2.2,0.3c0.7,0.1,1.4,0.3,2.1,0.4c1.4,0.3,2.7,0.7,3.9,1.2c1.2,0.5,2.3,1,3.3,1.6
				c2,1.1,3.5,2.4,4.4,3.4c0.5,0.5,0.8,0.9,1.1,1.2c0.2,0.3,0.4,0.5,0.4,0.5s-0.8,0.2-2.2,0.3c-0.7,0.1-1.5,0.1-2.4,0.1
				c-0.9,0-1.9,0-2.9,0c-1.1,0-2.2-0.1-3.3-0.2c-1.2-0.1-2.4-0.2-3.6-0.4c-0.6-0.1-1.3-0.2-1.9-0.3c-0.6-0.1-1.3-0.2-1.9-0.3
				c-0.7-0.1-1.3-0.2-1.9-0.3l-1.1-0.2c-0.3-0.1-0.6-0.1-0.9-0.1c-5.1-0.7-10.6-0.4-14.8,0c-2.1,0.2-3.9,0.3-5.2,0.4
				c-0.6,0-1.1,0.1-1.5,0.1C69.8,21.3,69.6,21.4,69.6,21.4z"/>
		</g>
		<path class="st16" d="M121.3,119.5c0,0,0,0.2,0,0.6c-0.1,0.4,0,0.9-0.2,1.7c-0.1,0.4-0.2,0.8-0.4,1.3c-0.1,0.4-0.3,0.9-0.5,1.4
			c-0.2,0.5-0.5,1-0.8,1.5c-0.3,0.5-0.7,1.1-1,1.6c-0.4,0.5-0.8,1.1-1.3,1.6c-0.5,0.5-1,1.1-1.6,1.6c-1.2,1-2.5,2-4,2.8
			c-1.5,0.8-3.1,1.5-4.9,1.9c-1.7,0.5-3.5,0.8-5.3,0.9l-1.4,0l-0.3,0l-0.2,0l-0.1,0l-0.1,0l-0.6,0c-0.7,0-1.8-0.2-2.7-0.3
			c-1.8-0.3-3.5-0.8-5-1.4c-0.8-0.3-1.5-0.6-2.3-1.1c-0.7-0.4-1.4-0.8-2-1.2c-1.3-0.9-2.4-1.8-3.3-2.8c-0.5-0.5-0.9-0.9-1.2-1.4
			c-0.4-0.5-0.7-0.9-1-1.4c-0.3-0.4-0.5-0.9-0.7-1.3c-0.2-0.4-0.4-0.8-0.5-1.1c-0.3-0.7-0.4-1.3-0.6-1.7c-0.1-0.4-0.1-0.6-0.1-0.6
			c-0.1-0.4,0.2-0.8,0.6-0.9c0.2,0,0.4,0,0.5,0.1l0,0c0,0,0.2,0.1,0.5,0.3c0.3,0.2,0.8,0.5,1.4,0.8c0.6,0.3,1.3,0.7,2.1,1.1
			c0.8,0.4,1.7,0.8,2.6,1.1c1,0.4,2,0.7,3.1,1c1.1,0.3,2.3,0.5,3.4,0.7c1.2,0.2,2.4,0.3,3.6,0.4c0.6,0,1,0,1.9,0l0.6,0l0.1,0l0.1,0
			h0c0,0-0.3,0-0.1,0l0,0l0.2,0l0.9,0c1.2-0.1,2.5-0.2,3.7-0.4c1.2-0.2,2.4-0.5,3.5-0.8c0.6-0.2,1.1-0.3,1.7-0.5
			c0.3-0.1,0.5-0.2,0.8-0.3c0.3-0.1,0.5-0.2,0.8-0.3c1-0.4,2-0.9,2.9-1.3c0.5-0.2,0.9-0.5,1.3-0.7c0.4-0.2,0.8-0.5,1.2-0.7
			c0.7-0.5,1.4-0.9,1.9-1.3c0.5-0.3,1-0.8,1.3-1c0.3-0.2,0.5-0.4,0.5-0.4c0.4-0.3,0.9-0.2,1.1,0.2
			C121.2,119.2,121.3,119.4,121.3,119.5z"/>
		<g>
			<path class="st16" d="M144.3,113c-0.4,0-0.8,0-1.2-0.1c-17-3-31.8-15.2-39.8-32.5c-1.4-3-2.7-7.1-3.7-10.9
				c-0.1-0.5-0.4-1.8-2.9-1.8c-2.5,0-2.8,1.2-2.9,1.8c-0.9,3.8-2.3,7.9-3.7,10.9c-7.9,17.3-22.8,29.5-39.7,32.5
				c-0.4,0.1-0.8,0.1-1.2,0.1c-0.4,0-0.8,0-1.2-0.1c-17-3-31.8-15.1-39.7-32.5C1.9,66.5,1.7,52.4,7.6,42.5
				c4.7-7.9,13.1-12.4,23.2-12.4h0.3c6.4,0.1,12.8,2,17.9,5.4c0.1,0.1,0.2,0.1,0.2,0.2l0.3-0.2c5.1-3.4,11.7-5.4,18.2-5.4h0.3
				c9.9,0.1,18.3,4.6,22.9,12.4c1.8,3,3.1,6.5,3.7,10.4c0.8,0,1.5,0.1,2.2,0.1c0.7,0,1.4,0,2.2-0.1c0.6-3.8,1.9-7.3,3.7-10.4
				c4.6-7.8,13-12.3,22.9-12.4h0.3c6.4,0,13.1,2,18.2,5.4l0.2,0.2c0.1-0.1,0.2-0.1,0.3-0.2c5.1-3.4,11.4-5.4,17.8-5.4h0.3
				c10.1,0,18.5,4.5,23.2,12.4c5.9,9.9,5.6,24-0.7,37.9c-7.9,17.3-22.8,29.5-39.7,32.5C145.1,113,144.7,113,144.3,113L144.3,113z
				 M30.8,43.8c-5.1,0-9.3,2.1-11.5,5.7c-3.5,5.9-3,15.6,1.4,25.3c4.5,9.9,14.4,21.5,28.5,24.5c14.2-3,24-14.6,28.5-24.5
				c4.4-9.7,4.9-19.3,1.4-25.3c-2.9-4.9-8.4-5.7-11.3-5.7h-0.2c-3.8,0-7.6,1.1-10.5,3.1c-2.5,1.7-4.8,3.1-7.9,3.1
				c-3.1,0-5.4-1.4-7.9-3.1c-2.8-1.9-6.6-3.1-10.3-3.1H30.8z M125.7,43.8c-3,0-8.4,0.8-11.3,5.7c-3.5,5.9-3,15.6,1.4,25.3
				c4.5,9.9,14.4,21.5,28.5,24.5c14.2-3,24-14.6,28.5-24.5c4.4-9.7,4.9-19.3,1.4-25.3c-2.2-3.6-6.4-5.7-11.5-5.7h-0.2
				c-3.7,0-7.5,1.2-10.3,3.1c-2.5,1.7-4.8,3-7.8,3.1c-3.2,0-5.5-1.4-8-3.1c-2.9-2-6.7-3.1-10.5-3.1H125.7z"/>
			<g>
				<g>
					<path class="st11" d="M49,100.2c-14.5-3.1-24.6-15-29.2-25.1c-4.5-10-5.1-20-1.4-26.2c2.4-3.9,6.9-6.2,12.4-6.2H31
						c3.9,0,7.9,1.2,10.9,3.3c2.4,1.6,4.5,2.9,7.3,2.9c2.8,0,4.9-1.3,7.3-2.9c3.1-2.1,7.1-3.3,11.1-3.3h0.2c3.2,0,9,0.9,12.2,6.2
						c3.7,6.2,3.2,16.2-1.3,26.2c-4.6,10.1-14.7,22-29.2,25.1l-0.2,0L49,100.2z"/>
					<path class="st11" d="M48.8,101.2l0.4,0.1l0.4-0.1C64.5,98,74.8,85.9,79.5,75.6c4.7-10.2,5.2-20.6,1.3-27.1
						c-3.4-5.7-9.6-6.7-13-6.7h0h0h-0.2c-4.2,0-8.4,1.3-11.6,3.4c-2.3,1.5-4.2,2.7-6.8,2.7c-2.6,0-4.5-1.2-6.8-2.7
						c-3.2-2.1-7.3-3.4-11.4-3.4h-0.2c-5.9,0-10.7,2.4-13.2,6.7c-3.9,6.5-3.4,16.9,1.3,27.1C23.6,85.9,33.9,98,48.8,101.2z
						 M19.3,49.5c2.2-3.6,6.4-5.7,11.5-5.7H31c3.7,0,7.5,1.2,10.3,3.1c2.5,1.7,4.8,3,7.9,3.1c3.1,0,5.4-1.4,7.9-3.1
						c2.9-2,6.7-3.1,10.5-3.1h0.2c3,0,8.4,0.8,11.3,5.7c3.5,5.9,3,15.6-1.4,25.3c-4.5,9.9-14.4,21.5-28.5,24.5
						c-14.2-3-24-14.6-28.5-24.5C16.3,65.1,15.7,55.4,19.3,49.5z"/>
				</g>
				<g>
					<path class="st11" d="M144.1,100.2c-14.5-3.1-24.6-15-29.2-25.1c-4.5-9.9-5.1-20-1.3-26.2c3.2-5.3,9-6.2,12.2-6.2h0.2
						c4,0,8,1.2,11.1,3.3c2.4,1.6,4.5,2.9,7.4,2.9c2.7,0,4.8-1.3,7.2-2.9c3-2,7-3.2,10.9-3.3h0.2c5.5,0,10,2.3,12.4,6.2
						c3.7,6.2,3.2,16.2-1.3,26.2c-4.6,10.1-14.7,22-29.2,25.1l-0.2,0L144.1,100.2z"/>
					<path class="st11" d="M143.8,101.2l0.4,0.1l0.4-0.1c14.9-3.2,25.2-15.3,29.9-25.6c4.7-10.2,5.2-20.6,1.3-27.1
						c-2.5-4.3-7.4-6.7-13.2-6.7h-0.2c-4.1,0-8.3,1.3-11.4,3.4c-2.3,1.5-4.2,2.7-6.7,2.7c-2.6,0-4.5-1.2-6.8-2.7
						c-3.2-2.2-7.5-3.4-11.6-3.4h-0.2c-3.4,0-9.6,1-13,6.7c-3.9,6.5-3.4,16.9,1.3,27.1C118.6,85.9,128.9,98,143.8,101.2z
						 M114.3,49.5c2.9-4.9,8.3-5.7,11.3-5.7h0.2c3.8,0,7.6,1.1,10.5,3.1c2.5,1.7,4.8,3.1,8,3.1c3,0,5.3-1.4,7.8-3.1
						c2.8-1.9,6.6-3.1,10.3-3.1h0.2c5.1,0,9.3,2.1,11.5,5.7c3.5,5.9,3,15.6-1.4,25.3c-4.5,9.9-14.4,21.5-28.5,24.5
						c-14.2-3-24-14.6-28.5-24.5C111.3,65.1,110.8,55.4,114.3,49.5z"/>
				</g>
			</g>
		</g>
	</g>
</g>
<g id="Crying">
</g>
<g id="Wink">
</g>
<g id="Surprise">
</g>
<g id="Laugh_tears">
</g>
<g id="Upset">
</g>
<g id="Kiss">
</g>
<g id="Sad">
</g>
<g id="Shy_Smile">
</g>
<g id="Big_Grin">
</g>
<g id="Look_Up">
</g>
<g id="Smile">
</g>
<g id="Smile_Tear">
</g>
<g id="Startled">
</g>
<g id="KO">
</g>
<g id="Disgusted">
</g>
<g id="Desperate">
</g>
<g id="Very_sad">
</g>
<g id="Serious">
</g>
<g id="Big_Smile">
</g>
<g id="Deep_Sad">
</g>
<g id="Sleeping">
</g>
<g id="Crying_Loud">
</g>
<g id="Sick">
</g>
<g id="Relieved">
</g>
<g id="Sad_Tear">
</g>
<g id="Sad_Surprise">
</g>
<g id="Vomit">
</g>
<g id="Devil_Angry">
</g>
<g id="Davil_Smile">
</g>
<g id="Angry">
</g>
</svg>
