<?xml version="1.0" encoding="utf-8"?>
<!-- Generator: Adobe Illustrator 21.0.0, SVG Export Plug-In . SVG Version: 6.00 Build 0)  -->
<svg version="1.1" xmlns="http://www.w3.org/2000/svg" xmlns:xlink="http://www.w3.org/1999/xlink" x="0px" y="0px"
	 viewBox="0 0 186.9 165.4" style="enable-background:new 0 0 186.9 165.4;" xml:space="preserve">
<style type="text/css">
	.st0{fill:#FFD635;}
	.st1{fill:#F7B523;}
	.st2{fill:#FFEF57;}
	.st3{fill:#943436;}
	.st4{clip-path:url(#SVGID_2_);fill:#F74F5C;}
	.st5{fill:#F74F5C;}
	.st6{fill:#D82A3F;}
	.st7{fill:#E59D0E;}
	.st8{fill:#02BEFF;}
	.st9{fill:#0090F2;}
	.st10{fill:#FFFFFF;}
	.st11{fill:#534741;}
	.st12{fill:#F9747E;}
	.st13{clip-path:url(#SVGID_4_);}
	.st14{fill:#E44C5F;}
	.st15{fill:#706661;}
	.st16{fill:#E20E46;}
	.st17{clip-path:url(#SVGID_6_);fill:#5FA5E1;}
	.st18{clip-path:url(#SVGID_8_);fill:#F74F5C;}
	.st19{clip-path:url(#SVGID_10_);fill:#F74F5C;}
	.st20{fill:#0083EF;}
	.st21{clip-path:url(#SVGID_12_);fill:#F74F5C;}
	.st22{clip-path:url(#SVGID_14_);}
	.st23{fill:#AAAAAA;}
	.st24{fill:#FFA926;}
	.st25{clip-path:url(#SVGID_16_);}
	.st26{fill:#5FA5E1;}
	.st27{clip-path:url(#SVGID_18_);fill:#FFFFFF;}
	.st28{fill:url(#SVGID_19_);}
	.st29{fill:url(#SVGID_20_);}
	.st30{fill:url(#SVGID_21_);}
	.st31{fill:url(#SVGID_22_);}
	.st32{fill:url(#SVGID_23_);}
	.st33{fill:url(#SVGID_24_);}
	.st34{fill:url(#SVGID_25_);}
	.st35{fill:url(#SVGID_26_);}
	.st36{clip-path:url(#SVGID_28_);}
	.st37{fill:#85C459;}
	.st38{fill:#9563CE;}
	.st39{fill:#B681EB;}
	.st40{fill:#453854;}
	.st41{fill:#F4602C;}
	.st42{fill:#D3461A;}
	.st43{fill:#443731;}
</style>
<g id="Laugh">
</g>
<g id="Love_Eyes">
</g>
<g id="Tear">
</g>
<g id="Freak">
</g>
<g id="Sunglasses">
</g>
<g id="Love_Sunglasses">
</g>
<g id="Crying">
</g>
<g id="Wink">
</g>
<g id="Surprise">
</g>
<g id="Laugh_tears">
</g>
<g id="Upset">
</g>
<g id="Kiss">
</g>
<g id="Sad">
</g>
<g id="Shy_Smile">
</g>
<g id="Big_Grin">
</g>
<g id="Look_Up">
</g>
<g id="Smile">
</g>
<g id="Smile_Tear">
</g>
<g id="Startled">
</g>
<g id="KO">
</g>
<g id="Disgusted">
</g>
<g id="Desperate">
</g>
<g id="Very_sad">
</g>
<g id="Serious">
</g>
<g id="Big_Smile">
</g>
<g id="Deep_Sad">
</g>
<g id="Sleeping">
</g>
<g id="Crying_Loud">
</g>
<g id="Sick">
	<g>
		<path class="st0" d="M171.2,82.1c0,11.1-1,22.2-5.1,31.8c-4.2,10-11.9,18.1-19.5,25.7c-7.6,7.6-16.7,13.1-26.8,17.2
			c-9.7,4-20,8.7-31.2,8.7c-11.2,0-21.9-3.6-31.6-7.6c-10.1-4.2-18.6-10.8-26.2-18.4c-7.6-7.6-13.9-16.2-18.1-26.2
			c-4-9.7-7.5-20.1-7.5-31.2c0-11.1,2.3-22,6.3-31.7c4.2-10,11.4-18.4,19-26c7.6-7.6,16.3-14.1,26.4-18.2C66.7,2.2,77.4,0,88.6,0
			s21.6,3,31.3,7c10.1,4.2,20.3,8.7,27.9,16.3c7.6,7.6,11.8,17.8,15.9,27.9C167.8,60.8,171.2,70.9,171.2,82.1z"/>
		<g>
			<path class="st1" d="M106.4,154.7c-10.6,0-20.7-3.4-29.8-7.2c-9.5-3.9-17.5-10.2-24.7-17.3c-7.2-7.1-13.1-15.2-17.1-24.7
				c-3.8-9.1-7.1-18.9-7.1-29.4s2.2-20.8,6-29.9c4-9.4,10.7-17.4,17.9-24.5C58.8,14.6,67,8.5,76.5,4.5c4.8-2,9.9-3.5,15.2-4.5
				C90.7,0,89.7,0,88.6,0C77.4,0,66.7,2.2,56.9,6.2c-10.1,4.2-18.8,10.7-26.4,18.2c-7.6,7.6-14.8,15.9-19,26
				c-4,9.7-6.3,20.6-6.3,31.7c0,11.1,3.5,21.5,7.5,31.2c4.2,10,10.5,18.6,18.1,26.2c7.6,7.6,16.1,14.2,26.2,18.4
				c9.7,4,20.4,7.6,31.6,7.6s21.4-4.7,31.2-8.7c8-3.3,15.4-7.5,21.9-12.9c-1.9,0.9-3.9,1.8-5.9,2.7
				C126.7,150.4,117,154.7,106.4,154.7z"/>
		</g>
		<path class="st2" d="M75.3,21.4c0,0,0.6-0.5,1.7-1.2c1.1-0.7,2.7-1.7,4.7-2.7c2-1,4.5-2,7.2-2.7c2.8-0.8,5.9-1.2,9-1.2h1.2l1.1,0
			c0.7,0,1.5,0.1,2.3,0.1c0.7,0.1,1.5,0.2,2.2,0.3c0.7,0.1,1.4,0.3,2.1,0.4c1.4,0.3,2.7,0.7,3.9,1.2c1.2,0.5,2.3,1,3.3,1.6
			c2,1.1,3.5,2.4,4.5,3.4c0.5,0.5,0.8,0.9,1.1,1.2c0.2,0.3,0.4,0.5,0.4,0.5s-0.9,0.2-2.2,0.3c-0.7,0.1-1.5,0.1-2.4,0.1
			c-0.9,0-1.9,0-3,0c-1.1,0-2.2-0.1-3.4-0.2c-1.2-0.1-2.4-0.2-3.7-0.4c-0.6-0.1-1.3-0.2-1.9-0.3c-0.6-0.1-1.3-0.2-2-0.3
			c-0.7-0.1-1.3-0.2-2-0.3l-1.1-0.2c-0.3-0.1-0.6-0.1-0.9-0.1c-5.2-0.7-10.6-0.4-14.9,0c-2.2,0.2-4,0.3-5.2,0.4
			c-0.6,0-1.2,0.1-1.5,0.1C75.5,21.3,75.3,21.4,75.3,21.4z"/>
		<g>
			<defs>
				<path id="SVGID_17_" d="M171.2,82.1c0,11.1-1,22.2-5.1,31.8c-4.2,10-11.9,18.1-19.5,25.7c-7.6,7.6-16.7,13.1-26.8,17.2
					c-9.7,4-20,8.7-31.2,8.7c-11.2,0-21.9-3.6-31.6-7.6c-10.1-4.2-18.6-10.8-26.2-18.4c-7.6-7.6-13.9-16.2-18.1-26.2
					c-4-9.7-7.5-20.1-7.5-31.2c0-11.1,2.3-22,6.3-31.7c4.2-10,11.4-18.4,19-26c7.6-7.6,16.3-14.1,26.4-18.2C66.7,2.2,77.4,0,88.6,0
					s21.6,3,31.3,7c10.1,4.2,20.3,8.7,27.9,16.3c7.6,7.6,11.8,17.8,15.9,27.9C167.8,60.8,171.2,70.9,171.2,82.1z"/>
			</defs>
			<clipPath id="SVGID_2_">
				<use xlink:href="#SVGID_17_"  style="overflow:visible;"/>
			</clipPath>
			<path style="clip-path:url(#SVGID_2_);fill:#FFFFFF;" d="M129.9,137.6H57c-2.4,0-4.3-1.9-4.3-4.3V91c0-2.4,1.9-4.3,4.3-4.3h72.8
				c2.4,0,4.3,1.9,4.3,4.3v42.3C134.2,135.7,132.2,137.6,129.9,137.6z"/>
			<polygon style="clip-path:url(#SVGID_2_);fill:#FFFFFF;" points="141.2,103.6 186.9,83.2 181.5,71.4 141.2,89.4 			"/>
			<polygon style="clip-path:url(#SVGID_2_);fill:#FFFFFF;" points="45.7,89.4 5.4,71.4 0,83.2 45.7,103.6 			"/>
			<polygon style="clip-path:url(#SVGID_2_);fill:#FFFFFF;" points="45.7,122 17.4,137.7 23.7,149 45.7,136.9 			"/>
			<polygon style="clip-path:url(#SVGID_2_);fill:#FFFFFF;" points="141.2,136.9 163.1,149 169.5,137.7 141.2,122 			"/>
		</g>
		<g>
			<g>
				<path class="st3" d="M39.7,58.9c0,0,0.2,0.1,0.4,0.3c0.1,0.1,0.3,0.3,0.5,0.4c0.1,0.1,0.2,0.2,0.3,0.3c0.1,0.1,0.2,0.1,0.3,0.2
					c0.2,0.1,0.5,0.3,0.8,0.5c0.3,0.2,0.6,0.4,1,0.6c0.7,0.4,1.5,0.8,2.4,1.1c0.5,0.2,1,0.3,1.4,0.5c0.5,0.1,1,0.3,1.6,0.4
					c1.1,0.2,2.3,0.3,3.5,0.4c1.2,0,2.5,0,3.7-0.2c1.3-0.2,2.5-0.5,3.7-0.9l0.2-0.1l0.2-0.1l0.5-0.2c0.3-0.1,0.5-0.2,0.8-0.3
					c0.6-0.3,1.2-0.5,1.7-0.8c1.1-0.6,2.2-1.3,3.2-2c1-0.7,1.9-1.5,2.6-2.3c0.8-0.8,1.4-1.6,2-2.4c0.5-0.8,1-1.6,1.3-2.3
					c0.3-0.7,0.6-1.4,0.8-1.9c0.2-0.5,0.3-1,0.4-1.3c0.1-0.3,0.1-0.5,0.1-0.5l0-0.2c0.3-1.1,1.4-1.8,2.5-1.5c0.9,0.2,1.5,1,1.6,1.8
					c0,0,0,0.2,0.1,0.6c0,0.4,0.1,1,0,1.8c0,1.5-0.4,3.8-1.5,6.3c-1.1,2.5-2.9,5.1-5.4,7.3c-1.2,1.1-2.6,2.1-4.1,3
					c-0.7,0.4-1.5,0.8-2.3,1.2c-0.4,0.2-0.8,0.4-1.3,0.5l-0.6,0.2l-0.3,0.1l-0.3,0.1c-1.7,0.6-3.4,0.9-5.2,1.1
					c-1.7,0.2-3.5,0.1-5.1-0.1c-1.7-0.2-3.2-0.6-4.7-1.1c-0.7-0.2-1.4-0.5-2.1-0.8c-0.6-0.3-1.3-0.6-1.8-1c-1.2-0.7-2.1-1.4-2.9-2.1
					c-0.4-0.4-0.8-0.7-1.1-1c-0.3-0.4-0.6-0.7-0.9-1c-0.1-0.1-0.3-0.3-0.4-0.4c-0.1-0.1-0.2-0.2-0.2-0.3c-0.2-0.2-0.3-0.4-0.4-0.5
					c-0.2-0.3-0.3-0.5-0.3-0.5c-0.7-1-0.4-2.3,0.6-2.9C38,58.3,39,58.4,39.7,58.9z"/>
			</g>
			<g>
				<path class="st3" d="M147.6,61.8c0,0-0.1,0.2-0.3,0.5c-0.1,0.1-0.2,0.3-0.4,0.5c-0.1,0.1-0.2,0.2-0.2,0.3
					c-0.1,0.1-0.2,0.3-0.4,0.4c-0.3,0.3-0.6,0.6-0.9,1c-0.3,0.3-0.7,0.7-1.1,1c-0.8,0.7-1.8,1.4-2.9,2.1c-0.6,0.3-1.2,0.6-1.8,1
					c-0.7,0.3-1.3,0.6-2.1,0.8c-1.4,0.5-3,0.9-4.7,1.1c-1.7,0.2-3.4,0.2-5.1,0.1c-1.7-0.2-3.5-0.5-5.2-1.1l-0.3-0.1l-0.3-0.1
					l-0.6-0.2c-0.4-0.2-0.9-0.3-1.3-0.5c-0.8-0.4-1.6-0.7-2.3-1.2c-1.5-0.9-2.9-1.9-4.1-3c-2.5-2.2-4.3-4.8-5.4-7.3
					c-1.1-2.5-1.5-4.7-1.5-6.3c0-0.8,0-1.4,0-1.8c0-0.4,0.1-0.6,0.1-0.6c0.1-1.1,1.2-2,2.3-1.8c0.9,0.1,1.6,0.7,1.8,1.6l0.1,0.2
					c0,0,0,0.2,0.1,0.5c0.1,0.3,0.2,0.7,0.4,1.3c0.2,0.5,0.4,1.2,0.8,1.9c0.3,0.7,0.8,1.5,1.3,2.3c0.6,0.8,1.2,1.6,2,2.4
					c0.8,0.8,1.7,1.6,2.6,2.3c1,0.7,2,1.4,3.2,2c0.6,0.3,1.1,0.6,1.7,0.8c0.3,0.1,0.6,0.2,0.8,0.3l0.5,0.2l0.2,0.1l0.2,0.1
					c1.2,0.4,2.5,0.7,3.7,0.9c1.3,0.2,2.5,0.2,3.7,0.2c1.2-0.1,2.4-0.2,3.5-0.4c0.6-0.1,1.1-0.3,1.6-0.4c0.5-0.2,1-0.3,1.4-0.5
					c0.9-0.4,1.7-0.7,2.4-1.1c0.3-0.2,0.7-0.4,1-0.6c0.3-0.2,0.5-0.3,0.8-0.5c0.1-0.1,0.2-0.1,0.3-0.2c0.1-0.1,0.2-0.2,0.3-0.3
					c0.2-0.2,0.4-0.3,0.5-0.4c0.3-0.2,0.4-0.3,0.4-0.3c0.9-0.7,2.3-0.5,3,0.4C148.1,60,148.1,61,147.6,61.8z"/>
			</g>
		</g>
	</g>
</g>
<g id="Relieved">
</g>
<g id="Sad_Tear">
</g>
<g id="Sad_Surprise">
</g>
<g id="Vomit">
</g>
<g id="Devil_Angry">
</g>
<g id="Davil_Smile">
</g>
<g id="Angry">
</g>
</svg>
