<?xml version="1.0" encoding="utf-8"?>
<!-- Generator: Adobe Illustrator 21.0.0, SVG Export Plug-In . SVG Version: 6.00 Build 0)  -->
<svg version="1.1" xmlns="http://www.w3.org/2000/svg" xmlns:xlink="http://www.w3.org/1999/xlink" x="0px" y="0px"
	 viewBox="0 0 187.1 169.4" style="enable-background:new 0 0 187.1 169.4;" xml:space="preserve">
<style type="text/css">
	.st0{fill:#FFD635;}
	.st1{fill:#F7B523;}
	.st2{fill:#FFEF57;}
	.st3{fill:#943436;}
	.st4{clip-path:url(#SVGID_2_);fill:#F74F5C;}
	.st5{fill:#F74F5C;}
	.st6{fill:#D82A3F;}
	.st7{fill:#E59D0E;}
	.st8{fill:#02BEFF;}
	.st9{fill:#0090F2;}
	.st10{fill:#FFFFFF;}
	.st11{fill:#534741;}
	.st12{fill:#F9747E;}
	.st13{clip-path:url(#SVGID_4_);}
	.st14{fill:#E44C5F;}
	.st15{fill:#706661;}
	.st16{fill:#E20E46;}
	.st17{clip-path:url(#SVGID_6_);fill:#5FA5E1;}
	.st18{clip-path:url(#SVGID_8_);fill:#F74F5C;}
	.st19{clip-path:url(#SVGID_10_);fill:#F74F5C;}
	.st20{fill:#0083EF;}
	.st21{clip-path:url(#SVGID_12_);fill:#F74F5C;}
	.st22{clip-path:url(#SVGID_14_);}
	.st23{fill:#AAAAAA;}
	.st24{fill:#FFA926;}
	.st25{clip-path:url(#SVGID_16_);}
	.st26{fill:#5FA5E1;}
	.st27{clip-path:url(#SVGID_18_);fill:#FFFFFF;}
	.st28{fill:url(#SVGID_19_);}
	.st29{fill:url(#SVGID_20_);}
	.st30{fill:url(#SVGID_21_);}
	.st31{fill:url(#SVGID_22_);}
	.st32{fill:url(#SVGID_23_);}
	.st33{fill:url(#SVGID_24_);}
	.st34{fill:url(#SVGID_25_);}
	.st35{fill:url(#SVGID_26_);}
	.st36{clip-path:url(#SVGID_28_);}
	.st37{fill:#85C459;}
	.st38{fill:#9563CE;}
	.st39{fill:#B681EB;}
	.st40{fill:#453854;}
	.st41{fill:#F4602C;}
	.st42{fill:#D3461A;}
	.st43{fill:#443731;}
</style>
<g id="Laugh">
</g>
<g id="Love_Eyes">
</g>
<g id="Tear">
</g>
<g id="Freak">
</g>
<g id="Sunglasses">
</g>
<g id="Love_Sunglasses">
</g>
<g id="Crying">
</g>
<g id="Wink">
</g>
<g id="Surprise">
</g>
<g id="Laugh_tears">
	<g>
		<g>
			<path class="st0" d="M168.1,82.1c0,11.1-1,22.2-5,31.8c-4.2,10-11.8,18.1-19.4,25.7c-7.6,7.6-16.5,13.1-26.6,17.2
				c-9.7,4-19.8,8.7-30.9,8.7c-11.1,0-21.7-3.6-31.4-7.6c-10-4.2-18.4-10.8-26-18.4c-7.6-7.6-13.8-16.2-17.9-26.2
				c-4-9.7-7.5-20.1-7.5-31.2c0-11.1,2.3-22,6.3-31.7c4.2-10,11.3-18.4,18.9-26c7.6-7.6,16.2-14.1,26.2-18.2C64.5,2.2,75.1,0,86.3,0
				s21.4,3,31.1,7c10,4.2,20.1,8.7,27.7,16.3c7.6,7.6,11.7,17.8,15.8,27.9C164.8,60.8,168.1,70.9,168.1,82.1z"/>
			<g>
				<path class="st1" d="M104.1,154.9c-10.5,0-20.5-3.4-29.6-7.2c-9.4-3.9-17.4-10.2-24.5-17.3c-7.1-7.1-13-15.2-16.9-24.7
					c-3.8-9.1-7-18.9-7-29.4s2.1-20.8,5.9-29.9c3.9-9.4,10.7-17.4,17.8-24.5C56.9,14.8,65,8.6,74.5,4.7c4.8-2,9.9-3.5,15.1-4.5
					c-1-0.1-2.1-0.1-3.1-0.1C75.3,0.2,64.7,2.3,55,6.3C45,10.5,36.3,17,28.8,24.6c-7.6,7.6-14.7,15.9-18.9,26
					c-4,9.7-6.3,20.6-6.3,31.7c0,11.1,3.5,21.5,7.5,31.2c4.2,10,10.4,18.6,17.9,26.2c7.6,7.6,16,14.2,26,18.4
					c9.7,4,20.3,7.6,31.4,7.6s21.3-4.7,30.9-8.7c8-3.3,15.3-7.5,21.7-12.9c-1.9,0.9-3.8,1.8-5.8,2.7
					C124.2,150.5,114.6,154.9,104.1,154.9z"/>
			</g>
			<path class="st2" d="M73.3,19.5c0,0,0.6-0.5,1.7-1.2c1.1-0.7,2.6-1.7,4.6-2.7c2-1,4.4-2,7.2-2.7c2.7-0.8,5.8-1.2,8.9-1.2h1.2
				l1.1,0c0.7,0,1.5,0.1,2.3,0.1c0.7,0.1,1.5,0.2,2.2,0.3c0.7,0.1,1.4,0.3,2.1,0.4c1.4,0.3,2.7,0.7,3.9,1.2c1.2,0.5,2.3,1,3.3,1.6
				c2,1.1,3.5,2.4,4.4,3.4c0.5,0.5,0.8,0.9,1.1,1.2c0.2,0.3,0.4,0.5,0.4,0.5s-0.8,0.2-2.2,0.3c-0.7,0.1-1.5,0.1-2.4,0.1
				c-0.9,0-1.9,0-2.9,0c-1.1,0-2.2-0.1-3.3-0.2c-1.2-0.1-2.4-0.2-3.6-0.4c-0.6-0.1-1.3-0.2-1.9-0.3c-0.6-0.1-1.3-0.2-1.9-0.3
				c-0.7-0.1-1.3-0.2-1.9-0.3l-1.1-0.2C96,19,95.6,19,95.3,19c-5.1-0.7-10.6-0.4-14.8,0c-2.1,0.2-3.9,0.3-5.2,0.4
				c-0.6,0-1.1,0.1-1.5,0.1C73.5,19.5,73.3,19.5,73.3,19.5z"/>
		</g>
		<g>
			<path class="st7" d="M44,58.9c0,0,0.1-0.1,0.2-0.3c0.1-0.2,0.4-0.5,0.6-0.9c0.5-0.7,1.3-1.8,2.4-3c1-1.2,2.3-2.5,3.6-3.9
				c0.7-0.7,1.4-1.4,2.2-2.1c0.8-0.7,1.6-1.4,2.4-2c0.8-0.7,1.7-1.3,2.5-1.9c0.8-0.6,1.7-1.2,2.6-1.7c0.8-0.6,1.7-1,2.5-1.5
				c0.4-0.2,0.8-0.4,1.2-0.6c0.4-0.2,0.8-0.4,1.1-0.5c0.7-0.3,1.4-0.7,2-0.9c0.6-0.2,1.2-0.4,1.6-0.6c0.9-0.3,1.4-0.5,1.4-0.5
				c1.8-0.7,3.8,0.2,4.5,2c0.7,1.8-0.2,3.8-2,4.5c-0.1,0-0.2,0.1-0.4,0.1l-0.2,0.1c0,0-0.4,0.1-1.2,0.3c-0.4,0.1-0.9,0.2-1.4,0.4
				c-0.5,0.2-1.2,0.4-1.8,0.6c-0.3,0.1-0.7,0.2-1,0.3c-0.4,0.1-0.7,0.3-1.1,0.4c-0.8,0.3-1.6,0.6-2.3,1c-0.8,0.4-1.6,0.8-2.5,1.2
				c-0.8,0.4-1.7,0.9-2.5,1.4c-0.8,0.5-1.6,1-2.4,1.6c-0.8,0.5-1.5,1.1-2.3,1.7c-1.4,1.1-2.7,2.2-3.8,3.2c-1.1,1-1.9,1.9-2.5,2.5
				c-0.3,0.3-0.5,0.5-0.6,0.7c-0.1,0.2-0.2,0.3-0.2,0.3l0,0C46,61.5,45,61.6,44.3,61C43.6,60.5,43.5,59.6,44,58.9z"/>
			<path class="st3" d="M43.6,70.7c0,0,0.1-0.2,0.2-0.5c0.1-0.3,0.4-0.9,0.8-1.5c0.7-1.2,2-2.9,3.8-4.4c0.9-0.8,2-1.5,3.2-2.1
				c1.2-0.6,2.5-1.2,3.9-1.7c1.4-0.5,2.8-0.8,4.4-1.1c1.5-0.2,3.1-0.4,4.6-0.4c0.5,0,0.7,0,1.1,0c0.4,0,0.8,0,1.2,0.1
				c0.8,0.1,1.5,0.1,2.3,0.2c1.5,0.2,3,0.5,4.4,1c2.8,0.8,5.3,2.1,7.2,3.6c1.9,1.5,3.2,3.1,4,4.4c0.4,0.6,0.6,1.2,0.7,1.5
				c0.1,0.4,0.2,0.6,0.2,0.6c0.3,0.9-0.1,1.9-1.1,2.3c-0.8,0.3-1.6,0-2-0.6l-0.1-0.2c0,0-0.1-0.1-0.2-0.3c-0.2-0.2-0.4-0.5-0.8-0.9
				c-0.7-0.7-1.8-1.7-3.4-2.6c-0.8-0.4-1.7-0.8-2.7-1.2c-1-0.4-2.1-0.7-3.2-1c-1.2-0.3-2.4-0.5-3.6-0.6c-0.6-0.1-1.3-0.1-1.9-0.2
				l-0.9,0l-1,0c-1.3,0-2.5,0.1-3.8,0.3c-1.2,0.2-2.4,0.4-3.6,0.7c-1.1,0.3-2.2,0.6-3.2,1.1c-1,0.4-1.9,0.9-2.7,1.3
				c-1.6,0.9-2.7,2-3.4,2.7c-0.4,0.4-0.6,0.6-0.8,0.9c-0.2,0.3-0.3,0.4-0.3,0.4c-0.6,0.8-1.7,1-2.5,0.4
				C43.5,72.3,43.3,71.4,43.6,70.7z"/>
		</g>
		<g>
			<path class="st7" d="M146.6,60.8c0,0-0.1-0.1-0.2-0.3c-0.1-0.2-0.4-0.4-0.6-0.7c-0.6-0.6-1.4-1.5-2.5-2.5c-1.1-1-2.4-2.1-3.8-3.2
				c-0.7-0.5-1.5-1.1-2.3-1.7c-0.8-0.5-1.6-1.1-2.4-1.6c-0.8-0.5-1.6-1-2.5-1.4c-0.8-0.5-1.7-0.9-2.5-1.2c-0.8-0.4-1.6-0.7-2.3-1
				c-0.4-0.2-0.7-0.3-1.1-0.4c-0.4-0.1-0.7-0.2-1-0.3c-0.7-0.2-1.3-0.4-1.8-0.6c-0.6-0.1-1-0.3-1.4-0.4c-0.8-0.2-1.2-0.3-1.2-0.3
				l-0.2-0.1c-1.9-0.5-3-2.4-2.5-4.3c0.5-1.9,2.4-3,4.3-2.5c0.1,0,0.3,0.1,0.4,0.1c0,0,0.5,0.2,1.4,0.5c0.4,0.2,1,0.4,1.6,0.6
				c0.6,0.3,1.3,0.6,2,0.9c0.4,0.2,0.7,0.3,1.1,0.5c0.4,0.2,0.8,0.4,1.2,0.6c0.8,0.4,1.7,0.9,2.5,1.5c0.8,0.5,1.7,1.1,2.6,1.7
				c0.9,0.6,1.7,1.2,2.5,1.9c0.8,0.6,1.6,1.3,2.4,2c0.8,0.7,1.5,1.4,2.2,2.1c1.4,1.4,2.6,2.7,3.6,3.9c1,1.2,1.8,2.2,2.4,3
				c0.3,0.4,0.5,0.7,0.6,0.9c0.1,0.2,0.2,0.3,0.2,0.3c0.5,0.8,0.3,1.8-0.5,2.3C148.1,61.6,147.2,61.5,146.6,60.8L146.6,60.8z"/>
			<path class="st3" d="M146.5,72.4c0,0-0.1-0.1-0.3-0.4c-0.2-0.3-0.4-0.5-0.8-0.9c-0.7-0.8-1.9-1.8-3.4-2.7
				c-0.8-0.5-1.7-0.9-2.7-1.3c-1-0.4-2.1-0.8-3.2-1.1c-1.1-0.3-2.3-0.5-3.6-0.7c-1.2-0.2-2.5-0.3-3.8-0.3l-1,0l-0.9,0
				c-0.6,0-1.3,0.1-1.9,0.2c-1.2,0.2-2.5,0.4-3.6,0.6c-1.2,0.3-2.2,0.6-3.2,1c-1,0.4-1.9,0.8-2.7,1.2c-1.6,0.9-2.7,1.8-3.4,2.6
				c-0.3,0.4-0.6,0.7-0.8,0.9c-0.2,0.2-0.2,0.3-0.2,0.3l-0.1,0.2c-0.6,0.8-1.7,1-2.5,0.4c-0.7-0.5-0.9-1.3-0.6-2
				c0,0,0.1-0.2,0.2-0.6c0.1-0.4,0.4-0.9,0.7-1.5c0.7-1.3,2-2.9,4-4.4c1.9-1.5,4.4-2.7,7.2-3.6c1.4-0.4,2.9-0.8,4.4-1
				c0.8-0.1,1.5-0.2,2.3-0.2c0.4,0,0.8,0,1.2-0.1c0.4,0,0.7,0,1.1,0c1.5,0,3.1,0.2,4.6,0.4c1.5,0.3,3,0.6,4.4,1.1
				c1.4,0.5,2.7,1.1,3.9,1.7c1.2,0.6,2.3,1.4,3.2,2.1c1.9,1.5,3.1,3.2,3.8,4.4c0.3,0.6,0.6,1.2,0.8,1.5c0.1,0.3,0.2,0.5,0.2,0.5
				c0.4,0.9-0.1,2-1,2.3C147.9,73.3,147,73.1,146.5,72.4z"/>
		</g>
		<g>
			<path class="st8" d="M153.4,105c1.5,4.1,1.4,9.2,5,12.7c3.6,3.6,10.2,4.7,15.4,3.5c5.6-1.3,7.4-4.4,9.3-7.6
				c2.6-4.4,2-11-0.4-14.5c-6.6-8.6-18.6-13.4-30.2-21.5c0,6.2-0.6,12-1,17.6C151.9,99.3,152.5,102.6,153.4,105z"/>
			<path class="st20" d="M184.9,102.7c-0.7-1.3-1.5-2.5-2.3-3.7c2.4,3.5,3,10.1,0.4,14.5c-1.8,3.2-3.7,6.2-9.3,7.6
				c-5.2,1.2-11.7,0.1-15.4-3.5c-3.5-3.5-3.5-8.6-5-12.7c-0.9-2.4-1.5-5.7-2-9.9c-0.6,8.8-0.7,16.7,2.8,23.5
				c4.6,8.9,15.3,12.6,23.7,8.2C186.5,122.4,189.5,111.6,184.9,102.7z"/>
		</g>
		<g>
			<path class="st8" d="M40.7,110.6c-1.8,4.9-1.7,11.1-6,15.3c-4.4,4.3-12.3,5.7-18.6,4.2c-6.8-1.6-9-5.3-11.2-9.2
				c-3.1-5.4-2.4-13.3,0.5-17.6c8-10.4,22.5-16.2,36.4-25.9c0,7.4,0.7,14.5,1.2,21.2C42.5,103.7,41.8,107.7,40.7,110.6z"/>
			<path class="st20" d="M2.6,107.8c0.8-1.6,1.8-3,2.8-4.4c-2.9,4.3-3.6,12.2-0.5,17.6c2.2,3.8,4.4,7.5,11.2,9.2
				c6.2,1.5,14.2,0.1,18.6-4.2c4.3-4.2,4.3-10.4,6-15.3c1-2.9,1.8-6.9,2.4-11.9c0.7,10.6,0.8,20.2-3.4,28.4
				C34,137.8,21.2,142.3,11,137C0.7,131.7-3,118.6,2.6,107.8z"/>
		</g>
		<g>
			<g>
				<defs>
					<path id="SVGID_11_" d="M141.7,98.9c-0.7,0-1.5,0.1-2.6,0.4c-2.2,0.6-20.1,5.4-41.8,4.2c-21.6-1.3-38.9-8.1-41-9
						c-1-0.4-1.8-0.6-2.5-0.7c-2.5-0.1-3.2,1.9-3,3.9c0.1,1,0.3,2.2,0.5,3.5c0.4,1.8,0.9,4,1.9,6.4c0.9,2.4,2.2,5.1,4,8
						c1.8,2.9,4.2,5.9,7.4,8.9c3.2,3,7.2,5.9,12.2,8.3c5,2.4,11.2,4.2,18.3,4.7c7.2,0.4,13.5-0.7,18.8-2.5c5.3-1.8,9.6-4.2,13.1-6.8
						c3.5-2.6,6.3-5.3,8.4-8c2.2-2.6,3.8-5.2,5-7.5c1.2-2.3,2-4.4,2.6-6.1c0.4-1.3,0.7-2.5,1-3.4C144.6,101.1,144.2,99,141.7,98.9
						L141.7,98.9z"/>
				</defs>
				<use xlink:href="#SVGID_11_"  style="overflow:visible;fill:#943436;"/>
				<clipPath id="SVGID_2_">
					<use xlink:href="#SVGID_11_"  style="overflow:visible;"/>
				</clipPath>
				<path class="st4" d="M101.7,153.6c-6,13.3-22.7,19.4-36.5,13.6s-20.1-21.3-14.1-34.6c4.1-9.2,10.3-15.8,20.2-16.2
					c9.4-0.4,13.4,6.3,13.4,6.3s7.7-1.8,13.6,4C104.6,132.8,105.9,144.3,101.7,153.6z"/>
			</g>
		</g>
	</g>
</g>
<g id="Upset">
</g>
<g id="Kiss">
</g>
<g id="Sad">
</g>
<g id="Shy_Smile">
</g>
<g id="Big_Grin">
</g>
<g id="Look_Up">
</g>
<g id="Smile">
</g>
<g id="Smile_Tear">
</g>
<g id="Startled">
</g>
<g id="KO">
</g>
<g id="Disgusted">
</g>
<g id="Desperate">
</g>
<g id="Very_sad">
</g>
<g id="Serious">
</g>
<g id="Big_Smile">
</g>
<g id="Deep_Sad">
</g>
<g id="Sleeping">
</g>
<g id="Crying_Loud">
</g>
<g id="Sick">
</g>
<g id="Relieved">
</g>
<g id="Sad_Tear">
</g>
<g id="Sad_Surprise">
</g>
<g id="Vomit">
</g>
<g id="Devil_Angry">
</g>
<g id="Davil_Smile">
</g>
<g id="Angry">
</g>
</svg>
