<?xml version="1.0" encoding="utf-8"?>
<!-- Generator: Adobe Illustrator 22.0.1, SVG Export Plug-In . SVG Version: 6.00 Build 0)  -->
<svg version="1.1" id="Слой_1" xmlns="http://www.w3.org/2000/svg" xmlns:xlink="http://www.w3.org/1999/xlink" x="0px" y="0px"
	 viewBox="0 0 510.5 156.6" style="enable-background:new 0 0 510.5 156.6;" xml:space="preserve">
<style type="text/css">
	.st0{fill:#16262E;}
	.st1{clip-path:url(#SVGID_2_);}
	.st2{fill:url(#_x31__1_);}
	.st3{fill:#18B5B5;}
	.st4{fill:#12C5D8;}
	.st5{fill:url(#SVGID_3_);}
	.st6{fill:none;}
	.st7{fill:#A4A4A4;}
	.st8{fill:#3B414D;}
	.st9{fill:#A8495D;}
	.st10{clip-path:url(#SVGID_5_);}
	.st11{fill:#AAEF3B;}
	.st12{fill:#44467C;}
	.st13{fill:url(#SVGID_6_);}
	.st14{fill:#3774B8;}
	.st15{fill:url(#SVGID_7_);}
	.st16{fill:#EF3F3F;}
	.st17{fill:#F5B628;}
	.st18{fill:#FEFEFE;}
	.st19{fill:#B50835;}
	.st20{fill:#C8CFD8;}
	.st21{fill:#819599;}
</style>
<g id="Слой_x0020_1">
	<path class="st0" d="M24.7,22.3h90.4c11.3,0,20.5,9.2,20.5,20.5v90.6c0,11.3-9.2,20.5-20.5,20.5H24.7c-11.3,0-20.5-9.2-20.5-20.5
		V42.8C4.2,31.5,13.4,22.3,24.7,22.3z"/>
	<g>
		<defs>
			<path id="SVGID_1_" d="M24.7,22.3h90.4c11.3,0,20.5,9.2,20.5,20.5v90.6c0,11.3-9.2,20.5-20.5,20.5H24.7
				c-11.3,0-20.5-9.2-20.5-20.5V42.8C4.2,31.5,13.4,22.3,24.7,22.3z"/>
		</defs>
		<clipPath id="SVGID_2_">
			<use xlink:href="#SVGID_1_"  style="overflow:visible;"/>
		</clipPath>
		<g class="st1">
			<g id="_2345037013232">
				<g>
					
						<radialGradient id="_x31__1_" cx="-2215.6516" cy="6338.2192" r="4846.2754" gradientTransform="matrix(2.834646e-02 0 3.188409e-03 -2.669301e-02 59.2144 281.3499)" gradientUnits="userSpaceOnUse">
						<stop  offset="0" style="stop-color:#14DFFC"/>
						<stop  offset="0.7412" style="stop-color:#0DC2D9"/>
						<stop  offset="1" style="stop-color:#07A6B6"/>
					</radialGradient>
					<path id="_x31_" class="st2" d="M16.6,48.8c36.9,0,66.9,28.4,66.9,63.4s-29.9,63.4-66.9,63.4s-66.9-28.4-66.9-63.4
						S-20.3,48.8,16.6,48.8z"/>
					<path class="st3" d="M20.6,67.2c10.9-9.1,28.1-6.6,38.4,5.4c10.3,12.1,9.8,29.2-1.1,38.3s-28.1,6.6-38.4-5.4
						C9.2,93.4,9.7,76.3,20.6,67.2z"/>
					<path class="st4" d="M23.1,66.3c10.3-8.5,26.4-6.2,36.1,5.1c9.7,11.4,9.2,27.5-1,36c-10.3,8.5-26.4,6.2-36.1-5.1
						C12.4,90.9,12.9,74.8,23.1,66.3z"/>
					
						<radialGradient id="SVGID_3_" cx="8283.6768" cy="1218.5228" r="1135.0753" gradientTransform="matrix(2.764902e-02 -2.301545e-02 -2.615771e-02 -3.061814e-02 -156.4783 314.8118)" gradientUnits="userSpaceOnUse">
						<stop  offset="0" style="stop-color:#00B9CE"/>
						<stop  offset="1" style="stop-color:#009CAB"/>
					</radialGradient>
					<path class="st5" d="M26.3,70c8.4-7,21.7-5.1,29.7,4.2s7.6,22.6-0.8,29.6c-8.4,7-21.7,5.1-29.7-4.2S17.8,77,26.3,70z"/>
				</g>
			</g>
		</g>
	</g>
	<path class="st6" d="M24.7,22.3h90.4c11.3,0,20.5,9.2,20.5,20.5v90.6c0,11.3-9.2,20.5-20.5,20.5H24.7c-11.3,0-20.5-9.2-20.5-20.5
		V42.8C4.2,31.5,13.4,22.3,24.7,22.3z"/>
	<path class="st7" d="M322.9,118.4c-4.3-1.6-6.3-3.3-8-7l-1.1-2.4V98.4c0-10.4,0-10.6,0.9-12.9c1.4-3.7,4.1-6,8.6-7.6
		c2.6-0.9,8.4-0.5,11.3,0.6c2.6,1,5.7,3.9,6.9,6.5c0.8,1.7,0.8,2.2,0.8,13.4v11.7l-1,1.9c-1.5,2.7-3.3,4.4-6.1,5.7
		c-2.2,1-2.8,1.2-6.4,1.3C325.4,119.1,324.3,119,322.9,118.4L322.9,118.4L322.9,118.4z M334,114.6c3.1-1.7,4.5-3.8,5.1-7.3
		c0.6-3.5,0.3-18.2-0.4-20.2c-0.8-2.2-3.8-5.1-6.3-6c-6.2-2.3-12.7,0.4-14.8,6.1c-0.7,2-0.8,2.8-0.8,11.2v9l1,2.4
		c1.2,2.7,2.4,3.9,5,5.1c2.8,1.3,2.7,1.3,5.9,1.2C331.3,115.9,332,115.8,334,114.6L334,114.6L334,114.6z"/>
	<path class="st7" d="M360.8,118.8c-1.8-0.4-6.4-2-8.1-2.9l-1.7-0.9l0.9-1.2c0.5-0.7,0.9-1.2,1-1.2c0,0,0.9,0.4,1.9,0.9
		c4.1,2,6.7,2.6,10.5,2.6c2.9,0,4-0.2,5.4-0.9c3.5-1.6,5.4-4.1,5.4-7.3c0-4.4-3-6.8-10.3-8.3c-10.1-2-13.7-5.1-13.6-11.7
		c0.1-5.7,3.5-9.3,9.9-10.4c2.9-0.5,7.7-0.1,11.3,0.9c4,1.2,4.1,1.3,3.5,2.7c-0.3,0.6-0.6,1.2-0.8,1.4s-1.8-0.3-3.7-1
		c-4.4-1.5-9.4-1.6-12-0.4c-2.9,1.4-4.4,3.2-4.9,6c-0.4,2.3,0.1,3.9,1.8,5.5c1.8,1.8,4.2,2.8,9.4,3.9c6.6,1.4,10.1,3.3,11.8,6.6
		c0.9,1.8,1,7.6,0,9.5c-1.1,2.2-3.4,4.2-6,5.3c-2.1,0.8-3.1,1-6.6,1C363.6,118.9,361.3,118.9,360.8,118.8L360.8,118.8L360.8,118.8z"
		/>
	<path class="st7" d="M462.8,118.5c-4.4-1.5-6.9-3.5-8.5-7.1l-0.9-2l-0.1-10.8c-0.1-6,0-11.1,0.2-11.5c0.2-0.4,0.7-1.6,1.2-2.7
		c0.9-2,3.4-4.6,5.1-5.2c4-1.6,4.7-1.8,8-1.8c3.5,0,4.6,0.2,7.9,1.6c2.7,1.2,2.8,1.2,2.1,2.5c-0.8,1.4-1.3,1.6-2.3,0.9
		c-1.6-1-5.5-2.1-7.7-2.1c-3.8,0-7.8,1.9-9.4,4.6c-1.7,2.7-2.1,5.2-2.1,13.3c0,8.1,0.5,10.9,2.3,13.5c3.3,4.6,9.7,5.7,15.6,2.8
		c2.6-1.2,2.7-1.3,3.2-0.7c1.2,1.7,1.2,1.9,0,2.7c-0.7,0.4-1.8,0.9-2.5,1.1c-0.7,0.3-1.5,0.6-1.8,0.8
		C472.1,119.1,464.5,119.1,462.8,118.5L462.8,118.5z"/>
	<path class="st7" d="M163.9,118.6c0,0,1-2.9,2.2-6.5c5.4-15.5,8.2-23.5,9.4-27.4c0.8-2.3,1.6-4.8,2-5.6c0.6-1.4,0.7-1.4,2.3-1.3
		s1.7,0.1,2.3,1.8c0.3,0.9,0.7,1.8,0.8,2c0.1,0.2,0.8,2,1.4,4c0.6,2,1.4,4.2,1.6,4.7c0.3,0.6,0.9,2.5,1.4,4.2
		c0.5,1.7,1.1,3.4,1.3,3.8s1.5,4.3,3,8.6c1.5,4.3,2.9,8.6,3.3,9.4c0.3,0.9,0.6,1.7,0.6,1.9c0,0.2-0.7,0.3-1.6,0.3
		c-1.5,0-1.6,0-2.3-1.7c-0.4-1-1.2-3.2-1.8-4.9l-1-3.2h-9.2h-9.1l-1.6,4.9l-1.6,4.9h-1.8C164.7,118.7,163.9,118.7,163.9,118.6
		L163.9,118.6L163.9,118.6z M187.7,105.6c0-0.3-1.2-4.3-1.7-5.6c-0.1-0.3-1.5-4.3-3.1-8.9c-1.5-4.6-2.9-8.4-3-8.4
		c-0.2,0-7.9,22.3-7.9,22.9c0,0.2,3.5,0.3,7.9,0.3C184.1,105.9,187.7,105.8,187.7,105.6z"/>
	<path class="st7" d="M203,98.2V77.8h1.6c1.6,0,1.6,0,3.1,2.3c0.8,1.2,1.7,2.6,2,3c0.3,0.4,2.2,3.3,4.2,6.4c2,3.1,3.8,5.8,3.9,6
		c0.2,0.2,1.5,2.1,2.8,4.2c1.4,2.1,3.8,5.8,5.5,8.3l2.9,4.4l0.1-17.3l0.1-17.3h1.8h1.8v20.4v20.4h-1.8h-1.8l-4-6.1
		c-2.2-3.4-4.2-6.5-4.5-6.9c-0.3-0.4-1.6-2.4-2.9-4.4c-1.3-2-2.6-3.9-2.7-4.2c-0.2-0.3-1.4-2.1-2.6-4c-1.2-1.9-2.5-3.8-2.7-4.2
		c-0.3-0.4-1.2-1.8-2.1-3.1l-1.5-2.4l-0.1,17.6l-0.1,17.6h-1.4h-1.5L203,98.2L203,98.2L203,98.2z"/>
	<path class="st7" d="M241.7,98.2V77.8h8.4c8.7,0,11.2,0.3,13.7,1.6c3,1.5,5.4,5.2,6,9.3c0.5,3.3,0.5,16.5,0,19.3
		c-0.9,5.2-3.5,8.3-8.8,10.1c-1.3,0.4-3.5,0.6-10.4,0.6h-8.9V98.2L241.7,98.2z M260.7,114.7c2.7-1.2,3.9-2.4,5.1-5
		c0.8-1.8,0.9-2.2,0.9-11.5s0-9.8-0.9-11.5c-0.5-1-1.5-2.4-2.2-3.2c-2.3-2.2-3.7-2.6-11.7-2.7l-7-0.1v17.5v17.5h6.7
		C258.4,115.7,258.5,115.7,260.7,114.7L260.7,114.7L260.7,114.7z"/>
	<path class="st7" d="M278.5,98.2V77.8l9.8,0.1c8.3,0.1,9.9,0.2,11.1,0.8c5.7,2.6,8.2,10,5.5,16c-1.2,2.6-3.3,4.7-5.4,5.5
		c-0.7,0.3-1.3,0.6-1.3,0.7s1.3,3.3,2.9,7c1.6,3.7,3.2,7.3,3.5,8.1c0.3,0.8,0.7,1.6,0.9,1.8c0.7,0.7,0.2,0.9-1.6,0.9l-1.9-0.1
		l-0.9-2.2c-0.5-1.2-1.4-3.2-1.9-4.4c-0.5-1.2-1.8-4.1-2.8-6.5l-1.8-4.3h-6.6h-6.7v8.8v8.8H280h-1.5L278.5,98.2L278.5,98.2
		L278.5,98.2z M298.2,97.2c2.3-1.2,3.3-2.6,4.3-5.4c0.5-1.7,0.5-2.2,0.1-3.7c-0.7-2.6-1.6-4.2-3.3-5.4c-2.1-1.6-4.2-1.9-11.6-1.9
		h-6.4v8.8v8.8h7.4C296.2,98.2,296.2,98.2,298.2,97.2L298.2,97.2z"/>
	<path class="st7" d="M387,98.2V77.8l9.8,0.1l9.8,0.1l1.9,1c2.1,1.1,4.3,3.4,5.2,5.4c0.9,2,1,6.4,0.3,8.8c-0.9,3-3.1,5.6-5.8,6.9
		l-2.3,1h-7.7h-7.8v8.8v8.8h-1.6h-1.6L387,98.2L387,98.2z M406.2,97.4c3.3-1.6,4.9-4.2,4.9-7.9c0-2.6-0.6-4.1-2.3-5.9
		c-2.3-2.5-3.9-2.9-12-2.9h-6.5v8.8v8.8h7C404.1,98.2,404.5,98.2,406.2,97.4z"/>
	<path class="st7" d="M416.2,118.2c0-0.3,1.5-4.9,3.4-10.3c1.9-5.4,3.5-10.1,3.7-10.5c0.1-0.4,1.1-3.3,2.3-6.6
		c1.1-3.2,2.5-7.5,3.2-9.4l1.2-3.6h1.9h1.9l1,3.2c0.5,1.8,1.1,3.3,1.2,3.5c0.1,0.2,0.8,2,1.4,4c0.7,2,1.4,4.2,1.6,4.7
		c0.3,0.6,0.9,2.5,1.5,4.2c0.5,1.7,1.1,3.4,1.3,3.8c0.2,0.4,0.9,2.4,1.7,4.6c2.3,6.9,4.2,12.4,4.2,12.6c0,0.1-0.8,0.1-1.7,0.1
		l-1.7-0.1l-1-3.1c-0.5-1.7-1.2-3.4-1.4-3.8c-0.2-0.4-0.5-1.2-0.7-1.8l-0.4-1l-9,0.1l-9,0.1l-1.6,4.8l-1.6,4.8h-1.6
		C416.7,118.7,416.2,118.5,416.2,118.2L416.2,118.2L416.2,118.2z M437.7,99.6c-1.2-3.5-2.7-7.9-3.3-9.8c-0.6-1.9-1.3-3.9-1.6-4.6
		c-0.3-0.6-0.6-1.6-0.8-2.2c-0.2-0.9-0.6,0-2.5,5.7c-1.2,3.7-2.4,7-2.5,7.3c-0.4,0.9-3.2,9.6-3.2,9.7c0,0.1,3.6,0.1,8,0.1h8
		L437.7,99.6L437.7,99.6L437.7,99.6z"/>
	<path class="st7" d="M485.9,98.2V77.8h13.1h13.2v1.5v1.5h-11.7h-11.7v7.9v7.9h10h10v1.5v1.4h-10h-10v8.2v8.2h11.7h11.7v1.4v1.5
		h-13.2h-13.1V98.2L485.9,98.2L485.9,98.2z"/>
	<path class="st8" d="M229.4,95.5c0-9.8,0-13.8,0.1-8.8c0.1,5,0.1,13,0,17.9C229.5,109.4,229.4,105.4,229.4,95.5z"/>
	<path class="st9" d="M100.2,134.8c-0.3-0.4,15.8-18.5,16.1-18.1c0.3,0.3-15.1,18.5-15.5,18.5C100.6,135.2,100.4,135,100.2,134.8
		L100.2,134.8z"/>
	<g>
		<defs>
			<circle id="SVGID_4_" cx="114.6" cy="57.3" r="28.3"/>
		</defs>
		<clipPath id="SVGID_5_">
			<use xlink:href="#SVGID_4_"  style="overflow:visible;"/>
		</clipPath>
		<g class="st10">
			<g>
				<path class="st11" d="M96.8,101.7c-8.3-5-17.9-10.7-21.4-12.8l-6.3-3.8l0.1-1.6c0.3-4.8,2.2-13.4,4.5-20.5
					c4.9-15.2,12.9-28.6,23.3-39.4c4.2-4.3,5.6-5.4,10.9-8.9c9.7-6.2,22.6-10.4,34.2-11l4.8-0.3l1.1,2.4c2.9,5.9,5.7,15.4,6.7,22.3
					c1.1,7.9,0.8,17.9-0.8,24.5c-1,4-2.1,8-2.7,9.4c-0.3,0.6-1.2,2.7-2,4.6c-6.5,15.3-19.5,31-35.1,42.7c-1.1,0.9-2.1,1.6-2.2,1.5
					C111.9,110.8,105.1,106.7,96.8,101.7L96.8,101.7L96.8,101.7z M117.4,89.8c10.4-1.5,19.2-7.9,23.8-17.3c1.4-2.8,2.9-8,2.8-9.7
					c0-0.5-0.3,0.1-0.6,1.2c-0.7,2.9-2.7,7.6-4.2,9.8c-1.6,2.4-5.3,6.2-7.5,7.8c-2.4,1.7-7,4-9.9,4.8c-3.4,0.9-12.1,1-15.5,0
					c-8.9-2.5-16.7-9.3-20-17.6c-1.7-4.1-2.2-7.1-2.2-11.8c0-8.8,3.2-15.8,9.9-22.1c2.6-2.4,2.7-2.6,1-1.5c-2.6,1.8-6,5.3-8,8.3
					c-7.1,10.8-6.7,25.3,1,35.6C95,86.5,106.4,91.4,117.4,89.8L117.4,89.8L117.4,89.8z M129,80.1c7.7-4.6,13.2-15.3,12.5-24.7
					c-0.9-11.1-8.2-20.5-18.9-24.1c-4.2-1.4-10.2-1.7-14.6-0.6c-5.2,1.3-8.8,3.3-12.7,7.2c-1.8,1.8-3.9,4.3-4.5,5.4
					c-1.9,3.2-3.4,8.1-3.6,11.8l-0.2,3.1l1.1-1.8c1.3-2,0.7-2.1,6.3,1.2c1.9,1.1,10.1,6,18.3,10.9c8.1,4.8,14.9,8.9,15.1,9
					c0.2,0.1-0.1,0.9-0.6,1.7c-1.6,2.6-1.6,2.5-0.8,2.2C126.7,81.5,127.9,80.9,129,80.1L129,80.1L129,80.1z"/>
				<path class="st11" d="M110.4,63.6c-10.5-6.3-19.2-11.5-19.3-11.8c-0.1-0.2,1-1.5,2.3-2.9c3.7-4,8.9-6.3,13.9-6.3h2.1l0.3-2.2
					c0.1-1.2,0.2-3.2,0.2-4.3c0-1.6,0.1-2,0.7-2.3c0.5-0.3,0.9-0.2,1.3,0.1c0.6,0.4,0.6,1,0.5,4.6l-0.2,4.1l1,0.2
					c4.8,1.1,9,3.2,12.4,6.5l2.7,2.6l3.2-1.9c3.5-2.1,4.3-2.2,4.9-1.4c0.7,0.9,0.2,1.5-3.3,3.6c-2.4,1.4-3.3,2.1-3.2,2.5
					c0.1,0.3,0.6,1.6,1.1,2.8c1.4,3.5,1.9,7,1.4,10.4c-0.4,2.8-2,7.1-2.6,7.1C129.7,75,121,69.9,110.4,63.6L110.4,63.6L110.4,63.6z
					 M125.9,61.9c0.9-0.9,0.7-2.6-0.3-3.3c-2-1.3-4.2,1.4-2.6,3.2C123.8,62.7,125.1,62.8,125.9,61.9z M108.2,51.2
					c1.8-1.8-0.5-4.3-2.8-3.1c-0.8,0.5-1,2.5-0.3,3.2C105.8,52,107.5,52,108.2,51.2z"/>
			</g>
		</g>
	</g>
	<path class="st6" d="M114.6,85.5c15.6,0,28.3-12.7,28.3-28.3S130.2,29,114.6,29S86.3,41.6,86.3,57.3S98.9,85.5,114.6,85.5z"/>
	<path class="st12" d="M49.1,42.2c3.9,0,7.1-3.2,7.1-7.1c0-3.9-3.2-7.1-7.1-7.1c-3.9,0-7.1,3.2-7.1,7.1C42.1,39,45.2,42.2,49.1,42.2
		z"/>
	<path class="st12" d="M62.8,40.7c1.5,0,2.7-1.2,2.7-2.7c0-1.5-1.2-2.7-2.7-2.7c-1.5,0-2.7,1.2-2.7,2.7
		C60.1,39.5,61.3,40.7,62.8,40.7z"/>
	<path class="st12" d="M22.8,37.2c0.6,0,1-0.5,1-1s-0.5-1-1-1s-1,0.5-1,1S22.3,37.2,22.8,37.2z"/>
	<path class="st12" d="M46.6,50.4c0.7,0,1.3-0.6,1.3-1.3c0-0.7-0.6-1.3-1.3-1.3c-0.7,0-1.3,0.6-1.3,1.3
		C45.3,49.8,45.8,50.4,46.6,50.4z"/>
	<path class="st8" d="M87.8,152.7c2.3,0,4.1-1.8,4.1-4.1c0-2.3-1.8-4.1-4.1-4.1s-4.1,1.8-4.1,4.1C83.7,150.9,85.6,152.7,87.8,152.7z
		"/>
	
		<radialGradient id="SVGID_6_" cx="2378.8528" cy="4680.5815" r="116" gradientTransform="matrix(2.834731e-02 0 0 -2.834731e-02 33.0362 267.7577)" gradientUnits="userSpaceOnUse">
		<stop  offset="0" style="stop-color:#FEFEFE"/>
		<stop  offset="1" style="stop-color:#A91B32"/>
	</radialGradient>
	<path class="st13" d="M100.5,136.7c0.9,0,1.6-0.7,1.6-1.6c0-0.9-0.7-1.6-1.6-1.6s-1.6,0.7-1.6,1.6
		C98.9,135.9,99.6,136.7,100.5,136.7z"/>
	<path class="st14" d="M108,150.3c-0.2-0.3,9.7-11.3,9.9-11.1c0.2,0.2-9.2,11.4-9.5,11.4C108.2,150.6,108.1,150.5,108,150.3
		L108,150.3L108,150.3z"/>
	
		<radialGradient id="SVGID_7_" cx="2650.9775" cy="4135.897" r="116" gradientTransform="matrix(2.834872e-02 0 0 -2.834872e-02 33.0361 267.7302)" gradientUnits="userSpaceOnUse">
		<stop  offset="0" style="stop-color:#FEFEFE"/>
		<stop  offset="1" style="stop-color:#3B77FA"/>
	</radialGradient>
	<path class="st15" d="M108.2,151.5c0.5,0,1-0.4,1-1c0-0.5-0.4-1-1-1s-1,0.4-1,1C107.2,151,107.6,151.5,108.2,151.5z"/>
	<path class="st16" d="M81.5,94.6c-2.6,0.1-0.8-1.4-5.2,0.8s-11.9,6.8-16.2,18.8c-4.3,12-10.3,34.2-10.4,36
		c-0.1,1.7,0.7,1.6,1.8,1.4s23-7.1,27-9.6c3.9-2.4,13.5-8.5,16.5-15.1c3-6.6,5.2-14.9,4.7-17.7C99.3,106.5,81.5,94.6,81.5,94.6
		L81.5,94.6z"/>
	<path class="st17" d="M83,97.8c-1.5,0.2-0.5-0.7-2.9,0.7c-2.4,1.4-6.6,4.3-8.6,11.3c-2,7-4.5,19.9-4.5,20.9c0,1,0.5,0.9,1.1,0.7
		s12.9-4.9,15.1-6.4c2.2-1.5,7.4-5.3,8.9-9.2c1.5-3.9,2.4-8.7,2-10.3C93.7,104,83,97.8,83,97.8L83,97.8z"/>
	<path class="st18" d="M87.5,99.7c-0.6,0.1-0.2-0.3-1.1,0.3c-0.9,0.5-2.5,1.6-3.3,4.3c-0.8,2.7-1.7,7.6-1.7,8c0,0.4,0.2,0.3,0.4,0.3
		c0.3-0.1,4.9-1.9,5.8-2.5c0.8-0.6,2.8-2,3.4-3.5c0.6-1.5,0.9-3.3,0.8-3.9S87.5,99.7,87.5,99.7L87.5,99.7z"/>
	<path class="st19" d="M60.8,62.4l1.5-2.9c3.5-6.6,8.1-12,11.1-13.4c1.9-0.9,4.3-0.8,5.6,0.3c0.6,0.5,1.2,0.9,1.4,0.9
		c0.2,0,1-1.4,1.9-3.1c2.2-4.2,4.9-8.3,7.9-12.2c-8.5,11.5-15,25.2-18.4,39.3c-0.5,2-0.9,3.7-1,3.7c-0.1,0-1.3,0.3-2.8,0.5
		c-3.1,0.5-5.6,1.5-8.6,3.4c-2.3,1.5-2.6,1.6-3.5,1c-1.2-0.8,0.2-6.6,3.3-13.7C60,64.5,60.8,62.4,60.8,62.4L60.8,62.4z M92.2,29.5
		c1.8-2.2,3.8-4.4,5.8-6.3c0.8-0.8,1.6-1.5,2.4-2.2C97.7,23.4,94.4,26.9,92.2,29.5L92.2,29.5z M105.6,16.7c4.1-2.9,8.5-5.3,13.4-7.3
		C114.5,11.3,110.3,13.6,105.6,16.7z M146.7,4L146.7,4l0.8,1.6c2.8,5.7,6,16.1,6.9,22.8c1.1,7.9,0.8,17.7-0.8,24.2
		c-0.9,4-2.1,7.9-2.7,9.3c-0.3,0.6-0.9,2.2-1.5,3.5l0,0.1l0-0.1c0.5-1.3,1.2-2.8,1.5-3.5c0.6-1.4,1.8-5.3,2.7-9.3
		c1.6-6.5,1.9-16.4,0.8-24.2c-0.9-6.7-4.1-17.1-6.9-22.8L146.7,4z M143.8,76.7c-0.9,1.5-1.8,2.9-2.6,4.3l-1.1,1.9l1.7,0.9
		c2.4,1.2,3.1,2.6,2.9,6.1c-0.2,2.9-1.4,6.4-3.3,9.6c-0.5,0.9-1,1.8-1,1.9c0,0.3-3.1,4.9-3.6,5.4c-0.2,0.2-1.4,1.5-2.6,3.1
		c-2.7,3.6-9,9.9-10.1,10.2c-1.4,0.4-1.7-0.3-1.7-4.7c0-3.9-1.1-9-2.1-10.6c-0.1-0.1-0.2-0.3-0.5-0.4
		C128.7,96.9,138.2,86,143.8,76.7L143.8,76.7z M108.7,108.3l-2.3,1.8c-1.2,0.9-2.2,1.7-2.3,1.7c-0.1,0-1.2-0.6-2.3-1.3l-2.1-1.2
		L72.2,92.7c-0.2-0.3,0.3-3.4,0.8-5.1c0.1-0.5,0.9-0.1,4.6,2c2.4,1.5,11.3,6.7,19.5,11.7L108.7,108.3L108.7,108.3z"/>
	<path class="st20" d="M96.8,101.7c-8.3-5-17.9-10.7-21.4-12.8l-6.3-3.8l0.1-1.6c0.3-4.8,2.2-13.4,4.5-20.5
		c4.9-15.2,12.9-28.9,23.3-39.7c4.2-4.3,5.6-5.4,10.9-8.9c9.7-6.2,22.6-10.4,34.2-11l5-0.1l1.3,2.5c2.9,5.9,5.7,15.4,6.7,22.3
		c1.1,7.9,0.8,17.9-0.8,24.5c-1,4-2.1,8-2.7,9.4c-0.3,0.6-1.2,2.7-2,4.6c-6.5,15.3-19.8,31-35.3,42.7c-1.1,0.9-2.1,1.6-2.2,1.5
		C112,110.8,105.2,106.7,96.8,101.7L96.8,101.7L96.8,101.7z M121,83.6c5-1.3,10.7-4.8,13.6-8.2c6.2-7.5,8.4-16.9,5.8-25.5
		c-2.7-8.9-9.1-15.6-17.8-18.5c-4.2-1.4-10.2-1.7-14.6-0.6c-5.2,1.3-8.8,3.3-12.7,7.2c-3.8,3.8-5.2,6.1-6.9,10.8
		c-1.1,3-1.2,3.7-1.2,8.1c0,5.6,0.6,8,2.7,12.5c3.4,7,9.9,12.2,17.5,14.2C111.1,84.5,117.3,84.5,121,83.6L121,83.6z"/>
	<path class="st21" d="M117.4,89.5c10.3-1.5,19-7.9,23.6-17.1c1.4-2.7,2.9-8,2.8-9.6c0-0.4-0.3,0.1-0.5,1.2
		c-0.7,2.8-2.7,7.5-4.2,9.7c-1.6,2.3-5.2,6.1-7.4,7.7c-2.4,1.7-6.9,3.9-9.8,4.7c-3.3,0.9-12,0.9-15.3,0c-8.8-2.4-16.6-9.2-19.8-17.4
		c-1.6-4.1-2.2-7.1-2.2-11.7c0-8.7,3.1-15.7,9.8-21.9c2.6-2.4,2.7-2.6,1-1.4c-2.6,1.8-6,5.2-8,8.2c-7,10.7-6.6,25,0.9,35.3
		C95.2,86.3,106.4,91,117.4,89.5L117.4,89.5L117.4,89.5z"/>
</g>
</svg>
