<svg version="1.1" id="Layer_1" xmlns="http://www.w3.org/2000/svg" x="0" y="0" viewBox="0 0 17.4 17.6" xml:space="preserve"><style/><path d="M14.2 11.2c-1 0-1.9.5-2.5 1.2L6.3 9.6c.1-.3.1-.5.1-.8 0-.3-.1-.6-.1-.9l5.4-2.8c.6.8 1.5 1.3 2.6 1.3 1.8 0 3.2-1.4 3.2-3.2C17.4 1.4 16 0 14.2 0 12.5 0 11 1.4 11 3.2c0 .3.1.6.1.8L5.7 6.8c-.6-.7-1.5-1.2-2.5-1.2C1.4 5.6 0 7 0 8.8 0 10.6 1.4 12 3.2 12c1 0 2-.5 2.6-1.3l5.4 2.8c-.1.3-.1.6-.1.9 0 1.8 1.4 3.2 3.2 3.2 1.8 0 3.2-1.4 3.2-3.2-.1-1.8-1.5-3.2-3.3-3.2zm0 0"/></svg>