<svg version="1.1" id="Layer_1" xmlns="http://www.w3.org/2000/svg" x="0" y="0" viewBox="0 0 18.9 18.9" xml:space="preserve"><style/><path d="M9.4 0C4.2 0 0 4.2 0 9.4s4.2 9.5 9.4 9.5 9.5-4.2 9.5-9.5c0-5.2-4.2-9.4-9.5-9.4zm2 14.6c-.5.2-.9.3-1.2.4-.3.1-.6.2-1 .2-.6 0-1-.1-1.4-.4-.3-.3-.5-.7-.5-1.1v-.5c0-.2.1-.4.1-.6l.6-2.2c.1-.2.1-.4.1-.6 0-.2.1-.4.1-.5 0-.3-.1-.5-.2-.6.1 0-.2-.1-.5-.1-.2 0-.3 0-.5.1-.1 0-.3.1-.4.1l.2-.7c.4-.1.8-.2 1.1-.4.4-.1.7-.2 1-.2.6 0 1 .1 1.4.4.3.3.5.6.5 1.1v.5c0 .2-.1.5-.1.6l-.7 2.3c0 .1-.1.3-.1.6 0 .2-.1.4-.1.5 0 .3.1.5.2.6.1.1.3.2.7.2.1 0 .3 0 .5-.1s.3-.1.4-.1l-.2.5zm-.1-8.7c-.3.3-.6.4-1 .4s-.7-.1-1-.4c-.3-.2-.5-.5-.5-.9s.1-.7.4-1c.3-.3.6-.4 1-.4s.7.1 1 .4c.3.3.4.6.4 1 .1.4 0 .7-.3.9zm0 0"/></svg>