<svg version="1.1" id="Layer_1" xmlns="http://www.w3.org/2000/svg" xmlns:xlink="http://www.w3.org/1999/xlink" x="0" y="0" viewBox="0 0 33 33" xml:space="preserve"><style/><defs><path id="SVGID_7_" d="M0 0h33v33H0z"/></defs><clipPath id="SVGID_1_"><use xlink:href="#SVGID_7_" overflow="visible"/></clipPath><path d="M28.2 4.8c-6.4-6.4-16.9-6.5-23.3 0-6.4 6.4-6.5 16.9 0 23.3 6.4 6.4 16.9 6.4 23.3 0 6.4-6.4 6.4-16.8 0-23.3zM16.5 27.5c-6.1 0-11-4.9-11-11 0-2 .5-3.9 1.5-5.5l-.9-1c-.1-.2-.2-.4-.1-.5.1-.2.2-.3.4-.3l5.8-1.3c.2 0 .4 0 .5.2.1.1.2.3.1.5l-1.7 5.9c-.1.2-.2.3-.4.3s-.4 0-.5-.2l-.8-.9c-.3.9-.5 1.8-.5 2.7 0 4.2 3.4 7.6 7.6 7.6 4.2 0 7.6-3.4 7.6-7.6 0-4-3.1-7.3-7.1-7.6-.3 0-.5-.2-.5-.5V6c0-.1.1-.3.2-.4.1-.1.2-.2.4-.1 2.8.1 5.5 1.3 7.4 3.4 2 2.1 3 4.8 3 7.6 0 6.1-4.9 11-11 11zm0 0" clip-path="url(#SVGID_1_)"/></svg>