<svg version="1.1" id="Layer_1" xmlns="http://www.w3.org/2000/svg" x="0" y="0" viewBox="0 0 48 37.9" xml:space="preserve"><style/><path d="M33.7 27L48 13.5l-8.9-9.4L33.7 27zm-4.9-14.4l.3.8 3.6 11.1L37 5.9l.3-1.4.3-1.3-12.7-3v.2l3.6 11.4.3.8zM23.7 1.9L23.2.4l-.1-.4-12.4 4 .5 1.4 8.9 8.9.7.7.7.7 1.5 1.5.6.6.6.6 7.3 7.3L28 14.8l-.3-.8-.5-1-3.1-9.6-.4-1.5zM9.2 5.6L0 14.9 23.1 38l2.9-2.9V35l.1-.1.6-.6.3-.3.4-.4 4.3-4.3.5-.5.1-.1L9.2 5.6zm14.9 21.9c1.3 0 2.4 1.1 2.4 2.4 0 1.3-1.1 2.4-2.4 2.4-1.3 0-2.4-1.1-2.4-2.4 0-1.3 1.1-2.4 2.4-2.4zm0 0"/></svg>