<svg version="1.1" id="Layer_1" xmlns="http://www.w3.org/2000/svg" x="0" y="0" viewBox="0 0 31.6 32.8" xml:space="preserve"><style/><path d="M23.5 28.1H.6c-.3 0-.6.3-.6.6s.3.6.6.6h22.9c.3 2 2 3.5 4.1 3.5 2.3 0 4.1-1.8 4.1-4.1s-1.8-4.1-4.1-4.1c-2.1 0-3.8 1.5-4.1 3.5zm-12-12.3H.5c-.3 0-.6.3-.6.6.1.3.4.6.7.6h10.9c.2 2.1 2 3.8 4.2 3.8s4-1.6 4.2-3.8H31c.3 0 .6-.3.6-.6s-.3-.6-.6-.6H19.9c-.3-2-2.1-3.5-4.2-3.5s-3.8 1.5-4.2 3.5zM4.1 0C1.8 0 0 1.8 0 4.1s1.8 4.1 4.1 4.1c2.1 0 3.8-1.5 4.1-3.5H31c.3 0 .6-.3.6-.6s-.3-.6-.6-.6H8.2c-.3-2-2-3.5-4.1-3.5zm0 0"/></svg>