<svg version="1.1" id="Layer_1" xmlns="http://www.w3.org/2000/svg" x="0" y="0" viewBox="0 0 53 38.4" xml:space="preserve"><style/><path d="M52.2 13.5L29.5.2c-.5-.3-1.1-.3-1.6 0s-.8.8-.8 1.4v6H27c-.6.2-1.2.3-1.9.5-2.4.7-4.8 1.6-7.6 2.9-2.5 1.1-4.9 2.5-7.2 4.2-1.6 1.2-3.2 2.6-4.6 4.1C1.9 23.4-.2 29 0 34.4c0 1 .1 1.9.2 2.7.1.8.7 1.3 1.5 1.4.8 0 1.4-.5 1.5-1.3.4-2.4 1.1-4.4 2.1-6 1.2-2.1 2.8-3.8 4.7-5 1.6-1 3.3-1.8 5.3-2.4 2.2-.7 4.7-1.1 7.5-1.3 1.1-.1 2.4-.1 3.9-.1h.3v5.7c0 .6.3 1.1.8 1.4.5.3 1.1.3 1.6 0l22.8-13c.5-.3.8-.8.8-1.4 0-.8-.3-1.3-.8-1.6zm0 0"/></svg>