<svg version="1.1" id="Layer_1" xmlns="http://www.w3.org/2000/svg" x="0" y="0" viewBox="0 0 46 46" xml:space="preserve"><style/><path d="M45.5 22l-4.4-3.9 1.8-5.5c.1-.4.1-.8-.1-1.1-.2-.3-.5-.6-.9-.6l-5.7-1.2L35.1 4c-.1-.4-.3-.7-.6-.9-.3-.2-.7-.2-1.1-.1l-5.5 1.8L24 .5c-.2-.3-.6-.5-1-.5s-.8.2-1 .5l-3.9 4.4L12.6 3c-.4-.1-.8-.1-1.1.1-.3.2-.6.5-.6.9L9.7 9.7 4 10.9c-.4.1-.7.3-.9.6-.2.3-.2.7-.1 1.1l1.8 5.5L.5 22c-.3.3-.5.6-.5 1s.2.8.5 1l4.4 3.9L3 33.4c-.1.4-.1.8.1 1.1.2.3.5.6.9.6l5.7 1.2 1.2 5.7c.1.4.3.7.6.9.3.2.7.2 1.1.1l5.5-1.8 3.9 4.4c.3.3.6.5 1 .5s.8-.2 1-.5l3.9-4.4 5.5 1.8c.4.1.8.1 1.1-.1.3-.2.6-.5.6-.9l1.2-5.7 5.7-1.2c.4-.1.7-.3.9-.6.2-.3.2-.7.1-1.1l-1.8-5.5 4.4-3.9c.3-.3.5-.6.5-1-.1-.4-.3-.7-.6-1zm-11.6 6.4h-.1c-.6 0-1.1-.3-1.3-.9l-.7-1.8-.7 1.8c-.2.6-.8.9-1.4.9-.6-.1-1.1-.5-1.2-1.1l-1.3-8c-.1-.7.4-1.4 1.1-1.6.7-.1 1.4.4 1.6 1.1l.5 3 .2-.4c.2-.5.7-.9 1.3-.9.6 0 1.1.4 1.3.9l.1.4.5-2.9c.1-.7.8-1.2 1.5-1.1.7.1 1.2.8 1.1 1.5l-1.3 8c-.1.5-.6 1-1.2 1.1zM20.2 17.7h4.4c.7 0 1.3.6 1.3 1.3s-.6 1.3-1.3 1.3h-3v1.2h1c.7 0 1.3.6 1.3 1.3 0 .7-.6 1.3-1.3 1.3h-1v1.3h3c.7 0 1.3.6 1.3 1.3 0 .7-.6 1.3-1.3 1.3h-4.4c-.7 0-1.3-.6-1.3-1.3v-8c0-.4.6-1 1.3-1zm-9.3 10.7c-.7 0-1.3-.6-1.3-1.3v-8c0-.6.4-1.1 1-1.3.6-.2 1.2.1 1.5.6l2.3 3.8V19c0-.7.6-1.3 1.3-1.3.7 0 1.3.6 1.3 1.3v8c0 .6-.4 1.1-1 1.3h-.4c-.5 0-.9-.2-1.2-.7l-2.3-3.8V27c.2.8-.4 1.4-1.2 1.4zm0 0"/></svg>