<svg version="1.1" id="Layer_1" xmlns="http://www.w3.org/2000/svg" x="0" y="0" viewBox="0 0 19.8 15.8" xml:space="preserve"><style/><path d="M9.9 5.9c-1.6 0-3 1.3-3 3 0 1.6 1.3 3 3 3 1.6 0 3-1.3 3-3 0-1.6-1.4-3-3-3zM17.8 3h-2.4c-.3 0-.7-.3-.8-.6L14 .6c-.1-.3-.4-.6-.7-.6H6.5c-.3 0-.6.3-.7.6l-.7 1.8c-.1.3-.4.6-.7.6H2C.9 3 0 3.9 0 5v8.9c0 1.1.9 2 2 2h15.8c1.1 0 2-.9 2-2V5c0-1.1-.9-2-2-2zM9.9 13.9c-2.7 0-5-2.2-5-5 0-2.7 2.2-5 5-5 2.7 0 5 2.2 5 5 0 2.7-2.3 5-5 5zm7.2-7.6c-.4 0-.7-.3-.7-.7 0-.4.3-.7.7-.7.4 0 .7.3.7.7 0 .4-.3.7-.7.7zm0 0"/></svg>