<svg version="1.1" id="Layer_1" xmlns="http://www.w3.org/2000/svg" x="0" y="0" viewBox="0 0 24 20" xml:space="preserve"><style/><path d="M21.6 0H2.4C1.1 0 0 1.1 0 2.4v15.2C0 18.9 1.1 20 2.4 20h19.2c1.3 0 2.4-1.1 2.4-2.4V2.4C24 1.1 22.9 0 21.6 0zM11.5 15.4H4.2c0-.7.1-1.3.3-1.8.2-.5.4-1 .7-1.4.3-.4.5-.8.8-1.1l.8-.8c.5-.4.9-.8 1.1-1.1.3-.2.5-.5.6-.7.1-.2.2-.4.2-.6v-.6c0-.4-.1-.8-.2-1.1-.1-.3-.3-.4-.7-.4-.2 0-.4.1-.6.2-.1.1-.2.3-.3.5-.1.2-.1.4-.1.7v.7H4.3v-.4c0-2.3 1.2-3.4 3.6-3.4.7 0 1.3.1 1.7.3.5.2.8.4 1.1.7.3.3.5.6.6 1 .1.4.2.8.2 1.2 0 .4 0 .8-.1 1.1-.1.3-.1.6-.3.9-.1.3-.3.5-.5.8-.2.3-.5.6-.9.9-.6.5-1 1-1.4 1.4-.4.4-.7.7-.8 1h4v2zm7.3-.7c-.6.6-1.5.9-2.8.9-1.2 0-2.1-.3-2.7-.8-.6-.5-.9-1.3-.9-2.3v-.4H15v.9c0 .2.1.3.1.5l.3.3c.1.1.3.1.5.1.4 0 .7-.2.8-.6.1-.4.2-1 .2-1.8 0-.7-.1-1.2-.2-1.5-.2-.3-.4-.5-.8-.5-.2 0-.5.1-.6.2-.2.1-.3.4-.3.7h-2.5l.4-6.1h6.4v2.1H15l-.1 2.1c.1-.1.2-.3.3-.4.1-.1.3-.2.5-.3.2-.1.3-.1.5-.2.2 0 .4-.1.6-.1 1 0 1.8.3 2.3.9.5.6.7 1.6.7 3-.1 1.6-.4 2.7-1 3.3zm0 0"/></svg>