<svg version="1.1" id="Layer_1" xmlns="http://www.w3.org/2000/svg" xmlns:xlink="http://www.w3.org/1999/xlink" x="0" y="0" viewBox="0 0 40.1 53.2" xml:space="preserve"><style/><defs><path id="SVGID_3_" d="M0 0h40.1v53.2H0z"/></defs><clipPath id="SVGID_1_"><use xlink:href="#SVGID_3_" overflow="visible"/></clipPath><path d="M14.4 18.1c.5-.2.9-.4 1.4-.6l.9 5.5c0 .3.2.5.5.6.2.1.5.1.7-.1l17.5-14c.2-.2.3-.4.3-.7 0-.3-.2-.5-.5-.6L14.3.1c-.3-.1-.5-.1-.7.1-.2.2-.3.4-.3.7l.9 6c-.2.1-.4.2-.5.4-.7.5-1.4 1-2.3 1.7-1.4 1-2.7 2.3-4.1 4C6.1 14.5 5 16.1 4 17.7c-1.6 2.9-2.8 6-3.5 9.4-.2 1.3-.5 2.7-.5 4.1 0 .4.2.7.6.7H1c.2-.1.4-.2.5-.4C2 30.2 2.7 29 3.3 28c.9-1.5 2-2.9 3.3-4.3 2.2-2.4 5-4.4 7.8-5.6zm0 0" clip-path="url(#SVGID_1_)"/><path d="M39.5 21.1h-.4c-.2.1-.4.2-.5.4-.5 1.3-1.2 2.5-1.8 3.5-.9 1.5-2 2.9-3.3 4.3-2.3 2.5-5 4.4-7.9 5.7-.5.2-.9.4-1.4.6l-.9-5.5c0-.3-.2-.5-.5-.6-.2-.1-.5-.1-.7.1l-17.5 14c-.2.2-.3.4-.3.7 0 .3.2.5.5.6l21 8.1c.2.1.5.1.7-.1.2-.2.3-.4.3-.7l-.9-6c.2-.1.4-.2.5-.4.7-.5 1.4-1 2.3-1.7 1.4-1.1 2.7-2.4 4.1-4.1 1.2-1.5 2.3-3.1 3.3-4.8 1.6-2.9 2.8-6 3.5-9.4.2-1.2.5-2.7.5-4.1 0-.2-.3-.5-.6-.6zm0 0"/></svg>