<svg xmlns="http://www.w3.org/2000/svg" viewBox="0 0 25 48.3"><path d="M4 35.6C3.2 31 2.5 28.1 2 26c-2.8 3.4-2 10.3-2 10.3h4.1c.1-.3 0-.5-.1-.7zm16.8.7h4.1s.9-6.9-2-10.3c-.5 2.1-1.1 5-2 9.6 0 .2 0 .4-.1.7zm0 0" fill="#43a14c"/><path d="M16.6 38.3l-.6 1.5c-.6 1.3-1.4 2.5-2.3 3.7-.4.5-.7 1-1.1 1.4 0-.1-.1-.1-.1-.2-.9-1.1-1.8-2.3-2.6-3.5-.4-.6-.7-1.2-1-1.9-.2-.4-.3-.8-.5-1.2h-.5c-.2.8-.2 1.7-.1 2.6.2 1.2.6 2.4 1.2 3.6.6 1.2 1.4 2.4 2.3 3.4l.4.4c.2.1.4.2.7.3.2 0 .5 0 .7-.1.2-.1.3-.2.5-.4.9-.9 1.6-1.9 2.2-3 1.1-2 1.8-4.4 1.3-6.7h-.4s-.1 0-.1.1zm0 0" fill="#ffda46"/><path d="M12.5 0c-.3 0-.6.1-.9.4-2.7 2.8-9 10.1-9 17.3 0 3.3.3 4.6 1 7.7.5 2.2 1.2 5.2 2.1 10.3.1.6.6 1 1.2 1h11c.3 0 .6-.1.9-.4.2-.2.3-.4.3-.6.9-5.1 1.6-8.1 2.1-10.3.7-3 1-4.4 1-7.7 0-7.2-6.3-14.5-9-17.3 0-.3-.4-.4-.7-.4zm4 16.8c0 2.2-1.8 4-4 4s-4-1.8-4-4 1.8-4 4-4c2.2-.1 4 1.7 4 4zm0 0" fill="#69c362"/></svg>