<svg version="1.1" id="Layer_1" xmlns="http://www.w3.org/2000/svg" x="0" y="0" viewBox="0 0 24 24" xml:space="preserve"><style/><path d="M24 12c0-3.2-1.2-6.2-3.5-8.5S15.2 0 12 0c-1.9 0-3.9.5-5.6 1.4-1 .5-1.9 1.2-2.7 1.9V0H1.9v6.6h6.6V4.7H5c1.9-1.8 4.4-2.8 7-2.8 5.6 0 10.1 4.5 10.1 10.1v.9l1.9.2V12h-.9.9zM4.1 18.4l-1.5 1.2c.4.5.9 1 1.4 1.5l1.2-1.4c-.3-.5-.7-.9-1.1-1.3zm-1.7-3L.7 16c.2.6.5 1.3.8 1.9l1.6-.9c-.2-.6-.5-1.1-.7-1.6zM1.9 12H0c0 .7.1 1.4.2 2l1.8-.3c-.1-.5-.1-1.1-.1-1.7zm3.8 10.2c.6.4 1.2.7 1.8.9l.7-1.7c-.5-.2-1-.5-1.5-.8l-1 1.6zm15.5-6l1.7.8c.3-.6.5-1.3.7-1.9l-1.8-.5c-.2.6-.3 1.1-.6 1.6zm-4.7 4.9l.8 1.7c.6-.3 1.2-.7 1.7-1.1l-1-1.5-1.5.9zm2.8-2l1.3 1.3c.5-.5.9-1 1.3-1.6l-1.5-1.1c-.4.5-.7.9-1.1 1.4zm-6 3l.2 1.9c.7-.1 1.3-.2 2-.4l-.5-1.8c-.6.1-1.2.2-1.7.3zm-3.9 1.6c.7.1 1.3.2 2 .3l.1-1.9c-.6 0-1.1-.1-1.7-.2l-.4 1.8z"/></svg>