<svg xmlns="http://www.w3.org/2000/svg" xmlns:xlink="http://www.w3.org/1999/xlink" viewBox="0 0 35.9 34.4"><defs><path id="a" d="M0 0h35.8v34.4H0z"/></defs><clipPath id="b"><use xlink:href="#a" overflow="visible"/></clipPath><path d="M8.4 6.5l14.3-3.9-.8-1.5c-.5-1-1.7-1.4-2.7-.9L6.4 6.5h2zm18.7-3.7c-.2 0-.4 0-.5.1l-3.4.9L13 6.5h16.7L29 4.2c-.2-.9-1-1.4-1.9-1.4zM31.7 8H2c-.6 0-1.2.2-1.6.7-.1.2-.3.5-.3.7-.1.2-.1.4-.1.6v22.4c0 1.1.9 2 2 2h29.7c1.1 0 2-.9 2-2v-5.6H21.8c-1.9 0-3.4-1.5-3.4-3.4v-4.5c0-.9.4-1.8 1-2.4.5-.5 1.2-.9 2-1h12.3V10c.1-1.1-.8-2-2-2zm0 0" clip-path="url(#b)"/><path d="M35.2 17.4c-.2-.2-.4-.3-.7-.4-.2-.1-.4-.1-.7-.1h-12c-1.1 0-2 .9-2 2v4.5c0 1.1.9 2 2 2h12c.2 0 .4 0 .7-.1.3-.1.5-.2.7-.4.4-.4.7-.9.7-1.5v-4.5c-.1-.6-.3-1.2-.7-1.5zM26 21.5c0 .6-.5 1-1 1h-.7c-.6 0-1-.5-1-1v-.7c0-.3.1-.6.4-.8.2-.1.4-.2.6-.2h.7c.6 0 1 .5 1 1v.7zm0 0"/></svg>