<svg version="1.1" id="Layer_1" xmlns="http://www.w3.org/2000/svg" x="0" y="0" viewBox="0 0 29.6 23.3" xml:space="preserve"><style/><path d="M17.5 15.8c1.8-.8 3.2-1.8 4.2-3.1s1.6-2.7 1.6-4.3-.5-2.9-1.6-4.3c-1-1.3-2.5-2.3-4.2-3.1-1.8-.6-3.8-1-5.9-1-2.1 0-4 .4-5.8 1.1-1.8.8-3.2 1.8-4.2 3.1C.5 5.5 0 6.9 0 8.5c0 1.3.4 2.5 1.2 3.7.8 1.1 1.8 2.1 3.2 2.9-.1.3-.2.5-.3.7-.1.2-.3.4-.4.6-.2.2-.3.4-.4.5-.1.1-.2.3-.4.5l-.4.4-.1.1c0 .1-.1.1-.1.1l-.1.1c0 .1-.1.1-.1.1v.4c0 .1.1.3.2.3.1.1.2.1.3.1h.1c.6-.1 1-.2 1.4-.3 1.7-.4 3.2-1.1 4.6-2.1 1 .2 2 .3 2.9.3 2.1 0 4.1-.3 5.9-1.1zm-9.3-1.4l-.7.5c-.3.2-.7.4-1 .6l.6-1.4-1.6-.9C4.4 12.6 3.6 11.9 3 11c-.6-.8-.9-1.7-.9-2.6 0-1.1.4-2.2 1.3-3.2s2-1.8 3.5-2.3c1.5-.6 3-.9 4.7-.9 1.7 0 3.3.3 4.7.9 1.5.6 2.6 1.4 3.5 2.3.9 1 1.3 2 1.3 3.2s-.4 2.2-1.3 3.2-2 1.8-3.5 2.3c-1.5.6-3 .9-4.7.9-.8 0-1.7-.1-2.5-.2l-.9-.2zm0 0"/><path d="M28.5 16.4c.8-1.2 1.2-2.4 1.2-3.7 0-1.4-.4-2.6-1.2-3.8-.8-1.2-2-2.2-3.4-2.9.3.8.4 1.7.4 2.5 0 1.5-.4 2.9-1.1 4.2-.7 1.3-1.8 2.5-3.2 3.5-1.3.9-2.7 1.6-4.4 2.1-1.6.5-3.3.7-5.1.7-.3 0-.8 0-1.5-.1 2.2 1.5 4.8 2.2 7.8 2.2.9 0 1.9-.1 2.9-.3 1.4 1 2.9 1.7 4.6 2.1.4.1.9.2 1.4.3.1 0 .3 0 .4-.1.1-.1.2-.2.2-.4v-.4s0-.1-.1-.1c0 0 0-.1-.1-.1l-.1-.1-.1-.1-.4-.4c-.2-.2-.3-.4-.4-.5-.1-.1-.2-.3-.4-.5s-.3-.4-.4-.6c-.1-.2-.2-.5-.3-.7 1.4-.7 2.5-1.6 3.3-2.8zm0 0"/></svg>