<svg xmlns="http://www.w3.org/2000/svg" xmlns:xlink="http://www.w3.org/1999/xlink" viewBox="0 0 25 25"><path d="M4.8 20h18.3c.1 0 .2-.1.2-.2v-1.7c0-.1-.1-.2-.2-.2H7.8c-.6 0-1-.5-1-1v-15c0-.1-.1-.2-.2-.2H4.8c-.1 0-.2.1-.2.2v17.9c0 .1.1.2.2.2zm0 0"/><path d="M7.8 6.7H17c.6 0 1 .5 1 1v9.2c0 .1.1.2.2.2h1.7c.1 0 .2-.1.2-.2V5c0-.2-.2-.4-.4-.4H7.8c-.1 0-.2.1-.2.2v1.7c-.1.1 0 .2.2.2zm-5.9 0h1.9V4.6H1.9c-.1 0-.2.1-.2.2v1.7c0 .1.1.2.2.2zm17.9 16.6c.1 0 .2-.1.2-.2v-2.3h-2v2.3c0 .1.1.2.2.2h1.6zM.5 25c.1 0 .2 0 .3-.1l.6-.6c.2-.2.2-.4 0-.6-.2-.2-.4-.2-.6 0l-.6.6c-.2.1-.2.3-.1.4 0 .2.2.3.4.3zM21.6 3.8c.1 0 .2 0 .3-.1l1.2-1.2c.1-.1.2-.3.1-.4 0-.1-.2-.3-.3-.3-.1 0-.3 0-.4.1l-1.2 1.2c-.1.1-.2.3-.1.5.1.1.3.2.4.2zm0 0"/><path d="M12.9 11.6l-1.2 1.2c-.1.1-.2.3-.1.4 0 .1.2.3.3.3.1 0 .3 0 .4-.1l1.2-1.2c.2-.2.2-.4 0-.6-.2-.2-.5-.2-.6 0zm-9.7 9.7L2 22.5c-.1.1-.2.3-.1.4 0 .1.2.3.3.3.1 0 .3 0 .4-.1l1.2-1.2c.2-.2.2-.4 0-.6-.2-.2-.5-.2-.6 0zM15.3 9.2l-1.2 1.2c-.2.2-.2.4 0 .6.2.2.4.2.6 0l1.2-1.2c.2-.2.2-.4 0-.6-.2-.2-.5-.2-.6 0zm0 0"/><defs><path id="a" d="M0 0h25v25H0z"/></defs><clipPath id="b"><use xlink:href="#a" overflow="visible"/></clipPath><path d="M10.4 14l-1.2 1.2c-.1.1-.2.3-.1.4 0 .1.2.3.3.3.1 0 .3 0 .4-.1l1.2-1.2c.2-.2.2-.4 0-.6-.1-.1-.4-.1-.6 0zM24.3.1l-.6.6c-.1.1-.2.3-.1.4 0 .1.2.3.3.3.1 0 .3 0 .4-.1l.6-.6c.2-.2.2-.4 0-.6-.1-.1-.4-.1-.6 0zm0 0" clip-path="url(#b)"/></svg>