<svg version="1.1" id="Layer_1" xmlns="http://www.w3.org/2000/svg" x="0" y="0" viewBox="0 0 28.2 32" xml:space="preserve"><style/><path d="M21.6 7.5h1.9c.5 0 .9-.4.9-.9s-.4-1-.9-1h-1.9c-.5 0-.9.4-.9.9s.4 1 .9 1zm-9.3-4.3c.2.5.8.7 1.3.4.4-.2.6-.7.4-1.2L13.1.5c-.2-.5-.8-.7-1.3-.4-.5.2-.7.8-.4 1.3l.9 1.8zm6.1.5c.5.2 1 0 1.3-.4l.9-1.9c.2-.5 0-1-.4-1.3-.5-.2-1 0-1.3.4L18 2.4c-.3.5-.1 1 .4 1.3zM8.5 7.5h1.9c.5 0 .9-.4.9-.9s-.4-.9-.9-.9H8.5c-.5 0-.9.4-.9.9s.3.9.9.9zm-3.8 7.6H.9c-.5 0-.9.4-.9.9v15c0 .6.4 1 .9 1h3.8c.5 0 .9-.4.9-.9V16c0-.5-.4-.9-.9-.9zm23.5 2.5c-.2-1.5-1.5-2.5-3-2.5h-7.3c.6-1.1 1-4.3.9-5.6 0-2.1-1.8-3.8-3.9-3.8h-.8c-.5 0-.9.4-.9.9 0 2.2-.8 6.1-2.4 7.7-1.1 1.1-2 1.5-3.2 2.1v14.1c1.8.6 4.2 1.5 7.7 1.5h6.1c2 0 3.6-1.9 2.8-3.9 1.2-.3 2.1-1.4 2.1-2.7 0-.4-.1-.7-.2-1 2-.5 2.8-3 1.4-4.6.5-.6.8-1.4.7-2.2z"/></svg>