<svg version="1.1" id="Layer_1" xmlns="http://www.w3.org/2000/svg" x="0" y="0" viewBox="0 0 19.6 15.9" xml:space="preserve"><style/><path d="M19.6 1.9c-.7.3-1.5.5-2.3.6.8-.5 1.4-1.3 1.7-2.2-.8.5-1.6.8-2.6 1C15.8.5 14.7 0 13.6 0c-2.2 0-4 1.8-4 4 0 .3 0 .6.1.9C6.3 4.8 3.3 3.2 1.4.7 1 1.3.8 2 .8 2.8c0 1.4.7 2.6 1.8 3.3-.7 0-1.3-.2-1.8-.5C.8 7.5 2.2 9.2 4 9.5c-.3.2-.7.2-1 .2-.3 0-.5 0-.8-.1.5 1.6 2 2.8 3.8 2.8-1.4 1.1-3.1 1.7-5 1.7-.3 0-.6 0-1-.1 1.8 1.1 3.9 1.8 6.2 1.8 7.4 0 11.4-6.1 11.4-11.4v-.5c.8-.5 1.4-1.2 2-2zm0 0"/></svg>