<svg version="1.1" id="Layer_1" xmlns="http://www.w3.org/2000/svg" x="0" y="0" viewBox="0 0 34 34" xml:space="preserve"><style/><path d="M15.3 16.3c0 .6-.5 1-1.2 1h-.6v-1.9c.1 0 .3-.1.7-.1.6 0 1.1.3 1.1 1zM34 17c0 1.3-.5 2.6-1.4 3.5l-2.1 2.1v3c0 2.7-2.2 4.9-4.9 4.9h-3l-2.1 2.1c-.9.9-2.2 1.4-3.5 1.4-1.3 0-2.6-.5-3.5-1.5l-2.1-2.1h-3C7.2 30.5 5.9 30 5 29c-.9-.9-1.4-2.2-1.4-3.5v-3l-2.1-2.1C.5 19.6 0 18.3 0 17c0-1.3.5-2.6 1.4-3.5l2.1-2.1v-3c0-2.7 2.2-4.9 4.9-4.9h3l2.1-2.1C14.4.5 15.7 0 17 0c1.3 0 2.6.5 3.5 1.4l2.1 2.1h3c1.2 0 2.5.5 3.4 1.5.9.9 1.4 2.2 1.4 3.5v3l2.1 2.1c1 .8 1.5 2.1 1.5 3.4zm-23.3-2.8H6.4v6.9H8v-2.8h2.5V17H8v-1.6h2.7v-1.2zm6.4 6.9c-.1-.3-.4-1.2-.6-2-.2-.6-.4-1.1-.9-1.3.6-.2 1.2-.8 1.2-1.7 0-.6-.2-1.1-.6-1.5-.5-.4-1.2-.5-2.2-.5-.8 0-1.6.1-2.1.1V21h1.6v-2.7h.5c.6 0 .9.2 1.1 1.1.2.9.4 1.4.5 1.6h1.5zm5.3-1.3h-2.9v-1.6h2.6v-1.3h-2.6v-1.4h2.7v-1.3h-4.3v6.9h4.4v-1.3zm5.5 0H25v-1.6h2.6v-1.3H25v-1.4h2.7v-1.3h-4.3v6.9h4.4v-1.3zm0 0"/></svg>