<svg version="1.1" id="Layer_1" xmlns="http://www.w3.org/2000/svg" xmlns:xlink="http://www.w3.org/1999/xlink" x="0" y="0" viewBox="0 0 16.6 16.2" xml:space="preserve"><style/><defs><path id="SVGID_2_" d="M0 0h16.6v16.2H0z"/></defs><clipPath id="SVGID_1_"><use xlink:href="#SVGID_2_" overflow="visible"/></clipPath><path d="M8.3.1C3.7.1 0 3.4 0 7.5c0 1.4.5 2.8 1.3 4-.2 1.8-.6 3.1-1.2 3.8-.1.1-.1.3-.1.4 0 .1.1.2.2.2s2.7-.4 4.6-1.5c1.2.4 2.3.6 3.5.6 4.6 0 8.3-3.3 8.3-7.5 0-4.1-3.7-7.4-8.3-7.4zM4.4 8.7c-.6 0-1.1-.5-1.1-1.1 0-.6.5-1.1 1.1-1.1.6 0 1.1.5 1.1 1.1 0 .6-.5 1.1-1.1 1.1zm3.9 0c-.6 0-1.1-.5-1.1-1.1 0-.6.5-1.1 1.1-1.1.6 0 1.1.5 1.1 1.1 0 .6-.5 1.1-1.1 1.1zm3.9 0c-.6 0-1.1-.5-1.1-1.1 0-.6.5-1.1 1.1-1.1.6 0 1.1.5 1.1 1.1 0 .6-.5 1.1-1.1 1.1zm0 0" clip-path="url(#SVGID_1_)"/></svg>