<svg version="1.1" id="Layer_1" xmlns="http://www.w3.org/2000/svg" xmlns:xlink="http://www.w3.org/1999/xlink" x="0" y="0" viewBox="0 0 25.4 14.5" xml:space="preserve"><style/><defs><path id="SVGID_11_" d="M0 0h25.4v14.5H0z"/></defs><clipPath id="SVGID_1_"><use xlink:href="#SVGID_11_" overflow="visible"/></clipPath><path d="M25.1 13c0-.1-.1-.1-.1-.2-.4-.8-1.3-1.8-2.5-2.9-.6-.5-.9-.9-1.1-1.1-.3-.4-.3-.7-.2-1.1.1-.3.5-.8 1.2-1.7.4-.5.6-.8.9-1.1 1.5-2 2.2-3.3 2-3.9l-.1-.1c-.1-.1-.2-.2-.4-.2-.2-.1-.5-.1-.8 0h-4.5l-.1.1c-.1.1-.1.1-.1.2-.4 1.1-.9 2-1.4 3-.3.5-.6 1-.9 1.4-.3.4-.5.7-.7.9-.2.2-.4.3-.5.5-.2.2-.3.2-.4.2-.1 0-.2 0-.2-.1l-.3-.3c-.1-.1-.1-.3-.2-.5v-5c0-.1-.1-.3-.1-.4l-.3-.3c-.1-.1-.3-.1-.4-.2-.5-.1-1.1-.2-1.8-.2-1.6 0-2.6.1-3.1.3-.2.1-.4.2-.5.4-.2.2-.2.3-.1.3.6.1.9.3 1.1.6l.1.2c.1.1.1.3.2.6s.1.6.1 1V5c0 .5-.1.8-.1 1.1 0 .3-.1.5-.2.6-.1.1-.1.2-.1.2s0 .1-.1.1-.2.1-.4.1c-.1 0-.2-.1-.4-.2-.2-.2-.4-.3-.5-.5-.2-.3-.4-.6-.7-.9-.2-.4-.5-.9-.7-1.4l-.2-.4c-.2-.2-.3-.6-.6-1.1-.2-.4-.4-.9-.6-1.3 0-.2-.1-.3-.3-.4h-.1S4.8.8 4.7.8 4.5.7 4.4.7H.8C.4.7.2.8.1.9L0 1v.2c0 .1 0 .2.1.4C.6 2.8 1.2 4 1.8 5.1 2.4 6.2 3 7.2 3.4 7.9c.5.7.9 1.4 1.4 2 .5.6.8 1 .9 1.2l.4.4.3.3c.2.2.5.5.9.8.4.3.9.6 1.4.9.5.3 1.1.5 1.7.7.7.2 1.3.3 1.9.2h1.5c.3 0 .5-.1.7-.3l.1-.1c0-.1.1-.1.1-.2v-.4c0-.4 0-.7.1-1 .1-.3.1-.5.2-.7.1-.2.2-.3.3-.4l.2-.2h.1c.2-.1.5 0 .7.2.3.2.6.5.8.8.2.3.5.6.9 1s.7.7.9.8l.3.2c.2.1.4.2.7.3.3.1.5.1.7.1l3.4-.1c.3 0 .6-.1.8-.2.2-.1.3-.2.3-.4V13zm0 0" clip-path="url(#SVGID_1_)"/></svg>